<?xml version="1.0" encoding="utf-8"?>
<!-- Generator: Adobe Illustrator 26.5.0, SVG Export Plug-In . SVG Version: 6.00 Build 0)  -->
<svg version="1.1" xmlns="http://www.w3.org/2000/svg" xmlns:xlink="http://www.w3.org/1999/xlink" x="0px" y="0px"
	 viewBox="0 0 100 100" style="enable-background:new 0 0 100 100;" xml:space="preserve">
<style type="text/css">
	.st0{fill:#05CCC0;}
	.st1{fill:#106D6A;}
	.st2{fill:#FFFFFF;}
	.st3{fill:#F5F4F5;}
	.st4{fill:#E0DDE1;}
</style>
<g id="Layer_2">
	<g id="Layer_2_00000124147986899870748040000009013127560201801124_">
		<path class="st0" d="M50,11.9c10.3-0.2,19.2,3.7,26.9,10.3c12.8,11,19.4,25.3,22.5,41.7c1.1,6.2,0.2,11.8-3.7,16.9
			c-3.9,5.1-9.8,7.1-15.8,5c-11.7-4.1-23.7-5.7-35.9-5c-7.9,0.5-15.8,1.8-23.1,4.8c-9,3.7-18.1-3-20.4-11.9c-1.3-5-0.3-9.8,0.9-14.7
			c3.1-13,8.8-24.6,18.4-34.1c7-7,15.4-11.4,25.2-12.9C46.6,11.7,48.3,11.9,50,11.9z"/>
	</g>
</g>
<g id="Layer_1">
	<g id="Layer_3">
	</g>
	<g>
		<g>
			<path class="st1" d="M72.7,99.1l-39.5,0c-3.5,0-5.5-1.9-5.5-5.5l0-0.4c0-0.2,0-0.5,0-0.7c-0.1-2.3,0.9-3.9,2.8-4.9l0-1.2
				c0-2.2,0-4.5,0-6.7c0,0-0.1-0.1-0.1-0.1c-0.1-0.1-0.1-0.2-0.2-0.3l-0.5-0.8c-0.5-0.8-0.9-1.7-1.4-2.5c-0.2-0.3-0.3-0.4-0.4-0.5
				c-2.7-1-5.3-2-7.5-3.8c-4.7-3.8-7-8.8-7.1-14.9c-0.1-5.4-0.1-10.5,0-15.5c0.1-10.5,8.5-18.7,19-18.8l8,0l-1.4-3.3
				c-0.8-1.9-0.6-3.7,0.5-5.5c0,0,0,0,0,0c0,0,0-0.1,0-0.1c-0.4-1-0.8-2-1.3-3c-0.3-0.6-0.5-1.2-0.8-1.8c-1-2.5-0.1-4.7,2.3-5.8
				c0.9-0.4,1.8-0.8,2.7-1.2l1.4-0.7h2.1l0.2,0.1c1.5,0.5,2.6,1.6,3.2,3.4C49.8,6,50.4,7.4,51,8.7c2.2,0.3,3.7,1.5,4.6,3.6
				c1,2.4,2,4.7,3,7.1c2.1,4.8,4.1,9.6,6.1,14.5c0.2,0.5,0.3,0.5,0.5,0.5l0.1,0c0.6,0,1.2-0.1,1.8-0.1c0.7,0,1.4,0,2.1,0l0.1,0
				c2.6,0.1,4.4,1.9,4.4,4.5c0,0.7,0,1.4,0,2.1c0,2.6-1.5,4.3-3.9,4.6c0,0,0.6,2,0.8,2.8c0.9,3.2-0.3,5.3-3.5,6.3
				c-0.6,0.2-1.2,0.3-1.7,0.5c-0.4,0.1-0.9,0.2-1.3,0.2c-2,0-3.6-1.2-4.2-3.2c-0.4-1.4-0.9-2.9-1.3-4.3c0,0-0.8,2.7-1.1,3.9
				c-0.7,2.3-2.2,3.6-4.3,3.6c-0.5,0-1.1-0.1-1.6-0.2c-0.6-0.2-1.3-0.4-1.9-0.6c-2.5-0.8-3.8-3.1-3.1-5.6c0.3-1,0.6-2,0.9-3l0.1-0.3
				c-2.7-0.4-3.9-2-3.9-5l0-0.5c0-0.4,0-0.7,0-1.1c0-0.9,0.2-1.7,0.7-2.5c-1.3-0.2-2.5-0.7-3.6-1.6c0,0-3.6,0-5.2,0l-3.3,0
				c-3.9,0-6.7,2.7-6.8,6.6c0,0.8,0,1.7,0,2.5c0,0.7,0,1.3,0,2c0,1.6-1,2.6-2.3,2.7c0,0,0,0,0,0c-0.7,0-1.3-0.2-1.7-0.7
				c-0.5-0.5-0.7-1.2-0.7-1.9c0-0.6,0-1.2,0-1.9c0-1.8,0-3.6,0.4-5.4c1-5,5.5-8.6,10.8-8.7c0.9,0,1.8,0,2.7,0l3.4,0
				C38,29.6,38,29.2,38,28.7c0-0.5,0-0.9,0.1-1.3l-1,0c-0.4,0-0.9,0-1.3,0c-0.6,0-1.3,0-1.9,0c-1.6,0-3,0-4.5,0.3
				c-6.5,1.2-10.9,6.3-11.2,12.8c-0.3,6.1-0.3,12,0,17.6c0.4,5.8,3.5,9.8,9.3,12.1c0.1,0.1,0.3,0.1,0.4,0.1l0.9-2.5
				c-0.2-0.1-0.5-0.2-0.7-0.3c-4.6-1.9-7-5.3-7.3-10.2c-0.1-1.2-0.1-2.4,0-3.6l0-0.7c0-1.6,1-2.6,2.4-2.6c1.1,0,2.4,0.7,2.4,2.6
				c0,0.5,0,1.1,0,1.6c0,1.1,0,2.2,0.1,3.3c0.3,2.2,1.5,3.9,3.7,5c0.8,0.4,1.6,0.7,2.5,0.9l0.4,0.1c1.8-1.2,3.7-1.8,5.7-1.8
				c1.3,0,2.7,0.3,4.1,0.8c1.6-2.5,4-3.8,7-3.8c0.2,0,0.5,0,0.8,0c1.1-2.6,2.3-3.2,5.4-3.2h19.3c1.8,0,3.1,0.4,3.9,1.3
				c0.9,0.9,1.3,2.2,1.3,4v0.3c0,0.7,0,1.5-0.1,2.2c-0.4,2-2.1,3.5-4.1,3.5c-1.1,0-2.3,0-3.4,0c-1.3,0-2.7,0-4,0
				c-0.7,0-1.4-0.3-1.8-0.7c-0.4-0.5-0.7-1.1-0.6-1.7c0-1.4,1.1-2.3,2.5-2.3c1.2,0,2.4,0,3.6,0c1,0,2.1,0,3.1,0c0,0,0.1,0,0.1,0
				c0,0,0-0.1,0-0.1c0-0.3,0-0.6,0-0.8c0-0.3,0-0.6,0-0.8c-0.1,0-0.2,0-0.3,0l-1.2,0c0,0-18.9,0-19,0c0,0.1,0,0.2,0,0.2
				c0,0.3,0,0.6,0,0.9c0,0.2,0,0.4,0,0.6c0.1,0,5.1,0,5.1,0c0.5,0,1.1,0,1.6,0c1.6,0,2.6,0.9,2.7,2.3c0,0.6-0.2,1.2-0.6,1.7
				c-0.5,0.5-1.2,0.8-2.1,0.8c-0.9,0-6.5,0-6.5,0c-2.6,0-4.1-1-4.8-3.3c-0.2,0-0.4,0-0.6,0c-1.5,0-2.5,0.6-3.2,1.8
				c1.8,2.1,2.6,4.6,2.5,7.5l25.4,0c3.8,0,5.9,2.1,5.9,6v8.4c2.7,1.9,3.6,5.1,2.5,8.3c-0.7,1.9-2.4,3.2-4.5,3.2c-0.7,0-1.4,0-2.1,0
				L72.7,99.1z M32.6,94.2c0.1,0,0.3,0,0.7,0h42.8c0.7,0,1.4,0,1.7-0.1c0.1-0.3,0.1-1,0.1-1.6c0-0.3,0-0.5,0-0.6c-0.1,0-0.3,0-0.6,0
				H34.1c-0.6,0-1.3,0-1.5,0.1c-0.1,0.3-0.1,0.9,0,1.5C32.5,93.9,32.6,94.1,32.6,94.2z M75.1,87.1v-1.5c0-2.2,0-4.4,0-6.6
				c0-0.9,0-1-1-1l-8.6,0c-6.1,0-12.2,0-18.3,0c-0.2,0-0.2,0-0.2,0c0,0,0,0-0.1,0.1c-2.2,3.2-5,4.7-8.6,4.7c-0.6,0-1.2,0-1.8-0.1
				c-0.4-0.1-0.8-0.1-1.1-0.2v4.5H75.1z M38.2,66.9c-3,0-5.6,2.6-5.6,5.6c0,3,2.6,5.6,5.6,5.6c3.1,0,5.6-2.6,5.6-5.6
				C43.8,69.5,41.3,67,38.2,66.9v-1V66.9z M52.4,50.2c0.2,0.1,0.5,0.1,0.7,0.2c0.1-0.2,0.1-0.4,0.2-0.6c0.1-0.2,0.1-0.5,0.2-0.8
				c0.3-1.1,0.6-2.1,0.9-3.2l0.1-0.2h-1.7c0,0-1.2,4.2-1.2,4.3C51.6,50,52.4,50.2,52.4,50.2z M63.4,46.1c0.4,1.4,0.8,2.8,1.2,4.1
				c0,0.1,0,0.1,0.1,0.2c0.1,0,1.6-0.5,1.6-0.5L65,45.6h-1.7L63.4,46.1z M69.1,40.8c0-0.2,0-0.4,0-0.6c0,0,0-0.9,0-1.1
				c-0.1,0-10.9,0-10.9,0c-2.8,0-5.5,0-8.3,0c0,0-1.3,0-1.4,0c0,0.2,0,0.4,0,0.5c0,0.3,0,0.5,0,0.9c0,0.1,0,0.1,0,0.2
				c0.1,0,15.7,0,15.7,0l3.7,0C67.9,40.8,69.1,40.8,69.1,40.8z M51.3,34.3c1.8,0,3.7,0,5.5,0l3,0c-1.3-3.1-4.4-10.4-4.4-10.4
				c-1.4-3.2-2.8-6.5-4.2-9.7c-0.1-0.3-0.3-0.7-0.6-0.7c-0.1,0-0.2,0-0.3,0.1c-2.2,0.9-4.4,1.8-6.8,2.9c-0.4,0.2-0.4,0.4-0.3,0.7
				c0.4,1,0.8,2,1.3,3.1l0.3,0.6c0.3,0,0.6,0,0.9,0c3.5,0,6,1.7,7.3,4.8C54,27.9,54.4,31.1,51.3,34.3z M45.8,25.7
				c-1.7,0-3,1.3-3.1,3c0,1.7,1.3,3.1,2.9,3.1c0,0,0,0,0,0c1.8,0,3.1-1.3,3.2-3c0-0.8-0.3-1.6-0.9-2.2C47.5,26,46.7,25.7,45.8,25.7
				v-1V25.7z M42,7.4c0.5,1.2,1,2.3,1.5,3.5l0.1,0.3l2.8-1.2c0,0-1.1-2.6-1.6-3.8c-0.4,0.2-0.9,0.4-1.3,0.5C43,7,42.5,7.2,42,7.4z"
				/>
			<path class="st2" d="M45.8,2.3c1.4,0.5,2.1,1.5,2.6,2.8c0.5,1.4,1.1,2.8,1.8,4.1c0.1,0.2,0.4,0.5,0.7,0.6c1.9,0.2,3.2,1.2,3.9,3
				c3.1,7.2,6.1,14.3,9.2,21.5c0.3,0.8,0.7,1.1,1.4,1.1c0.1,0,0.1,0,0.2,0c0.6,0,1.2-0.1,1.8-0.1c0.7,0,1.5,0,2.2,0
				c2,0.1,3.4,1.5,3.5,3.5c0,0.7,0,1.4,0,2.1c0,2.2-1.3,3.6-3.6,3.7c-0.2,0-0.4,0-0.6,0.1c0.4,1.4,0.8,2.7,1.1,4
				c0.8,2.6-0.1,4.3-2.8,5c-0.6,0.2-1.1,0.3-1.7,0.5c-0.4,0.1-0.7,0.1-1,0.1c-1.5,0-2.7-0.9-3.2-2.5c-0.7-2.2-1.3-4.5-2-6.7
				c0-0.1-0.1-0.3-0.2-0.7c-0.2,0.5-0.3,0.8-0.4,1c-0.6,2-1.1,4-1.7,6c-0.5,1.9-1.7,2.8-3.4,2.8c-0.4,0-0.9-0.1-1.4-0.2
				c-0.6-0.2-1.3-0.4-1.9-0.6c-2-0.6-3-2.4-2.4-4.4c0.4-1.5,0.8-2.9,1.2-4.4c-0.1-0.1-0.2-0.1-0.3-0.1c-2.8-0.1-3.9-1.3-3.9-4.1
				c0-0.5,0-1.1,0-1.6c0-1.4,0.7-2.5,2.1-3.3c-0.3,0-0.5,0-0.8,0c-1.8,0-3.3-0.5-4.7-1.6c-0.2-0.1-0.4-0.1-0.6-0.1
				c-0.1,0-0.2,0-0.2,0c0,0,0,0,0,0c-1.6,0-3.2,0-4.8,0c-1.1,0-2.2,0-3.4,0c-4.5,0-7.7,3.2-7.8,7.6c0,1.5,0,3,0,4.5
				c0,1-0.5,1.6-1.4,1.7c0,0,0,0,0,0c-0.8,0-1.4-0.6-1.4-1.6c0.1-2.4-0.1-4.8,0.4-7.1c0.9-4.6,5.1-7.8,9.8-7.9c0.9,0,1.8,0,2.7,0
				c1.5,0,3,0,4.5,0c-0.1-0.8-0.2-1.6-0.3-2.3c0-0.7,0.1-1.5,0.2-2.3c-0.7,0-1.4,0-2.2,0c-0.4,0-0.9,0-1.3,0
				c-2.2,0.1-4.4-0.1-6.5,0.3c-6.8,1.3-11.6,6.7-12,13.8c-0.3,5.9-0.3,11.8,0,17.7c0.4,6.4,4,10.7,10,13c0.5,0.2,1,0.3,1.4,0.5
				c0.5-1.5,1-2.9,1.6-4.4c-0.5-0.2-1.1-0.4-1.6-0.6c-4.2-1.7-6.4-4.9-6.7-9.4c-0.1-1.4,0-2.8,0-4.2c0-1,0.6-1.6,1.4-1.6
				c0,0,0,0,0,0c0.9,0,1.4,0.6,1.4,1.6c0,1.7-0.1,3.3,0.1,4.9c0.3,2.7,1.8,4.6,4.2,5.8c1,0.5,2,0.8,3.1,1.1c0.1,0,0.2,0,0.3,0
				c0.2,0,0.4,0,0.5-0.1c1.7-1.1,3.5-1.7,5.3-1.7c1.5,0,3,0.4,4.5,1.1c1.5-2.8,3.7-4.1,6.6-4.1c0.5,0,0.9,0,1.4,0.1
				c1.1-2.8,1.8-3.3,4.7-3.3c3.7,0,7.4,0,11.2,0c2.7,0,5.4,0,8.2,0c3,0,4.3,1.3,4.2,4.3c0,0.8,0,1.6-0.1,2.3
				c-0.3,1.5-1.6,2.7-3.2,2.7c-1.1,0-2.3,0-3.4,0c-1.3,0-2.7,0-4,0c-0.9,0-1.5-0.6-1.5-1.4c0-0.8,0.6-1.3,1.5-1.3c1.2,0,2.4,0,3.6,0
				c1,0,2.1,0,3.1,0c0,0,0,0,0.1,0c0.8,0,1.1-0.3,1.1-1.2c0-2.4,0.2-2.6-1.3-2.6c-0.3,0-0.7,0-1.2,0c0,0,0,0,0,0c-2.7,0-5.4,0-8.2,0
				c-3.5,0-7,0-10.5,0c-1.2,0-1.3,0.1-1.3,1.3c0,2.3-0.2,2.4,1.2,2.4c0.3,0,0.6,0,1,0c0.1,0,0.1,0,0.2,0c0.4,0,0.9,0,1.3,0
				c0.8,0,1.6,0,2.4,0c0.5,0,1.1,0,1.6,0c1,0,1.7,0.5,1.7,1.4c0,0.9-0.6,1.4-1.7,1.4c-0.9,0-1.9,0-2.8,0c-1.2,0-2.4,0-3.7,0
				c-2.4,0-3.5-0.9-4.1-3.2c-0.5-0.1-1-0.1-1.4-0.1c-1.9,0-3.5,0.8-4.4,3c2.1,2.2,3,5,2.6,8.3c0.4,0,0.7,0,1.1,0c4.8,0,9.6,0,14.4,0
				c3.7,0,7.3,0,11,0c3.3,0,4.9,1.7,4.9,5c0,3,0,6,0,9c2.7,1.6,3.6,4.4,2.5,7.4c-0.6,1.5-1.9,2.5-3.6,2.5c-0.7,0-1.4,0-2.1,0
				c-1,0-2,0-3.1,0c0,0,0,0,0,0c-7.1,0-14.1,0-21.2,0c-6.1,0-12.2,0-18.3,0c-3,0-4.5-1.5-4.5-4.5c0-0.4,0-0.7,0-1.1
				c0-2,0.8-3.5,2.8-4.2c0-2.9,0-5.8,0-8.7c0-0.3-0.2-0.5-0.4-0.8c-0.6-1.1-1.3-2.3-1.9-3.4c-0.2-0.4-0.5-0.7-0.9-0.9
				c-2.6-0.9-5.1-1.9-7.2-3.6c-4.4-3.7-6.7-8.4-6.7-14.1c0-5.1-0.1-10.3,0-15.4c0.1-10,8-17.8,18-17.8c0.6,0,1.1,0,1.7,0
				c1.2,0,2.5,0,3.7,0c1,0,2,0,2.9,0c1,0,1.1-0.1,0.7-1.1c-0.5-1.2-1-2.4-1.5-3.6c-0.7-1.6-0.5-3.1,0.4-4.5c0.2-0.2,0.2-0.7,0.1-1
				c-0.6-1.6-1.4-3.2-2-4.8c-0.8-2-0.1-3.6,1.8-4.5c1.3-0.6,2.6-1.2,3.9-1.8C44.6,2.3,45.2,2.3,45.8,2.3 M43,12.5
				c1.6-0.7,3-1.3,4.6-2c-0.7-1.7-1.4-3.3-2.1-5c-0.1-0.3-0.3-0.5-0.5-0.5c-0.1,0-0.2,0-0.4,0.1c-1.1,0.5-2.2,0.9-3.3,1.5
				c-0.2,0.1-0.5,0.6-0.4,0.8C41.6,9.1,42.3,10.8,43,12.5 M44.2,22c0.5-0.1,1-0.1,1.5-0.1c2.9,0,5.2,1.3,6.4,4.2
				c1.5,3.4,0.3,6.2-2.7,8.6c0.3,0.3,0.6,0.6,0.9,0.6c2.2,0,4.3,0,6.5,0c1.5,0,3,0,4.4,0c-0.2-0.4-0.3-0.8-0.4-1.1
				c-1.4-3.2-2.7-6.4-4.1-9.6c-1.5-3.6-3.1-7.2-4.6-10.8c-0.4-0.8-0.9-1.3-1.5-1.3c-0.2,0-0.4,0-0.7,0.1c-2.3,0.9-4.5,1.9-6.8,2.9
				c-0.9,0.4-1.2,1.2-0.8,2C42.9,19,43.6,20.5,44.2,22 M45.8,32.8c2.3,0,4.1-1.7,4.1-4c0-2.3-1.7-4.1-4-4.1c0,0,0,0,0,0
				c-2.2,0-4,1.7-4.1,4C41.7,30.9,43.5,32.7,45.8,32.8C45.7,32.8,45.8,32.8,45.8,32.8 M53.2,41.8c1.8,0,3.5,0,5.3,0
				c0.1,0,0.2,0,0.3,0c1.8,0,3.6,0,5.4,0c1.2,0,2.4,0,3.5,0c0,0,0.1,0,0.1,0c0.4,0,0.7,0,1,0c1.4,0,1.2-0.2,1.2-2.3
				c0-1.3,0-1.3-1.3-1.3c-3.6,0-7.1,0-10.7,0c-2.7,0-5.4,0-8.1,0c0,0,0,0-0.1,0c-0.5,0-0.8,0-1.1,0c-1.4,0-1.1,0.2-1.2,2.4
				c0,1.2,0,1.2,1.2,1.2C50.3,41.8,51.8,41.8,53.2,41.8 M64.3,51.5c0.2,0,0.4-0.1,0.8-0.2c0.5-0.1,1-0.3,1.5-0.4
				c0.5-0.2,0.8-0.5,0.6-1c-0.5-1.7-1-3.4-1.5-5.2c-1.2,0-2.4,0-3.8,0c0.6,2,1.1,3.9,1.7,5.9C63.8,51.2,63.9,51.5,64.3,51.5
				 M55.8,44.6c-1.3,0-2.5,0-3.8,0c-0.5,1.6-0.9,3.2-1.4,4.8c-0.3,1.1-0.3,1.2,0.8,1.5c1,0.3,1.6,0.5,2,0.5c0.6,0,0.6-0.5,1.1-2.1
				C54.9,47.8,55.3,46.2,55.8,44.6 M38.2,79.2c3.6,0,6.6-3,6.6-6.6c0-3.6-2.9-6.6-6.6-6.7c0,0-0.1,0-0.1,0c-3.6,0-6.6,3-6.6,6.6
				C31.5,76.1,34.5,79.1,38.2,79.2C38.2,79.2,38.2,79.2,38.2,79.2 M38.3,81.9c-0.5,0-1.1,0-1.7-0.1c-0.8-0.1-1.5-0.4-2.3-0.5
				c0,2.3,0,4.6,0,6.8c13.9,0,27.7,0,41.7,0c0-3.1,0-6.1,0-9.1c0-1.5-0.5-2-2-2c-9,0-17.9,0-26.9,0c0,0,0,0,0,0
				c-0.5,0-0.8,0.1-1.1,0.6C44.2,80.5,41.6,81.9,38.3,81.9 M55.5,90.9c-0.1,0-0.2,0-0.3,0c-7,0-14.1,0-21.1,0c-2.6,0-2.6,0-2.6,2.6
				c0,1.5,0.2,1.8,1.8,1.8c8.6,0,17.1,0,25.7,0c5.7,0,11.4,0,17.1,0c2.7,0,2.7,0,2.7-2.7c0-1.4-0.3-1.6-1.6-1.6c-3.6,0-7.2,0-10.8,0
				C62.8,90.9,59.2,90.9,55.5,90.9 M46.1,0.3h-0.3h-1.7h-0.4l-0.4,0.2L42,1c-0.9,0.4-1.8,0.8-2.7,1.2c-3,1.3-4.1,4.1-2.9,7.1
				c0.2,0.6,0.5,1.2,0.8,1.8c0.4,0.9,0.7,1.7,1.1,2.6c-1.1,1.9-1.2,3.9-0.3,6c0.3,0.6,0.5,1.2,0.8,1.8c0,0,0,0,0,0
				c-0.4,0-0.7,0-1.1,0l-1.9,0l-1.9,0l-1.7,0c-11.1,0-19.9,8.7-20,19.7c-0.1,5-0.1,10,0,15.5c0.1,6.3,2.6,11.6,7.5,15.6
				c2.3,1.9,4.9,2.9,7.6,3.9c0,0,0,0.1,0.1,0.1c0.5,0.8,0.9,1.6,1.4,2.5l0.5,0.8c0,0.1,0.1,0.2,0.1,0.2c0,2.1,0,4.3,0,6.4l0,0.6
				c-1.9,1.2-2.9,3.1-2.8,5.5c0,0.2,0,0.5,0,0.7l0,0.4c0,4,2.4,6.5,6.5,6.5l18.3,0l15.1,0l6,0l1.5,0l1.5,0c0.7,0,1.4,0,2.1,0
				c2.4,0,4.6-1.5,5.4-3.8c1.3-3.5,0.3-6.9-2.4-9.1l0-1.7l0-6.2c0-4.4-2.5-7-6.9-7l-11,0l-7.2,0l-6.2,0c-0.1-2.4-0.8-4.6-2.2-6.5
				c0.5-0.5,1.1-0.8,1.9-0.8c1,2.2,2.8,3.3,5.5,3.3l1.6,0l2,0c0.9,0,1.9,0,2.8,0c1.1,0,2.1-0.4,2.8-1.1c0.4-0.4,0.7-0.9,0.8-1.4
				c0.1,0.5,0.4,1,0.8,1.4c0.6,0.7,1.5,1,2.5,1c1.3,0,2.7,0,4,0c1.3,0,2.4,0,3.5,0c2.5-0.1,4.6-1.8,5.1-4.3c0.2-0.8,0.2-1.7,0.2-2.4
				l0-0.3c0-2.1-0.5-3.6-1.6-4.7c-1.1-1.1-2.6-1.6-4.7-1.6l-5.4,0c1-0.5,1.7-1.2,2.2-2.1c0.7-1.3,0.8-2.9,0.3-4.7
				c-0.2-0.6-0.3-1.2-0.5-1.8c2.3-0.7,3.7-2.7,3.7-5.3c0-0.7,0-1.4,0-2.1c-0.1-3.1-2.3-5.4-5.4-5.5l-0.1,0c-0.7,0-1.4,0-2.1,0
				c-0.6,0-1.1,0-1.6,0c-2-4.8-4.1-9.7-6.1-14.4c-1-2.3-2-4.7-3-7c-0.9-2.2-2.6-3.6-4.9-4.1c-0.5-1.2-1-2.3-1.5-3.5
				c-0.7-2-2-3.3-3.8-4L46.1,0.3L46.1,0.3z M43.3,8c0.2-0.1,0.4-0.2,0.6-0.2c0.1,0,0.2-0.1,0.4-0.2c0.3,0.6,0.5,1.3,0.8,1.9
				l-0.7,0.3l-0.2,0.1C43.8,9.3,43.5,8.6,43.3,8L43.3,8z M44.4,17.2c2.1-0.9,4.1-1.8,6-2.5c1.4,3.3,2.8,6.5,4.2,9.8l0.4,1
				c1.1,2.6,2.3,5.3,3.4,7.9l-1.5,0c-1.1,0-2.2,0-3.4,0c1.9-3,1.5-5.9,0.6-8.1c-1.5-3.5-4.4-5.4-8.2-5.4c-0.1,0-0.2,0-0.2,0
				C45.1,19,44.7,18.1,44.4,17.2L44.4,17.2z M45.8,30.8L45.8,30.8c-1.2,0-2-0.9-2-2.1c0-1.1,0.9-2,2.1-2c0.6,0,1.1,0.2,1.5,0.6
				c0.4,0.4,0.6,0.9,0.6,1.5C47.9,29.9,47,30.8,45.8,30.8L45.8,30.8z M27.4,69c-5.1-2.2-7.8-5.9-8.1-11c-0.3-5.5-0.4-11.4,0-17.4
				c0.3-6.1,4.4-10.8,10.4-11.9c1.3-0.3,2.8-0.3,4.3-0.3c0.7,0,1.3,0,1.9,0c0.4,0,0.8,0,1.2,0c0,0.1,0,0.2,0,0.4c0,0.1,0,0.2,0,0.3
				c-0.8,0-1.5,0-2.3,0c-0.9,0-1.8,0-2.7,0c-5.8,0.1-10.7,4.1-11.8,9.5c-0.4,1.9-0.4,3.7-0.4,5.6c0,0.6,0,1.2,0,1.8c0,1,0.3,2,1,2.7
				c0.4,0.4,0.9,0.7,1.5,0.9c-1.5,0.4-2.5,1.7-2.5,3.5l0,0.7c0,1.2,0,2.4,0,3.6c0.3,5.2,3,9,7.8,11L27.4,69L27.4,69z M24.1,49.5
				c1.5-0.4,2.5-1.7,2.5-3.5c0-0.7,0-1.3,0-2c0-0.8,0-1.7,0-2.5c0.1-3.4,2.4-5.6,5.8-5.7c1.1,0,2.2,0,3.4,0c1.6,0,3.2,0,4.8,0l0.1,0
				c0.8,0.6,1.6,1,2.5,1.3c-0.2,0.6-0.3,1.2-0.3,1.8c0,0.3,0,0.7,0,1l0,0.5c0,3.1,1.2,5,3.7,5.8c-0.2,0.8-0.4,1.6-0.7,2.3
				c-0.8,3.1,0.7,5.9,3.7,6.8c0.5,0.2,1,0.3,1.6,0.5c-0.7,0.5-1.3,1.2-1.8,2.3c0,0-0.1,0-0.1,0c-3.1,0-5.6,1.2-7.4,3.6
				c-1.3-0.4-2.5-0.6-3.7-0.6c-2,0-4,0.6-5.9,1.7c-0.8-0.3-1.6-0.5-2.3-0.9c-1.9-0.9-2.9-2.3-3.1-4.2c-0.1-1-0.1-2-0.1-3.1
				c0-0.5,0-1.1,0-1.6C26.6,51,25.4,49.9,24.1,49.5L24.1,49.5z M57,54.9c0.8-0.7,1.4-1.7,1.7-2.9c0.1-0.2,0.1-0.4,0.2-0.6
				c0.1,0.3,0.2,0.7,0.3,1c0.3,1,0.9,1.9,1.6,2.5L57,54.9L57,54.9z M62.9,61.7l2.5,0c0.5,0,0.9,0,1.4,0c-0.9,0.4-1.6,1.2-1.9,2.2
				C64.6,62.9,63.9,62.1,62.9,61.7L62.9,61.7z M38.2,79.2l0-2c-2.5,0-4.6-2.1-4.6-4.6c0-2.5,2.1-4.6,4.6-4.6l0.1,0
				c2.5,0,4.6,2.1,4.6,4.7c0,2.5-2.1,4.6-4.6,4.6V79.2L38.2,79.2z M38.3,83.9c3.7,0,6.9-1.7,9.2-4.9c5.9,0,11.8,0,17.6,0l8.9,0
				c0,2.1,0,4.2,0,6.3l0,0.7H36.4v-2.3C37.1,83.9,37.7,83.9,38.3,83.9L38.3,83.9z M33.5,92.9c0.2,0,0.4,0,0.6,0h21.1h0.3l5.5,0
				l5.5,0l10.4,0c0,0.1,0,0.2,0,0.3c-0.2,0-0.5,0-0.7,0l-8.6,0H59l-25.5,0C33.5,93.1,33.5,93,33.5,92.9L33.5,92.9z"/>
		</g>
		<path class="st3" d="M76.1,88.1c-13.9,0-27.8,0-41.7,0c0-2.2,0-4.5,0-6.8c0.7,0.2,1.5,0.4,2.3,0.5c4,0.6,7.2-0.9,9.4-4.2
			c0.3-0.5,0.6-0.6,1.1-0.6c9,0,17.9,0,26.9,0c1.5,0,2,0.5,2,2C76.1,82,76.1,85,76.1,88.1z"/>
		<path class="st3" d="M55.2,90.9c7.3,0,14.7,0,22,0c1.4,0,1.6,0.3,1.6,1.6c0,2.7,0,2.7-2.7,2.7c-14.3,0-28.6,0-42.8,0
			c-1.5,0-1.8-0.2-1.8-1.8c0-2.6,0-2.6,2.6-2.6C41.2,90.9,48.2,90.9,55.2,90.9z"/>
		<path class="st3" d="M61.3,35.3c-3.7,0-7.3,0-10.9,0c-0.3,0-0.6-0.4-0.9-0.6c3-2.4,4.1-5.2,2.7-8.6c-1.5-3.4-4.3-4.6-7.9-4.1
			c-0.6-1.5-1.3-2.9-1.8-4.4c-0.3-0.9,0-1.6,0.8-2c2.2-1,4.5-2,6.8-2.9c1-0.4,1.7,0,2.2,1.2c1.5,3.6,3.1,7.2,4.6,10.8
			c1.4,3.2,2.7,6.4,4.1,9.6C61,34.6,61.1,34.9,61.3,35.3z"/>
		<path class="st4" d="M44.8,72.6c0,3.6-3,6.6-6.6,6.6c-3.6,0-6.6-3-6.6-6.6c0-3.6,3.1-6.7,6.7-6.6C41.9,66,44.8,69,44.8,72.6z"/>
		<path class="st3" d="M58.8,41.8c-3.3,0-6.7,0-10,0c-1.2,0-1.2-0.1-1.2-1.2c0-2.7-0.4-2.4,2.4-2.4c6.3,0,12.6,0,18.8,0
			c1.3,0,1.3,0,1.3,1.3c0,2.6,0.3,2.3-2.3,2.3C64.8,41.8,61.8,41.8,58.8,41.8z"/>
		<path class="st4" d="M41.8,28.6c0-2.2,1.8-4,4.1-4c2.3,0,4.1,1.8,4,4.1c0,2.3-1.9,4-4.2,4C43.5,32.7,41.7,30.9,41.8,28.6z"/>
		<path class="st4" d="M47.6,10.6c-1.6,0.7-3.1,1.3-4.6,2c-0.7-1.7-1.5-3.4-2.1-5.1c-0.1-0.2,0.2-0.7,0.4-0.8
			c1.1-0.5,2.2-0.9,3.3-1.5c0.5-0.3,0.7,0,0.9,0.4C46.2,7.2,46.9,8.9,47.6,10.6z"/>
		<path class="st4" d="M61.9,44.6c1.4,0,2.6,0,3.8,0c0.5,1.7,1,3.5,1.5,5.2c0.2,0.6-0.1,0.9-0.6,1c-0.5,0.1-1,0.3-1.5,0.4
			c-1.1,0.3-1.2,0.3-1.5-0.8C63,48.6,62.5,46.6,61.9,44.6z"/>
		<path class="st4" d="M52,44.6c1.3,0,2.5,0,3.8,0c-0.5,1.6-0.9,3.2-1.4,4.7c-0.8,2.6-0.4,2.4-3,1.6c-1.1-0.3-1.1-0.4-0.8-1.5
			C51.1,47.8,51.5,46.2,52,44.6z"/>
	</g>
</g>
</svg>
