<?xml version="1.0" encoding="utf-8"?>
<!-- Generator: Adobe Illustrator 26.5.0, SVG Export Plug-In . SVG Version: 6.00 Build 0)  -->
<svg version="1.1" xmlns="http://www.w3.org/2000/svg" xmlns:xlink="http://www.w3.org/1999/xlink" x="0px" y="0px"
	 viewBox="0 0 100 100" style="enable-background:new 0 0 100 100;" xml:space="preserve">
<style type="text/css">
	.st0{fill:#05CCC0;}
	.st1{fill:#106D6A;}
	.st2{fill:#FFFFFF;}
	.st3{fill:#F5F4F5;}
	.st4{fill:#E0DDE1;}
	.st5{fill:#9BD4A5;}
	.st6{fill:#FCFCFC;}
</style>
<g id="Layer_2">
	<path class="st0" d="M50.2,14c10.3-0.2,19.2,3.7,26.9,10.3c12.8,11,19.4,25.3,22.5,41.7c1.1,6.2,0.2,11.8-3.7,16.9
		c-3.9,5.1-9.8,7.1-15.8,5c-11.7-4.1-23.7-5.7-35.9-5c-7.9,0.5-15.8,1.8-23.1,4.8c-9,3.7-18.1-3-20.4-11.9c-1.3-5-0.3-9.8,0.9-14.7
		C4.7,48.1,10.4,36.5,20,27c7-7,15.4-11.4,25.2-12.9C46.8,13.8,48.5,14,50.2,14z"/>
</g>
<g id="Layer_3">
</g>
<g id="Layer_1">
	<g>
		<path class="st1" d="M31.7,96.9c-0.9,0-1.9-0.2-2.9-0.6c-4.3-1.7-7.4-4.8-9.2-9.4c-1.6-4.2-1.9-8.5-2-12.2c-0.1-3.1,0-6.3,0.1-9.9
			c0.2-4.4-0.6-8.2-2.4-11.6c-1.4-2.6-2.8-5.7-3.2-9.4c-0.8-8.6,1.1-15.3,5.9-20.4c3.7-4,8.4-6,13.8-6c0.4,0,0.9,0,1.3,0
			c1.9,0.1,3.8,0.8,5.9,2.3c0.4,0.2,0.7,0.5,1.1,0.8c0.9,0.6,1.8,1.2,2.7,1.8c1,0.6,2,0.9,3,0.9c1,0,2-0.3,3.1-1l0.2-0.1
			c0.7-0.5,1.4-0.9,2.1-1.4c0.1-0.1,0.2-0.3,0.3-0.4C53.2,12.2,58,6.7,65.9,4.1c0.4-0.1,0.8-0.2,1.1-0.2c1.3,0,1.9,1.1,2.1,1.5
			c0.1,0.1,0.1,0.3,0.1,0.4c0.1,1.4-0.6,2.3-2.1,2.8c-6.6,2.1-10.9,7.8-11.3,14.8c-0.4,6.4,3.2,12.3,9.1,15.2
			c2.3,1.1,4.6,1.7,6.8,1.7c0.8,0,1.6-0.1,2.4-0.2c0,0,0.1,0,0.1,0c0.1,0,0.3,0,0.3,0c0.1,0,0.2,0,0.2,0c6.6-1.4,10.9-5.2,12.7-11.3
			c1.9-6.3,0.4-11.9-4.5-16.6c-2.5-2.4-5.5-3.8-8.9-4.1C74,8,74,8,73.9,8c-0.1,0-0.4-0.1-0.6-0.1c-0.7-0.1-1.6-0.2-2.3-1.2
			c-0.1-0.1-0.1-0.2-0.1-0.4l-0.1-0.7c0-0.2,0-0.5,0.1-0.7l0.8-1.2c0.2-0.3,0.5-0.5,0.8-0.5h1.8c0.1,0,0.2,0,0.2,0l2.1,0.5
			c8.6,2,15.2,9.4,16,17.9c1,9.2-4,17.9-12.4,21.6C80,43.3,80,43.4,80,43.7c-0.4,3.2-1.2,5.9-2.5,8.2c-1.9,3.4-2.9,7.3-2.9,12
			c0,1.3,0,2.6,0,3.9c0,2.7,0,5.4-0.1,8.1c-0.1,4.7-0.8,8.4-2.2,11.6c-1.6,3.9-4.3,6.7-8.1,8.5c-1.1,0.5-2.3,0.8-3.5,0.9
			c-0.1,0-0.3,0-0.4,0c-2.6,0-4.5-1.5-5.1-4c-0.4-1.4-0.6-2.9-0.9-4.3c-0.1-0.8-0.3-1.5-0.4-2.3c-0.9-4.4-1.8-8.8-3.7-12.9
			c-0.5-1.1-1.1-2.1-1.8-3c-0.5-0.6-1.3-1.3-2.3-1.3c-0.7,0-1.5,0.3-2.3,1c-1,0.8-1.7,2-2.4,3.6c-0.6,1.6-1.7,1.9-2.5,1.9
			c-0.2,0-0.4,0-0.6-0.1c-0.2,0-0.3-0.1-0.4-0.2c-1.3-1-1.5-1.8-0.9-3.4c1-2.5,2.4-4.4,4.1-5.9c0,0,0.1-0.1,0.1-0.1
			c0,0,0.4-0.2,0.5-0.3c1.4-0.9,2.9-1.3,4.3-1.3c2,0,3.9,0.9,5.4,2.6c1,1.1,1.9,2.4,2.7,4c1.9,3.8,2.8,8,3.7,11.9
			c0.3,1.4,0.6,2.9,0.8,4.4c0.2,1.2,0.4,2.4,0.7,3.6c0,0.2,0.3,0.5,0.5,0.9c0.1,0.1,0.2,0.2,0.2,0.4c0.1,0.1,0.3,0.1,0.4,0.1
			c0.4,0,0.9-0.2,1.4-0.4c2.7-1.2,4.7-3.2,5.9-6c1-2.4,1.6-5,1.7-7.7c0.1-3.4,0.2-7,0.2-10.4l0-2.8c0-2.9,0-5.9,0.9-8.8
			c0.7-2.2,1.6-4.3,2.5-6.2c0.6-1.4,1.4-3.2,1.8-5.1L72.2,45c0,0-0.1,0-0.2,0l-0.2,0c-0.1,0-0.2,0-0.2,0C62,44.7,54,38.3,51.7,29
			c-0.2-0.9-0.3-1.7-0.5-2.6c-1.8,1-3.6,1.6-5.4,1.6c-1.9,0-3.8-0.6-5.7-1.7c-0.9-0.5-1.7-1.1-2.6-1.7l-1-0.7
			c-1.3-0.9-2.4-1.5-3.7-1.6c-0.3,0-0.6,0-1,0c-4.4,0-8.2,1.8-11.2,5.3c-2.7,3.2-4.1,7.3-4.2,12.9c-0.1,3.5,0.9,6.9,2.8,10.5
			c2.3,4.1,3.2,8.9,3,14.5c-0.1,3.1-0.2,6.5-0.1,10c0.1,3.2,0.4,7,2,10.5c1.2,2.6,2.9,4.4,5.2,5.5c0.2,0.1,0.4,0.1,0.6,0.2
			c0.5,0.2,0.9,0.4,1.3,0.5c0.1,0,0.2,0,0.4,0c0,0,0,0,0,0c0.2,0,0.5,0,0.7-0.7c0.2-0.6,0.3-1.2,0.4-1.8c0,0,0.5-2.7,0.8-3.9
			c0.4-2.2,0.9-4.4,1.3-6.5c0.4-1.7,1.1-2.3,2.8-2.3c0.2,0,0.3,0,0.5,0.1c1.5,0.8,1.6,1.8,1.3,3.2L39,82.3c-0.3,1.5-0.7,3.1-1,4.7
			c-0.1,0.7-0.3,1.4-0.4,2.1c-0.1,0.8-0.3,1.7-0.5,2.6C36.5,95,34.5,96.9,31.7,96.9z"/>
		<path class="st2" d="M74.4,4.2c0.7,0.2,1.4,0.3,2.1,0.5c8.2,2,14.4,9,15.3,17.1c0.9,9.1-4.1,17.2-11.8,20.5
			c-0.6,0.3-0.9,0.6-1,1.3c-0.3,2.7-1,5.4-2.4,7.8c-2.2,3.9-3,8.1-3,12.4c0,4,0,8-0.1,12c-0.1,3.9-0.6,7.7-2.1,11.3
			c-1.5,3.6-4,6.3-7.6,8c-1,0.5-2.1,0.7-3.2,0.8c-0.1,0-0.2,0-0.3,0c-2.1,0-3.6-1.2-4.1-3.2c-0.6-2.2-0.8-4.4-1.3-6.6
			c-0.9-4.5-1.9-8.9-3.7-13.1c-0.5-1.1-1.2-2.2-1.9-3.2c-0.9-1.1-2-1.7-3.1-1.7c-1,0-2,0.4-2.9,1.2c-1.2,1.1-2,2.5-2.6,4
			c-0.3,0.8-0.8,1.3-1.6,1.3c-0.1,0-0.3,0-0.4,0c-0.9-0.8-1-1.1-0.6-2.2c0.9-2.1,2-4,3.8-5.5c0.2-0.1,0.4-0.2,0.5-0.3
			c1.3-0.8,2.5-1.2,3.8-1.2c1.7,0,3.3,0.7,4.7,2.2c1,1.1,1.8,2.4,2.5,3.8c1.9,3.7,2.8,7.7,3.6,11.7c0.6,2.6,0.9,5.3,1.5,8
			c0.1,0.6,0.6,1.2,1,1.8c0.4,0.2,0.7,0.3,1.1,0.3c0.6,0,1.2-0.3,1.8-0.5c3-1.3,5.1-3.5,6.4-6.5c1.1-2.6,1.7-5.3,1.8-8.1
			c0.2-4.1,0.2-8.2,0.2-12.3c0-3.2,0-6.4,0.9-9.4c0.6-2.1,1.5-4.1,2.4-6.1c1-2.1,1.8-4.3,2.1-6.7c-1.4,0.1-2.8,0.2-4.2,0.4
			c-0.1,0-0.3,0-0.4,0c-9.1-0.2-16.8-6.3-19-15.2c-0.3-1.3-0.4-2.6-0.6-3.9c0,0-0.1,0-0.1,0c0,0,0,0,0,0c-0.2,0.1-0.4,0.2-0.6,0.4
			c-1.8,1.2-3.6,1.8-5.4,1.8c-1.7,0-3.4-0.5-5.2-1.6c-1.2-0.8-2.4-1.6-3.6-2.4c-1.3-0.9-2.6-1.6-4.2-1.7c-0.3,0-0.7,0-1,0
			c-4.8,0-8.8,1.9-11.9,5.6c-3.3,3.9-4.3,8.6-4.4,13.6c-0.1,3.9,1.1,7.6,2.9,11c2.4,4.4,3.1,9.1,2.9,14c-0.1,3.3-0.2,6.7-0.1,10
			c0.1,3.7,0.5,7.4,2,10.9c1.2,2.7,3,4.8,5.7,6c0.7,0.3,1.4,0.6,2.2,0.8c0.2,0,0.4,0.1,0.6,0.1c0.8,0,1.4-0.5,1.6-1.4
			c0.2-0.8,0.4-1.6,0.5-2.3c0.7-3.3,1.3-6.7,2-10c0.3-1.3,0.6-1.5,1.8-1.5c0.9,0.5,1.1,0.9,0.8,2.2c-0.5,2.2-1,4.5-1.4,6.7
			c-0.3,1.5-0.5,3.1-0.8,4.7c-0.6,2.9-2.3,4.4-4.6,4.4c-0.8,0-1.6-0.2-2.5-0.5c-4.2-1.6-7-4.7-8.6-8.9c-1.5-3.8-1.9-7.8-1.9-11.9
			c-0.1-3.3,0-6.6,0.1-9.8c0.2-4.3-0.5-8.3-2.5-12.1c-1.5-2.8-2.8-5.7-3.1-9c-0.7-7.3,0.5-14.1,5.7-19.6c3.5-3.7,8-5.7,13.1-5.7
			c0.4,0,0.8,0,1.3,0c2,0.1,3.8,1,5.4,2.1c1.3,0.8,2.5,1.7,3.8,2.5c1.2,0.7,2.4,1.1,3.6,1.1c1.2,0,2.4-0.4,3.6-1.1
			c0.8-0.5,1.6-1,2.3-1.5c0.3-0.2,0.5-0.6,0.6-1c1.7-7.8,6.2-13,13.8-15.6c0.3-0.1,0.6-0.2,0.8-0.2c0.5,0,0.9,0.3,1.2,1
			c0.1,1-0.5,1.5-1.4,1.8c-6.9,2.2-11.6,8.2-12,15.7c-0.4,6.8,3.4,13.1,9.6,16.2c2.3,1.1,4.8,1.8,7.3,1.8c0.8,0,1.7-0.1,2.5-0.2
			c0.2,0,0.5,0,0.7,0c6.8-1.4,11.5-5.4,13.5-12c2-6.7,0.3-12.7-4.8-17.6c-2.6-2.5-5.8-4.1-9.5-4.4c-0.8-0.3-1.8,0-2.3-0.9
			c0-0.2-0.1-0.5-0.1-0.7c0.3-0.4,0.5-0.8,0.8-1.2C73.2,4.2,73.8,4.2,74.4,4.2 M74.4,2.2h-1.8c-0.7,0-1.3,0.3-1.7,0.9l-0.4,0.6
			l-0.4,0.6C70,4.5,70,4.6,69.9,4.8c-0.3-0.6-1.2-2-2.9-2c-0.4,0-0.9,0.1-1.4,0.3C57.4,5.9,52.3,11.6,50.4,20
			c-0.6,0.4-1.2,0.8-1.9,1.3l-0.2,0.1c-0.9,0.5-1.7,0.8-2.5,0.8c-0.8,0-1.6-0.3-2.5-0.8c-0.9-0.5-1.7-1.1-2.6-1.7
			c-0.4-0.3-0.7-0.5-1.1-0.8c-1.4-1-3.7-2.3-6.4-2.4c-0.5,0-0.9,0-1.4,0c-5.7,0-10.6,2.1-14.5,6.3c-5.1,5.3-7.1,12.3-6.2,21.2
			c0.4,3.8,2,7.2,3.3,9.7c1.7,3.2,2.4,6.8,2.3,11.1c-0.1,3.6-0.2,6.9-0.1,10c0.1,3.5,0.4,8.1,2.1,12.5c1.9,4.9,5.2,8.2,9.8,10
			c1.1,0.4,2.2,0.7,3.2,0.7c3.3,0,5.7-2.2,6.5-6c0.2-0.9,0.3-1.8,0.5-2.6c0.1-0.7,0.2-1.4,0.4-2.1c0.3-1.5,0.7-3.1,1-4.6
			c0.1-0.7,0.3-1.4,0.4-2.1c0.3-1.4,0.3-2.8-1.2-3.9c0.9-0.1,2.3-0.6,3.1-2.5c0.6-1.5,1.2-2.5,2.1-3.2c0.6-0.5,1.1-0.7,1.6-0.7
			c0.5,0,1,0.3,1.5,0.9c0.7,0.8,1.2,1.8,1.7,2.7c1.8,4,2.7,8.3,3.6,12.7c0.2,0.8,0.3,1.5,0.4,2.3c0.2,1.4,0.5,2.9,0.9,4.4
			c0.8,2.9,3.1,4.7,6.1,4.7c0.2,0,0.3,0,0.5,0c1.3-0.1,2.7-0.4,3.9-1c4-1.9,6.8-4.9,8.6-9c1.4-3.4,2.1-7.2,2.3-12
			c0.1-2.7,0.1-5.5,0.1-8.2c0-1.3,0-2.6,0-3.9c0-4.5,0.9-8.2,2.8-11.5c1.3-2.3,2.2-5,2.6-8.3c8.7-3.9,13.8-12.9,12.9-22.5
			C92.8,12.6,85.9,4.9,77,2.7c-0.5-0.1-1-0.2-1.4-0.3l-0.7-0.2C74.7,2.2,74.6,2.2,74.4,2.2L74.4,2.2z M71.7,39.3
			c-2.1,0-4.3-0.5-6.4-1.6c-5.5-2.7-8.8-8.3-8.5-14.3c0.4-6.6,4.4-11.9,10.6-13.9C69.2,9,69.9,7.9,70.1,7c0,0.1,0.1,0.1,0.1,0.2
			c0.9,1.4,2.3,1.6,3,1.7c0.1,0,0.3,0,0.4,0.1C73.7,9,73.9,9,74,9c3.1,0.3,5.9,1.6,8.3,3.9c4.6,4.4,6,9.7,4.2,15.6
			c-1.7,5.7-5.7,9.3-12,10.6c0,0-0.1,0-0.1,0c-0.1,0-0.2,0-0.3,0c-0.1,0-0.1,0-0.2,0C73.2,39.2,72.4,39.3,71.7,39.3L71.7,39.3z
			 M29.8,90.5c-2.1-1-3.6-2.7-4.7-5c-1.5-3.4-1.8-7-1.9-10.2c-0.1-3.4-0.1-6.8,0.1-9.9c0.2-5.8-0.8-10.7-3.1-15
			c-1.9-3.4-2.8-6.7-2.7-10c0.1-5.4,1.3-9.3,3.9-12.3c2.8-3.3,6.3-4.9,10.4-4.9c0.3,0,0.6,0,0.9,0c1.1,0.1,2.1,0.6,3.2,1.4
			c0.3,0.2,0.7,0.5,1,0.7c0.8,0.6,1.7,1.2,2.6,1.7c2,1.3,4.1,1.9,6.2,1.9c1.5,0,3.1-0.3,4.6-1c0.1,0.4,0.2,0.9,0.3,1.3
			c2.4,9.8,10.8,16.5,20.9,16.7c0.1,0,0.1,0,0.2,0l0.2,0c0,0,0.1,0,0.1,0c0.1,0,0.1,0,0.2,0l1.5-0.1c-0.4,1.3-0.9,2.6-1.4,3.6
			c-0.9,2-1.8,4.1-2.5,6.4c-0.9,3-0.9,6.1-1,9.1l0,0.9l0,2c0,3.4-0.1,6.9-0.2,10.3c-0.1,2.6-0.7,5.1-1.6,7.4
			c-1.1,2.6-2.9,4.4-5.4,5.4c-0.3,0.1-0.6,0.3-0.8,0.3c-0.1-0.2-0.3-0.4-0.3-0.5c-0.2-1.2-0.4-2.4-0.7-3.6c-0.2-1.4-0.5-2.9-0.8-4.4
			c-0.9-4-1.8-8.2-3.8-12.2c-0.8-1.6-1.8-3-2.8-4.2c-1.7-1.9-3.9-2.9-6.2-2.9c-1.6,0-3.3,0.5-4.8,1.5C41.2,64.9,41.1,65,41,65
			l-0.2,0.1c-0.1,0.1-0.2,0.1-0.3,0.2c-1.9,1.6-3.3,3.6-4.4,6.3c-0.8,1.9-0.5,3.1,0.9,4.4c-1.8,0.2-2.8,1.1-3.2,3.1
			c-0.5,2.2-0.9,4.4-1.3,6.6c-0.2,1.1-0.5,2.3-0.7,3.4l-0.1,0.4c-0.1,0.6-0.2,1.1-0.4,1.6c-0.3-0.1-0.7-0.2-1.1-0.4
			C30.2,90.6,30,90.6,29.8,90.5L29.8,90.5z"/>
	</g>
	<path class="st3" d="M74.2,41.1c-3.4,0.6-6.7,0-9.8-1.6c-6.2-3-10-9.4-9.6-16.2c0.4-7.5,5.1-13.5,12-15.7c0.9-0.3,1.5-0.7,1.4-1.8
		c0.5-0.1,0.9-0.2,1.4-0.2c0.8,0.2,1.6,0.3,2.3,0.5C72.5,7,73.4,6.8,74.2,7c0.1,0.1,0.2,0.2,0.3,0.2c3.8,1.7,6.6,4.6,8.6,8.2
		c1.9,3.5,2.4,7.2,1.9,11.1c-0.7,5-3.2,9-7.1,12.1C76.8,39.6,75.5,40.3,74.2,41.1z M68.8,23.3c-0.4-0.4-0.6-0.7-0.9-1
		c-1.9-1.8-4.7-1.9-6.4-0.1c-1.8,1.8-1.8,4.5,0.1,6.4c1,1,2.1,2.1,3.1,3.1c2.6,2.6,5.8,2.6,8.5,0c3.1-3.1,6.2-6.2,9.2-9.2
		c0.1-0.1,0.3-0.3,0.4-0.5c1.3-1.5,1.5-3.2,0.7-4.9c-0.8-1.7-2.2-2.6-4.2-2.5c-1.3,0-2.4,0.6-3.3,1.5C73.6,18.4,71.2,20.8,68.8,23.3
		z"/>
	<path class="st4" d="M41.8,66.9c-1.8,1.5-3,3.4-3.8,5.5c-0.5,1.1-0.4,1.5,0.6,2.2c-0.3,1.1-0.6,2.2-0.9,3.4c-1.1,0-1.5,0.2-1.8,1.5
		c-0.7,3.3-1.3,6.7-2,10c-0.2,0.8-0.3,1.6-0.5,2.3c-0.4,1.1-1.1,1.5-2.2,1.3c-0.7-0.2-1.4-0.5-2.2-0.8c0.2-0.4,0.5-0.9,0.6-1.3
		c0.7-3.4,1.3-6.8,2-10.2c0.7-3.4,1.5-6.8,3.2-9.9C36.2,68.5,38.5,66.3,41.8,66.9z"/>
	<path class="st5" d="M71.9,6.1c-0.8-0.2-1.6-0.3-2.3-0.5c0.7-0.1,1.5-0.2,2.2-0.2C71.9,5.6,71.9,5.9,71.9,6.1z"/>
	<path class="st3" d="M41.8,66.9c-3.4-0.5-5.7,1.6-7,4.1c-1.7,3.1-2.5,6.5-3.2,9.9c-0.7,3.4-1.3,6.8-2,10.2
		c-0.1,0.5-0.4,0.9-0.6,1.3c-2.7-1.3-4.5-3.3-5.7-6c-1.5-3.5-1.9-7.2-2-10.9c-0.1-3.3-0.1-6.7,0.1-10c0.2-4.9-0.5-9.6-2.9-14
		c-1.9-3.4-3-7.1-2.9-11c0.1-5,1.1-9.7,4.4-13.6c3.4-3.9,7.7-5.9,13-5.6c1.6,0.1,3,0.9,4.2,1.7c1.2,0.8,2.3,1.6,3.6,2.4
		c3.6,2.2,7.1,2.1,10.6-0.2c0.2-0.1,0.4-0.2,0.6-0.4c0,0,0.1,0,0.1,0c0.2,1.3,0.3,2.6,0.6,3.9c2.2,8.9,9.9,15,19,15.2
		c0.1,0,0.3,0,0.4,0c0,0.4,0,0.7-0.1,1.1c-0.5,2.6-1.6,5-2.8,7.4c-1.5,3-2.2,6.3-2.3,9.6c-0.2,5.6-0.2,11.1-0.4,16.7
		c-0.1,3-0.8,5.9-2.1,8.7c-1.1,2.3-2.7,4.1-4.9,5.4c-0.3-0.6-0.9-1.2-1-1.8c-0.5-2.6-0.9-5.3-1.5-8c-0.9-4-1.8-8-3.6-11.7
		c-0.7-1.3-1.5-2.6-2.5-3.8c-2.4-2.6-5.5-2.9-8.5-1.1C42.2,66.7,42,66.8,41.8,66.9z M20.8,40.8c0,0.4,0,1.1,0.1,1.9
		c0.1,1,0.8,1.5,1.6,1.4c0.8-0.1,1.2-0.8,1.1-1.8c-0.2-2.2-0.1-4.3,0.6-6.3c1.2-3.5,3.7-5.7,7.2-6.9c1-0.3,1.4-1,1.1-1.8
		c-0.3-0.7-1-1-1.9-0.7c-0.1,0-0.3,0.1-0.4,0.1C24.3,28.7,20.8,33.9,20.8,40.8z M21.9,48c0,0.4,0.1,0.8,0.1,1.1
		c0.1,0.4,0.1,0.8,0.2,1.1c0.2,0.8,0.7,1.1,1.5,1.1c0.7-0.1,1.2-0.7,1.1-1.5c-0.1-0.7-0.2-1.5-0.3-2.2c-0.2-0.8-0.7-1.2-1.5-1.1
		C22.3,46.7,21.8,47.2,21.9,48z"/>
	<path class="st4" d="M59.5,92.8c2.2-1.3,3.8-3.2,4.9-5.4c1.3-2.7,2-5.6,2.1-8.7c0.2-5.6,0.2-11.1,0.4-16.7c0.1-3.4,0.7-6.6,2.3-9.6
		c1.2-2.4,2.3-4.8,2.8-7.4c0.1-0.3,0.1-0.7,0.1-1.1c1.4-0.1,2.7-0.2,4.2-0.4c-0.3,2.3-1.1,4.5-2.1,6.7c-0.9,2-1.8,4-2.4,6.1
		c-0.9,3.1-0.9,6.2-0.9,9.4c0,4.1-0.1,8.2-0.2,12.3c-0.1,2.8-0.7,5.5-1.8,8.1c-1.3,3-3.4,5.2-6.4,6.5C61.4,93.1,60.5,93.5,59.5,92.8
		z"/>
	<path class="st4" d="M74.2,41.1c1.2-0.8,2.6-1.4,3.7-2.3c3.9-3.1,6.4-7.1,7.1-12.1c0.5-3.9,0-7.6-1.9-11.1c-2-3.7-4.8-6.5-8.6-8.2
		c-0.1,0-0.2-0.1-0.3-0.2c3.7,0.4,6.8,1.9,9.5,4.4c5.1,4.9,6.8,10.8,4.8,17.6c-2,6.6-6.7,10.6-13.5,12C74.7,41.1,74.5,41,74.2,41.1z
		"/>
	<path class="st0" d="M68.8,23.3c2.5-2.5,4.8-4.8,7.2-7.2c0.9-0.9,2-1.5,3.3-1.5c1.9,0,3.4,0.8,4.2,2.5c0.8,1.8,0.5,3.4-0.7,4.9
		c-0.1,0.2-0.3,0.3-0.4,0.5c-3.1,3.1-6.2,6.2-9.2,9.2c-2.6,2.6-5.8,2.6-8.5,0c-1-1-2.1-2.1-3.1-3.1c-1.8-1.9-1.8-4.6-0.1-6.4
		c1.8-1.8,4.6-1.7,6.4,0.1C68.1,22.5,68.4,22.8,68.8,23.3z M68.7,31.1c1-0.1,1.7-0.6,2.4-1.2c2.8-2.9,5.7-5.7,8.5-8.5
		c0.4-0.4,0.8-0.8,1.2-1.2c0.5-0.7,0.6-1.4,0.1-2.2c-0.5-0.7-1.2-0.9-2-0.6c-0.4,0.1-0.8,0.4-1.1,0.7c-2.5,2.4-4.9,4.9-7.3,7.3
		c-1.1,1.1-2.1,1.1-3.3,0c-0.4-0.4-0.8-0.8-1.2-1.2c-0.9-0.8-1.9-0.9-2.6-0.1c-0.8,0.7-0.8,1.8,0.1,2.7c1.1,1.1,2.2,2.3,3.4,3.3
		C67.3,30.5,68.1,30.7,68.7,31.1z"/>
	<path class="st0" d="M20.8,40.8c0-7,3.5-12.1,9.3-14.2c0.1,0,0.3-0.1,0.4-0.1c0.9-0.3,1.7,0,1.9,0.7c0.3,0.8-0.1,1.5-1.1,1.8
		c-3.5,1.2-5.9,3.4-7.2,6.9c-0.7,2.1-0.8,4.2-0.6,6.3c0.1,1-0.3,1.6-1.1,1.8c-0.8,0.1-1.4-0.4-1.6-1.4C20.8,42,20.8,41.2,20.8,40.8z
		"/>
	<path class="st0" d="M21.9,48c0-0.7,0.4-1.3,1.1-1.4c0.8-0.1,1.3,0.3,1.5,1.1c0.2,0.7,0.3,1.5,0.3,2.2c0.1,0.8-0.4,1.4-1.1,1.5
		c-0.8,0.1-1.3-0.3-1.5-1.1c-0.1-0.4-0.2-0.7-0.2-1.1C21.9,48.7,21.9,48.4,21.9,48z"/>
	<path class="st6" d="M68.7,31.1c-0.6-0.3-1.4-0.6-1.9-1c-1.2-1-2.3-2.2-3.4-3.3c-0.9-0.9-0.9-1.9-0.1-2.7c0.8-0.7,1.8-0.7,2.6,0.1
		c0.4,0.4,0.8,0.8,1.2,1.2c1.1,1.1,2.1,1.1,3.3,0c2.5-2.4,4.9-4.9,7.3-7.3c0.3-0.3,0.7-0.6,1.1-0.7c0.8-0.2,1.5-0.1,2,0.6
		c0.5,0.7,0.5,1.5-0.1,2.2c-0.3,0.4-0.8,0.8-1.2,1.2c-2.8,2.8-5.7,5.7-8.5,8.5C70.4,30.5,69.7,30.9,68.7,31.1z"/>
</g>
</svg>
