<?xml version="1.0" encoding="utf-8"?>
<!-- Generator: Adobe Illustrator 26.5.0, SVG Export Plug-In . SVG Version: 6.00 Build 0)  -->
<svg version="1.1" id="Layer_1" xmlns="http://www.w3.org/2000/svg" xmlns:xlink="http://www.w3.org/1999/xlink" x="0px" y="0px"
	 viewBox="0 0 100 100" style="enable-background:new 0 0 100 100;" xml:space="preserve">
<style type="text/css">
	.st0{fill:#05CCC0;}
	.st1{fill:#FFD27A;}
	.st2{fill:#FEFEFE;}
</style>
<g>
	<path class="st0" d="M67.4,73.1c0.1,3.4-0.1,6.7-1.5,9.6C64,86.5,61,89.1,56.7,90c-3.6,0.8-6.7-0.2-9.5-2.3
		c-4.2-3.1-8.9-5-14.1-5.6c-2.3-0.2-4.6-0.2-6.8-0.4c-4.4-0.5-8.1-4.5-9.3-8.5c-1.2-4.3-0.2-8.1,2-11.9c2.2-3.7,4.8-7,8-9.8
		c4.1-3.4,8.7-5.8,14.2-6.5c5.9-0.7,11.2,0.7,15.9,4.3c4.6,3.5,7.3,8.3,9,13.7C67,66.4,67.5,69.7,67.4,73.1z M61.7,73.4
		c-0.2-2.1-0.3-3.7-0.6-5.4c-0.9-5.2-3-9.8-7-13.4c-2.2-2-4.8-3.2-7.6-3.6c-5.4-0.8-10.3,1-14.6,4.2c-3,2.3-5.4,5.1-7.4,8.3
		c-1.4,2.3-2.5,4.6-2.1,7.4c0.4,2.5,2.6,5.4,5.8,5.2c3.4-0.2,6.8,0.3,10.2,1.2c4.9,1.2,9.2,3.5,13.2,6.4c0.7,0.5,1.7,0.8,2.6,0.8
		c3-0.1,5.7-2.1,6.5-5C61.3,77.3,61.5,75.1,61.7,73.4z"/>
	<path class="st1" d="M57.2,35.2c0.3-5.3,2.3-10.6,7-14.4c3.5-2.8,7.9-4,12.4-0.7c2.3,1.7,3.5,4.2,4.1,6.9c1.1,5.4-0.1,10.4-3,14.9
		c-2.3,3.5-5.5,6.2-9.9,6.5c-2.9,0.2-5.5-0.9-7.4-3.1C57.9,42.6,57.2,39.4,57.2,35.2z M75.1,30.8c0-0.3,0-0.6,0-0.9
		c0-1.8-0.7-3.5-1.9-4.8c-1.5-1.7-3.7-1.2-5.9,0.7c-2.1,1.8-3.1,4.2-3.9,6.8c-0.8,2.6-0.6,5.2,0.4,7.7c0.6,1.5,2.2,3,4.2,2.1
		c1.2-0.5,2.6-1.2,3.4-2.1C73.9,37.6,75.1,34.4,75.1,30.8z"/>
	<path class="st1" d="M30.5,27.7c0.1-5.4,1.9-10.2,5.7-14.2c3.3-3.4,7.7-4.7,11.6-3.1c3.6,1.5,5.4,4.5,6.1,8.1
		c1.3,6.3-0.3,11.9-4.3,16.8c-1.9,2.3-4.4,4-7.5,4.6c-4,0.8-8.2-1.5-10.1-5.6C31,32.2,30.5,30,30.5,27.7z M48.5,21.6
		c-0.2-0.8-0.4-2.2-0.9-3.5c-0.6-1.7-1.8-2.4-3.5-2.3c-2,0.1-3.3,1.3-4.4,2.7c-1.5,1.9-2.6,4.1-3,6.5c-0.5,2.5-0.4,4.9,0.8,7.2
		c0.9,1.7,2.5,2.5,4,1.9c1.2-0.5,2.4-1.2,3.3-2.1C47.3,29.2,48.4,25.9,48.5,21.6z"/>
	<path class="st1" d="M7.3,38.6c0-4,1.2-7.6,4.2-10.3c3.8-3.4,8.7-3.2,12.3,0.3c4.6,4.5,4.7,13.1,1.1,18.3c-3.3,4.7-9.2,5.7-13.5,2
		c-2.9-2.5-4.1-5.9-4.1-9.7C7.3,38.9,7.3,38.7,7.3,38.6z M21.6,38.6c0-1.8-0.3-3.6-1.4-5.1c-0.5-0.7-1.4-1.3-2.2-1.6
		c-1.4-0.5-3,0.8-3.7,2.2c-1.8,3.3-1.5,6.5,0.4,9.6c1,1.7,3.4,2,4.8,0.5C20.9,42.6,21.5,40.7,21.6,38.6z"/>
	<path class="st1" d="M83.9,47c4.6-0.1,8.1,3.3,8.7,7.8c0.6,4.9-1.2,9-4.7,12.4c-2.2,2.2-4.7,3.5-7.7,3.7c-5.4,0.3-9.2-3.4-9.4-8.8
		c-0.2-6,2.7-10.6,7.7-13.6c1.5-0.9,3.5-1.2,5.2-1.7C83.8,46.8,83.9,46.9,83.9,47z M76.7,61.1c0,3.5,2.2,4.9,5.2,3.2
		c2.9-1.6,4.6-4.1,4.9-7.4c0.2-3.2-1.6-4.7-4.6-3.7C79.3,54.1,76.5,58.4,76.7,61.1z"/>
	<path class="st2" d="M61.7,73.4c-0.3,1.8-0.4,4-1,6c-0.8,3-3.5,4.9-6.5,5c-0.9,0-1.9-0.3-2.6-0.8c-4-2.9-8.4-5.2-13.2-6.4
		c-3.3-0.8-6.7-1.4-10.2-1.2c-3.2,0.2-5.4-2.7-5.8-5.2c-0.4-2.8,0.7-5.1,2.1-7.4c2-3.2,4.4-6,7.4-8.3c4.3-3.2,9.1-5,14.6-4.2
		c2.8,0.4,5.4,1.6,7.6,3.6c4,3.6,6.1,8.2,7,13.4C61.4,69.6,61.5,71.3,61.7,73.4z"/>
	<path class="st2" d="M75.1,30.8c-0.1,3.6-1.2,6.8-3.6,9.5c-0.9,1-2.2,1.6-3.4,2.1c-2,0.9-3.6-0.6-4.2-2.1c-1-2.5-1.2-5.1-0.4-7.7
		c0.8-2.6,1.8-5,3.9-6.8c2.2-1.9,4.4-2.3,5.9-0.7c1.2,1.3,1.9,3,1.9,4.8C75.1,30.2,75.1,30.5,75.1,30.8z"/>
	<path class="st2" d="M48.5,21.6c-0.2,4.3-1.3,7.6-3.7,10.3c-0.9,0.9-2.1,1.6-3.3,2.1c-1.5,0.7-3.1-0.2-4-1.9
		c-1.2-2.3-1.3-4.7-0.8-7.2c0.5-2.4,1.5-4.6,3-6.5c1.1-1.3,2.5-2.6,4.4-2.7c1.8,0,2.9,0.6,3.5,2.3C48.1,19.4,48.4,20.8,48.5,21.6z"
		/>
	<path class="st2" d="M21.6,38.6c-0.1,2.1-0.7,4-2.1,5.6c-1.4,1.5-3.8,1.3-4.8-0.5c-1.9-3.1-2.2-6.4-0.4-9.6
		c0.8-1.5,2.3-2.8,3.7-2.2c0.8,0.3,1.7,0.9,2.2,1.6C21.3,35,21.6,36.7,21.6,38.6z"/>
	<path class="st2" d="M76.7,61.1c-0.3-2.7,2.6-7,5.5-8c3-1,4.8,0.5,4.6,3.7c-0.2,3.3-2,5.8-4.9,7.4C79,66,76.7,64.6,76.7,61.1z"/>
</g>
</svg>
