<?xml version="1.0" encoding="utf-8"?>
<!-- Generator: Adobe Illustrator 26.5.0, SVG Export Plug-In . SVG Version: 6.00 Build 0)  -->
<svg version="1.1" id="Layer_1" xmlns="http://www.w3.org/2000/svg" xmlns:xlink="http://www.w3.org/1999/xlink" x="0px" y="0px"
	 viewBox="0 0 500 500" style="enable-background:new 0 0 500 500;" xml:space="preserve">
<style type="text/css">
	.st0{fill:#276A69;}
</style>
<path class="st0" d="M277.6,438.7c-0.9-3.4-1.9-6.7-2.7-10.1c-1.8-7.2-2.9-14.5-2.9-21.9c0-9.1,0.7-18.1,3-27
	c0.6-2.2,1.5-4.4,2.6-6.5c2.6-4.8,6.6-7.9,11.9-9.3c3.7-1,7.3-2.1,10.8-3.8c6.1-3,11.2-7.3,15.2-12.8c4.2-5.7,4.1-10.8-0.3-16.4
	c-0.6-0.7-1.2-1.4-1.8-2.1c-11.2-11.9-22.4-23.8-33.7-35.7c-2.7-2.9-5.5-5.7-8.3-8.5c-1.7-1.7-2.4-3.8-2.2-6.2
	c0.7-7.8,1.4-15.6,2-23.4c0.1-1.1,0.1-2.2-0.1-3.3c-0.5-2.9-3.1-4.3-5.7-3.1c-1.6,0.7-3.1,1.7-4.4,2.9c-4.4,3.8-8.6,7.7-12.9,11.6
	c-0.5,0.5-1.1,0.9-1.8,1.6c-1-5.4-0.6-10.9-2.7-15.9c-2.8,0.3-5,1.4-7,3.2c-8.4,7.3-16.4,14.9-23.6,23.4
	c-9.1,10.8-16.1,22.8-21.4,35.7c-4.5,11-8.7,22.2-12.9,33.3c-12.1,32.3-24.2,64.5-36.3,96.8c-0.6,1.6-1.3,3.1-2.1,4.6
	c-3.5,6.3-8.9,9.6-16,9.6c-9.5,0-19.1,0.1-28.6-1.1c-3.6-0.4-7.2-1-10.6-2.3c-5.1-1.9-8.7-5.3-10.5-10.5c-1.5-4.1-2.1-8.4-2.6-12.7
	c-0.8-7.8-0.9-15.5-0.6-23.3c0.2-5,0.2-10,0.2-15c0-26.9,0.1-53.8,0.1-80.7c0-1.2,0-2.5-0.1-3.7c-0.2-3-1.7-5-4.6-5.8
	c-1.7-0.5-3.5-0.8-5.3-1.2c-6-1.4-11.7-3.4-16.9-6.7c-10.2-6.3-16.2-15.5-18.4-27.2c-0.9-4.9-1-9.9-0.7-14.9c0.3-4.4,2-8.4,4.4-12.1
	c2.5-3.7,5.7-6.9,8.9-10c9-8.8,18.1-17.5,27.1-26.3c8.6-8.4,17.1-16.8,25.7-25.2c0.9-0.9,1.7-1.8,2.7-2.6c7-5.7,11.2-13.4,15.1-21.2
	c2.1-4.3,2.8-8.9,2.9-13.6c0.2-9.9,0.1-19.8,0.2-29.7c0-3.2,0-6.5,0.2-9.7c0.5-5.7,4.4-10,10-11.2c0.9-0.2,1.8-0.3,2.7-0.4
	c4.5-0.2,9.1-0.4,13.6-0.5c1.4,0,2.7,0.1,4.1,0.3c3.7,0.6,6.6,2.6,8.7,5.7c1.6,2.4,2.6,5.1,3.4,7.8c0.5,1.7,0.9,3.4,1.6,5
	c0.9,2.1,2.1,2.4,4,1.2c1.1-0.7,2.1-1.5,3.1-2.4c5.4-5.1,10.9-10.2,16.2-15.4c12.6-12.1,25.2-24.3,37.8-36.5
	c2.5-2.4,5.1-4.7,7.7-6.8c4-3.3,8.5-5.7,13.7-6.5c4.4-0.7,8.7,0,12.7,1.8c3.8,1.7,7,4.2,9.9,7.1c13.6,13.3,27.1,26.6,40.7,39.9
	c23.6,22.9,47.4,45.7,70.9,68.7c22.6,22.1,44.9,44.4,67.4,66.7c3.6,3.6,7.4,7.1,11,10.7c4,4,6.6,8.8,7.6,14.4
	c0.7,4.1,0.5,8.1-0.2,12.2c-0.9,5.3-2.3,10.4-4.5,15.2c-5.2,11.3-14,18-26.3,20.2c-12,2.1-23.7,0.8-35.3-2.9
	c-19.4-6.1-36-16.7-50.6-30.6c-6.2-5.9-11.9-12.3-17.3-19c-6.4-8.1-11-17.2-14.7-26.8c-1.8-4.7-3.5-9.5-5.1-14.3
	c-3.3-10.4-9.3-18.9-17.6-25.9c-13.9-11.7-29.7-19.1-47.7-21.7c-8.6-1.2-17.2-1.2-25.8-0.2c-7.4,0.8-14.6,2.4-21.5,5.1
	c-8.3,3.3-15.6,8.2-21.6,14.8c-4.7,5.2-10,9.6-16.3,12.7c-6.2,3-12.8,4.6-19.7,4.9c-1.6,0.1-3.2,0.1-4.9,0c-9-0.5-17,2.2-24.3,7.3
	c-2,1.4-3.9,2.8-5.5,4.6c-6.1,6.8-7.8,14.8-4,23.1c6.6,14.4,15.7,27.2,28.2,37.2c11.5,9.2,24.5,15,39,17.2c9.7,1.5,19.4,0.8,29-1.6
	c2.9-0.7,5.5-2,7.8-3.8c1.1-0.9,2.3-1.7,3.3-2.8c5.5-5.9,11.2-11.6,16.3-17.7c5.8-7,12.6-12.5,21.5-13.8c0.8-0.1,0.4,0.1,1.1,0
	c3.7-0.4,7.4,3,7.1,6.6c-0.1,0.6-0.2,1.1-0.3,2c0.9-0.7,1.6-1.3,2.3-1.8c3.3-2.6,6.7-4.9,10.4-6.8c2.5-1.3,4.9-1.4,7.5-0.5
	c1.9,0.7,3.7,1.4,5.6,2.2c0.4,0.2,0.7,0.7,1,1.1c1.1,2,1.5,4.3,1.5,6.6c0,4.6,0.1,9.2-0.1,13.8c-0.4,7.7,2.2,14.4,7.1,20.2
	c1.7,2,3.4,3.9,5.3,5.6c7.3,6.6,13.9,13.8,20.4,21.1c2,2.3,4.3,4.3,5.9,7c0.3,0.5,0.9,0.9,1.4,1.3c5.4,4.7,7.5,10.7,6.8,17.8
	c-0.3,2.4-0.7,4.7-1.3,7.1c-1.6,6.4-5.2,11.4-10.3,15.3c-3.2,2.4-6.8,4.2-10.6,5.7c-3.6,1.4-7.2,3-10.7,4.7c-2.1,1.1-4.1,2.5-6,4
	c-6.6,5.3-9.9,12.2-10.3,20.5c-0.3,7,0,14,0.6,21c0.3,4.1,0.6,8.3,0.9,12.4c0.2,2.8,0.5,5.7,0.7,8.5
	C277.8,438.7,277.7,438.7,277.6,438.7z"/>
</svg>
