<?xml version="1.0" encoding="utf-8"?>
<!-- Generator: Adobe Illustrator 26.5.0, SVG Export Plug-In . SVG Version: 6.00 Build 0)  -->
<svg version="1.1" xmlns="http://www.w3.org/2000/svg" xmlns:xlink="http://www.w3.org/1999/xlink" x="0px" y="0px"
	 viewBox="0 0 100 100" style="enable-background:new 0 0 100 100;" xml:space="preserve">
<style type="text/css">
	.st0{fill:#05CCC0;}
	.st1{fill:#FCFDFE;}
	.st2{fill:#106D6A;}
	.st3{fill:#FFFFFF;}
	.st4{fill:#FBFCFE;}
	.st5{fill:#F8FBFE;}
</style>
<g id="Layer_2">
	<path class="st0" d="M50.2,14c10.3-0.2,19.2,3.7,26.9,10.3c12.8,11,19.4,25.3,22.5,41.7c1.1,6.2,0.2,11.8-3.7,16.9
		c-3.9,5.1-9.8,7.1-15.8,5c-11.7-4.1-23.7-5.7-35.9-5c-7.9,0.5-15.8,1.8-23.1,4.8c-9,3.7-18.1-3-20.4-11.9c-1.3-5-0.3-9.8,0.9-14.7
		C4.7,48.1,10.4,36.5,20,27c7-7,15.4-11.4,25.2-12.9C46.8,13.8,48.5,14,50.2,14z"/>
</g>
<g id="Layer_3">
	<path class="st1" d="M6.1,24.4c-2.8,8.4,6.6,11.3,22.6,11.1l-2.5,4.8l-2.8,12.5l1.2,7.9l3.8,8.1l0.3,20.7l-4.1,4.6v2.2h44.1
		l6.1-3.8l11.3-2.6l7.6-7.4l1.4-7.5l-2.8-7.8L88.5,75l-12.3,6.4l-2.6-1.7l-1.9-7.5l-26-42l4.7-3.6l-0.4-12.8l-5.6-9.4"/>
</g>
<g id="Layer_1">
	<g>
		<path class="st2" d="M67.6,98.4c-6.8,0-13.6,0-20.5,0l-22.7,0c-1.2,0-2.1-0.3-2.7-1c-0.5-0.6-0.7-1.5-0.5-2.8
			c0.7-4,3.7-5.9,5.9-6.9c0.4-0.2,0.4-0.2,0.4-0.6c0-4.5,0-9.4,0-15.2c0-0.5-0.1-0.8-0.4-1.1c-0.6-0.8-1.3-1.7-2-2.8
			c-0.9-1.3-0.6-2.9,0.7-3.7c0.4-0.3,0.9-0.4,1.4-0.4c0.8,0,1.7,0.4,2.2,1.2c0.3,0.4,0.5,0.7,0.8,1.1c0.6,0.8,1.2,1.6,1.8,2.5
			c0.4,0.6,0.6,1.3,0.6,2c0,5.7,0,11.4,0,17l0,1.3c0,1.6-0.6,2.4-2.1,2.9c-0.9,0.3-1.7,0.7-2.5,1.2l4.5,0l0.7,0c0.3,0,0.7,0,1,0
			c0.2,0,0.4,0,0.6,0c0.8-0.9,1.6-1.9,2.4-2.8l0.8-0.9c0.1-0.1,0.2-0.2,0.3-0.2l2.2-1.3c0.1,0,0.2-0.1,0.3-0.1l0.3-0.1
			c-3.5-5-2.6-10.3-1.3-14.2C37.9,72.4,37,70.5,37,68c0-8.3,0-17.2,0-27.2c0-1.7,0.4-3.2,1.3-4.4c0,0,0.1-0.1,0.1-0.1
			c1.2-1.2,2.6-1.9,4.2-2l2.1,0l-0.1-1c0,0-2.2,0.2-2.2,0.2c-0.1,0-0.2,0-0.2,0c-0.5-0.1-1-0.2-1.5-0.3c-1.2-0.3-2.4-0.5-3.5-1
			c-1.9-0.8-3.1-2.5-3.2-4.7c-0.1-3.5-0.1-7.1,0-11.1c0-0.9,0.7-1.9,1.4-2.3c0.4-0.2,0.8-0.4,1.2-0.4c1.4,0,2.5,1.3,2.5,2.8
			c0,3.4,0,6.8,0,10.3c0,0.7,0.2,0.8,0.3,0.8c1.2,0.5,2.2,0.8,3.1,0.8c0.4,0,0.8,0,1.2-0.2c0.1,0,0.2,0,0.2,0c2.3,0,4.3-2,4.4-4.3
			c0.1-2.7-0.1-5.2-0.7-7.6c-0.7-2.7-1.9-6.2-4.6-8.7c-1-0.9-2-1.3-3-1.3l-0.1,0c-3.6,0.2-7.3,0.8-10.9,1.8c0,0-0.1,0-0.1,0
			c-2.2,0.3-3.7,1.4-4.8,3.3c-1,1.6-2.1,3.1-3.2,4.5c-0.5,0.6-1,1.2-1.4,1.9c-0.1,0.1-0.2,0.2-0.4,0.3c-0.3,0.1-0.6,0.3-0.9,0.4
			c-0.7,0.4-1.5,0.7-2.3,1c-0.4,0.2-0.8,0.2-1.2,0.3c-0.3,0.1-0.7,0.1-0.9,0.2c-0.1,0.1,0,0.8,0,1.2c0,0.2,0,0.5,0,0.7
			c0.1,3.1-1.7,4.4-3.2,4.9c-0.1,0-0.2,0.1-0.3,0.1H8.3c0.5,0.8,0.9,1.5,1.5,2.1c1.1,1.2,2.3,2.3,3.9,2.3c0.1,0,0.2,0,0.3,0
			c0,0,0.1,0,0.2,0c3.4,0.3,7.1,0.6,10.7,1.7c1,0.3,2,0.7,3,1.2c0.4,0.2,0.9,0.4,1.3,0.5c0.2,0.1,0.3,0.2,0.4,0.3
			c1.3,1.6,1.4,3.3,0.4,5.2c-1.8,3.4-2.9,6.8-3.4,10.2c-0.2,1.2-0.2,2.5-0.3,3.8c-0.1,2.2-1.4,2.9-2.6,2.9c-0.9,0-1.5-0.4-1.8-0.7
			c-0.5-0.5-0.8-1.3-0.8-2.3c0-5.2,1.3-10.3,3.7-15.3c0.1-0.1,0.1-0.3,0.2-0.4c-0.2-0.1-0.4-0.1-0.6-0.2c-1.2-0.3-2.4-0.7-3.5-0.9
			c-1.6-0.3-3.3-0.4-4.9-0.6c-1.1-0.1-2.2-0.2-3.2-0.4C10.5,36,8.6,35,6.5,33c-2.4-2.3-3.9-5.4-4.4-9.5C2,22.6,2,21.7,2,20.8
			c0-2.1,1.2-3.7,3.3-4.2c3.1-0.8,6.2-1.6,8.9-2.2c1.2-0.3,2-0.9,2.7-1.9c0.5-0.8,1-1.6,1.6-2.4c0.6-0.9,1.2-1.8,1.8-2.7
			c1.3-2,3.1-3.4,5.5-4.1c3.8-1.1,7.6-1.9,11.3-2.3c0,0,0.1,0,0.1-0.1c0.1,0,0.2-0.1,0.2-0.1c0.1,0,0.2-0.1,0.3-0.1H41
			c0.1,0,0.2,0,0.3,0c5.7,1.5,8.3,6,9.9,9.8c1.7,4.1,2.5,8.6,2.3,13.4c-0.1,2.8-1.4,5.3-3.8,7.2c-0.1,0.1-0.1,0.1-0.1,0.1
			c0,0,0,0,0,0.1c0.1,0.8,0.3,1.7,0.4,2.5l0,0.2l27.3,0c4,0,6.4,2.4,6.4,6.4v27.5c0,4-2.4,6.3-6.3,6.3h-2.4l0,0.2
			c0.2,1.2,0.4,2.3,0.6,3.4c0.1,0.4,0.2,0.4,0.3,0.4c3.6-0.5,11.9-2.6,13.4-11.4c0.1-0.8,0.2-1.6,0.2-2.4l0.1-0.7
			c0.1-1.4,0.9-2.3,2.2-2.6c0.2,0,0.3,0,0.5,0c0.7,0,1.7,0.3,2.4,1.8c2.1,4.4,3.2,8.9,3.3,13.3c0.1,4.2-1.5,8.1-4.9,11.7
			c-3.4,3.6-7.8,5.8-13.4,6.7C79,94.9,78.4,95,77.7,95c-0.5,0-1,0.1-1.5,0.2c-0.2,0-0.3,0.1-0.4,0.2C73.5,97.4,70.8,98.4,67.6,98.4
			C67.6,98.4,67.6,98.4,67.6,98.4z M46.8,92c-1.9,0.1-3.5,0.5-4.8,1.2l17.5,0c2.1,0,2.6-0.4,3-2.5c0.3-1.4,1.3-2.3,2.5-2.3
			c0.1,0,0.3,0,0.4,0c0.7,0.1,1.3,0.5,1.7,1.1c0.4,0.6,0.6,1.3,0.4,2.1c-0.1,0.5-0.2,1.1-0.3,1.6l1.5-0.1c1.3-0.1,2.3-0.5,3.2-1.3
			c0,0,0.1-0.1,0.1-0.1c0.1,0,0.1-0.1,0.2-0.1c0.7-1.4,1.9-1.5,2.9-1.6l0.3,0c1.5-0.2,3.1-0.5,4.6-0.7c0.6-0.1,1.2-0.2,1.9-0.3
			c4.5-1.4,8-4.1,9.7-7.6c1.2-2.4,1.6-5.1,1-7.9l-1.4,2.5c0,0-0.1,0.1-0.1,0.1c-3,3.7-7.3,6.2-12.9,7.5c-0.7,0.2-1.3,0.2-1.9,0.2
			c-1.8,0-3.4-0.7-4.7-2.1c-0.1-0.1-0.2-0.2-0.2-0.4c-0.1-0.3-0.2-0.6-0.3-0.8c-0.2-0.7-0.5-1.3-0.7-2c-0.3-1.1-0.5-2.1-0.6-3.2
			l-0.1-0.7c-0.5,0-1,0-1.5,0l-0.7,0l-3.4,0c-4.6,0-9.3,0-13.9,0l-4.9,0c-1.1,2.3-1.5,4.7-1.1,7.1c0.4,2.7,1.9,4.4,4.4,5.3
			c1.2,0.4,1.9,1.4,1.8,2.6c-0.1,1.2-0.9,2.1-2.1,2.4C47.7,92,47.5,92,47.2,92L47,92L46.8,92z M77.3,69.3c1,0,1.2-0.1,1.2-1.1
			c0-9.2,0-18.4,0-27.6c0-1-0.1-1.2-1.1-1.2H43.3c-1,0-1.1,0.1-1.1,1.1l0,27.6c0,1,0.1,1.1,1.1,1.1l17,0L77.3,69.3z M8.3,21.5v-0.3
			c-0.3,0.1-0.7,0.2-1,0.2c0,0-0.1,0-0.1,0c0,0,0,0.1,0,0.1H8.3z"/>
		<path class="st3" d="M41,1.9c4.9,1.3,7.4,4.9,9.2,9.2c1.7,4.1,2.4,8.5,2.2,12.9c-0.1,2.7-1.4,4.8-3.4,6.5
			c-0.4,0.3-0.6,0.7-0.5,1.2c0.2,1.2,0.4,2.3,0.5,3.6c0.4,0,0.8,0,1.1,0c5.1,0,10.2,0,15.3,0c3.9,0,7.8,0,11.7,0
			c3.4,0,5.4,1.9,5.4,5.4c0,9.2,0,18.3,0,27.5c0,3.4-1.9,5.3-5.3,5.3c-0.4,0-0.9,0-1.3,0c-0.8,0-1.5,0-2.3,0
			c0.3,1.7,0.6,3.3,0.9,4.8c0.2,0.7,0.6,1.2,1.3,1.2c0.1,0,0.2,0,0.2,0c6-0.8,12.8-4.2,14.1-12.3c0.2-1.1,0.2-2.2,0.3-3.2
			c0.1-0.9,0.5-1.5,1.4-1.6c0.1,0,0.2,0,0.3,0c0.7,0,1.2,0.5,1.5,1.2c1.9,4.1,3.1,8.4,3.2,12.9c0.1,4.3-1.7,7.9-4.6,11
			c-3.5,3.7-7.9,5.6-12.8,6.4c-1.1,0.2-2.2,0.2-3.3,0.4c-0.3,0-0.7,0.2-1,0.4c-2.1,1.9-4.6,2.8-7.5,2.8c0,0,0,0,0,0
			c-6.9,0-13.8,0-20.7,0c-7,0-14,0-21,0c-0.5,0-0.9,0-1.4,0c-1.9,0-2.5-0.7-2.2-2.6c0.5-3.1,2.6-4.9,5.3-6.1
			c0.8-0.4,0.9-0.7,0.9-1.5c0-5.1,0-10.1,0-15.2c0-0.7-0.2-1.2-0.6-1.8c-0.7-0.9-1.3-1.8-1.9-2.7c-0.6-0.9-0.4-1.8,0.4-2.3
			c0.3-0.2,0.6-0.3,0.9-0.3c0.5,0,1,0.3,1.4,0.8c0.9,1.2,1.8,2.3,2.6,3.5c0.3,0.4,0.5,1,0.5,1.5c0,6.1,0,12.2,0,18.4
			c0,1.1-0.3,1.6-1.5,2c-1.5,0.5-3,1.2-4,2.5c-0.1,0.1-0.2,0.3-0.3,0.6c1.1,0,2.1,0,3,0c1.2,0,2.5,0,3.7,0c0.6,0,1.1,0,1.7,0
			c0.2,0,0.4,0,0.6,0c0.2,0,0.5-0.2,0.7-0.4c1.1-1.2,2.1-2.5,3.2-3.7c0.7-0.4,1.5-0.9,2.2-1.3c0.6-0.1,1.1-0.3,1.8-0.4
			c-4.1-4.8-3.7-9.9-1.9-15.2C38.8,72,38,70.3,38,68c0-9.1,0-18.1,0-27.2c0-1.4,0.3-2.7,1.1-3.8c1-1,2.1-1.6,3.5-1.7
			c1,0,2.1,0,3.2,0c-0.2-1.1-0.3-2-0.4-3c-1.1,0.1-2.1,0.1-3.1,0.2c-1.6-0.4-3.3-0.7-4.9-1.3c-1.6-0.6-2.5-2.1-2.5-3.8
			c-0.1-3.7-0.1-7.4,0-11.1c0-0.5,0.5-1.2,0.9-1.5c0.2-0.1,0.5-0.2,0.7-0.2c0.8,0,1.5,0.8,1.5,1.8c0,3.4,0,6.8,0,10.3
			c0,0.7,0.1,1.4,0.8,1.7c1.1,0.5,2.3,0.9,3.5,0.9c0.5,0,1-0.1,1.4-0.2c2.8,0,5.3-2.4,5.4-5.2c0.1-2.7-0.1-5.3-0.8-7.9
			c-0.9-3.5-2.2-6.7-4.9-9.2c-1-0.9-2.2-1.6-3.7-1.6c-0.1,0-0.1,0-0.2,0c-3.8,0.2-7.5,0.8-11.2,1.8c-2.4,0.4-4.2,1.6-5.5,3.7
			c-1.3,2.2-3,4.2-4.6,6.3c-1.1,0.5-2.1,1-3.2,1.4c-0.8,0.3-2,0.3-2.5,0.8c-0.4,0.6-0.2,1.7-0.2,2.6c0.1,1.9-0.7,3.3-2.6,3.9
			c-1,0-2.1,0-3.1,0c-0.1,0.1-0.2,0.2-0.2,0.3c0.8,1.2,1.4,2.5,2.3,3.5c1.2,1.4,2.7,2.6,4.7,2.6c0.1,0,0.3,0,0.4,0
			c3.5,0.3,7,0.7,10.4,1.7c1.4,0.4,2.8,1.1,4.2,1.7c1,1.3,1.1,2.6,0.3,4.1c-1.7,3.3-3,6.8-3.5,10.6c-0.2,1.3-0.2,2.6-0.3,3.9
			c-0.1,1.3-0.6,2-1.6,2c0,0,0,0,0,0c-1,0-1.6-0.7-1.6-2c0-5.2,1.3-10.2,3.6-14.9c0.2-0.4,0.4-0.9,0.7-1.5c-1.9-0.5-3.6-1.1-5.4-1.4
			c-2.7-0.4-5.5-0.6-8.2-1c-2.3-0.3-4.1-1.5-5.7-3c-2.5-2.4-3.6-5.5-4.1-8.9C3,22.5,3,21.7,3,20.8c0-1.7,0.9-2.8,2.5-3.3
			c2.9-0.8,5.9-1.5,8.8-2.2c1.4-0.3,2.5-1.1,3.3-2.3c1.1-1.7,2.3-3.3,3.3-5c1.2-1.9,2.9-3,5-3.7c3.6-1.1,7.3-1.8,11.1-2.2
			c0.2,0,0.4-0.1,0.6-0.2C38.8,1.9,39.9,1.9,41,1.9 M6.3,22.5c1.1,0,2,0,3,0c0-0.9,0-1.7,0-2.6c-0.8,0.2-1.4,0.4-2.1,0.5
			c-0.9,0.1-1.1,0.6-1,1.3C6.2,22,6.2,22.2,6.3,22.5 M51,70.3c3.1,0,6.2,0,9.3,0c3.1,0,6.2,0,9.3,0c2.6,0,5.1,0,7.7,0
			c1.6,0,2.2-0.6,2.2-2.1c0-9.2,0-18.4,0-27.6c0-1.6-0.6-2.2-2.1-2.2c-5.7,0-11.4,0-17.1,0c-5.6,0-11.2,0-16.8,0
			c-1.6,0-2.1,0.6-2.1,2.1c0,9.2,0,18.4,0,27.6c0,1.6,0.6,2.1,2.1,2.1C45.9,70.3,48.5,70.3,51,70.3 M76.2,82.7c-1.5,0-2.8-0.6-4-1.8
			c-0.3-0.9-0.7-1.8-0.9-2.8c-0.3-1.3-0.5-2.6-0.8-3.9c-0.1-0.5-0.3-0.7-0.8-0.7c0,0-0.1,0-0.1,0c-0.8,0.1-1.5,0-2.3,0
			c-5.7,0-11.5,0-17.2,0c-1.7,0-3.4,0-5.1,0c-0.2,0-0.6,0.2-0.7,0.4c-1.3,2.5-1.7,5.1-1.2,7.9c0.5,3,2.1,5,5,6.1
			c0.7,0.3,1.2,0.8,1.2,1.6c-0.1,0.8-0.5,1.3-1.3,1.5c-0.2,0-0.4,0-0.6,0c-0.1,0-0.2,0-0.3,0c-0.1,0-0.2,0-0.2,0
			c-2,0.1-4,0.5-5.8,1.6c-0.6,0.4-1.1,0.9-1.6,1.3c0.1,0.1,0.1,0.1,0.2,0.2c0.3,0,0.7,0,1,0c3.3,0,6.6,0,9.9,0c3,0,6.1,0,9.1,0
			c2.6,0,3.5-0.7,4-3.3c0.2-0.9,0.8-1.5,1.6-1.5c0.1,0,0.2,0,0.2,0c0.9,0.2,1.5,1,1.3,2c-0.2,0.9-0.4,1.8-0.7,2.8
			c0.9,0,1.9-0.1,2.8-0.1c1.4-0.1,2.7-0.6,3.8-1.6c0.2-0.1,0.4-0.2,0.4-0.3c0.5-1.1,1.4-1.1,2.4-1.3c2.2-0.3,4.4-0.7,6.6-1.1
			c9-2.8,13.9-10.5,10.8-19.1c-0.8,1.5-1.7,3-2.6,4.5c-3.2,4-7.5,6-12.4,7.2C77.3,82.6,76.7,82.7,76.2,82.7 M41-0.1h-3.4
			c-0.2,0-0.4,0-0.7,0.1c-0.1,0-0.2,0.1-0.3,0.1C33,0.5,29.2,1.3,25.4,2.4c-2.6,0.8-4.7,2.3-6.1,4.5c-0.6,0.9-1.2,1.8-1.8,2.7
			c-0.5,0.8-1.1,1.6-1.6,2.4c-0.5,0.8-1.1,1.2-2.1,1.4C11.3,14,8.2,14.8,5,15.6c-2.5,0.6-4,2.6-4,5.2c0,0.9,0,1.9,0.2,2.9
			c0.5,4.3,2.1,7.6,4.7,10.1c2.2,2.1,4.4,3.2,6.8,3.5c1.1,0.1,2.2,0.2,3.3,0.4c1.6,0.2,3.3,0.3,4.9,0.6c0.9,0.1,1.9,0.4,2.9,0.7
			c-2.3,4.9-3.5,10-3.5,15.1c0,1.3,0.3,2.3,1.1,3c0.4,0.5,1.2,1,2.5,1c1.6,0,3.5-1,3.6-3.9c0.1-1.3,0.1-2.6,0.3-3.7
			c0.4-3.3,1.5-6.6,3.2-9.9c1.5-2.8,0.5-5-0.5-6.3c-0.2-0.3-0.5-0.5-0.8-0.6c-0.4-0.2-0.8-0.4-1.3-0.5c-1-0.4-2-0.9-3.1-1.2
			c-3.7-1.1-7.4-1.5-10.9-1.8c0,0-0.1,0-0.1,0c-0.1,0-0.1,0-0.2,0c-0.1,0-0.2,0-0.3,0c-1,0-2-0.6-3.2-1.9c-0.1-0.1-0.2-0.3-0.4-0.5
			c0.2,0,0.3,0,0.5-0.1c2.6-0.9,4-3,3.9-5.9c0-0.2,0-0.5-0.1-0.8c0-0.1,0-0.2,0-0.4c0,0,0,0,0.1,0c0.4-0.1,0.9-0.2,1.4-0.4
			c0.8-0.3,1.6-0.7,2.4-1.1c0.3-0.1,0.6-0.3,0.9-0.4c0.3-0.1,0.6-0.4,0.8-0.6c0.5-0.6,0.9-1.2,1.4-1.9c1.1-1.4,2.3-2.9,3.3-4.6
			c1-1.6,2.3-2.5,4.1-2.8c0.1,0,0.2,0,0.2-0.1c3.6-1,7.2-1.6,10.7-1.8l0.1,0c0.8,0,1.5,0.3,2.3,1.1c2,1.8,3.4,4.4,4.3,8.2
			c0.6,2.3,0.8,4.8,0.7,7.3c-0.1,1.8-1.7,3.3-3.4,3.3c-0.2,0-0.3,0-0.5,0.1c-0.3,0.1-0.6,0.1-1,0.1c-0.7,0-1.4-0.2-2.3-0.6
			c0,0,0,0,0-0.1c0-3.1,0-6.7,0-10.3c0-2.1-1.6-3.8-3.5-3.8c-0.6,0-1.2,0.2-1.8,0.5c-0.9,0.6-1.8,1.8-1.9,3.1c-0.1,4-0.1,7.7,0,11.2
			c0.1,2.6,1.5,4.7,3.8,5.7c1.1,0.4,2.2,0.7,3.2,0.9c-0.8,0.4-1.5,0.9-2.2,1.6c-0.1,0.1-0.1,0.2-0.2,0.2c-1,1.4-1.5,3.1-1.5,5
			c0,10,0,18.9,0,27.2c0,2.6,0.8,4.6,2.6,6c-1.1,3.7-1.8,8.6,1,13.4l-1.8,1c-0.2,0.1-0.4,0.3-0.5,0.4l-0.8,0.9
			c-0.7,0.8-1.4,1.6-2.1,2.5c0,0,0,0-0.1,0c-0.3,0-0.7,0-1,0c-0.2,0-0.4,0-0.7,0l-0.3,0c0.9-0.7,1.3-1.7,1.3-3.1l0-1.5
			c0-5.5,0-11.3,0-16.9c0-0.9-0.3-1.8-0.8-2.6c-0.6-0.9-1.2-1.7-1.8-2.5c-0.3-0.4-0.5-0.7-0.8-1.1c-0.8-1-1.9-1.6-3-1.6
			c-0.7,0-1.3,0.2-1.9,0.6c-1.7,1.1-2.1,3.3-1,5c0.8,1.2,1.4,2.1,2.1,2.9c0.1,0.2,0.2,0.2,0.2,0.5c0,5.7,0,10.5,0,15
			c-3.6,1.7-5.7,4.2-6.2,7.5c-0.1,0.6-0.4,2.3,0.7,3.6c1.1,1.3,2.8,1.3,3.4,1.3l1.4,0l10.5,0l10.5,0c6.9,0,13.8,0,20.7,0
			c3.4,0,6.3-1.1,8.8-3.2c0.4-0.1,0.9-0.1,1.4-0.2c0.6-0.1,1.3-0.1,1.9-0.2c5.8-0.9,10.4-3.2,14-7c3.5-3.8,5.3-7.9,5.2-12.4
			c-0.1-4.6-1.3-9.2-3.4-13.7c-0.9-2-2.5-2.3-3.3-2.3c-0.2,0-0.4,0-0.6,0.1c-1.8,0.3-2.9,1.6-3,3.5c0,0.3,0,0.5-0.1,0.8
			c-0.1,0.8-0.1,1.6-0.2,2.3C87,74.7,80,76.8,76.4,77.4c-0.1-0.6-0.2-1.3-0.4-1.9l1.2,0c4.5,0,7.3-2.8,7.3-7.3c0-9.2,0-18.3,0-27.5
			c0-4.5-2.8-7.4-7.4-7.4l-11.7,0l-7.7,0l-7,0c-0.1-0.5-0.1-1-0.2-1.5c2.4-2.1,3.7-4.7,3.8-7.7c0.2-4.9-0.6-9.5-2.4-13.8
			c-1.7-4-4.4-8.8-10.5-10.4C41.4-0.1,41.2-0.1,41-0.1L41-0.1z M43.2,40.5c0,0,0.1,0,0.1,0l16.8,0c5.7,0,11.4,0,17.1,0
			c0,0,0.1,0,0.1,0c0,0,0,0.1,0,0.2c0,9.2,0,18.4,0,27.6c0,0,0,0.1,0,0.1c0,0-0.1,0-0.2,0l-7.7,0l-4.7,0l-4.7,0l-4.5,0l-4.7,0
			l-7.7,0c0,0-0.1,0-0.1,0c0,0,0-0.1,0-0.1c0-9.2,0-18.4,0-27.6C43.2,40.5,43.2,40.5,43.2,40.5L43.2,40.5z M45.7,75.5
			c1.5,0,2.9,0,4.4,0c4.7,0,9.5,0,14.2,0l3,0c0.3,0,0.5,0,0.7,0c0.2,0,0.5,0,0.7,0c0.2,1,0.4,2,0.6,3.1c0.2,0.8,0.4,1.5,0.7,2.1
			c0.1,0.3,0.2,0.5,0.3,0.8c0.1,0.3,0.2,0.5,0.4,0.7c1.5,1.6,3.3,2.4,5.5,2.4c0.7,0,1.4-0.1,2.1-0.3c5.9-1.3,10.3-3.9,13.5-7.8
			c-0.1,1.5-0.5,2.9-1.1,4.2c-1.6,3.2-4.8,5.7-9,7.1c-0.6,0.1-1.2,0.2-1.8,0.3c-1.6,0.3-3,0.6-4.5,0.7l-0.3,0
			c-0.9,0.1-2.6,0.3-3.5,1.9c0,0,0,0,0,0c-0.1,0-0.1,0.1-0.2,0.2c-0.7,0.6-1.5,0.9-2.6,1l-0.1,0c0-0.1,0-0.2,0.1-0.4
			c0.2-1,0-2-0.6-2.8c-0.6-0.8-1.4-1.3-2.4-1.5c-0.2,0-0.4,0-0.6,0c-1.7,0-3.2,1.3-3.5,3.1c-0.3,1.6-0.4,1.7-2,1.7l-9.1,0h-0.6
			c0.8-0.6,1.2-1.5,1.3-2.6c0.1-1.7-0.8-3.1-2.5-3.6c-2.1-0.8-3.3-2.2-3.7-4.5C44.6,79.4,44.9,77.4,45.7,75.5L45.7,75.5z"/>
	</g>
	<g>
		<path class="st2" d="M24.6,63.3c-1.4,0-2.5-1.2-2.5-2.6c0-1.4,1.1-2.5,2.6-2.5c0.8,0,1.4,0.3,1.9,0.8c0.5,0.5,0.7,1.1,0.7,1.8
			C27.2,62.1,26,63.3,24.6,63.3C24.6,63.3,24.6,63.3,24.6,63.3z"/>
		<path class="st3" d="M24.6,59.1C24.7,59.1,24.7,59.1,24.6,59.1c0.9,0,1.6,0.7,1.6,1.6c0,0.8-0.8,1.6-1.6,1.6c0,0,0,0,0,0
			c-0.9,0-1.5-0.7-1.5-1.6C23.1,59.8,23.7,59.1,24.6,59.1 M24.6,57.1c-2,0-3.6,1.5-3.6,3.5c0,2,1.5,3.6,3.5,3.7c0,0,0,0,0.1,0
			c1.9,0,3.6-1.6,3.6-3.5c0-1-0.3-1.9-1-2.6C26.6,57.5,25.7,57.1,24.6,57.1C24.7,57.1,24.7,57.1,24.6,57.1L24.6,57.1z"/>
	</g>
	<path class="st3" d="M60.3,70.3c-5.7,0-11.3,0-17,0c-1.6,0-2.1-0.6-2.1-2.1c0-9.2,0-18.4,0-27.6c0-1.5,0.6-2.1,2.1-2.1
		c11.3,0,22.6,0,33.9,0c1.5,0,2.1,0.6,2.1,2.2c0,9.2,0,18.4,0,27.6c0,1.5-0.6,2.1-2.2,2.1C71.6,70.3,65.9,70.3,60.3,70.3z
		 M55.7,48.8c0.7,0.7,1.2,1.3,1.8,1.9c0.4,0.4,0.5,0.8,0.1,1.2c-1,1.2-2,2.5-3.1,3.7c-2.6,2.4-5.7,4-8.9,5.3c-0.9,0.3-1.3,1.2-1,2
		c0.3,0.9,1.2,1.3,2.1,1c4-1.5,7.7-3.5,10.7-6.6c1-1,1.8-2.1,2.9-3.2c1,1.4,1.9,2.7,2.8,4c-2.2,2.4-5.1,4.3-9.3,5.9
		c-1.1,0.4-1.6,1.2-1.3,2.1c0.3,0.9,1.3,1.2,2.3,0.9c3-1,5.7-2.5,8.1-4.4c0.6-0.5,1.1-0.9,1.8-1.4c0.2,0.3,0.4,0.6,0.5,0.9
		c0.5,1.4,1,2.7,1.6,4.1c0.4,0.9,1.2,1.3,2,1c0.8-0.3,1.3-1.1,1-2c-0.4-1.4-0.9-2.7-1.5-4c-3.5-7.3-8.8-13.3-14.6-18.8
		c-0.7-0.7-1.8-0.6-2.4,0.1c-0.6,0.7-0.5,1.6,0.3,2.3c0.6,0.6,1.3,1.2,1.9,1.8c-0.7,0.8-1.2,1.5-1.8,2.1c-1.8,1.9-4,3.1-6.2,4.4
		c-1,0.5-1.3,1.3-0.9,2.1c0.5,0.9,1.3,1.1,2.3,0.7c2.8-1.3,5.3-3,7.4-5.3C54.7,49.9,55.2,49.4,55.7,48.8z M62.2,41.8
		c-1.2,0-1.9,0.6-1.8,1.5c0,0.5,0.4,1.1,0.7,1.4c3.7,3.6,6.8,7.6,9.1,12.2c1.4,2.8,2.3,5.8,2.8,8.9c0.1,0.9,1.1,1.5,1.8,1.3
		c0.8-0.2,1.5-1,1.3-1.9c-0.3-1.7-0.6-3.4-1.2-5.1c-2.3-7-6.5-12.8-11.9-17.9C62.9,42,62.4,41.9,62.2,41.8z"/>
	<path class="st4" d="M28.5,6.9c-0.9,1.3-1.8,2.6-2.7,3.9c-0.7,1-1.5,2.1-2.1,3.2c-1.1,1.9-3,2.6-5,3.1c-0.1,0-0.2-0.1-0.3-0.2
		c1.5-2.1,3.2-4.1,4.6-6.3C24.3,8.5,26.1,7.3,28.5,6.9z"/>
	<path class="st5" d="M6.3,22.5c0-0.3-0.1-0.5-0.1-0.8c-0.1-0.8,0.1-1.2,1-1.3c0.7-0.1,1.4-0.3,2.1-0.5c0,0.9,0,1.7,0,2.6
		C8.3,22.5,7.3,22.5,6.3,22.5z"/>
	<path class="st0" d="M55.7,48.8c-0.5,0.6-1,1.1-1.4,1.7c-2.1,2.3-4.6,4-7.4,5.3c-1,0.4-1.9,0.2-2.3-0.7c-0.4-0.8-0.1-1.6,0.9-2.1
		c2.2-1.2,4.4-2.5,6.2-4.4c0.6-0.6,1.1-1.3,1.8-2.1c-0.7-0.6-1.3-1.2-1.9-1.8c-0.7-0.7-0.8-1.6-0.3-2.3c0.6-0.7,1.7-0.7,2.4-0.1
		c5.8,5.5,11.1,11.5,14.6,18.8c0.6,1.3,1.1,2.6,1.5,4c0.3,0.9-0.1,1.7-1,2c-0.8,0.3-1.6-0.1-2-1c-0.5-1.3-1.1-2.7-1.6-4.1
		c-0.1-0.3-0.3-0.5-0.5-0.9c-0.6,0.5-1.2,1-1.8,1.4c-2.4,2-5.2,3.4-8.1,4.4c-1.1,0.4-2,0-2.3-0.9c-0.3-0.9,0.2-1.7,1.3-2.1
		c4.2-1.6,7.2-3.5,9.3-5.9c-0.9-1.3-1.9-2.7-2.8-4c-1,1.2-1.9,2.3-2.9,3.2c-3,3-6.7,5.1-10.7,6.6c-0.9,0.3-1.8-0.1-2.1-1
		c-0.3-0.8,0.1-1.7,1-2c3.3-1.3,6.4-2.8,8.9-5.3c1.2-1.1,2.1-2.4,3.1-3.7c0.4-0.4,0.2-0.9-0.1-1.2C56.9,50.1,56.3,49.5,55.7,48.8z"
		/>
	<path class="st2" d="M62.2,41.8c0.2,0.1,0.6,0.2,0.9,0.5c5.3,5,9.5,10.8,11.9,17.9c0.5,1.6,0.8,3.4,1.2,5.1
		c0.2,0.9-0.5,1.7-1.3,1.9c-0.8,0.2-1.7-0.4-1.8-1.3c-0.5-3.1-1.4-6.1-2.8-8.9c-2.3-4.6-5.5-8.6-9.1-12.2c-0.4-0.4-0.7-0.9-0.7-1.4
		C60.3,42.4,61,41.8,62.2,41.8z"/>
</g>
</svg>
