<?xml version="1.0" encoding="utf-8"?>
<!-- Generator: Adobe Illustrator 26.5.0, SVG Export Plug-In . SVG Version: 6.00 Build 0)  -->
<svg version="1.1" id="Layer_1" xmlns="http://www.w3.org/2000/svg" xmlns:xlink="http://www.w3.org/1999/xlink" x="0px" y="0px"
	 viewBox="0 0 49 49" style="enable-background:new 0 0 49 49;" xml:space="preserve">
<style type="text/css">
	.st0{fill:#106D6A;}
	.st1{fill:#04B2A1;}
	.st2{fill:#F7F5F5;}
	.st3{fill:#F6F4F4;}
	.st4{fill:#05CCC0;}
	.st5{fill:#DFDFDF;}
	.st6{fill:#E0E0E0;}
	.st7{fill:#E7E7E7;}
	.st8{fill:#E8E8E8;}
	.st9{fill:#BDBDBD;}
	.st10{fill:#E5E5E5;}
	.st11{fill:#BABABA;}
	.st12{fill:#585858;}
	.st13{fill:#434343;}
</style>
<path class="st0" d="M26.6,2.1c0.6,0.2,1.3,0.3,1.9,0.5c0.9,0.4,1.8,0.8,2.8,1.2c0.7-1.1,1.8-1.6,3.2-1.6c1,0,1.9,0.5,2.8,1.1
	c0.1,0.1,0.2,0.1,0.3,0.2c0.4,0.3,0.5,0.5,0.3,1c-0.4,0.3-0.7,0.3-1.1,0c-0.6-0.4-1.2-0.8-2-0.9c-1-0.3-2,0.2-2.4,1
	c0.3,0.4,0.7,0.7,1,1.1c1.1,1.3,1.9,2.7,2.6,4.2c1.4,3.3,2.1,6.7,1.1,10.2c0,0.1,0,0.3,0.1,0.4c0.8,0.6,1.6,1.1,2.6,1.2
	c0.2,0,0.3,0,0.5,0c1.2-0.3,1.7-1.2,2-2.3c0.4-1.9,0.2-3.8-0.2-5.7c-0.6-2.5-1.7-4.8-3.1-6.9c-0.3-0.4-0.3-0.7,0-1.1
	c0.4-0.2,0.7-0.1,1,0.3c1.7,2.6,3,5.3,3.5,8.4c0.3,1.8,0.5,3.7,0,5.5c-0.4,1.4-1.1,2.4-2.5,2.9c-1.3,0.5-2.4,0.1-3.6-0.6
	c-0.3-0.2-0.6-0.4-0.9-0.6c-1,2.1-2.6,3.6-4.6,4.6c1.4,1.5,2.3,3.3,2.9,5.3c1.1-0.4,2.2-0.3,3.2,0.3c0.8-0.6,1.5-1.4,2-2.3
	c0.4-0.6,0.7-1.2,1-1.9c0.3-0.5,0.7-0.8,1.1-0.7c0.5,0.1,0.9,0.4,1,1c0.5,2.6,0.5,5-1.1,7.3c-0.4,0.5-0.8,0.9-1.2,1.3
	c-0.1,0.1-0.2,0.3-0.2,0.4c0.2,1.5,0.2,3-0.1,4.5c0.2,0,0.4,0,0.6,0c1.4,0.1,2.5,1.2,2.5,2.6c0,0.3,0,0.7,0,1c0,0.8-0.6,1.4-1.4,1.4
	c-0.1,0-0.2,0-0.3,0c-10.8,0-21.6,0-32.4,0c-1,0-1.9-0.5-1.8-1.8c0-0.4,0-0.8,0.1-1.2c0.3-1.1,1.2-2,2.4-2.1c0.2,0,0.3,0,0.6,0
	c0-0.3-0.1-0.7-0.1-1c-0.3-2.2,0.1-4.4,0.9-6.5c0.6-1.3,1.5-2.3,2.9-2.6c0.6-0.1,1.3,0,2.1,0c0.5-1.8,1.4-3.6,2.9-5.1
	c-2-1.1-3.6-2.6-4.6-4.7c-0.3,0.2-0.6,0.4-1,0.6c-1.1,0.6-2.3,1-3.6,0.5c-1.5-0.6-2.2-1.8-2.5-3.2c-0.4-2.1-0.3-4.1,0.3-6.2
	c0.8-3.1,2.1-5.9,4.1-8.4c0.8-1,1.7-1.7,2.8-2.3c1.7-0.9,3.9-0.9,5.2,1.1c1.1-0.7,2.3-1.2,3.6-1.5c0.3-0.1,0.6-0.1,0.9-0.2
	C25.1,2.1,25.8,2.1,26.6,2.1z M25,18.7c0.4,0,0.8,0.1,1.1,0c0.3-0.1,0.6-0.3,0.6-0.7c0-0.4-0.3-0.6-0.7-0.6c-0.4,0-0.7-0.1-1.1,0
	c-0.4,0.1-0.7,0.3-0.7,0.7C24.3,18.5,24.6,18.7,25,18.7z M39.7,34.3c0.1,0.3,0.2,0.7,0.3,1c1.7-1.6,2.2-4,1.7-6.4
	c-0.3,0.5-0.5,1-0.8,1.4c-0.7,0.8-1.3,1.7-2,2.5C39.2,33.4,39.4,33.8,39.7,34.3z M30.5,28.4c0.3-0.1,0.6-0.2,0.9-0.3
	c-0.2-0.2-0.3-0.3-0.4-0.5c-0.7-0.8-0.5-0.7-1.4-0.4c-3,0.8-5.9,0.8-8.8-0.2c-0.1,0-0.3,0-0.3,0.1c-0.3,0.3-0.5,0.6-0.8,0.9
	C23.2,29.5,26.8,29.6,30.5,28.4z M41.1,45.4c0.3,0,0.7,0,1.1,0c0-0.4,0-0.7,0-1.1c0-0.8-0.7-1.4-1.5-1.3c-0.3,0-0.7,0-1,0
	c-0.6,0-0.8-0.2-0.8-0.8c0-0.1,0.1-0.1,0.1-0.2c0.5-1.7,0.5-3.3,0.1-5c-0.2-1.1-0.5-2.2-1.2-3c-0.4-0.5-0.9-1-1.7-1
	c-0.5-0.1-0.9,0-1.3,0.2c0.4,2.8,0.4,3.5-0.2,8.6c1,0,1.8,0.3,2.4,1.1c0.6,0.8,0.6,1.7,0.6,2.7C38.9,45.4,40,45.4,41.1,45.4z
	 M15.1,18.3c0,0.2,0,0.3,0,0.5c0.2,0,0.3,0,0.5-0.1c3.7-0.8,6.3-3,7.7-6.6c1.1-2.8,0.8-5.7,0.7-8.6c-0.3,0.1-0.5,0.1-0.7,0.2
	c-1.9,0.6-3.5,1.5-4.8,3.1c-1.7,2.2-2.8,4.7-3.3,7.4C14.9,15.6,14.9,17,15.1,18.3z M32.3,23.6c0.1,0.2,0.2,0.4,0.3,0.6
	c2.1-1.7,3.2-3.9,3.4-6.5c0.2-3.9-1-7.4-3.2-10.5c-1.1-1.6-2.7-2.7-4.5-3.3c-1-0.4-2-0.5-3-0.5c0,0.5,0,1,0,1.4
	c0.1,1.8,0.1,3.7-0.2,5.5c-0.7,4.7-4.3,8.6-8.9,9.6c-0.2,0.1-0.5,0.1-0.7,0.1c0.5,1.6,1.8,3.5,3,4.1c0.5-0.9,0.9-1.8,1.4-2.7
	c0.8-1.3,1.7-2.6,3.1-3.3c0.1-1.5,1.1-2.3,2.6-2.3c1.1,0,2.6,0.7,2.5,2.3c1.4,0.6,2.2,1.8,3,3C31.5,22.1,31.9,22.8,32.3,23.6z
	 M34.7,42.9c-0.2,0-0.5,0-0.7,0c-0.6,0-0.8-0.2-0.8-0.9c1-4.4,1.2-8.7-1-12.9c-0.3,0.1-0.6,0.3-0.9,0.4c-0.1,0-0.2,0-0.3,0.1
	c-3,1-6.1,1.3-9.3,0.5c-0.9-0.2-1.9-0.6-2.8-0.9c-0.1,0.1-0.2,0.3-0.2,0.4c-0.9,1.8-1.4,3.7-1.5,5.7c0,0.7-0.1,0.8-0.7,1
	c-0.6-0.2-0.7-0.3-0.6-0.9c0.1-0.8,0.1-1.6,0.2-2.4c-0.8-0.4-1.6-0.3-2.3,0.3c-0.6,0.5-1,1.1-1.3,1.9c-0.7,2.3-1,4.6-0.3,6.9
	c0.1,0.5-0.1,0.8-0.6,0.9c-0.3,0-0.6,0-0.9,0c-1.5-0.1-2,1-1.7,2.5c1.4,0,2.9,0,4.4,0c0-1-0.1-1.9,0.6-2.7c0.6-0.8,1.5-1.1,2.4-1.1
	c-0.1-0.9-0.3-1.8-0.4-2.7c-0.1-0.5,0.1-0.7,0.6-0.9c0.4,0,0.6,0.3,0.7,0.7c0.2,1.1,0.3,2.2,0.5,3.3c0.1,0.6-0.1,0.9-0.8,0.9
	c-0.4,0-0.8,0-1.2,0c-0.6,0.1-1.1,0.6-1.2,1.1c0,0.4,0,0.9,0,1.3c2.2,0,4.3,0,6.4,0c0-0.2,0-0.3,0-0.4c0-1.9,0-3.8,0-5.7
	c0-0.5,0.3-0.8,0.8-0.8c0.4,0.1,0.5,0.4,0.5,0.8c0,1.8,0,3.5,0,5.3c0,0.3,0,0.6,0,0.9c2.1,0,4.2,0,6.3,0c0-0.2,0-0.4,0-0.7
	c0-1.9,0-3.7,0-5.6c0-0.4,0.3-0.7,0.6-0.7c0.4,0,0.6,0.3,0.7,0.7c0,0.1,0,0.2,0,0.3c0,1.9,0,3.7,0,5.6c0,0.1,0,0.2,0,0.4
	c1.8,0,3.5,0,5.2,0c0.4,0,0.8,0,1.2,0c0-0.3,0-0.7,0-1C36.4,43.4,35.7,42.8,34.7,42.9z M18.8,4.6c-0.5-0.8-1.3-1.2-2.2-1.1
	c-1.5,0.3-2.7,1.2-3.6,2.3c-0.9,1.1-1.6,2.4-2.3,3.7c-1.4,2.8-2.3,5.7-2,8.9c0.1,0.7,0.3,1.5,0.6,2.1c0.5,1.1,1.5,1.5,2.7,1.1
	c0.6-0.2,1.2-0.6,1.8-0.9c0.3-0.1,0.3-0.3,0.2-0.7c-0.5-1.8-0.6-3.6-0.2-5.5C14.5,10.8,16,7.4,18.8,4.6z M19.5,24.9
	c3.2,2.1,8.8,2,12,0c-0.7-1.3-1.4-2.6-2.2-3.8c-0.4-0.6-1-1-1.6-1.5c-0.2-0.2-0.4-0.1-0.6,0c-1,0.7-2.3,0.7-3.3,0
	c-0.2-0.2-0.4-0.2-0.7,0c-0.8,0.5-1.4,1.2-1.9,2C20.7,22.7,20.1,23.8,19.5,24.9z"/>
<path class="st1" d="M38.8,5.8c-0.3,0.4-0.3,0.7,0,1.1c1.4,2.1,2.5,4.4,3.1,6.9c0.5,1.9,0.7,3.8,0.2,5.7c-0.2,1.1-0.8,2-2,2.3
	c-0.1,0-0.3,0-0.5,0c0.1-0.2,0.3-0.4,0.4-0.6c0.7-1,0.9-2.2,0.9-3.5c0-1.3-0.2-2.6-0.4-3.8c-0.4-2-1.2-3.9-2.2-5.7
	c-0.9-1.5-1.8-3-3.2-4C35,4,34.8,3.8,34.7,3.6c0.8,0.1,1.4,0.5,2,0.9c0.4,0.3,0.7,0.4,1.1,0C38.1,5,38.5,5.4,38.8,5.8z"/>
<path class="st2" d="M16.5,36.2c0.6-0.2,0.6-0.3,0.7-1c0.1-2,0.6-3.9,1.5-5.7c0.1-0.1,0.2-0.3,0.2-0.4c1,0.3,1.9,0.6,2.8,0.9
	c3.1,0.8,6.2,0.6,9.3-0.5c0.1,0,0.2-0.1,0.3-0.1c0,0.1,0.1,0.2,0.1,0.3c0.8,1.8,1.2,3.7,1.3,5.7c0.1,1.8-0.1,3.5-0.5,5.3
	c-0.2,0.7,0.1,1,0.8,1.1c0.1,0,0.2,0.1,0.2,0.1c0,0.6,0.2,0.8,0.8,0.9c0.2,0,0.5,0,0.7,0c0.5,0.8,0.5,1.6,0.4,2.4
	c-1.7,0-3.4,0-5.2,0c0-0.1,0-0.3,0-0.4c0-1.9,0-3.7,0-5.6c0-0.1,0-0.2,0-0.3c0-0.4-0.3-0.7-0.7-0.7c-0.4,0-0.6,0.3-0.6,0.7
	c0,1.9,0,3.7,0,5.6c0,0.2,0,0.4,0,0.7c-2.1,0-4.2,0-6.3,0c0-0.3,0-0.6,0-0.9c0-1.8,0-3.5,0-5.3c0-0.4-0.1-0.7-0.5-0.8
	c-0.4-0.1-0.8,0.2-0.8,0.8c0,1.9,0,3.8,0,5.7c0,0.1,0,0.3,0,0.4c-2.2,0-4.3,0-6.4,0c0-0.4,0-0.9,0-1.3c0.1-0.6,0.6-1.1,1.2-1.1
	c0.4,0,0.8,0,1.2,0c0.6,0,0.9-0.3,0.8-0.9c-0.2-1.1-0.4-2.2-0.5-3.3C17.2,38.2,17,38,16.6,38C16.5,37.4,16.5,36.8,16.5,36.2z"/>
<path class="st3" d="M32.3,23.6c-0.4-0.8-0.8-1.5-1.3-2.3c-0.7-1.3-1.6-2.4-3-3c0.1-1.6-1.4-2.3-2.5-2.3c-1.5,0-2.5,0.9-2.6,2.3
	c-1.4,0.7-2.3,1.9-3.1,3.3c-0.5,0.9-1,1.8-1.4,2.7c-1.1-0.6-2.5-2.5-3-4.1c0.2,0,0.5-0.1,0.7-0.1c4.6-1,8.2-4.9,8.9-9.6
	c0.3-1.8,0.3-3.7,0.2-5.5c0-0.5,0-0.9,0-1.4c1,0,2,0.1,3,0.5c0.1,0.1,0.2,0.3,0.4,0.3c1,0.6,1.8,1.3,2.5,2.2
	c2.4,3.1,3.7,6.6,3.7,10.6c0,1.7-0.4,3.3-1.2,4.7C33.3,22.5,32.8,23,32.3,23.6z M31.1,12.7c0-0.2,0-0.4,0-0.7c0-0.4-0.2-0.6-0.6-0.6
	c-0.4,0-0.7,0.2-0.7,0.6c0,0.4,0,0.9,0,1.3c0,0.4,0.3,0.6,0.7,0.6c0.4,0,0.6-0.3,0.6-0.6C31.1,13.1,31.1,12.9,31.1,12.7z"/>
<path class="st4" d="M18.8,4.6c-2.8,2.8-4.3,6.1-5,9.9c-0.3,1.8-0.3,3.7,0.2,5.5c0.1,0.3,0,0.5-0.2,0.7c-0.6,0.3-1.2,0.7-1.8,0.9
	c-1.2,0.4-2.2,0-2.7-1.1c-0.3-0.6-0.5-1.4-0.6-2.1c-0.3-3.2,0.5-6.1,2-8.9C11.4,8.3,12.1,7,13,5.9c0.9-1.2,2-2.1,3.6-2.3
	C17.5,3.4,18.4,3.8,18.8,4.6z"/>
<path class="st4" d="M15.1,18.3c-0.2-1.4-0.1-2.7,0.1-4.1c0.5-2.7,1.6-5.2,3.3-7.4c1.2-1.6,2.9-2.5,4.8-3.1c0,1.5,0,2.9-0.1,4.4
	c-0.1,1.5-0.4,3-1.1,4.3c-1.1,2.2-2.7,3.9-4.9,5C16.5,17.9,15.8,18.1,15.1,18.3z M20,12.6c0,0.2,0,0.4,0,0.6c0,0.4,0.3,0.6,0.6,0.6
	c0.4,0,0.6-0.2,0.7-0.6c0-0.4,0-0.9,0-1.3c0-0.4-0.3-0.6-0.7-0.6c-0.4,0-0.6,0.2-0.6,0.6C19.9,12.2,20,12.4,20,12.6z"/>
<path class="st4" d="M34.7,3.6C34.8,3.8,35,4,35.2,4.1c1.4,1.1,2.3,2.5,3.2,4c1,1.8,1.9,3.7,2.2,5.7c0.2,1.3,0.4,2.5,0.4,3.8
	c0,1.2-0.2,2.4-0.9,3.5c-0.1,0.2-0.3,0.4-0.4,0.6c-1-0.1-1.9-0.5-2.6-1.2c-0.1-0.1-0.1-0.3-0.1-0.4c0.9-3.6,0.3-6.9-1.1-10.2
	c-0.7-1.5-1.5-2.9-2.6-4.2c-0.3-0.4-0.7-0.7-1-1.1C32.7,3.8,33.7,3.3,34.7,3.6z"/>
<path class="st5" d="M16.5,36.2c0,0.6,0.1,1.1,0.1,1.7c-0.5,0.2-0.7,0.3-0.6,0.9c0.1,0.9,0.2,1.8,0.4,2.7c-1,0-1.8,0.3-2.4,1.1
	c-0.6,0.8-0.6,1.7-0.6,2.7c-1.5,0-2.9,0-4.4,0c-0.3-1.4,0.2-2.5,1.7-2.5c0.3,0,0.6,0,0.9,0c0.5,0,0.8-0.4,0.6-0.9
	c-0.7-2.3-0.4-4.6,0.3-6.9c0.2-0.7,0.6-1.4,1.3-1.9c0.7-0.6,1.5-0.6,2.3-0.3c-0.1,0.8-0.2,1.6-0.2,2.4C15.8,35.9,15.9,36,16.5,36.2z
	"/>
<path class="st4" d="M19.5,24.9c0.6-1.1,1.2-2.2,1.9-3.3c0.5-0.8,1.1-1.5,1.9-2c0.2-0.1,0.4-0.2,0.7,0c1,0.7,2.3,0.7,3.3,0
	c0.2-0.2,0.4-0.2,0.6,0c0.5,0.5,1.2,0.9,1.6,1.5c0.8,1.2,1.5,2.5,2.2,3.8C28.3,27,22.7,27.1,19.5,24.9z M28.3,22.3
	c0-0.1,0-0.1,0-0.2c0-0.5-0.3-0.8-0.7-0.7c-0.4,0-0.6,0.3-0.6,0.7c0,0.1,0,0.2,0,0.3c0,0.3-0.1,0.5-0.4,0.5c-0.3,0-0.4-0.2-0.4-0.5
	c0-0.1,0-0.3,0-0.4c0-0.4-0.3-0.7-0.7-0.7c-0.4,0-0.6,0.3-0.7,0.7c0,0.1,0,0.3,0,0.4c-0.1,0.2-0.3,0.3-0.4,0.4
	c-0.1-0.1-0.3-0.2-0.4-0.4c-0.1-0.2,0-0.4,0-0.6c0-0.3-0.3-0.6-0.6-0.6c-0.3,0-0.6,0.2-0.7,0.5c-0.1,0.7,0,1.5,0.6,2
	c0.6,0.5,1.3,0.5,1.9,0.2c0.1-0.1,0.3-0.1,0.4,0C26.9,24.7,28.4,23.8,28.3,22.3z"/>
<path class="st6" d="M38.8,42.1c0,0.6,0.2,0.8,0.8,0.8c0.3,0,0.7,0,1,0c0.5,0.7,0.5,1.6,0.4,2.4c-1.1,0-2.2,0-3.4,0
	c0-1,0.1-1.9-0.6-2.7c-0.6-0.8-1.5-1.1-2.4-1.1c0.6-5,0.7-5.8,0.2-8.6c0.4-0.2,0.8-0.3,1.3-0.2c0,0.1,0,0.1,0.1,0.2
	c0.9,0.8,1.3,1.9,1.5,3.1c0.4,1.7,0.6,3.4,0.2,5.1C37.9,42.1,37.8,42.1,38.8,42.1z"/>
<path class="st7" d="M32.3,23.6c0.5-0.6,1-1.1,1.3-1.8c0.8-1.5,1.2-3.1,1.2-4.7c0-4-1.3-7.5-3.7-10.6c-0.7-0.9-1.5-1.6-2.5-2.2
	c-0.1-0.1-0.2-0.2-0.4-0.3c1.8,0.6,3.4,1.7,4.5,3.3c2.2,3.2,3.5,6.6,3.2,10.5c-0.2,2.6-1.3,4.8-3.4,6.5C32.5,24,32.4,23.8,32.3,23.6
	z"/>
<path class="st1" d="M15.1,18.3c0.7-0.3,1.4-0.4,2.1-0.8c2.2-1.1,3.8-2.8,4.9-5c0.7-1.4,1-2.8,1.1-4.3c0.1-1.5,0.1-2.9,0.1-4.4
	c0.2-0.1,0.4-0.1,0.7-0.2c0.1,2.9,0.4,5.9-0.7,8.6c-1.4,3.6-3.9,5.7-7.7,6.6c-0.1,0-0.3,0-0.5,0.1C15.1,18.6,15.1,18.5,15.1,18.3z"
	/>
<path class="st8" d="M33.2,42c-0.1,0-0.2-0.1-0.2-0.1c-0.7-0.1-1-0.4-0.8-1.1c0.4-1.7,0.6-3.5,0.5-5.3c-0.1-2-0.5-3.9-1.3-5.7
	c0-0.1-0.1-0.2-0.1-0.3c0.3-0.1,0.6-0.2,0.9-0.4C34.4,33.3,34.2,37.6,33.2,42z"/>
<path class="st4" d="M30.5,28.4c-3.6,1.3-7.2,1.1-10.9-0.4c0.3-0.3,0.6-0.6,0.8-0.9c0.1-0.1,0.2-0.1,0.3-0.1c2.9,1,5.9,1,8.8,0.2
	C29.9,27.6,30.2,28,30.5,28.4z"/>
<path class="st9" d="M38.8,42.1c-1.1,0-1,0.1-0.8-0.9c0.4-1.7,0.2-3.4-0.2-5.1c-0.3-1.1-0.7-2.2-1.5-3.1c0,0-0.1-0.1-0.1-0.2
	c0.7,0,1.2,0.5,1.7,1c0.7,0.9,1,2,1.2,3c0.3,1.7,0.4,3.4-0.1,5C38.9,41.9,38.9,42,38.8,42.1z"/>
<path class="st1" d="M40.9,30.4c0.3-0.5,0.5-0.9,0.8-1.4c0.6,2.4,0,4.8-1.7,6.4c-0.1-0.4-0.2-0.7-0.3-1c0.7-0.8,1.1-1.8,1.2-2.8
	C41,31.2,40.9,30.8,40.9,30.4z"/>
<path class="st4" d="M40.9,30.4c0,0.4,0,0.8,0,1.1c-0.1,1-0.6,2-1.2,2.8c-0.3-0.5-0.6-1-0.8-1.4C39.6,32.1,40.3,31.2,40.9,30.4z"/>
<path class="st10" d="M35.2,45.4c0-0.8,0-1.7-0.4-2.4c1-0.1,1.7,0.5,1.7,1.5c0,0.3,0,0.6,0,1C36,45.4,35.6,45.4,35.2,45.4z"/>
<path class="st11" d="M41.1,45.4c0-0.8,0.1-1.7-0.4-2.4c0.8,0,1.5,0.5,1.5,1.3c0,0.3,0,0.7,0,1.1C41.8,45.4,41.4,45.4,41.1,45.4z"/>
<path class="st12" d="M25,18.7c-0.4-0.1-0.7-0.2-0.7-0.6c0-0.4,0.3-0.6,0.7-0.7c0.3-0.1,0.7,0,1.1,0c-0.1,0.5-0.3,0.9-0.8,1.1
	C25.2,18.5,25.1,18.7,25,18.7z"/>
<path class="st13" d="M25,18.7c0.1-0.1,0.2-0.2,0.3-0.3c0.5-0.2,0.7-0.6,0.8-1.1c0.3,0.1,0.6,0.3,0.7,0.6c0,0.4-0.3,0.6-0.6,0.7
	C25.8,18.8,25.4,18.7,25,18.7z"/>
<path class="st1" d="M30.5,28.4c-0.3-0.4-0.6-0.8-0.8-1.1c0.9-0.3,0.7-0.4,1.4,0.4c0.1,0.1,0.2,0.3,0.4,0.5
	C31.1,28.2,30.8,28.3,30.5,28.4z"/>
<path class="st0" d="M31.1,12.7c0,0.2,0,0.4,0,0.6c0,0.4-0.3,0.6-0.6,0.6c-0.4,0-0.6-0.2-0.7-0.6c0-0.4,0-0.9,0-1.3
	c0-0.4,0.3-0.6,0.7-0.6c0.4,0,0.6,0.3,0.6,0.6C31.1,12.3,31.1,12.5,31.1,12.7z"/>
<path class="st0" d="M20,12.6c0-0.2,0-0.4,0-0.6c0-0.4,0.2-0.6,0.6-0.6c0.4,0,0.7,0.2,0.7,0.6c0,0.4,0,0.9,0,1.3
	c0,0.4-0.3,0.6-0.7,0.6c-0.4,0-0.6-0.3-0.6-0.6C19.9,13,20,12.8,20,12.6z"/>
<path class="st0" d="M28.3,22.3c0.1,1.5-1.4,2.4-2.6,1.6c-0.1-0.1-0.3,0-0.4,0c-0.7,0.4-1.3,0.3-1.9-0.2c-0.7-0.5-0.7-1.2-0.6-2
	c0-0.3,0.3-0.5,0.7-0.5c0.3,0,0.6,0.2,0.6,0.6c0,0.2,0,0.4,0,0.6c0.1,0.2,0.2,0.3,0.4,0.4c0.1-0.1,0.3-0.3,0.4-0.4
	c0.1-0.1,0-0.3,0-0.4c0-0.4,0.3-0.7,0.7-0.7c0.4,0,0.7,0.3,0.7,0.7c0,0.1,0,0.3,0,0.4c0,0.3,0.1,0.5,0.4,0.5c0.3,0,0.4-0.2,0.4-0.5
	c0-0.1,0-0.2,0-0.3c0-0.4,0.3-0.7,0.6-0.7c0.4,0,0.7,0.3,0.7,0.7C28.3,22.2,28.3,22.2,28.3,22.3z"/>
<g>
	<g id="Layer_1_00000081631860312913987590000012732180466644578438_">
		<g>
			<g id="Layer_2_00000088091907630835371270000015175072473344992142_">
				<path class="st4" d="M-58.6,20.5c-0.3-1.1-0.1-2.2,0.2-3.3"/>
			</g>
			<g id="Layer_3_00000096023196642563317130000006583632931734933178_">
			</g>
		</g>
	</g>
</g>
</svg>
