<?xml version="1.0" encoding="utf-8"?>
<!-- Generator: Adobe Illustrator 26.5.0, SVG Export Plug-In . SVG Version: 6.00 Build 0)  -->
<svg version="1.1" id="Layer_1" xmlns="http://www.w3.org/2000/svg" xmlns:xlink="http://www.w3.org/1999/xlink" x="0px" y="0px"
	 viewBox="0 0 20 20" style="enable-background:new 0 0 20 20;" xml:space="preserve">
<style type="text/css">
	.st0{fill:#464655;}
	.st1{fill:#FE4B55;}
	.st2{fill:#F4F4F3;}
	.st3{fill:#525260;}
	.st4{fill:#EFC72A;}
	.st5{fill:#F4F3F1;}
	.st6{fill:#F4F0E2;}
</style>
<path class="st0" d="M0.1,16.2c0-1,0-1.9,0-2.9c0.1,0,0.2,0,0.2,0c6.5,0,12.9,0,19.4,0c0.1,0,0.2,0,0.2,0c0,1,0,1.9,0,2.9
	c0,0.1-0.1,0.2-0.1,0.2c-0.3,1.7-1.6,3.1-3.3,3.5c-0.2,0-0.3,0.1-0.5,0.1c-0.1,0-0.2,0-0.2,0c-0.1,0-0.1,0-0.2,0
	c-3.8,0-7.5,0-11.3,0c-0.1,0-0.2,0-0.2,0S4,20,4,20c0,0-0.1,0-0.1,0c-1.9-0.3-3.2-1.6-3.6-3.4C0.2,16.4,0.2,16.3,0.1,16.2z"/>
<path class="st1" d="M20,3.9c0,0.9,0,1.8,0,2.7c-0.1,0-0.2,0-0.2,0c-6.5,0-12.9,0-19.4,0c-0.1,0-0.2,0-0.2,0c0-0.9,0-1.8,0-2.8
	c0,0,0-0.1,0-0.1C0.5,1.5,2.3,0,4.5,0c3.7,0,7.4,0,11.1,0c2.1,0,3.8,1.4,4.3,3.4C19.9,3.6,20,3.7,20,3.9z"/>
<path class="st2" d="M0.1,6.6c0.1,0,0.2,0,0.2,0c6.5,0,12.9,0,19.4,0c0.1,0,0.2,0,0.2,0c0,2.2,0,4.5,0,6.7c-0.1,0-0.2,0-0.2,0
	c-6.5,0-12.9,0-19.4,0c-0.1,0-0.2,0-0.2,0C0.1,11.1,0.1,8.9,0.1,6.6z M11,11.1c0.2,0.2,0.3,0.3,0.5,0.5c0-0.8,0-1.6,0-2.4
	c0-0.3-0.2-0.4-0.5-0.3c-0.1,0-0.2,0.1-0.4,0.1c0-0.1,0-0.2,0-0.2c0-0.1,0-0.3-0.1-0.4c-0.1-0.4-0.7-0.7-1.1-0.5
	C9.3,7.8,9.2,8,9.1,8.2c0.2,0,0.4,0,0.5,0C9.6,8.4,9.5,8.7,9.5,8.9c-0.1,0-0.2-0.1-0.3-0.1c-0.3-0.1-0.5,0-0.5,0.4
	c0,0.7,0,1.5,0,2.2c0,0,0,0.1,0,0.2c0.2-0.2,0.4-0.3,0.5-0.5c0,0,0,0,0,0c0,0.1-0.1,0.3-0.1,0.4c-0.1,0.3-0.1,0.3-0.4,0.4
	c0,0.1,0,0.3,0,0.4c1,0,1.9,0,2.9,0c0-0.2,0-0.3,0-0.5c-0.1,0-0.1,0-0.2,0c0,0-0.1,0-0.1-0.1C11.1,11.5,11.1,11.3,11,11.1L11,11.1z"
	/>
<path class="st3" d="M4.2,20c0.1,0,0.2,0,0.2,0C4.4,20,4.3,20,4.2,20z"/>
<path class="st3" d="M15.7,20c0.1,0,0.1,0,0.2,0C15.8,20,15.8,20,15.7,20z"/>
<path class="st4" d="M9.1,11.1c-0.2,0.2-0.3,0.3-0.5,0.5c0-0.1,0-0.1,0-0.2c0-0.7,0-1.5,0-2.2c0-0.4,0.2-0.5,0.5-0.4
	c0.1,0,0.2,0.1,0.3,0.1c0-0.2,0.1-0.5,0.1-0.7c-0.2,0-0.3,0-0.5,0C9.2,8,9.3,7.8,9.5,7.7c0.4-0.2,1,0.1,1.1,0.5
	c0,0.1,0.1,0.3,0.1,0.4c0,0.1,0,0.1,0,0.2c0.1,0,0.2-0.1,0.4-0.1c0.3-0.1,0.5,0.1,0.5,0.3c0,0.8,0,1.6,0,2.4
	c-0.2-0.2-0.4-0.3-0.5-0.5c0,0,0,0,0,0c0,0,0,0,0,0c0.1,0.2,0.1,0.5,0.2,0.7c0,0,0.1,0.1,0.1,0.1c0.1,0,0.1,0,0.2,0
	c0,0.2,0,0.3,0,0.5c-1,0-1.9,0-2.9,0c0-0.2,0-0.3,0-0.4c0.3-0.1,0.3-0.1,0.4-0.4C9.1,11.3,9.1,11.2,9.1,11.1C9.1,11,9.1,11,9.1,11.1
	C9.1,11,9.1,11,9.1,11.1C9.1,11,9.1,11,9.1,11.1z M10.1,9C9.9,9.2,9.7,9.3,9.5,9.4c-0.1,0-0.1,0.1-0.1,0.2c0,0.5,0.3,0.9,0.6,1.2
	c0.1,0.1,0.1,0.1,0.2,0c0.4-0.3,0.6-0.8,0.6-1.3c0-0.1,0-0.1-0.1-0.2C10.5,9.3,10.3,9.2,10.1,9z M9.8,11.8c0-0.2,0.1-0.5-0.1-0.7
	c-0.1,0.2-0.2,0.5-0.3,0.7C9.6,11.8,9.7,11.8,9.8,11.8z M10.7,11.8c-0.1-0.2-0.2-0.5-0.3-0.7c-0.2,0.2-0.1,0.5-0.1,0.7
	C10.4,11.8,10.6,11.8,10.7,11.8z"/>
<path class="st5" d="M10.1,9c0.2,0.1,0.4,0.2,0.7,0.4c0,0,0.1,0.1,0.1,0.2c0,0.5-0.2,0.9-0.6,1.3c-0.1,0.1-0.1,0.1-0.2,0
	c-0.4-0.3-0.6-0.7-0.6-1.2c0-0.1,0-0.1,0.1-0.2C9.7,9.3,9.9,9.2,10.1,9z"/>
<path class="st6" d="M9.8,11.8c-0.1,0-0.3,0-0.4,0c0.1-0.2,0.2-0.5,0.3-0.7C9.9,11.3,9.8,11.6,9.8,11.8z"/>
<path class="st6" d="M10.7,11.8c-0.1,0-0.3,0-0.4,0c0-0.2-0.1-0.5,0.1-0.7C10.5,11.3,10.6,11.6,10.7,11.8z"/>
<path class="st2" d="M9.1,11.1C9.1,11,9.1,11,9.1,11.1C9.1,11,9.1,11,9.1,11.1C9.1,11,9.1,11,9.1,11.1C9.1,11.1,9.1,11.1,9.1,11.1z"
	/>
<path class="st2" d="M11,11.1C11,11,11,11,11,11.1C11,11,11,11.1,11,11.1C11,11.1,11,11.1,11,11.1z"/>
</svg>
