<?xml version="1.0" encoding="utf-8"?>
<!-- Generator: Adobe Illustrator 26.5.0, SVG Export Plug-In . SVG Version: 6.00 Build 0)  -->
<svg version="1.1" id="Layer_1" xmlns="http://www.w3.org/2000/svg" xmlns:xlink="http://www.w3.org/1999/xlink" x="0px" y="0px"
	 viewBox="0 0 256 256" style="enable-background:new 0 0 256 256;" xml:space="preserve">
<style type="text/css">
	.st0{fill:#42489B;}
	.st1{fill:#F4F2F2;}
	.st2{fill:#F4F4F4;}
	.st3{fill:#FE4B55;}
	.st4{fill:#FE4D57;}
	.st5{fill:#FEFDFD;}
	.st6{fill:#E8E8EE;}
	.st7{fill:#E9E9EE;}
	.st8{fill:#E7E8EE;}
	.st9{fill:#EAEAEF;}
	.st10{fill:#EBEBEF;}
	.st11{fill:#EAEBEF;}
	.st12{fill:#EBEBF0;}
	.st13{fill:#EDEDF0;}
	.st14{fill:#ECECF0;}
	.st15{fill:#ECEDF0;}
	.st16{fill:#EDEEF1;}
	.st17{fill:#EBECF0;}
	.st18{fill:#ECEBEF;}
</style>
<path class="st0" d="M50.9,0.1c29.3,0,58.6,0,87.9,0c0,6.5,0,13.1,0,19.6s0,13.2,0,19.7s0,13.1,0,19.6s0,13.2,0,19.7s0,13.1,0,19.6
	c0,6.5,0,13.1,0,19.6c-0.1,6.5-0.1,13.2-0.2,19.7c-1.6,0-3.3,0.1-4.9,0.1c-43.9,0-87.9,0-131.8,0c0-27.5-0.1-54.9,0-82.4
	C1.9,41,7.3,28.6,16.8,18c0.1,1.4,0.2,2.7,0.3,4.2c1-0.5,1.9-1.6,2.9-1.6c1.1,0,2,1,3.1,1.5c-1.2-2.8,0-4.6,2.3-5.9
	C23.8,15,21,16.8,21,13.7c6.2-5.1,13-9.1,20.7-11.3C44.8,1.4,47.9,0.8,50.9,0.1z M80.8,117.3c2.3-2.3,4.5-1.7,7,0
	c-2.6-3.1-0.2-4.6,1.6-6.5c-3.2,0.5-4.6-0.9-5.3-4c-0.3,3.5-2.5,4.2-5.4,4.2C81.6,112.5,81.9,114.5,80.8,117.3z M66,123.6
	c1.1,1,2.3,1.6,2.6,2.6c0.3,1-0.4,2.3-0.6,3.3c2.3-1.9,4.5-1.7,6.8,0.3c-1.7-2.9-0.4-4.8,1.8-6.6c-3.2,0.6-4.5-1.1-5-3.9
	C69.5,122.7,69.5,122.7,66,123.6z M104.2,111.1c3.7,1.2,2.9,3.8,2.4,6.3c2.1-2.4,4.2-1.9,6.5-0.1c-1.6-3-0.2-4.7,2.1-6.6
	c-3.6,1.3-4.5-1.2-5.6-3.6C109.2,110.2,107.4,111.2,104.2,111.1z M96.6,94.8c-0.2,3.3-2.2,4.2-5.2,4.2c3.1,1.4,3.2,3.5,2.1,6.3
	c2.3-2.4,4.4-2,6.7-0.1c-1.6-3-0.4-4.7,2.1-6.1C98.9,98.2,98.9,98.2,96.6,94.8z M116.9,123.2c1.4,1.3,2.7,1.9,3,2.9
	c0.3,1-0.2,2.3-0.4,3.9c1.4-0.9,2.3-1.4,3.3-1.9c1,0.6,1.9,1.2,2.9,1.7c-1.1-2.8,0-4.6,2.5-6.3c-3.1,0.3-4.7-1-5.5-4
	C122.1,122.9,120.1,123.6,116.9,123.2z M102.8,123.5c-2-0.3-3.3-0.1-4.2-0.6c-0.9-0.6-1.2-1.9-1.7-3c-0.4,3.3-3,3.4-5.5,3.9
	c3.3,1.3,2.9,3.5,2.2,6.2c2.1-2.3,4.3-2,6.6-0.3C98.9,126.8,99.9,125,102.8,123.5z M42.6,129.5c2.7-0.9,3.5-0.9,6.7,0.3
	c-1.6-2.8-0.9-4.7,1.8-6.2c-3,0.2-4.8-0.9-5.5-4c-0.4,3.3-2.6,4.1-5.4,3.8C42.6,126,42.6,126,42.6,129.5z M89.4,28
	c-3.1,0.8-4.6-0.8-5.2-3.6c-0.5,3.1-2.2,4.3-5.4,4c2.7,1.6,3.4,3.6,2.1,6.5c2.3-2.5,4.4-1.8,6.6,0.2C87,31.7,87,31.7,89.4,28z
	 M67.9,105.2c2.3-2,4.5-2,6.6,0.3c-0.2-3.6-0.2-3.6,2-7c-3,0.6-4.6-0.6-5.3-3.8c-0.4,3.3-2.3,4.2-5.3,4.1
	C68.4,100.4,69.6,102.3,67.9,105.2z M61.7,117.4c-1-2.8-0.7-4.9,2.1-6.4c-3.1,0.3-4.7-1-5.2-4c-1.8,3-1.8,3-6.1,4.4
	c3.5,1.1,3.6,3.2,2.4,6C57.4,115.6,59.5,114.8,61.7,117.4z M78.9,57.4c0.1,0.2,0.1,0.5,0.2,0.8c0.9,0.8,2,1.4,2.3,2.4
	c0.3,1-0.3,2.3-0.5,3.3c2.3-2,4.4-1.5,6.6,0.6c-0.4-3.4-0.4-3.4,1.9-7.1c-3.1,0.9-4.6-0.8-5.2-3.6C83.5,56.9,81.9,58.2,78.9,57.4z
	 M100.4,48.7c-1.7-3-0.2-4.7,2-6.5c-3.3,0.6-4.6-1.1-5.5-4.1c0,3.9-2.6,4-5.3,4.3c3.2,1.3,3,3.5,2.2,6.3
	C96,46.6,97.9,46.6,100.4,48.7z M51.2,15.9c-3,0.1-5-0.8-5.5-4.3c-0.2,3.6-2.3,4.3-5.4,4.3c3.1,1.4,3.2,3.5,2.2,6.4
	c2.2-2.5,4.4-1.9,6.7-0.1C47.8,19.4,48.2,17.3,51.2,15.9z M49,105.3c-1.3-2.9-0.6-4.8,2.2-6.5c-3.5,1-4.7-1.1-5.8-3.9
	c-0.3,3.4-2.5,4-5.4,4.1c3.6,1.2,3,3.6,2.5,6.3C44.8,102.8,46.8,103.4,49,105.3z M102.3,71.8c-3.4,0.6-4.6-1.3-5.4-4
	c-0.5,3.1-2.2,4.3-5.3,4c2.8,1.6,3.4,3.5,2,6.4c2.3-2,4.5-2,6.8-0.1C98.8,75.2,99.7,73.4,102.3,71.8z M45.6,67.8
	c-0.4,3.3-2.5,4.1-5.4,4.1c3,1.5,3.3,3.5,2.1,6.4c2.3-2.3,4.4-2,6.5,0.2c-0.2-3.6-0.2-3.6,2.1-7C47.9,72.1,46.3,70.9,45.6,67.8z
	 M19.8,119.4c0.1,4.2-2.9,3.8-5.2,4.1c2.4,2.5,2.4,2.5,2.2,6c0,0,6.2,0,6.6,0c-1.7-2.6-0.3-4.3,1.8-6
	C22.3,123.7,20.6,122.7,19.8,119.4z M91.4,15.9c3.6,1.3,3,3.8,2.3,6.4c2.2-2.5,4.4-1.9,6.8-0.1c-2-3.1-0.4-4.7,1.8-6.5
	c-3.3,0.6-4.6-1.1-5.4-3.9C96.3,14.9,94.8,16.3,91.4,15.9z M62.3,92.4c-1.9-3.1-1.1-5,1.5-6.6c-3.3,0.5-4.7-1.1-5.6-3.9
	c-0.2,3.5-2.5,4-5.2,4.1c3.1,1.4,3.1,3.6,1.8,6.3C58.5,90.5,58.5,90.5,62.3,92.4z M87.6,92.2c-1.6-2.9-0.5-4.7,1.9-6.4
	c-3.3,0.5-4.7-1.1-5.4-4.1c-0.2,3.6-2.3,4.3-5.2,3.8c0,0.2,0.1,0.4,0.1,0.6c0.9,0.8,1.8,1.5,2.7,2.3c-0.3,1.2-0.5,2.4-0.9,3.5
	c0.1,0.2,0.2,0.4,0.3,0.5C83.1,89.8,85.2,90.3,87.6,92.2z M16.6,105.3c2.2-2.3,4.4-2,6.7-0.1c-1.7-3-0.1-4.7,1.9-6.4
	c-3.3,0.8-4.5-1.2-5.4-3.8c-0.4,3.2-2.3,4.2-5.3,4C17.3,100.4,17.9,102.4,16.6,105.3z M71.3,67.8c-0.6,3-2.1,4.4-5.2,3.6
	c2.3,3.3,2.3,3.3,2,7.1c2.1-2.5,4.3-2.3,6.6-0.8c-0.3-1.1-0.5-2.1-0.9-3.3c1-0.9,1.8-1.6,2.7-2.4c0-0.2,0.1-0.4,0.1-0.6
	C73.5,72.2,71.9,70.9,71.3,67.8z M36.1,117.2c-0.2-1.4-0.9-2.7-0.5-3.6c0.3-1,1.6-1.6,2.3-2.5c-3.1,0.3-4.4-1.4-5.3-4.1
	c-0.2,3.5-2.6,3.9-5.3,4.1c3,1.4,3.2,3.4,1.9,6C33.2,115.8,33.2,115.8,36.1,117.2z M63.7,57.6c-3.1,0.6-4.6-0.8-5.2-3.8
	c-0.6,3-2.1,4.4-5.2,3.9c0.9,1.1,2.1,1.7,2.5,2.6c0.3,1.1-0.3,2.4-0.6,4.4c2.3-2.7,4.5-2.5,6.7-0.3C61.2,60.5,61.2,60.5,63.7,57.6z
	 M61.8,34.8c-1.6-3-0.3-4.8,2-6.5c-3.2,0.5-4.8-0.9-5.1-3.9c-2.1,3.2-2.1,3.2-5.9,4.3c2.8,1.3,3.6,3.2,2.1,6.1
	C57.4,33,59.5,32.4,61.8,34.8z M67.9,22.3c2.3-2.3,4.5-1.9,6.8-0.5c-0.3-1.1-0.5-2.1-0.9-3.3c1-0.9,1.8-1.6,2.7-2.4
	c0-0.2,0.1-0.4,0.1-0.6c-3.1,0.9-4.7-0.5-5.2-3.5c-0.7,1.2-1,2.6-1.7,3.2c-0.9,0.6-2.2,0.4-4.4,0.9C68.7,17.4,69.2,19.4,67.9,22.3z
	 M29.2,91.9c0.2,0.1,0.4,0.1,0.6,0.2c1-0.5,1.9-1.2,2.9-1.7c1.1,0.6,2,1.2,3,1.7c0.2,0,0.4-0.1,0.6-0.1c-1.9-2.8-0.5-4.5,1.7-6.2
	c-3.3,0.5-4.7-1-5.4-3.9C32,85,30.3,86.3,27.2,86C30.2,87.4,30.7,89.3,29.2,91.9z M23.3,48.7c-1.6-3-0.1-4.7,2.1-6.5
	C22,43,20.9,41,19.9,38.3c-0.5,3.1-2.2,4.3-5.3,4c2.8,1.5,3.4,3.5,2.1,6.4C18.9,46.9,20.9,46.3,23.3,48.7z M48.9,48.7
	c-1.5-3-0.3-4.8,2.1-6.5c-3.3,0.5-4.7-1-5.4-3.9c-0.6,2.9-2.1,4.4-5.5,4c3.4,1.4,3.1,3.6,2.3,6.3C44.7,46.8,46.7,46.4,48.9,48.7z
	 M112.7,35c0.1-0.2,0.2-0.4,0.3-0.6c-0.2-1.1-0.7-2.4-0.4-3.3c0.3-1,1.6-1.6,2.5-2.5c0-0.2,0-0.4,0-0.6c-3.3,1.1-4.5-0.9-5.3-3.5
	c-0.5,3.1-2.2,4.3-5.4,4c2.8,1.6,3.4,3.5,2.1,6.4C108.7,33,110.7,32.2,112.7,35z M32.7,24.2c-0.2,3.6-2.5,4.2-5.4,4.3
	c3.1,1.4,3.2,3.5,2.3,6.3c2.2-2.5,4.3-1.9,6.5-0.1c-1.4-2.9-0.5-4.8,2.1-6.4C35,28.8,33.5,27.4,32.7,24.2z M104.8,85.6
	c-0.2,0.2-0.4,0.3-0.6,0.5c3,1.2,3.4,3.3,2.7,6c1-0.5,1.9-1.2,3-1.8c1,0.5,2,1.2,3,1.7c0.2,0,0.4-0.1,0.6-0.1
	c-2.1-2.8-0.2-4.4,1.7-6.3c-3.4,1-4.4-1.3-5.3-4.1c-0.7,1.7-1.2,2.9-1.6,3.9C107,85.5,105.9,85.5,104.8,85.6z M66,42.3
	c2.9,1.6,3.1,3.6,1.9,6.5c2.3-2.1,4.4-2.1,6.7,0c-1.3-2.8-0.7-4.8,2-6.4c-3.2,0.3-4.8-1-5.4-4C70.7,41.2,69.4,43,66,42.3z M113.2,64
	c-1.7-2.8-0.1-4.5,1.9-6.3c-3.4,0.9-4.5-1.2-5.2-3.9c-1.8,3.2-1.8,3.2-5.8,4.3c3,1.3,3.5,3.3,2,6C110.1,62.7,110.1,62.7,113.2,64z
	 M126,78c-1.6-2.8-0.2-4.6,2.3-6.3c-1.9-0.2-3.3,0.1-4-0.5c-0.9-0.6-1.1-2-1.5-3.1c-0.2-0.2-0.5-0.4-0.7-0.6
	c0.4,4.1-2.1,4.3-4.9,4.5c3.1,1.3,3.1,3.5,2,6.2C122.8,76.4,122.8,76.4,126,78z M117.2,98.8c3,1.5,3.1,3.6,2.2,6.4
	c2.2-2.5,4.3-1.9,6.5-0.1c-1.4-2.9-0.5-4.8,2.1-6.4c-3.2,0.3-4.8-0.9-5.4-4C121.9,97.7,120.5,99.4,117.2,98.8z M14.7,71.4
	c0,0.2,0.1,0.4,0.1,0.8c0.9,0.8,2,1.4,2.3,2.4c0.3,1-0.2,2.3-0.5,3.9c1.4-0.9,2.3-1.4,3.3-2c1.1,0.6,2,1.2,3,1.7
	c0.2,0,0.4-0.1,0.6-0.1c-2-2.8-0.3-4.5,1.7-6.2c-3.4,0.8-4.6-1.1-5.4-3.9C19.3,70.7,17.8,72.3,14.7,71.4z M32.7,53.9
	c-0.4,3.3-2.5,4.2-5.4,4c2.9,1.5,3.4,3.5,2.1,6.5c2.2-2.8,4.4-1.9,6.7,0.1c-0.3-1.9-1-3.1-0.6-4.1c0.3-1,1.6-1.6,2.5-2.5
	C35,58.2,33.5,56.9,32.7,53.9z M123,38.5c-0.2,0.1-0.4,0.2-0.5,0.3c-0.4,1.1-0.6,2.5-1.4,3c-0.9,0.6-2.2,0.4-3.4,0.5
	c2.4,1.6,3,3.6,2.1,6.3c1-0.6,1.9-1.2,2.9-1.8c1,0.6,1.9,1.2,2.9,1.8c-1.1-2.8,0.2-4.6,2.5-6.4C124.8,42.8,123.4,41.3,123,38.5z
	 M117.2,15.8c3,1.5,3.1,3.6,1.8,6.6c1.7-1.1,2.7-1.6,3.6-2.3c1,0.6,1.9,1.2,3,1.8c-1.1-2.8,0.1-4.7,2.4-6.4
	c-3.4,0.8-4.6-1.1-5.4-3.9C121.9,14.7,120.5,16.4,117.2,15.8z"/>
<path class="st1" d="M255.9,176.9c0,6.6,0,13.3,0,19.9c-0.4,0-0.9,0-1.3,0c-83.6,0-167.2,0-250.9,0c-0.6,0-1.3,0-2,0.1
	c-0.2-0.2-0.3-0.3-0.5-0.5c0-6.1,0-12.3,0-18.4c0.2-0.3,0.3-0.6,0.5-1c0.9,0,1.8,0.1,2.7,0.1c82.9,0,165.7,0,248.6,0
	C254.1,177.1,255,177,255.9,176.9z"/>
<path class="st2" d="M1.8,137.9c43.9,0,87.9,0,131.8,0c1.6,0,3.3-0.1,4.9-0.1c1.2,0,2.3,0.1,3.5,0.1c36.9,0,73.7,0,110.6,0
	c1.1,0,2.1,0.1,3.2,0.1c0,6.5,0,13,0,19.5c-1.1,0-2.1,0-3.2,0c-82.6,0-165.1,0-247.6,0c-1.1,0-2.1,0-3.2,0c-0.2-0.2-0.3-0.4-0.5-0.5
	c0-6.1,0-12.3,0-18.4C1.5,138.3,1.6,138.1,1.8,137.9z"/>
<path class="st3" d="M1.8,157.5c1.1,0,2.1,0,3.2,0c82.6,0,165.1,0,247.6,0c1.1,0,2.1,0,3.2,0c0,6.5,0,13,0,19.5
	c-0.9,0.1-1.8,0.1-2.7,0.1c-82.9,0-165.7,0-248.6,0c-0.9,0-1.8-0.1-2.7-0.1C1.8,170.5,1.8,164,1.8,157.5z"/>
<path class="st3" d="M1.8,197c0.6,0,1.3-0.1,2-0.1c83.6,0,167.2,0,250.9,0c0.4,0,0.9,0,1.3,0c0,3.3,0,6.6,0,10
	c-0.9,3.2-1.7,6.3-2.4,9.5c-0.7,0-1.5,0-2.2,0c-81.6,0-163.1,0-244.7,0c-0.7,0-1.5,0-2.2,0C2.3,210,1.6,203.6,1.8,197z"/>
<path class="st4" d="M255.9,138c-1.1,0-2.1-0.1-3.2-0.1c-36.9,0-73.7,0-110.6,0c-1.2,0-2.3,0-3.5-0.1c0.1-6.5,0.1-13.2,0.2-19.7
	c37.9,0,76,0,113.9,0c1.1,0,2.1-0.1,3.2-0.1C255.9,124.7,255.9,131.3,255.9,138z"/>
<path class="st1" d="M138.8,78.8c0-6.5,0-13.2,0-19.7c39,0,78.1,0,117.1,0c0,6.6,0,13.3,0,19.9c-1.1-0.1-2.1-0.1-3.2-0.1
	C214.7,78.8,176.7,78.8,138.8,78.8z"/>
<path class="st2" d="M255.9,117.9c-1.1,0-2.1,0.1-3.2,0.1c-37.9,0-75.9,0-113.9,0c0-6.5,0-13.1,0-19.6c39,0,78.1,0,117.1,0
	C255.9,104.9,255.9,111.5,255.9,117.9z"/>
<path class="st3" d="M255.9,98.5c-39,0-78.1,0-117.1,0c0-6.5,0-13.1,0-19.6c37.9,0,76,0,113.9,0c1.1,0,2.1,0.1,3.2,0.1
	C255.9,85.5,255.9,92,255.9,98.5z"/>
<path class="st3" d="M255.9,59c-39,0-78.1,0-117.1,0c0-6.5,0-13.1,0-19.6c14.6,0,29.3,0,43.9,0c23.5,0,47.2,0,70.7,0
	c0.9,3.3,1.7,6.6,2.5,10C255.9,52.7,255.9,55.8,255.9,59z"/>
<path class="st3" d="M138.8,19.7c0-6.5,0-13.1,0-19.6c22.7,0,45.4,0,68,0c1.3,0.3,2.7,0.8,3.9,1c12.7,2.6,23.3,8.6,31.6,18.6
	c-1.2,0-2.3,0.1-3.5,0.1C205.5,19.7,172.2,19.7,138.8,19.7z"/>
<path class="st5" d="M1.8,157.5c0,6.4,0,13,0,19.4c-0.2,0.3-0.3,0.6-0.5,1c0-7,0-13.9,0-21C1.5,157.2,1.6,157.3,1.8,157.5z"/>
<path class="st1" d="M242.4,19.6c4.3,4.6,7.1,10.1,9.6,15.8c0.5,1.4,1,2.8,1.5,4.2c-23.5,0-47.2,0-70.7,0c-14.6,0-29.3,0-43.9,0
	c0-6.5,0-13.2,0-19.7c33.3,0,66.7,0,100.1,0C240,19.7,241.2,19.6,242.4,19.6z"/>
<path class="st6" d="M80.8,117.3c1.2-2.9,0.9-4.8-2.1-6.3c3,0,5.1-0.6,5.4-4.2c0.7,3.1,2.1,4.5,5.3,4c-1.8,1.9-4.2,3.4-1.6,6.5
	C85.2,115.6,83.1,115,80.8,117.3z"/>
<path class="st7" d="M66,123.6c3.5-0.9,3.5-0.9,5.5-4.1c0.5,2.8,1.8,4.5,5,3.9c-2.3,1.8-3.5,3.6-1.8,6.6c-2.3-2.1-4.5-2.3-6.8-0.3
	c0.2-1.2,1-2.4,0.6-3.3C68.3,125.3,67,124.7,66,123.6z"/>
<path class="st8" d="M104.2,111.1c3.2,0.1,5-0.8,5.4-4c1.2,2.4,1.9,4.9,5.6,3.6c-2.3,1.9-3.7,3.6-2.1,6.6c-2.3-1.9-4.3-2.3-6.5,0.1
	C107.1,114.7,107.9,112.1,104.2,111.1z"/>
<path class="st7" d="M96.6,94.8c2.2,3.3,2.2,3.3,5.9,4.3c-2.6,1.4-3.7,3.2-2.1,6.1c-2.3-1.9-4.5-2.3-6.7,0.1c1-2.8,0.9-4.9-2.1-6.3
	C94.5,99,96.4,98.1,96.6,94.8z"/>
<path class="st9" d="M116.9,123.2c3.2,0.3,5.2-0.4,5.8-3.8c0.7,3,2.3,4.3,5.5,4c-2.4,1.6-3.5,3.4-2.4,6.3c-1-0.5-1.9-1.2-2.9-1.7
	c-1,0.5-1.9,1.2-3.3,1.9c0.2-1.6,0.7-2.9,0.4-3.9C119.5,125.1,118.3,124.5,116.9,123.2z"/>
<path class="st9" d="M102.8,123.5c-2.9,1.5-3.9,3.3-2.6,6.2c-2.3-1.8-4.5-2-6.6,0.3c0.7-2.7,1.1-5-2.2-6.2c2.7-0.4,5.1-0.5,5.5-3.9
	c0.5,1.1,0.9,2.4,1.7,3C99.5,123.4,100.9,123.3,102.8,123.5z"/>
<path class="st10" d="M42.6,129.5c0.1-3.4,0.1-3.4-2.3-6.2c2.9,0.2,4.9-0.4,5.4-3.8c0.6,3.2,2.6,4.2,5.5,4c-2.8,1.5-3.4,3.5-1.8,6.2
	C46.2,128.6,45.2,128.6,42.6,129.5z"/>
<path class="st11" d="M89.4,28c-2.3,3.8-2.3,3.8-1.9,7c-2.2-2-4.3-2.7-6.6-0.2c1.2-2.9,0.5-4.9-2.1-6.5c3.2,0.4,4.9-0.8,5.4-4
	C84.8,27.3,86.3,28.8,89.4,28z"/>
<path class="st11" d="M67.9,105.2c1.6-3,0.5-4.7-2-6.3c3,0.1,4.9-0.8,5.3-4.1c0.6,3,2.2,4.3,5.3,3.8c-2.2,3.3-2.2,3.3-2,7
	C72.4,103.1,70.2,103.1,67.9,105.2z"/>
<path class="st6" d="M61.7,117.4c-2.3-2.7-4.4-1.8-6.6-0.1c1.2-2.8,1.1-4.9-2.5-6c4.3-1.3,4.3-1.3,6.1-4.4c0.5,3,2.1,4.3,5.2,4
	C61,112.6,60.7,114.6,61.7,117.4z"/>
<path class="st12" d="M78.9,57.4c3.1,0.8,4.7-0.5,5.3-3.6c0.7,2.9,2.1,4.5,5.2,3.6c-2.3,3.6-2.3,3.6-1.9,7.1
	c-2.1-2.1-4.3-2.7-6.6-0.6c0.2-1.2,0.9-2.4,0.5-3.3c-0.3-1-1.5-1.6-2.3-2.4C79,58,78.9,57.6,78.9,57.4z"/>
<path class="st11" d="M100.4,48.7c-2.3-2.1-4.4-2.1-6.6,0.1c0.7-2.7,1-4.9-2.2-6.3c2.8-0.3,5.2-0.4,5.3-4.3c1,2.9,2.2,4.7,5.5,4.1
	C100.2,44,98.7,45.7,100.4,48.7z"/>
<path class="st13" d="M51.2,15.9c-2.9,1.5-3.4,3.4-2.1,6.2c-2.3-1.8-4.4-2.4-6.7,0.1c1-2.8,1-5-2.2-6.4c3,0,5.2-0.6,5.4-4.3
	C46.2,15.1,48.1,16,51.2,15.9z"/>
<path class="st11" d="M49,105.3c-2.2-1.8-4.3-2.5-6.5,0c0.5-2.7,1.2-5.1-2.4-6.3c3.1-0.1,5.2-0.6,5.4-4.1c1.1,2.7,2.1,4.7,5.8,3.9
	C48.3,100.4,47.8,102.4,49,105.3z"/>
<path class="st14" d="M102.3,71.8c-2.6,1.6-3.5,3.4-1.9,6.3c-2.3-1.9-4.5-2-6.8,0.1c1.4-2.9,0.6-4.8-2-6.4c3.2,0.3,4.8-0.9,5.3-4
	C97.8,70.5,98.9,72.4,102.3,71.8z"/>
<path class="st14" d="M45.6,67.8c0.6,3.1,2.3,4.3,5.4,3.6c-2.3,3.3-2.3,3.3-2.1,7c-2.1-2.3-4.2-2.5-6.5-0.2c1.2-2.9,0.9-4.9-2.1-6.4
	C43.2,71.9,45.2,71.2,45.6,67.8z"/>
<path class="st10" d="M19.8,119.4c0.7,3.3,2.5,4.4,5.5,4c-2.1,1.7-3.6,3.4-1.8,6c-0.4,0-6.6,0-6.6,0c0.2-3.5,0.2-3.5-2.2-6
	C17,123.1,19.9,123.6,19.8,119.4z"/>
<path class="st14" d="M91.4,15.9c3.4,0.4,4.9-1.1,5.5-4.1c0.7,2.8,2,4.6,5.4,3.9c-2.2,1.7-3.8,3.4-1.8,6.5c-2.5-1.9-4.6-2.4-6.8,0.1
	C94.4,19.6,95,17.2,91.4,15.9z"/>
<path class="st10" d="M62.3,92.4c-3.8-1.9-3.8-1.9-7.6-0.2c1.2-2.7,1.3-4.9-1.8-6.3c2.8-0.1,5-0.5,5.2-4.1c1,2.8,2.3,4.5,5.6,3.9
	C61.3,87.4,60.4,89.3,62.3,92.4z"/>
<path class="st12" d="M87.6,92.2c-2.3-1.9-4.5-2.4-6.5,0.2c-0.1-0.2-0.2-0.4-0.3-0.5c0.3-1.2,0.5-2.3,0.9-3.5
	c-0.9-0.8-1.8-1.5-2.7-2.3c0-0.2-0.1-0.4-0.1-0.6c2.9,0.4,5-0.2,5.2-3.8c0.9,3,2.2,4.6,5.4,4.1C87.1,87.5,86,89.3,87.6,92.2z"/>
<path class="st9" d="M16.6,105.3c1.3-2.9,0.6-4.9-2.1-6.4c3.1,0.2,4.9-0.8,5.3-4c1,2.7,2.1,4.6,5.4,3.8c-2,1.8-3.7,3.4-1.9,6.4
	C21,103.3,18.9,103.1,16.6,105.3z"/>
<path class="st15" d="M71.3,67.8c0.6,3.1,2.2,4.4,5.3,3.6c0,0.2-0.1,0.4-0.1,0.6c-0.9,0.8-1.8,1.5-2.7,2.4c0.3,1.1,0.5,2.3,0.9,3.3
	c-2.3-1.4-4.5-1.7-6.6,0.8c0.3-3.6,0.3-3.6-2-7.1C69.2,72.2,70.7,70.8,71.3,67.8z"/>
<path class="st7" d="M36.1,117.2c-3-1.4-3-1.4-6.8-0.1c1.2-2.6,1.1-4.6-1.9-6c2.8-0.2,5-0.5,5.3-4.1c1,2.7,2.2,4.5,5.3,4.1
	c-0.9,0.8-2,1.5-2.3,2.5C35.3,114.5,35.9,115.8,36.1,117.2z"/>
<path class="st9" d="M63.7,57.6c-2.5,2.9-2.5,2.9-1.9,6.9c-2.2-2.1-4.4-2.4-6.7,0.3c0.3-2.1,1-3.4,0.6-4.4c-0.2-0.9-1.5-1.5-2.5-2.6
	c3.1,0.5,4.6-1,5.2-3.9C59.1,56.9,60.6,58.3,63.7,57.6z"/>
<path class="st9" d="M61.8,34.8c-2.3-2.4-4.5-1.8-6.8,0c1.5-2.9,0.6-4.8-2.1-6.1c3.7-1.1,3.7-1.1,5.9-4.3c0.4,3,1.9,4.4,5.1,3.9
	C61.5,30,60.3,31.8,61.8,34.8z"/>
<path class="st16" d="M67.9,22.3c1.3-2.9,0.7-4.8-2.6-6.3c2.1-0.3,3.5-0.2,4.4-0.9c0.7-0.5,1-1.9,1.7-3.2c0.5,2.9,2,4.3,5.2,3.5
	c0,0.2-0.1,0.4-0.1,0.6c-0.9,0.8-1.8,1.6-2.7,2.4c0.3,1.1,0.5,2.3,0.9,3.3C72.4,20.3,70.2,20,67.9,22.3z"/>
<path class="st14" d="M29.2,91.9c1.5-2.7,0.9-4.5-1.9-6c3.2,0.3,4.9-1,5.4-4.1c0.6,3,2.1,4.5,5.4,3.9c-2.2,1.7-3.7,3.4-1.7,6.2
	c-0.2,0-0.4,0.1-0.6,0.1c-1-0.5-2-1.2-3-1.7c-1,0.6-1.9,1.2-2.9,1.7C29.6,92,29.4,92,29.2,91.9z"/>
<path class="st10" d="M23.3,48.7c-2.3-2.5-4.4-1.8-6.6,0c1.3-2.9,0.6-4.8-2.1-6.4c3.2,0.3,4.9-0.9,5.3-4c1,2.7,2,4.6,5.4,3.9
	C23.1,44,21.7,45.6,23.3,48.7z"/>
<path class="st10" d="M48.9,48.7c-2.3-2.4-4.4-1.9-6.6,0c0.7-2.7,1.1-5-2.3-6.3c3.4,0.4,4.9-1.1,5.5-4c0.7,2.9,2.1,4.5,5.4,3.9
	C48.7,43.9,47.4,45.7,48.9,48.7z"/>
<path class="st12" d="M112.7,35c-2-2.8-4-1.9-6.3-0.2c1.3-2.9,0.6-4.8-2.1-6.4c3.2,0.3,4.9-0.9,5.4-4c1,2.7,2,4.6,5.3,3.5
	c0,0.2,0,0.4,0,0.6c-0.9,0.8-2,1.4-2.5,2.5c-0.3,1,0.2,2.1,0.4,3.3C112.9,34.6,112.8,34.8,112.7,35z"/>
<path class="st7" d="M32.7,24.2c0.7,3.2,2.3,4.6,5.5,4.1c-2.6,1.6-3.5,3.5-2.1,6.4c-2.2-1.8-4.3-2.5-6.5,0.1
	c0.9-2.8,0.7-4.9-2.3-6.3C30.3,28.4,32.5,27.9,32.7,24.2z"/>
<path class="st12" d="M104.8,85.6c1.1-0.1,2.1-0.1,3.3-0.2c0.4-1.1,1-2.1,1.6-3.9c0.9,2.8,1.8,5,5.3,4.1c-1.9,1.8-3.8,3.4-1.7,6.3
	c-0.2,0-0.4,0.1-0.6,0.1c-1-0.5-2-1.2-3-1.7c-1.1,0.6-2,1.2-3,1.8c0.7-2.7,0.4-4.7-2.7-6C104.4,86,104.6,85.7,104.8,85.6z"/>
<path class="st14" d="M66,42.3c3.3,0.6,4.6-1.1,5.3-4c0.6,3,2.2,4.4,5.4,4c-2.8,1.6-3.3,3.5-2,6.4c-2.3-2.1-4.5-2.1-6.7,0
	C69.1,46,68.8,43.9,66,42.3z"/>
<path class="st14" d="M113.2,64c-3.1-1.3-3.1-1.3-7,0.2c1.5-2.7,1-4.7-2-6c3.9-1.1,3.9-1.1,5.8-4.3c0.7,2.7,1.8,4.7,5.2,3.9
	C113,59.5,111.5,61.2,113.2,64z"/>
<path class="st14" d="M126,78c-3.2-1.6-3.2-1.6-6.8,0.1c1.2-2.7,1.1-4.9-2-6.2c2.8-0.2,5.3-0.4,4.9-4.5c0.2,0.2,0.5,0.4,0.7,0.6
	c0.5,1.1,0.7,2.5,1.5,3.1c0.7,0.5,2.1,0.3,4,0.5C125.8,73.4,124.4,75.2,126,78z"/>
<path class="st7" d="M117.2,98.8c3.3,0.5,4.7-1.2,5.4-4c0.5,3,2.2,4.3,5.4,4c-2.7,1.6-3.5,3.5-2.1,6.4c-2.2-1.9-4.3-2.4-6.5,0.1
	C120.4,102.5,120.2,100.3,117.2,98.8z"/>
<path class="st17" d="M14.7,71.4c3.2,0.9,4.6-0.6,5.2-3.6c0.9,2.7,2,4.6,5.4,3.9c-2.1,1.8-3.7,3.4-1.7,6.2c-0.2,0-0.4,0.1-0.6,0.1
	c-1-0.5-2-1.2-3-1.7c-1,0.6-1.9,1.2-3.3,2c0.2-1.6,0.9-2.9,0.5-3.9s-1.5-1.6-2.3-2.4C14.7,71.9,14.7,71.7,14.7,71.4z"/>
<path class="st14" d="M32.7,53.9c0.7,3,2.2,4.4,5.2,4.2c-0.9,0.9-2,1.5-2.5,2.5c-0.3,1,0.3,2.1,0.6,4.1c-2.3-2-4.5-3-6.7-0.1
	c1.2-3,0.6-5-2.1-6.5C30.4,58,32.3,57.2,32.7,53.9z"/>
<path class="st9" d="M123,38.5c0.3,2.9,1.7,4.4,5,3.8c-2.1,1.8-3.5,3.6-2.5,6.4c-1-0.5-1.9-1.2-2.9-1.8c-1,0.6-1.9,1.2-2.9,1.8
	c0.7-2.7,0.3-4.7-2.1-6.3c1.2-0.1,2.6,0.1,3.4-0.5c0.7-0.5,1-1.9,1.4-3C122.6,38.7,122.8,38.6,123,38.5z"/>
<path class="st14" d="M117.2,15.8c3.3,0.5,4.7-1.1,5.4-4c0.9,2.8,2,4.6,5.4,3.9c-2.3,1.7-3.5,3.6-2.5,6.4c-1-0.6-1.9-1.2-3-1.8
	c-1,0.6-1.9,1.2-3.6,2.3C120.3,19.5,120.3,17.3,117.2,15.8z"/>
<path class="st18" d="M16.6,17.9c1.5-1.4,2.9-2.9,4.4-4.3c-0.1,3.2,2.8,1.4,4.4,2.5c-2.3,1.3-3.6,3.1-2.3,5.9
	c-1.1-0.5-2-1.5-3.1-1.5c-1,0-1.9,1.1-2.9,1.6C16.9,20.5,16.8,19.3,16.6,17.9z"/>
<path class="st1" d="M253.4,216.4c-2.4,7.4-5.9,14.3-11.2,19.9c-1,0-2-0.1-3-0.1c-73.6,0-147.3,0-220.9,0c-1,0-2,0.1-3,0.1
	c-4.3-4.6-7.2-10-9.7-15.8c-0.5-1.4-1-2.8-1.5-4.2c0.7,0,1.5,0,2.2,0c81.6,0,163.1,0,244.7,0C252,216.5,252.7,216.4,253.4,216.4z"/>
<path class="st3" d="M15.4,236.4c1,0,2-0.1,3-0.1c73.6,0,147.3,0,220.9,0c1,0,2,0.1,3,0.1c-8.3,10-18.9,16-31.4,18.4
	c-3.7,0.8-7.6,1.1-11.3,1.1c-47.1,0.1-94.2,0-141.4,0c-15.9,0-29.5-5.7-40.7-17.1C16.8,238,16.1,237.2,15.4,236.4z"/>
</svg>
