<?xml version="1.0" encoding="utf-8"?>
<!-- Generator: Adobe Illustrator 26.5.0, SVG Export Plug-In . SVG Version: 6.00 Build 0)  -->
<svg version="1.1" xmlns="http://www.w3.org/2000/svg" xmlns:xlink="http://www.w3.org/1999/xlink" x="0px" y="0px"
	 viewBox="0 0 100 100" style="enable-background:new 0 0 100 100;" xml:space="preserve">
<style type="text/css">
	.st0{fill:#05CCC0;}
	.st1{fill:#F3F5F8;}
	.st2{fill:#106D6A;}
	.st3{fill:#FFFFFF;}
	.st4{fill:#E7E9EC;}
	.st5{fill:#FCFDFE;}
	.st6{fill:#FAFCFE;}
	.st7{fill:#F8FAFE;}
	.st8{fill:#FEFEFE;}
</style>
<g id="Layer_2">
	<g id="Layer_2_00000124147986899870748040000009013127560201801124_">
		<path class="st0" d="M50,11.9c10.3-0.2,19.2,3.7,26.9,10.3c12.8,11,19.4,25.3,22.5,41.7c1.1,6.2,0.2,11.8-3.7,16.9
			c-3.9,5.1-9.8,7.1-15.8,5c-11.7-4.1-23.7-5.7-35.8-5c-7.9,0.5-15.8,1.8-23.1,4.8c-9,3.7-18.1-3-20.4-11.9c-1.3-5-0.3-9.8,0.9-14.7
			c3.1-13,8.8-24.6,18.4-34.1c7-7,15.4-11.4,25.2-12.9C46.6,11.7,48.3,11.9,50,11.9z"/>
	</g>
	<path class="st1" d="M35.4,47.8"/>
</g>
<g id="Layer_3">
	<g>
		<path class="st2" d="M55.2,96.2c0,0-0.7-0.1-0.9-0.2c-0.6-0.1-1.3-0.2-1.9-0.4c-11.5-2.9-19.8-7.5-26.2-14.4
			c-6-6.5-9.6-14.3-10.7-23.2c-0.8-6.5-0.1-12.2,2.2-17.2c0.5-1.1,0.8-2.3,0.8-3.8c0.2-5.5,2.7-10.1,7.3-13.4
			c0.5-0.4,1.1-0.6,1.7-0.6c0.8,0,1.5,0.4,2,1c0.9,1.2,0.6,2.7-0.7,3.6c-1.6,1.1-2.7,2.4-3.6,3.8l1.3-1c0,0,0.7-0.3,1-0.4
			c0.7-0.3,1.3-0.6,2-0.8c2.4-0.9,4.9-1.3,7.6-1.3c1.1,0,2.2,0.1,3.3,0.2l0.1,0l1.8,0.5c1.1-4.4,1.5-9,1.4-14l-1.9,0.5l-6.3,0
			l-1.9-0.5c0,0,0,0.1,0,0.1c-0.1,1.4-1,2.3-2.3,2.4l-0.1,0c-1.4,0-2.5-1-2.5-2.3c-0.1-2.1-0.1-3.9,0-5.7C28.9,7.5,30,6.6,30.8,6
			c1.4-0.9,3-1.5,5.1-1.8c1-0.1,2-0.2,2.9-0.2C41,4,43,4.4,44.8,5.1c0.8,0.3,1.5,0.7,2.3,1.3c1.1,0.8,1.7,2,1.7,3.5
			c0,0.9,0,1.8,0,2.7c0,3.6,0,7.4-0.4,11.1c0.4-0.3,0.9-0.7,1.3-1c5.2-3.9,10.9-5.9,17-5.9c0.7,0,1.3,0,2,0.1
			c4.6,0.3,9.1,1.7,13.3,4c1.8,1,2.7,2.8,2.6,5.4c-0.1,2.7-1,5-2.7,7c-1.3,1.5-2.8,2.2-4.4,2.2c-0.6,0-1.2-0.1-1.9-0.3
			c-2.3-0.7-4.3-1.1-6.1-1.3c2.3,2,4.2,4.7,5.8,8.2c3,6.5,4.1,13.6,3.6,21.8c-0.4,7-2,13.8-4.7,20.3c-1.7,4.2-3.9,7.1-6.9,9.2
			c-1.9,1.3-4.1,2.2-6.7,2.7c-0.1,0-0.1,0-0.2,0.1L60,96.2H55.2z M35,61.7c-0.9,0-1.8,0.1-2.6,0.4c-2.7,0.8-4.7,2.8-6.4,6.4
			l-0.3,0.7c-0.2,0.5-0.5,1.1-0.7,1.6c-0.1,0.2-0.1,0.3,0.1,0.6c4.7,8.1,12,13.9,22.1,17.6c0.7,0.2,1.5,0.4,2.2,0.6
			c1.7,0.5,3.5,1,5.2,1.4c1,0.2,2,0.3,2.9,0.3c1.1,0,2.1-0.2,3.1-0.5l0.1,0l0.1,0c2.5-0.4,4.6-1.8,6.4-4.3c2.7-3.8,4-8.1,4.9-11.9
			c0.8-3.4,1.3-7,1.7-10.2c0.1-0.8,0.1-1.5,0.1-2.3l-1.6,1.3c-3.7,2.6-7.8,3.9-12.2,3.9l-0.3,0c-3,0-6.1-0.6-9.6-1.6
			c-1.4-0.4-2.8-0.8-4.2-1.3c-2.4-0.7-4.8-1.5-7.2-2.1C37.3,61.9,36.1,61.7,35,61.7z M36.9,32.8c-3.9,0-8,1.6-10.7,4.3
			c-2.2,1.9-3.7,4.5-4.8,8.2c-1.5,4.9-1.6,10.2-0.2,16.2c0.3,1.1,0.6,2.3,1,3.5l0.8-1.4l0.4-0.5c1.8-2.2,4.3-4.8,8.1-5.8
			c1.1-0.3,2.3-0.5,3.5-0.5c1.2,0,2.5,0.2,3.8,0.5c3.1,0.8,6.1,1.7,9.1,2.6l0.8,0.2c3.8,1.2,7.4,2.2,11.2,2.2l0,0
			c0.7,0,1.4,0,2.1-0.1c3.7-0.4,6.9-2,9.5-4.6c0.2-0.2,0.4-0.4,0.7-0.7c0.5-0.5,1-1,1.5-1.5c0.1-0.1,0.2-0.4,0.2-0.6
			c-0.4-3.1-1.1-6.1-2.2-8.8c-1-2.6-2.6-5.8-5.3-8.3c-1.1-1-2.3-1.9-3.9-2l-0.1,0l-0.1,0c-0.1,0-0.2-0.1-0.3-0.1
			c-0.3,0-0.6,0.2-1.1,0.7c-0.6,0.6-1.3,0.9-2,0.9c-0.6,0-1.2-0.3-1.7-0.8c-0.5-0.5-0.8-1.1-0.8-1.8c0-0.7,0.3-1.4,0.9-1.9
			c0.8-0.8,1.5-1.3,2.2-1.8c2.4-1.4,5.1-2.1,8.5-2.1c0.9,0,1.8,0,2.8,0.1l1.9,0.3c0.2-2.3,0.9-4.3,2.1-6c-2.6-0.9-5.3-1.4-7.9-1.4
			c-7.2,0-14.1,3.4-19.1,9.4c3.6,2.6,6.4,6.2,8.7,11c0.5,1.1,1,2.4,1.5,3.8c0.3,0.9,0.2,1.8-0.3,2.5c-0.5,0.6-1.2,1-2,1
			c-0.2,0-0.4,0-0.6-0.1c-1.4-0.3-1.7-1.4-2-2c-1.1-3.1-2.6-6-4.6-8.6C44.7,33.9,40.1,32.8,36.9,32.8z M79.4,25.6
			c-0.1,0-0.1,0.1-0.1,0.1c-1.2,1.3-1.7,2.8-1.4,4.4c1.1-1,1.7-2.3,1.7-3.9c0,0,0-0.1,0-0.1C79.5,25.9,79.4,25.8,79.4,25.6z
			 M35.9,10c1.1,0.2,2.1,0.3,3,0.3c1.3,0,2.5-0.2,3.7-0.6c-0.9-0.3-2.3-0.6-4.1-0.6c-0.7,0-1.5,0-2.1,0.1l-0.1,0
			c-0.5,0.1-1,0.2-1.5,0.3L35.9,10z"/>
		<path class="st3" d="M38.9,5c1.9,0,3.7,0.3,5.6,1c0.7,0.3,1.4,0.7,2,1.2c0.9,0.7,1.3,1.6,1.3,2.7c0,5.4,0.2,10.7-0.8,16.2
			c1.1-0.9,2.2-1.8,3.2-2.6c4.9-3.7,10.4-5.7,16.4-5.7c0.6,0,1.3,0,1.9,0.1c4.6,0.3,8.9,1.6,12.9,3.8c1.7,0.9,2.1,2.7,2.1,4.5
			c0,2.4-0.9,4.5-2.4,6.4c-1,1.2-2.2,1.9-3.7,1.9c-0.5,0-1-0.1-1.6-0.3c-2.5-0.8-5.1-1.3-7.8-1.3c-0.5,0-0.9,0-1.4,0.1
			c0.1,0.1,0.2,0.3,0.3,0.3c3.5,2.3,5.7,5.6,7.4,9.3c3.1,6.8,4,13.9,3.5,21.3c-0.4,6.9-2,13.6-4.6,20c-1.4,3.5-3.4,6.6-6.5,8.8
			c-1.9,1.3-4,2.1-6.3,2.5c-0.2,0-0.4,0.1-0.5,0.2c-1.5,0-3.1,0-4.6,0c-0.9-0.2-1.8-0.3-2.7-0.5c-9.8-2.5-18.7-6.5-25.7-14.1
			c-5.9-6.4-9.3-14-10.4-22.6c-0.7-5.8-0.3-11.4,2.1-16.7c0.6-1.3,0.8-2.7,0.9-4.1c0.2-5.3,2.6-9.5,6.9-12.6
			c0.4-0.3,0.7-0.4,1.1-0.4c0.5,0,0.9,0.2,1.2,0.6c0.5,0.7,0.4,1.6-0.5,2.2c-2.5,1.8-4.3,4.2-5.1,7.3c0,0.1,0,0.1,0,0.2
			c0.1,0,0.1-0.1,0.2-0.1c1.3-1,2.6-1.9,3.8-2.9c0.9-0.4,1.9-0.8,2.8-1.2c2.4-0.9,4.8-1.3,7.2-1.3c1.1,0,2.1,0.1,3.2,0.2
			c0.9,0.2,1.8,0.5,2.8,0.7c1.4-5.5,1.9-10.9,1.6-16.6c-1,0.3-2,0.6-2.9,0.8c-2,0-4,0-6,0c-1-0.3-2-0.5-3-0.8c0,0.5,0,0.9,0,1.4
			c0,0.9-0.6,1.4-1.3,1.5c0,0-0.1,0-0.1,0c-0.8,0-1.5-0.6-1.5-1.3c-0.1-1.9-0.1-3.8,0-5.6c0.1-1,0.8-1.7,1.6-2.3
			c1.4-1,3-1.4,4.7-1.6C37,5.1,38,5,38.9,5 M39,11.3c1.9,0,3.8-0.4,5.7-1.5c-0.8-1.2-3.6-1.7-6.1-1.7c-0.8,0-1.6,0-2.3,0.1
			c-1.3,0.3-2.6,0.5-3.5,1.4c0,0.1,0,0.2,0,0.3c1,0.3,2,0.6,3,1C36.8,11.2,37.9,11.3,39,11.3 M55.6,48.5c-0.1,0-0.2,0-0.4,0
			c-0.7-0.2-1-0.7-1.2-1.4c-1.1-3.2-2.7-6.2-4.8-8.9c-3.5-4.6-8-6.4-12.4-6.4c-4.4,0-8.7,1.9-11.4,4.5c-2.6,2.3-4.1,5.3-5.1,8.6
			c-1.7,5.5-1.6,11.1-0.2,16.7c0.4,1.9,1.1,3.7,1.7,5.7c0.7-1.3,1.3-2.3,1.9-3.4c0.1-0.2,0.3-0.3,0.4-0.5c2-2.5,4.3-4.6,7.5-5.5
			c1.1-0.3,2.2-0.4,3.2-0.4c1.2,0,2.4,0.2,3.6,0.5c3.3,0.8,6.5,1.8,9.7,2.8c3.8,1.2,7.6,2.3,11.6,2.3c0.7,0,1.5,0,2.2-0.1
			c3.9-0.5,7.3-2.1,10.1-4.9c0.7-0.8,1.5-1.5,2.2-2.3c0.3-0.3,0.4-0.9,0.4-1.4c-0.4-3.1-1.1-6.2-2.3-9.1c-1.3-3.2-2.9-6.3-5.6-8.7
			c-1.3-1.1-2.7-2.1-4.5-2.2c-0.2-0.1-0.4-0.1-0.6-0.1c-0.7,0-1.3,0.5-1.8,1c-0.4,0.4-0.8,0.6-1.2,0.6c-0.4,0-0.7-0.2-1-0.5
			C57,35,57,34.1,57.8,33.4c0.6-0.6,1.3-1.2,2.1-1.6c2.5-1.5,5.2-2,8-2c0.9,0,1.8,0,2.7,0.1c1,0.2,1.9,0.3,3,0.5
			c0-2.9,0.8-5.5,2.9-7.7c-0.4-0.1-0.7-0.2-1-0.3c-2.9-1.1-5.9-1.6-8.7-1.6c-8,0-15.4,4.1-20.5,10.6c0,0,0,0.1,0.1,0.1
			c4.2,2.8,7,6.6,9.1,11.1c0.6,1.2,1,2.4,1.5,3.7C57.4,47.5,56.7,48.5,55.6,48.5 M77.4,31.3c0.3,0,0.7-0.2,1-0.4
			c1.4-1.2,2-2.8,2.1-4.7c0-0.1,0-0.2,0-0.4c-0.2-0.5-0.4-1.1-0.6-1.6c-0.5,0.3-1.1,0.4-1.5,0.8c-1.3,1.5-2,3.2-1.7,5.2
			c0.1,0.4,0.3,1,0.5,1C77.3,31.3,77.4,31.3,77.4,31.3 M60.1,66.3c-0.1,0-0.2,0-0.3,0c-3.2,0-6.3-0.7-9.3-1.6
			c-3.8-1.1-7.6-2.3-11.5-3.4c-1.3-0.4-2.6-0.6-4-0.6c-1,0-1.9,0.1-2.9,0.4c-3.5,1.1-5.5,3.8-7,6.9c-0.3,0.7-0.7,1.5-1,2.2
			c-0.3,0.5-0.2,1,0.1,1.5c5.2,8.9,13.1,14.5,22.6,18c2.5,0.7,5,1.5,7.6,2.1c1,0.2,2.1,0.4,3.2,0.4c1.1,0,2.3-0.2,3.4-0.5
			c3.1-0.5,5.3-2.2,7-4.7c2.6-3.7,4-7.9,5-12.3c0.8-3.4,1.3-6.8,1.8-10.3c0.2-1.5,0-3.1,0-4.6c-1,0.8-2.1,1.7-3.2,2.6
			C68.2,65,64.3,66.3,60.1,66.3 M38.9,3c-1,0-2,0.1-3,0.2c-2.3,0.3-4,0.9-5.5,1.9c-0.6,0.4-2.4,1.6-2.5,3.8c-0.1,1.8-0.1,3.7,0,5.8
			c0,1.8,1.6,3.3,3.5,3.3c0.1,0,0.1,0,0.2,0c1.4-0.1,2.6-0.9,3-2.2l0.7,0.2l0.3,0.1l0.3,0l3,0l3,0l0.3,0l0.3-0.1l0.5-0.1
			c0,4-0.3,7.8-1.1,11.5l-0.8-0.2l-0.1,0l-0.1,0c-1.2-0.2-2.3-0.2-3.5-0.2c-2.5,0-4.9,0.4-7.2,1.1c1.2-1.3,1.4-3.1,0.4-4.5
			c-0.7-0.9-1.7-1.5-2.8-1.5c-0.8,0-1.6,0.3-2.3,0.8c-4.9,3.5-7.5,8.3-7.8,14.2c-0.1,1.4-0.3,2.4-0.7,3.4c-2.4,5.2-3.1,11-2.3,17.8
			c1.1,9.1,4.8,17.1,10.9,23.8c6.5,7.1,15,11.7,26.7,14.7c0.7,0.2,1.3,0.3,2,0.4c0.3,0,0.6,0.1,0.8,0.2l0.2,0h0.2h4.6h0.3l0.3-0.1
			c0.1,0,0.2-0.1,0.3-0.1l0.1,0c2.8-0.5,5.1-1.4,7.1-2.8c3.1-2.2,5.4-5.3,7.2-9.7c2.7-6.6,4.3-13.5,4.8-20.6
			c0.5-8.4-0.7-15.6-3.7-22.3c-1.2-2.5-2.5-4.6-3.9-6.4c1,0.2,2,0.5,3,0.8c0.7,0.2,1.5,0.4,2.2,0.4c1.9,0,3.7-0.9,5.2-2.6
			c1.9-2.2,2.9-4.7,2.9-7.6c0.1-3-1-5.1-3.1-6.3c-4.3-2.4-8.9-3.8-13.7-4.1c-0.7,0-1.4-0.1-2.1-0.1c-6.1,0-11.8,1.9-17.1,5.7
			c0.2-3,0.2-6,0.2-8.9c0-0.9,0-1.8,0-2.7c0-1.8-0.7-3.3-2.1-4.3C46.8,5,46,4.5,45.1,4.2C43.2,3.4,41.1,3,38.9,3L38.9,3z M49.2,31.1
			c4.7-5.3,11.1-8.3,17.6-8.3c2.1,0,4.3,0.3,6.4,0.9c-0.7,1.3-1.2,2.7-1.4,4.3l-0.8-0.1l-0.1,0l-0.1,0c-1.1-0.1-2-0.1-2.9-0.1
			c-3.5,0-6.5,0.7-9,2.2c-0.8,0.5-1.6,1.1-2.4,1.9c-0.8,0.7-1.2,1.7-1.2,2.6c0,0.9,0.4,1.8,1,2.5c0.7,0.7,1.5,1,2.4,1
			c0.7,0,1.7-0.2,2.7-1.2c0.2-0.2,0.4-0.3,0.4-0.4l0.2,0.1l0.2,0c1,0.1,2,0.6,3.3,1.7c2.6,2.3,4,5.5,5,7.9c1.1,2.6,1.8,5.5,2.1,8.5
			c-0.4,0.5-0.8,0.9-1.3,1.4c-0.2,0.2-0.4,0.4-0.7,0.7c-2.5,2.5-5.4,3.9-8.9,4.3c-0.6,0.1-1.3,0.1-2,0.1c-3.6,0-7.1-1.1-10.9-2.2
			l-0.1,0l-0.7-0.2c-3-0.9-6.1-1.8-9.1-2.6c-1.4-0.3-2.7-0.5-4.1-0.5c-1.3,0-2.5,0.2-3.7,0.5c-4.1,1.1-6.7,3.9-8.6,6.2
			c-0.1,0.1-0.1,0.1-0.2,0.2c-0.1-0.4-0.2-0.9-0.3-1.3c-1.4-5.8-1.3-10.9,0.2-15.7c1.1-3.4,2.5-5.9,4.5-7.7l0,0l0,0
			c2.5-2.4,6.4-4,10-4c3,0,7.2,1,10.8,5.6c1.9,2.5,3.4,5.3,4.5,8.3c0.2,0.6,0.8,2.3,2.7,2.7c0.3,0.1,0.5,0.1,0.8,0.1
			c1.1,0,2.2-0.5,2.8-1.4c0.7-1,0.8-2.2,0.4-3.4c-0.5-1.5-1-2.7-1.5-3.9C55.2,37.2,52.5,33.7,49.2,31.1L49.2,31.1z M26,70.9
			c0.2-0.5,0.4-0.9,0.7-1.4c0.1-0.2,0.2-0.4,0.3-0.7c1.6-3.3,3.4-5.1,5.8-5.8c0.7-0.2,1.5-0.3,2.3-0.3c1,0,2.2,0.2,3.4,0.5
			c2.4,0.7,4.9,1.4,7.2,2.1c1.4,0.4,2.8,0.8,4.2,1.3c3.6,1.1,6.8,1.6,9.9,1.6c0.1,0,0.2,0,0.4,0c4.7,0,8.9-1.4,12.7-4l0,0
			c0,0,0,0,0,0c-0.4,3.1-0.9,6.7-1.7,10.1c-0.9,3.7-2.1,8-4.7,11.6c-1.6,2.3-3.5,3.5-5.7,3.9l-0.1,0l-0.1,0
			c-0.9,0.3-1.9,0.4-2.8,0.4c-0.9,0-1.8-0.1-2.7-0.3c-1.7-0.4-3.5-0.9-5.2-1.4c-0.7-0.2-1.5-0.4-2.2-0.6
			C37.6,84.3,30.5,78.7,26,70.9L26,70.9z"/>
	</g>
	<path class="st1" d="M35.7,14.1c2,0,4,0,6,0c-0.1,2.3,0,4.7-0.2,7c-0.3,2.7-0.8,5.3-1.2,8c-3.6-0.5-7-0.2-10.4,1.1
		c-1,0.4-1.9,0.8-2.8,1.2c0.8-1.2,1.5-2.5,2.5-3.7c0.6-0.7,1.4-1.3,2.1-1.8c2.2-1.5,3.3-3.8,3.7-6.3C35.6,17.7,35.6,15.9,35.7,14.1z
		"/>
	<g>
		<path class="st2" d="M30.6,23.1c-1.4,0-2.5-1.1-2.5-2.5c0-1.4,1.1-2.5,2.5-2.5c0.7,0,1.3,0.3,1.8,0.8c0.5,0.5,0.7,1.1,0.7,1.8
			C33.1,21.9,32,23.1,30.6,23.1L30.6,23.1z"/>
		<path class="st3" d="M30.6,19.1C30.6,19.1,30.6,19.1,30.6,19.1c0.8,0,1.5,0.7,1.5,1.5c0,0.8-0.7,1.5-1.5,1.5c0,0,0,0,0,0
			c-0.8,0-1.5-0.7-1.5-1.5C29.1,19.7,29.8,19.1,30.6,19.1 M30.6,17.1c-1.9,0-3.5,1.6-3.5,3.5c0,1.9,1.5,3.5,3.5,3.5
			c1.9,0,3.5-1.6,3.6-3.5C34.2,18.7,32.6,17.1,30.6,17.1L30.6,17.1L30.6,17.1L30.6,17.1z"/>
	</g>
	<path class="st1" d="M70.6,29.9c-3.7-0.3-7.4-0.1-10.7,1.8c-0.7,0.4-1.4,1-2.1,1.6C57,34.1,57,35,57.7,35.6
		c0.6,0.6,1.5,0.6,2.2-0.2c0.7-0.7,1.4-1.2,2.4-0.9c0.4,0.4,0.8,0.9,1.2,1.3c2.3,2.2,3.9,4.9,5.2,7.8c1.6,3.6,2.5,7.4,3,11.3
		c0.1,1.1,0.3,2.2,0.4,3.3c-2.8,2.8-6.1,4.4-10.1,4.9c-4.8,0.6-9.3-0.8-13.8-2.2c-3.2-1-6.4-2-9.7-2.8c-2.2-0.6-4.5-0.6-6.8,0
		c-3.2,0.9-5.5,3-7.5,5.5c-0.1,0.2-0.3,0.3-0.4,0.5c-0.3-1.2-0.7-2.5-0.9-3.7c-0.3-1.9-0.5-3.7-0.7-5.6c-0.1-0.8,0.1-1.6,0.2-2.4
		c0.5,0.6,1.1,0.9,1.9,0.6c0.8-0.3,1-0.9,1-1.7c0-0.6,0.1-1.1,0.2-1.7c0.9-4.8,2.6-9.1,7.7-11.1c0.8-0.3,1.2-1.2,0.8-2
		c-0.3-0.8-1.1-1.1-2-0.8c-1.9,0.6-3.6,1.6-4.8,3.1c-1.1,1.4-2.1,3-3.1,4.5c0-0.3,0-0.7,0.2-1c1.1-1.9,1.4-3.9,1.2-6
		c5.4-5.2,16.7-7.5,23.8,1.9c2.1,2.7,3.6,5.7,4.8,8.9c0.2,0.6,0.5,1.2,1.2,1.4c1.3,0.3,2.2-0.8,1.7-2.2c-0.4-1.2-0.9-2.5-1.5-3.7
		c-2.1-4.5-4.9-8.4-9.1-11.1c0,0-0.1-0.1-0.1-0.1c6.9-8.8,18-13.2,29.2-9c-0.1,0.1-0.3,0.2-0.4,0.3c-0.5,0.2-1,0.3-1.4,0.5
		C71.5,24.9,70.7,27.2,70.6,29.9z"/>
	<path class="st4" d="M25.1,68c1.5-3.1,3.5-5.8,7-6.9c2.3-0.7,4.6-0.4,6.9,0.2c3.8,1.1,7.6,2.3,11.5,3.4c3,0.9,6.2,1.5,9.3,1.6
		c4.3,0.1,8.3-1.2,11.9-3.7c0.1,0.3,0.2,0.6,0.2,0.9c-0.2,2.3-0.4,4.7-0.8,7c-0.7,4.3-2.1,8.5-3.6,12.6c-1.1,2.8-2.8,5.3-5,7.3
		c-0.5,0.4-1,0.9-1.5,1.3c-2.2,0.7-4.4,0.6-6.6,0.1c-2.6-0.6-5.1-1.4-7.6-2.1c-0.1-0.1-0.2-0.3-0.4-0.4c-1.3-0.7-2.6-1.3-3.8-2
		c-5.4-3-10-7-13.4-12.2C27.6,72.9,26.4,70.4,25.1,68z M31.2,69.6c0,2.4,2.2,4.6,4.6,4.5c2.5,0,4.5-2.2,4.5-4.7
		c0-2.3-2.2-4.4-4.6-4.4C33.3,65.1,31.2,67.3,31.2,69.6z M62.8,74.2c-2.6,0-4.5,1.9-4.5,4.5c0,2.4,2.1,4.5,4.5,4.5
		c2.4,0,4.5-2,4.5-4.5C67.3,76.1,65.4,74.2,62.8,74.2z M61.3,71.1c0-0.8-0.7-1.5-1.5-1.5c-0.9,0-1.5,0.6-1.5,1.5
		c0,0.8,0.7,1.5,1.4,1.5C60.6,72.7,61.3,72,61.3,71.1z M70.3,71.1c0-0.9-0.6-1.5-1.5-1.5c-0.8,0-1.5,0.7-1.5,1.5
		c0,0.8,0.7,1.5,1.5,1.5C69.7,72.6,70.3,72,70.3,71.1z M53.7,84.7c0-0.9-0.6-1.5-1.5-1.5c-0.8,0-1.5,0.7-1.5,1.5
		c0,0.8,0.8,1.5,1.5,1.5C53.1,86.2,53.7,85.5,53.7,84.7z M52.3,78.6c0.9,0,1.5-0.7,1.4-1.5c0-0.8-0.6-1.4-1.5-1.4
		c-0.8,0-1.5,0.7-1.5,1.5C50.7,77.9,51.5,78.7,52.3,78.6z M47.7,80.1c0-0.8-0.7-1.5-1.5-1.5c-0.8,0-1.5,0.7-1.5,1.5
		c0,0.8,0.7,1.5,1.5,1.5C47.1,81.6,47.7,81,47.7,80.1z M53.7,71.1c0-0.8-0.6-1.5-1.4-1.5c-0.8,0-1.6,0.7-1.6,1.5
		c0,0.8,0.7,1.5,1.5,1.5C53.1,72.6,53.7,72,53.7,71.1z M43.3,74.2c0,0.8,0.6,1.4,1.4,1.4c0.8,0,1.6-0.7,1.5-1.5
		c0-0.8-0.7-1.5-1.6-1.5C43.9,72.7,43.3,73.3,43.3,74.2z M59.8,87.6c0.9,0,1.5-0.7,1.5-1.5c0-0.8-0.7-1.5-1.5-1.5
		c-0.8,0-1.5,0.7-1.5,1.5C58.3,87,58.9,87.7,59.8,87.6z M40.2,78.6c0-0.8-0.7-1.4-1.6-1.4c-0.8,0-1.4,0.7-1.5,1.5
		c0,0.7,0.8,1.5,1.6,1.5C39.5,80.2,40.2,79.4,40.2,78.6z"/>
	<path class="st4" d="M60.9,91.7c0.5-0.4,1-0.9,1.5-1.3c2.2-2.1,3.9-4.5,5-7.3C69,79,70.3,74.8,71,70.5c0.4-2.3,0.6-4.7,0.8-7
		c0-0.3-0.1-0.6-0.2-0.9c1.1-0.9,2.2-1.8,3.2-2.6c0,1.5,0.2,3,0,4.6c-0.5,3.4-1,6.9-1.8,10.3c-1,4.3-2.4,8.6-5,12.3
		C66.2,89.5,64,91.2,60.9,91.7z"/>
	<path class="st5" d="M22.4,52.4c-0.1,0.8-0.3,1.6-0.2,2.4c0.2,1.9,0.4,3.8,0.7,5.6c0.2,1.3,0.6,2.5,0.9,3.7c-0.6,1-1.2,2.1-1.9,3.4
		c-0.6-2.1-1.3-3.9-1.7-5.7c-1.3-5.6-1.5-11.2,0.2-16.7c1-3.2,2.5-6.2,5.1-8.6c0.2,2.1-0.1,4.1-1.2,6c-0.2,0.3-0.1,0.7-0.2,1
		c-0.4,1.2-0.8,2.3-1.1,3.5C22.5,48.7,22.1,50.5,22.4,52.4z"/>
	<path class="st4" d="M72.1,58.2c-0.1-1.1-0.3-2.2-0.4-3.3c-0.4-3.9-1.3-7.7-3-11.3c-1.3-2.9-2.9-5.5-5.2-7.8
		c-0.4-0.4-0.8-0.9-1.2-1.3c1.8,0.1,3.2,1.1,4.5,2.2c2.6,2.4,4.3,5.4,5.6,8.7c1.2,2.9,1.9,6,2.3,9.1c0.1,0.4-0.1,1-0.4,1.4
		C73.6,56.8,72.8,57.5,72.1,58.2z"/>
	<path class="st4" d="M40.3,29.1c0.4-2.7,0.9-5.3,1.2-8c0.2-2.3,0.2-4.7,0.2-7c1-0.3,1.9-0.5,2.9-0.8c0.3,5.6-0.2,11.1-1.6,16.6
		C42.1,29.6,41.2,29.3,40.3,29.1z"/>
	<path class="st6" d="M25.1,68c1.3,2.4,2.5,4.9,4.1,7.2c3.5,5.2,8,9.2,13.4,12.2c1.3,0.7,2.5,1.3,3.8,2c0.2,0.1,0.2,0.3,0.4,0.4
		c-9.6-3.5-17.4-9.1-22.6-18c-0.3-0.5-0.4-1-0.1-1.5C24.4,69.5,24.8,68.7,25.1,68z"/>
	<path class="st4" d="M36.2,8.2c2.8-0.4,7.3,0,8.4,1.6c-2.9,1.6-5.8,1.7-8.9,1.1C35.7,10,35.7,9.1,36.2,8.2z"/>
	<path class="st4" d="M70.6,29.9c0.1-2.7,0.9-5,3.1-6.6c0.4-0.3,0.9-0.3,1.4-0.5c0.2-0.1,0.3-0.2,0.4-0.3c0.3,0.1,0.5,0.2,1,0.3
		c-2.1,2.2-2.9,4.7-2.9,7.7C72.6,30.2,71.6,30.1,70.6,29.9z"/>
	<path class="st4" d="M80.5,26.2c0,1.8-0.7,3.4-2.1,4.7c-0.3,0.3-0.8,0.5-1.1,0.4c-0.2,0-0.4-0.6-0.5-1c-0.3-2,0.3-3.7,1.7-5.2
		c0.4-0.4,1-0.5,1.5-0.8c0.2,0.5,0.4,1.1,0.6,1.6C80.5,26,80.5,26.1,80.5,26.2z"/>
	<path class="st7" d="M36.2,8.2c-0.5,0.8-0.6,1.8-0.5,2.7c-1-0.3-2-0.6-3-1c0-0.1,0-0.2,0-0.3C33.7,8.7,35,8.5,36.2,8.2z"/>
	<path class="st8" d="M23.2,34.3c-0.1,0-0.1,0.1-0.2,0.1c0-0.1,0-0.1,0-0.2C23.2,34.2,23.2,34.2,23.2,34.3z"/>
	<path class="st0" d="M22.4,52.4c-0.3-1.9,0.2-3.7,0.6-5.5c0.3-1.2,0.7-2.3,1.1-3.5c1-1.5,2-3.1,3.1-4.5c1.2-1.5,2.9-2.5,4.8-3.1
		c0.9-0.3,1.6,0,2,0.8c0.3,0.7,0,1.6-0.8,2c-5,2-6.8,6.2-7.7,11.1c-0.1,0.5-0.1,1.1-0.2,1.7c-0.1,0.7-0.3,1.4-1,1.7
		C23.5,53.3,22.9,52.9,22.4,52.4z"/>
	<g>
		<path class="st2" d="M35.7,75.2c-1.4,0-2.8-0.6-3.9-1.7c-1.1-1.1-1.7-2.5-1.7-3.9c0-2.9,2.6-5.5,5.5-5.5c3,0,5.6,2.6,5.6,5.4
			C41.3,72.5,38.7,75.2,35.7,75.2L35.7,75.2z"/>
		<path class="st3" d="M35.7,65.1c2.4,0,4.6,2.1,4.6,4.4c0,2.5-2.1,4.7-4.5,4.7c0,0,0,0,0,0c-2.4,0-4.5-2.1-4.5-4.5
			C31.2,67.3,33.3,65.1,35.7,65.1C35.6,65.1,35.7,65.1,35.7,65.1 M35.7,63.1L35.7,63.1L35.7,63.1c-3.5,0-6.5,3.1-6.5,6.5
			c0,1.7,0.7,3.3,2,4.6c1.2,1.2,2.9,2,4.6,2c3.6,0,6.6-3,6.6-6.7C42.2,66.1,39.2,63.1,35.7,63.1L35.7,63.1z"/>
	</g>
	<g>
		<path class="st2" d="M62.8,84.2c-3,0-5.5-2.5-5.5-5.5c0-1.5,0.6-2.9,1.6-3.9c1-1,2.4-1.6,3.9-1.6c1.5,0,2.9,0.6,3.9,1.6
			c1,1,1.6,2.4,1.6,3.9C68.3,81.7,65.7,84.2,62.8,84.2L62.8,84.2z"/>
		<path class="st3" d="M62.8,74.2c2.6,0,4.5,1.9,4.5,4.5c0,2.4-2.1,4.5-4.5,4.5c0,0,0,0,0,0c-2.4,0-4.5-2.1-4.5-4.5
			C58.3,76.1,60.2,74.2,62.8,74.2 M62.8,72.2c-1.8,0-3.4,0.7-4.6,1.9c-1.2,1.2-1.9,2.9-1.9,4.6c0,3.5,3,6.5,6.5,6.5
			c3.5,0,6.5-3,6.5-6.5c0-1.8-0.7-3.4-1.9-4.6C66.2,72.9,64.6,72.2,62.8,72.2L62.8,72.2z"/>
	</g>
	<g>
		<path class="st2" d="M59.7,73.6c-1.3,0-2.4-1.1-2.4-2.5c0-1.4,1-2.5,2.4-2.5c0,0,0,0,0,0c1.4,0,2.5,1.1,2.6,2.5
			c0,0.7-0.3,1.3-0.7,1.8S60.4,73.6,59.7,73.6L59.7,73.6z"/>
		<path class="st3" d="M59.8,69.6c0.8,0,1.5,0.7,1.5,1.5c0,0.8-0.7,1.5-1.5,1.5c0,0,0,0,0,0c-0.8,0-1.4-0.7-1.4-1.5
			C58.3,70.3,58.9,69.7,59.8,69.6C59.7,69.6,59.8,69.6,59.8,69.6 M59.8,67.6L59.8,67.6L59.8,67.6c-2,0-3.5,1.6-3.5,3.5
			c0,1.9,1.5,3.4,3.4,3.5l0,0l0.1,0c0.9,0,1.8-0.4,2.5-1c0.7-0.7,1-1.6,1-2.5C63.3,69.2,61.7,67.6,59.8,67.6L59.8,67.6z"/>
	</g>
	<g>
		<path class="st2" d="M68.8,73.6c-1.4,0-2.5-1.1-2.5-2.5c0-0.7,0.2-1.3,0.7-1.8c0.5-0.5,1.1-0.8,1.8-0.8c1.4,0,2.5,1.1,2.5,2.5
			c0,0.7-0.2,1.3-0.7,1.8C70.1,73.4,69.5,73.6,68.8,73.6L68.8,73.6z"/>
		<path class="st3" d="M68.8,69.6c0.9,0,1.5,0.6,1.5,1.5c0,0.9-0.6,1.5-1.5,1.5c0,0,0,0,0,0c-0.8,0-1.5-0.7-1.5-1.5
			C67.3,70.3,68,69.6,68.8,69.6C68.8,69.6,68.8,69.6,68.8,69.6 M68.8,67.6L68.8,67.6L68.8,67.6c-0.9,0-1.8,0.4-2.5,1.1
			c-0.7,0.7-1,1.6-1,2.5c0,1.9,1.6,3.5,3.5,3.5c0.9,0,1.8-0.4,2.5-1c0.7-0.7,1-1.6,1-2.5C72.3,69.1,70.8,67.6,68.8,67.6L68.8,67.6z"
			/>
	</g>
	<g>
		<path class="st2" d="M52.2,87.2c-1.3,0-2.5-1.2-2.5-2.5c0-1.4,1.1-2.5,2.5-2.5c1.5,0,2.5,1,2.5,2.5C54.7,86.1,53.7,87.2,52.2,87.2
			L52.2,87.2z"/>
		<path class="st3" d="M52.2,83.2c0.9,0,1.5,0.6,1.5,1.5c0,0.9-0.6,1.5-1.5,1.5c0,0,0,0,0,0c-0.8,0-1.5-0.7-1.5-1.5
			C50.7,83.9,51.4,83.2,52.2,83.2C52.2,83.2,52.2,83.2,52.2,83.2 M52.2,81.2L52.2,81.2L52.2,81.2c-2,0-3.5,1.6-3.5,3.5
			c0,1.9,1.6,3.5,3.5,3.5h0l0.1,0c1.9-0.1,3.4-1.6,3.4-3.5C55.7,82.7,54.2,81.2,52.2,81.2L52.2,81.2z"/>
	</g>
	<g>
		<path class="st2" d="M52.2,79.6c-1.3,0-2.5-1.2-2.5-2.5c0-0.6,0.3-1.3,0.7-1.7c0.5-0.5,1.1-0.8,1.8-0.8c1.4,0,2.4,1,2.5,2.4
			c0,0.7-0.2,1.4-0.7,1.8C53.6,79.4,53,79.6,52.2,79.6L52.2,79.6z"/>
		<path class="st3" d="M52.3,75.6c0.8,0,1.4,0.6,1.4,1.4c0,0.9-0.6,1.5-1.4,1.5c0,0,0,0,0,0c-0.8,0-1.5-0.7-1.5-1.5
			C50.7,76.4,51.4,75.6,52.3,75.6C52.3,75.6,52.3,75.6,52.3,75.6 M52.3,73.6L52.3,73.6L52.3,73.6c-0.9,0-1.9,0.4-2.5,1.1
			c-0.7,0.7-1,1.6-1,2.5c0,1.9,1.6,3.5,3.5,3.5h0l0.1,0c1,0,1.8-0.4,2.4-1.1c0.6-0.7,1-1.6,0.9-2.5C55.7,75.1,54.1,73.6,52.3,73.6
			L52.3,73.6z"/>
	</g>
	<g>
		<path class="st2" d="M46.2,82.6c-0.7,0-1.3-0.3-1.8-0.7c-0.5-0.5-0.7-1.1-0.7-1.8c0-1.3,1.1-2.5,2.4-2.5c0,0,0,0,0,0
			c1.4,0,2.5,1.1,2.6,2.5c0,0.7-0.2,1.3-0.7,1.8C47.6,82.4,46.9,82.6,46.2,82.6L46.2,82.6z"/>
		<path class="st3" d="M46.2,78.6c0.8,0,1.5,0.6,1.5,1.5c0,0.9-0.6,1.5-1.5,1.5c0,0,0,0,0,0c-0.8,0-1.5-0.7-1.5-1.5
			C44.7,79.4,45.4,78.7,46.2,78.6C46.2,78.6,46.2,78.6,46.2,78.6 M46.2,76.6L46.2,76.6L46.2,76.6c-1.9,0.1-3.5,1.6-3.5,3.5
			c0,0.9,0.4,1.8,1,2.5c0.7,0.7,1.5,1,2.5,1c1,0,1.9-0.4,2.5-1c0.6-0.7,1-1.5,1-2.5C49.7,78.2,48.2,76.6,46.2,76.6L46.2,76.6z"/>
	</g>
	<path class="st5" d="M53.7,71.1c0,0.9-0.6,1.5-1.5,1.5c-0.8,0-1.5-0.7-1.5-1.5c0-0.8,0.8-1.5,1.6-1.5
		C53.1,69.7,53.7,70.3,53.7,71.1z"/>
	<g>
		<path class="st2" d="M44.7,76.6c-1.4,0-2.4-1-2.4-2.4c0-0.7,0.2-1.4,0.7-1.9c0.4-0.5,1.1-0.7,1.7-0.7c1.4,0,2.5,1.1,2.6,2.5
			c0,0.6-0.2,1.2-0.7,1.7C46.1,76.3,45.4,76.6,44.7,76.6L44.7,76.6z"/>
		<path class="st3" d="M44.7,72.6c0.8,0,1.5,0.7,1.5,1.5c0,0.8-0.7,1.5-1.5,1.5c0,0,0,0,0,0c-0.8,0-1.4-0.6-1.4-1.4
			C43.3,73.3,43.9,72.7,44.7,72.6C44.7,72.6,44.7,72.6,44.7,72.6 M44.7,70.6L44.7,70.6L44.7,70.6c-1,0-1.8,0.4-2.5,1
			c-0.7,0.7-1,1.6-1,2.6c0,1.9,1.5,3.4,3.4,3.4c0.9,0,1.9-0.4,2.6-1.1c0.7-0.7,1-1.6,1-2.5C48.2,72.2,46.6,70.6,44.7,70.6L44.7,70.6
			z"/>
	</g>
	<g>
		<path class="st2" d="M59.8,88.6c-0.7,0-1.3-0.3-1.8-0.7c-0.5-0.5-0.7-1.1-0.7-1.7c0-1.3,1.2-2.5,2.5-2.5c1.3,0,2.4,1.1,2.5,2.4
			c0,0.7-0.2,1.3-0.7,1.8C61.2,88.4,60.5,88.6,59.8,88.6L59.8,88.6z"/>
		<path class="st3" d="M59.8,84.6C59.8,84.6,59.8,84.6,59.8,84.6c0.8,0,1.5,0.7,1.5,1.5c0,0.8-0.6,1.5-1.5,1.5c0,0,0,0,0,0
			c-0.9,0-1.5-0.6-1.5-1.5C58.3,85.4,59,84.6,59.8,84.6 M59.8,82.6L59.8,82.6c-1.9,0-3.5,1.6-3.5,3.5c0,0.9,0.3,1.8,1,2.5
			c0.7,0.7,1.5,1,2.5,1h0l0,0c1,0,1.9-0.4,2.5-1.1c0.6-0.7,1-1.6,0.9-2.5C63.2,84.2,61.6,82.7,59.8,82.6L59.8,82.6L59.8,82.6
			L59.8,82.6z"/>
	</g>
	<g>
		<path class="st2" d="M38.7,81.2c-0.6,0-1.3-0.3-1.8-0.8c-0.5-0.5-0.8-1.1-0.8-1.7c0-1.3,1.1-2.4,2.4-2.5c0,0,0,0,0,0
			c1.5,0,2.6,1.1,2.6,2.4c0,0.6-0.3,1.3-0.7,1.8C40,80.9,39.4,81.2,38.7,81.2L38.7,81.2z"/>
		<path class="st3" d="M38.7,77.2c0.8,0,1.5,0.6,1.5,1.4c0,0.8-0.7,1.6-1.5,1.6c0,0,0,0,0,0c-0.7,0-1.5-0.8-1.5-1.5
			C37.2,77.9,37.9,77.2,38.7,77.2C38.7,77.2,38.7,77.2,38.7,77.2 M38.7,75.2l-0.1,0c-1.8,0.1-3.4,1.6-3.4,3.4c0,0.9,0.4,1.8,1,2.4
			c0.7,0.7,1.6,1.1,2.5,1.1h0l0,0c0.9,0,1.8-0.4,2.4-1.1c0.7-0.7,1-1.6,1-2.5C42.2,76.7,40.6,75.2,38.7,75.2L38.7,75.2z"/>
	</g>
</g>
<g id="Layer_1">
</g>
</svg>
