<?xml version="1.0" encoding="utf-8"?>
<!-- Generator: Adobe Illustrator 26.5.0, SVG Export Plug-In . SVG Version: 6.00 Build 0)  -->
<svg version="1.1" xmlns="http://www.w3.org/2000/svg" xmlns:xlink="http://www.w3.org/1999/xlink" x="0px" y="0px"
	 viewBox="0 0 300 300" style="enable-background:new 0 0 300 300;" xml:space="preserve">
<style type="text/css">
	.st0{fill:#107772;}
	.st1{fill:#0E605C;}
</style>
<g id="Layer_1">
	<path class="st0" d="M216.3,0c5.9,0,11.8,0,17.7,0c0.2,0.1,0.4,0.3,0.7,0.4c3.4,0.9,6.8,1.8,10.2,2.5c2.9,0.6,5.9,0.6,8.7-0.8
		c1.7-0.8,3.3-1.6,5.3-1c0.1,0,0.2,0,0.3,0.1c0.4,0.3,0.9,0.6,1.3,0.9c1.2,0.9,1.7,2.2,2,3.6c0,0.1,0,0.2,0,0.3
		c-0.1,1.9-0.8,3.4-2.4,4.5c-1.1,0.7-1.2,1.1-0.6,2.2c1.2,2.3,0.6,5.2-2,6.9c-1.6,1-4.2,1-5.6-0.2c-0.6-0.5-1.1-1.2-1.7-1.7
		c0,0,0,0,0,0c-0.4-0.5-0.9-1-1.3-1.5c0,0,0,0,0,0c-1-0.8-2-1.6-3-2.4c0,0-0.1,0-0.1,0c-0.3-0.2-0.6-0.4-0.9-0.6
		c-0.1,0-0.1,0-0.2-0.1c-2-1.3-4.2-2-6.5-2.6c-0.1,0-0.3-0.1-0.4-0.1c-1.5-0.4-2.9-0.7-4.4-1.1c-0.1,0-0.3,0-0.4-0.1
		c-0.6-0.1-1.1-0.2-1.7-0.3c-0.2,0-0.4,0-0.6,0c-0.4-0.1-0.8-0.2-1.1-0.2c-1.3,0-2.5,0-3.8,0.1c-0.2,0-0.3,0-0.5,0.1
		c-0.2,0-0.5,0-0.7,0c-1.9,0.6-3.8,1.2-5.6,1.8c-0.4,0-0.7,0-1.1,0c-1-0.4-2-0.8-3-1.2c0,0,0,0,0,0c-0.9-1.1-1.5-2.2-1.8-3.6
		c0-0.3,0-0.6,0-0.9c0.3-1.8,1.2-3.2,2.8-4.2C216.1,0.7,216.1,0.3,216.3,0z"/>
	<path class="st0" d="M40.8,293.1c0-0.1,0-0.2,0-0.3c0.2-0.6,0.4-1.2,0.6-1.8c0.1-0.1,0.1-0.3,0.2-0.4c0.7-0.4,1.3-0.8,2-1.1
		c1-0.4,1.9,0,2.9,0.3l0,0c0.5,0.2,1,0.5,1.5,0.7c0.2,0,0.3,0.1,0.5,0.1c1.3,0.6,2.6,0.5,3.9,0.3c0.1,0,0.3,0,0.4,0
		c0.3,0,0.5-0.1,0.8-0.1c0.1,0,0.2,0,0.3,0c0.3,0,0.5-0.1,0.8-0.1c0.2,0,0.4-0.1,0.6-0.1c0.2-0.1,0.5-0.1,0.7-0.2
		c0.1,0,0.3,0,0.4-0.1c1.5-0.4,2.9-0.8,4.4-1.1c0.2-0.1,0.4-0.1,0.6-0.2c1.1-0.6,2.2-1.2,3.3-1.8c0,0,0.1-0.1,0.1-0.1
		c0.5-0.5,1-1,1.5-1.5c0.1-0.1,0.1-0.2,0.2-0.3c0.8-0.9,1.7-1.5,2.8-1.7c0.1,0,0.2,0,0.3,0c0.6,0.2,1.3,0.4,1.9,0.6
		c0.1,0,0.2,0.1,0.3,0.1c0.5,0.8,0.9,1.6,1.4,2.4c0,0.3,0,0.6,0,0.9c-0.1,0.3-0.2,0.6-0.2,0.9c-0.2,0.4-0.3,0.8-0.5,1.2
		c0.3,0.3,0.6,0.6,0.9,0.9c0.2,0.3,0.5,0.6,0.7,0.9c0.1,0.2,0.2,0.4,0.3,0.6c0,0.2,0.1,0.4,0.1,0.6c-0.2,0.9-0.4,1.8-0.6,2.7
		c-0.3,0.3-0.6,0.6-0.9,0.9c0,0,0,0,0,0l0,0.1c-0.1,0.1-0.1,0.1-0.2,0.2c-0.8,0.1-1.5,0.3-2.3,0.4c-0.1,0-0.2,0-0.3,0
		c-0.7-0.3-1.3-0.6-2-0.9c-0.1,0-0.2-0.1-0.4-0.1c-0.1-0.1-0.3-0.1-0.4-0.2c-0.1,0-0.2,0-0.3-0.1c-0.5-0.1-0.9-0.2-1.4-0.3
		c-0.2,0-0.3,0-0.5,0c-1,0-2,0-3,0c-0.1,0-0.3,0-0.4,0c-0.4,0-0.9,0.1-1.3,0.1c-3.1,0.5-6.2,1.2-9,2.9c-0.6,0.4-1.1,0.9-1.7,1.4
		c-2.5,0-5.1,0-7.7,0c0-0.5,0-0.9,0-1.4c0-0.1,0-0.3,0-0.4c0.1-0.4,0.3-0.7,0.4-1.1c0-0.2,0.1-0.4,0.1-0.6c-0.1-0.2-0.3-0.4-0.4-0.6
		c0,0-0.1-0.1-0.1,0c-0.3-0.2-0.5-0.5-0.8-0.7l0,0c-0.1-0.2-0.3-0.4-0.4-0.6l0,0l0,0C41,294.1,40.9,293.6,40.8,293.1z"/>
	<path class="st0" d="M300,36c0,4.1,0,8.2,0,12.3c-0.1,0.2-0.2,0.4-0.3,0.6l0,0c-0.3,0.5-0.6,1-0.9,1.5c0,0,0,0,0,0
		c-0.7,1.6-1.5,3.1-2.2,4.7c-0.1,0.2-0.1,0.4-0.2,0.6c-0.3,1.3-0.6,2.5-0.9,3.8c0,0.1,0,0.2,0,0.3c-0.3,1.2-0.1,2.4,0.2,3.6
		c0.7,2.2-0.7,3.9-2,4.4c-1.9,0.7-3.7,0-4.5-1.6c-0.5-1-0.9-1.2-2-0.5c0-0.1,0-0.1-0.1,0c-0.3,0-0.6,0-0.9,0c-0.1,0-0.3,0-0.4,0
		c-0.7-0.6-1.5-1-2.1-1.7c-0.9-1.1-0.7-2.4-0.2-3.7c0-0.1,0.1-0.1,0.1-0.2c0.2-0.2,0.3-0.3,0.5-0.5c0.2-0.2,0.5-0.3,0.7-0.5
		c1.2-0.5,2.4-0.9,3.2-2l0,0l0,0c0.2-0.3,0.5-0.5,0.7-0.8l0,0l0,0c0.1-0.2,0.3-0.3,0.4-0.5c0.1-0.1,0.1-0.2,0.2-0.2
		c0.1-0.1,0.2-0.2,0.3-0.3c0.8-1.5,1.7-3.1,2.5-4.6c0.4-0.7,0.6-1.5,0.9-2.2c0-0.1,0.1-0.2,0.1-0.4c0.8-1.5,1.3-3,1.3-4.7
		c0-0.3,0-0.7,0-1c-0.2-0.9-0.4-1.9-0.6-2.8c0-0.2,0-0.4,0-0.6c0.2-2.7,2-3.9,4.1-3.6C298.5,35.1,299.3,35.6,300,36z"/>
	<path class="st0" d="M1.9,253.7c0,0.5,0,1,0,1.5c-0.1,1-0.1,1.9-0.2,2.9c0,0,0,0.1,0,0.1c-0.3,0.3-0.5,0.5-0.8,0.8
		c-0.1,0.1-0.2,0.1-0.3,0.2c-0.2,0-0.4,0.1-0.6,0.1c0-4.2,0-8.4,0-12.6c0.3-0.5,0.6-1,0.9-1.5c0,0,0-0.1,0-0.1
		c1.2-1.9,2-3.9,1.7-6.2c-0.1-0.9-0.1-1.8,0.5-2.5c1.5-1.6,3.7-1.2,4.5,0.9c0.2,0.4,0.4,0.7,0.9,0.6c1-0.2,1.8,0.2,2.6,0.7
		c0,0,0,0,0,0c1.1,1.6,0.9,3.8-1.5,4.5c-0.2,0-0.3,0.2-0.4,0.3c-0.2,0.1-0.3,0.1-0.5,0.2c-0.3,0.2-0.6,0.4-1,0.6c0,0-0.1,0-0.1,0
		c-0.5,0.4-0.9,0.9-1.4,1.3c-0.2,0.2-0.3,0.5-0.5,0.7c-0.1,0.2-0.3,0.4-0.4,0.5c0,0,0,0,0,0c0,0-0.1,0.1-0.1,0.1
		c-0.2,0.2-0.3,0.5-0.5,0.7c-0.1,0.2-0.2,0.3-0.3,0.5c0,0,0,0.1,0,0.1c-0.1,0.1-0.2,0.2-0.3,0.4c0,0,0,0,0,0c0,0-0.1,0.1-0.1,0.1
		c0,0.1-0.1,0.2-0.1,0.2c-0.1,0.2-0.3,0.4-0.4,0.7c0,0,0,0,0,0c-0.4,0.8-0.8,1.7-1.2,2.5c0,0,0,0,0,0C2.2,252.5,2,253.1,1.9,253.7z"
		/>
	<path class="st0" d="M233.2,300c-5.6,0-11.3,0-16.9,0c-0.3-0.8-0.6-1.6-0.9-2.4c0-0.6,0-1.2,0-1.8c0.3-1.3,0.9-2.4,1.8-3.3
		c0.1-0.1,0.2-0.1,0.3-0.2c0.3-0.2,0.7-0.5,1-0.7c0.2,0,0.3-0.1,0.5-0.1c0.3-0.1,0.6-0.2,0.9-0.3c0.5,0,0.9,0,1.4,0
		c1.3,0.4,2.6,0.8,3.4,2c0.5,0.7,1,1.4,1.6,2.1c1.1,1.4,2.5,2.5,4.2,3.2l0,0l0,0c0.3,0.2,0.5,0.4,0.8,0.5
		C231.9,299.4,232.6,299.7,233.2,300z"/>
	<path class="st0" d="M8.4,142.5c0.1,0,0.3,0,0.4,0c0.2,0,0.3,0,0.5,0c0.1,0,0.2,0,0.3,0c0.2,0,0.5,0,0.7-0.1
		c0.9-0.1,1.8-0.2,2.5,0.5c0.4,0.4,0.7,1,1,1.4c0,0.4,0,0.8,0,1.2c-0.2,0.4-0.4,0.8-0.6,1.2c0,0,0,0,0,0c-0.1,0.1-0.2,0.2-0.3,0.3
		c-0.1,0.1-0.2,0.1-0.2,0.2c-0.5,0.3-1.3,0.2-1.1,1c0.2,1.1-0.1,1.9-0.7,2.8c0,0,0,0,0,0c-0.1,0-0.2,0-0.2,0.1c-1.5,1-3,0.7-4-0.9
		c-0.1-0.1-0.2-0.2-0.3-0.3c0-0.1,0-0.1-0.1-0.2c-0.3-0.9-0.8-1.7-1.6-2.3c-0.4-0.3-0.7-0.7-1.1-1c0,0,0,0,0,0
		c-0.3-0.2-0.6-0.4-0.9-0.6c0,0,0,0,0,0c-0.9-0.5-1.8-1.1-2.7-1.6c0-1.7,0-3.4,0-5.1c0.2,0.1,0.5,0.1,0.7,0.3
		c0.6,0.3,1.2,0.6,1.7,0.9c0,0,0,0,0.1,0c1.2,0.6,2.4,1.3,3.7,1.9C6.9,142.3,7.7,142.3,8.4,142.5z"/>
	<path class="st0" d="M300,138.6c0,1.7,0,3.4,0,5.1c-0.6-0.2-1.2-0.4-1.8-0.6c-0.1-0.1-0.3-0.1-0.4-0.2c-1.4-0.7-2.8-0.9-4.3-0.7
		c-1.3,0.2-2.3,0-3.3-0.9c0,0,0-0.1,0-0.1c-0.1-0.5-0.3-1-0.4-1.5c0-0.2,0-0.4,0-0.6c0.2-0.4,0.4-0.8,0.6-1.2c0,0,0,0,0,0
		c0.5-0.3,1-0.7,1.5-1l0,0c0.1-0.2,0.2-0.5,0.2-0.7c-0.2-0.9,0-1.7,0.6-2.3c1.4-1.5,3.7-0.8,4.3,0.9c0.3,0.9,0.9,1.6,1.4,2.4
		c0.1,0.1,0.2,0.2,0.3,0.3C299.2,137.9,299.6,138.2,300,138.6z"/>
	<path class="st0" d="M300,247.2c0,4,0,8,0,12c-1.2,0.2-2.3-0.1-3-1.2l0,0c-0.4-1.2-0.4-1.1-1.5-1.2c-0.5,0-1.1-0.1-1.6-0.4
		c-1.1-0.7-1.6-2-0.8-3.7c0,0,0,0,0,0c0.7-0.4,1.4-0.8,2.1-1.2c0.5-0.3,1-0.7,1.5-1c0.1,0,0.1-0.1,0.2-0.1c0.3-0.3,0.5-0.5,0.8-0.8
		l0,0c0.6-0.7,1.2-1.3,1.8-2C299.6,247.5,299.8,247.3,300,247.2z"/>
	<path class="st0" d="M0.6,47.6c-0.2,0.2-0.3,0.3-0.5,0.5c-0.1,0-0.1,0-0.2,0c0-3.8,0-7.6,0-11.4c0.2,0.2,0.4,0.3,0.5,0.5
		c0.3,0.5,0.7,0.8,1.2,0.6c1.6-0.6,2.9-0.1,4.1,1.1c0,0,0,0.1,0,0.1c0.3,0.6,0.5,1.3,0.8,1.9c0,0.1,0,0.2,0,0.3
		c-0.3,1.4-0.8,2.6-2.2,3.2C4,44.5,3.6,44.7,3.3,45c0,0-0.1,0-0.1,0c-0.2,0.2-0.5,0.4-0.7,0.6c0,0,0,0,0,0c-0.3,0.3-0.6,0.6-0.9,0.9
		c-0.1,0.1-0.1,0.1-0.2,0.2c0,0-0.1,0.1-0.1,0.1c-0.1,0.1-0.1,0.1-0.2,0.2C0.9,47.2,0.8,47.4,0.6,47.6z"/>
	<path class="st0" d="M127.2,292.2c0,0.2,0,0.5,0,0.7c0,0.8,0,1.5,0.1,2.3c0,0,0,0.1,0,0.1c0,0,0,0,0,0c0,0,0,0.1,0,0.1
		c0,0.1,0,0.1,0,0.2c0.7,1.4,1.4,2.7,2.1,4.1c0,0.1,0,0.2,0,0.3c-1.2,0-2.5,0-3.8,0c-0.6-0.8-1.3-1.6-1.9-2.4c0,0,0,0,0,0
		c-0.7-0.5-1.4-1-2.1-1.4c-0.8-0.5-1.3-1.4-1-2.3c0.3-0.9,1.1-1.5,2-1.4c0.5,0.1,0.8-0.1,1-0.6c0.4-1,1.4-1.5,2.3-1.1
		C126.3,291.2,126.7,291.8,127.2,292.2z"/>
	<path class="st0" d="M127.5,4.8c0-0.1,0-0.2,0-0.3c0-0.2,0-0.4-0.1-0.5c-0.6-1.3-1.1-2.7-1.7-4c1.3,0,2.6,0,3.9,0
		c0.3,0.4,0.5,0.9,0.8,1.3c0.9,1.1,2.2,1.5,3.4,2.1c0,0,0,0,0,0c0.1,0.3,0.3,0.6,0.4,0.9c0,0,0,0.1,0,0.1c-0.2,1.5-0.8,2.3-2.1,2.2
		c-0.7-0.1-0.9,0.2-1.2,0.7c-0.3,0.8-1.3,1.2-2.1,1c-0.9-0.2-1.4-0.9-1.4-1.8C127.5,5.9,127.5,5.4,127.5,4.8z"/>
	<path class="st0" d="M49,0.9C49,1,48.9,1.1,48.9,1.1c-0.1,0.2-0.3,0.3-0.4,0.5c-0.1,0.1-0.2,0.2-0.3,0.3c-0.5,0.3-1.1,0.5-1.6,0.8
		c-0.1,0-0.2,0-0.3,0c-0.8-0.2-1.7-0.5-2.5-0.7c0,0,0,0,0,0s0,0,0,0c-0.4-0.7-0.8-1.4-1.2-2.1c2.3,0,4.7,0,7,0
		C49.3,0.3,49.2,0.6,49,0.9z"/>
	<path class="st0" d="M55.2,80.4c0-0.4,0-0.7,0-1.1c0.4-0.8,0.7-1.7,1.1-2.5c0,0,0,0,0,0c1-0.9,2.1-1.6,3.4-1.8c0.1,0,0.2,0,0.3,0
		c0.8,0.1,1.6,0.2,2.4,0.4c0.1,0,0.1,0,0.2,0c0.5,0.2,1.1,0.4,1.6,0.4c1,0.1,2.1,0,3.1-0.1c0.1,0,0.2,0,0.3,0c1-0.2,1.9-0.5,2.9-0.7
		c0.1,0,0.2,0,0.3,0c0.1,0,0.3,0,0.4,0c2-0.8,4-1.6,5.9-2.5c0.8-0.4,1.6-0.9,2.3-1.3c0.4-0.2,0.8-0.4,1.3-0.7
		c0.2-0.1,0.4-0.3,0.7-0.4c0,0,0.1,0,0.1,0c0.8-0.5,1.7-1.1,2.5-1.6l0,0c0.1,0,0.2,0,0.2-0.1c1.6-1.2,2.9-2.6,3.8-4.5
		c0.6-1.3,1.2-2.6,2.4-3.5c0,0,0.1,0,0.1,0c0.2-0.1,0.5-0.3,0.7-0.4c0,0,0.1,0,0.1-0.1c0.3,0,0.5,0,0.8-0.1c2.5-0.6,5.3,1.1,5.9,3.6
		c0.3,1,0.2,2-0.1,2.9c-0.2,0.6-0.2,1.2,0.4,1.5c0.4,0.2,0.8,0.3,1.1,0.5c0,0,0.1,0,0.1,0c1.3,0.9,2.1,2.2,2.5,3.7c0,0.5,0,1,0,1.5
		c0,0.1-0.1,0.1-0.1,0.2c-0.6,2.4-2.7,4.1-4.9,4c-1.3-0.1-2.6-0.6-4-0.6c-1.5,0-3,0.2-4.5,0.3c-0.1,0-0.2,0-0.3,0
		c-0.3,0.1-0.7,0.2-1,0.3c-0.2,0-0.3,0-0.5,0.1c-0.6,0.2-1.2,0.3-1.8,0.5c-1.2,0.5-2.3,1-3.4,1.4c-0.2,0.1-0.4,0.2-0.7,0.3
		c0,0-0.1,0-0.1,0.1c-0.2,0.1-0.3,0.1-0.5,0.2c0,0-0.1,0.1-0.1,0.1l0,0c-0.3,0.2-0.6,0.3-0.9,0.5l0,0c-4.8,2.2-9,5.2-11.1,10.4l0,0
		c-0.4,0.3-0.7,0.6-1.1,0.9c-1.7,1.2-3.5,1.2-5.4,0.4c0,0-0.1,0-0.1,0c-0.6-0.5-1.2-1-1.7-1.6c-1-1.3-1-2.9-0.6-4.4
		c0.1-0.5,0.4-1-0.3-1.3l0,0l0,0c-0.2-0.2-0.4-0.4-0.7-0.5c-0.5-0.3-0.9-0.5-1.4-0.9C55.9,82.9,55.4,81.7,55.2,80.4z"/>
	<path class="st0" d="M247.4,220.6C247.4,220.6,247.4,220.6,247.4,220.6c-1,0.2-1.8,0.5-2.7,0.5c-1.8,0-3.4-1.6-3.4-3.4
		c0-0.4-0.1-0.7-0.1-1.1c0-0.2,0-0.4,0-0.6c-0.1-0.7-0.1-1.3-0.3-2c-0.4-1.3-1-2.5-2-3.5c0,0,0-0.1,0-0.1c-0.1-0.1-0.2-0.2-0.3-0.4
		c-0.1-0.1-0.2-0.3-0.3-0.4c-0.3-0.3-0.5-0.6-0.8-0.9l0,0c0,0,0,0,0,0c-0.3-0.3-0.5-0.6-0.8-0.9c0,0,0-0.1,0-0.1
		c-0.7-0.9-1.5-1.7-2.3-2.6c-0.4-0.4-0.9-0.8-1.3-1.2c0,0-0.1,0-0.1,0c-1.3-1.5-2.8-2.6-4.7-3c-0.1,0-0.2-0.1-0.3-0.1
		c-0.2,0-0.3-0.1-0.5-0.1c-0.1,0-0.3,0-0.4,0c-0.8-0.2-1.7-0.5-2.5-0.7c0,0-0.1,0-0.1,0c-1-1-1.7-2.2-1.6-3.7c0-0.1,0-0.3,0.1-0.4
		c0.5-1.3,1.4-2.3,2.7-2.8c0.1,0,0.3,0,0.4-0.1c0.3,0,0.6,0.1,0.9,0c0.4-0.2,1-0.5,1-0.8c0.1-1.2,0.7-2.2,1.5-3c0,0,0.1,0,0.1,0
		c1.2-0.7,2.6-0.8,3.9-0.4c0.1,0,0.2,0.1,0.2,0.1c0.5,0.5,1,1,1.5,1.5l0,0c0.1,0.8,0.3,1.6,0.4,2.4c0.1,0.4,0.1,0.7,0.2,1.1
		c0,0.2,0,0.4,0.1,0.6c0.6,1.3,1.1,2.6,1.7,3.8c0,0.1,0,0.1,0.1,0.2c0.3,0.5,0.7,0.9,1,1.4l0,0c0.1,0.1,0.1,0.1,0.2,0.2
		c0,0,0,0.1,0,0.1c0.1,0.2,0.3,0.4,0.4,0.6c0.1,0.1,0.1,0.2,0.2,0.3c0.2,0.2,0.4,0.5,0.6,0.7l0,0c0.3,0.3,0.6,0.6,0.9,1
		c0,0,0,0.1,0.1,0.1c0.9,0.9,1.9,1.8,2.8,2.8c0,0,0.1,0.1,0.1,0.1c0.3,0.3,0.6,0.5,0.9,0.8c1.2,1.2,2.8,2,4.4,2.5c0.1,0,0.2,0,0.3,0
		c0.4,0.1,0.8,0.2,1.2,0.3c1.8,0.2,3.1,1.7,3.2,3c0.1,0.8-0.2,1.7-0.2,2.5l0,0c-0.2,0.2-0.3,0.5-0.5,0.7c-0.1,0.1-0.2,0.2-0.3,0.3
		c-0.5,0.3-1,0.6-1.5,0.9c-0.1,0-0.2,0-0.3,0c-0.4,0-0.9,0-1.2,0.1c-0.3,0.1-0.7,0.4-0.8,0.7c-0.3,0.7-0.4,1.4-0.6,2.2l0,0
		c-0.3,0.3-0.6,0.6-0.9,0.9C247.5,220.5,247.5,220.6,247.4,220.6z"/>
	<path class="st0" d="M177.5,86.4c0,0,0-0.1,0-0.1c-0.3-1.3-0.3-2.6,0.4-3.9c0.1-0.2,0-0.7-0.2-1c-0.2-0.3-0.5-0.4-0.8-0.6
		c0-0.1-0.1-0.1-0.1-0.2c-0.9-1.4-1-2.8-0.4-4.3c0-0.1,0.1-0.2,0.1-0.3c1-1,2-1.8,3.5-1.6c0.8,0.1,1.5,0.5,2.3,0.8
		c0.2,0.1,0.4,0.2,0.6,0.3c0.7,0.2,1.4,0.5,2.1,0.7c0.1,0,0.3,0,0.4,0c1,0,2,0,3,0c0.3,0,0.7,0,1,0c0.1,0,0.3,0,0.4,0
		c2.3-0.5,4.7-0.9,7-1.5c1-0.2,2-0.8,2.9-1.2c0.2-0.1,0.3-0.1,0.5-0.2c0,0,0.1-0.1,0.1-0.1c0,0,0,0,0,0c0.2-0.1,0.4-0.3,0.6-0.4
		c0,0,0,0,0,0c0.7-0.7,1.4-1.3,2-2c0,0,0,0,0-0.1c0.1-0.1,0.3-0.2,0.4-0.3c1.1-1.4,3.2-1.8,4.5-1c0.7,0.5,1.3,1.2,1.9,1.8
		c0,0.1,0.1,0.2,0.1,0.2c0.2,1.2,0.3,2.4-0.5,3.5c-0.2,0.3-0.1,0.8,0.1,1.1c0.2,0.3,0.6,0.4,0.9,0.7l0,0c0.7,0.9,1.1,2,1,3.1
		c0,0.1,0,0.3-0.1,0.4c-0.4,0.7-0.8,1.3-1.2,2c0,0,0,0,0,0c-0.2,0.1-0.3,0.3-0.5,0.4c-0.1,0.1-0.3,0.1-0.4,0.2
		c-0.3,0.1-0.6,0.2-0.9,0.3c-0.1,0-0.3,0-0.4,0c-0.8-0.2-1.7-0.4-2.5-0.7c-1.2-0.4-2.3-1-3.6-1c-0.3,0-0.7,0-1-0.1
		c-1.4,0-2.8,0-4.1,0.1c-0.9,0.1-1.7,0.3-2.6,0.5c-0.1,0-0.3,0-0.4,0.1c-1.1,0.3-2.3,0.5-3.4,0.9c-1.4,0.5-2.9,0.9-4,2
		c0,0-0.1,0-0.1,0c-0.3,0.2-0.5,0.4-0.8,0.6l0,0c-0.5,0.6-1.1,1.1-1.6,1.7c-0.1,0.1-0.2,0.3-0.3,0.4c-0.1,0.1-0.3,0.1-0.4,0.2
		c-1.5,1-3.2,0.9-4.6-0.2C178.1,87.2,177.8,86.8,177.5,86.4z"/>
	<path class="st0" d="M267,120c-0.1,0-0.2,0-0.3,0c-0.4-0.1-0.8-0.2-1.2-0.3c-0.2,0-0.4-0.1-0.6-0.1c-0.6-0.2-0.7,0.3-0.9,0.6
		c-0.7,1.1-1.6,1.8-2.9,1.8c-1.8,0.1-2.9-0.9-3.7-2.4c0-0.2,0-0.4-0.1-0.6c0.1-0.5,0-1.1,0.2-1.6c0.8-2.2,0.8-4.4,0.3-6.6
		c-0.6-2.7-1.4-5.3-2.7-7.7c-0.6-1.2-1.5-2.3-2.3-3.4l0,0c-0.8-1.3-2.1-2-3.5-2.7l0,0c-0.4-0.6-0.7-1.2-1.1-1.8c0-0.1,0-0.2,0-0.3
		c0-0.4,0-0.8,0-1.2c0-0.1,0-0.2,0-0.3c0.6-1.4,1.5-2.4,3-2.7c0.4,0,0.7,0,1.1,0c1.5,0.6,1.8,0.6,2.3-0.3c0.8-1.5,2.4-2.2,4-1.7
		c1.4,0.4,2.6,1.6,2.6,3.4c0,0.6-0.2,1.1-0.3,1.7c0,0.1,0,0.2-0.1,0.3c-0.2,0.8-0.4,1.5-0.5,2.3c0,0.2,0,0.4,0,0.6c0,0,0,0.1,0,0.1
		c0,0.1,0,0.2,0,0.3c0.2,1.3,0.4,2.7,0.7,4c0.2,0.7,0.5,1.4,0.8,2.1c0,0.1,0,0.2,0.1,0.4c0.3,0.8,0.7,1.6,1,2.5c0,0.1,0,0.2,0.1,0.2
		c0.7,1.3,1.4,2.6,2.1,3.9c0.1,0.1,0.1,0.1,0.2,0.2c0.1,0.2,0.2,0.5,0.4,0.6c0.9,0.7,1.8,1.4,2.8,2c1.6,1,2.3,2.8,1.5,4.5
		C269.5,119.1,268.4,119.7,267,120z"/>
	<path class="st0" d="M47.1,191.3c0,0.2,0,0.4,0,0.6c0.1,1.4,0.2,2.8,0.3,4.2c0,0.2,0,0.4,0.1,0.6c0.2,1.3,0.4,2.7,0.7,4
		c0.3,1.1,0.8,2.2,1.3,3.3c0,0,0,0.1,0,0.1c0.3,0.4,0.6,0.8,0.9,1.2c0,0,0,0,0,0c0.4,0.4,0.8,0.8,1.2,1.2c0.2,0.2,0.4,0.4,0.6,0.6
		c0,0,0.1,0.1,0.1,0.1c0.1,0.1,0.1,0.2,0.2,0.3c0.5,1.1,0.7,2.2,0,3.3c-0.4,0.6-1,1.1-1.5,1.6c0,0-0.1,0-0.1,0
		c-1.2,0.2-2.3,0.3-3.4-0.4c-0.2-0.1-0.7-0.1-1,0.1c-0.8,0.5-1.4,1-2.2,1.5c-0.5,0-0.9,0-1.4,0c-0.1-0.1-0.3-0.1-0.4-0.2
		c-0.1,0-0.1,0-0.2-0.1c-0.1-0.1-0.3-0.2-0.4-0.3c-1.8-1-2-3.3-1.1-4.8c1.8-2.9,1.6-6.1,1.1-9.4c0-0.1,0-0.3-0.1-0.4
		c-0.1-0.4-0.1-0.7-0.2-1.1c0-0.2-0.1-0.4-0.1-0.6c-0.2-0.8-0.3-1.6-0.5-2.4c-0.4-1.4-0.9-2.8-1.9-4c-0.1-0.1-0.1-0.2-0.2-0.3
		c-0.2-0.2-0.3-0.4-0.5-0.6c0,0-0.1,0-0.1-0.1c-0.4-0.4-0.7-0.7-1.1-1.1c0,0,0,0,0,0c-0.1-0.1-0.1-0.2-0.2-0.2c0,0,0,0,0,0
		c-0.6-1-1-2-0.6-3.1c0.3-0.7,0.8-1.3,1.2-1.9c0,0,0,0,0,0c1.2-0.6,2.3-0.8,3.6-0.2c1.1,0.6,1.1,0.6,2-0.3c1.4-1.4,3.8-1.3,5.1,0.3
		c0.8,1.1,0.8,2.2,0.5,3.4c0,0.1,0,0.1-0.1,0.2C47.8,188,47.1,189.5,47.1,191.3z"/>
	<path class="st0" d="M167.7,195.8c0,0.1,0,0.2,0.1,0.3c-0.2,0.8-0.4,1.5-0.6,2.3l0,0c-1.2,0.9-2.3,1.1-3.6,0.1
		c-0.5-0.4-0.9,0-1.1,0.4c0,0-0.1,0-0.1,0c-0.1,0-0.3,0.1-0.4,0.1c-1.2,0.5-2.1,0.3-3-0.6c-0.1-0.2-0.3-0.3-0.5-0.5l0,0
		c-0.4-1.3-0.1-2.4,0.8-3.3c0.1-0.1,0.1-0.2,0.1-0.3c0-0.1,0-0.1,0.1-0.2c0.1-0.2,0.2-0.4,0.3-0.6l0,0c0.1-0.1,0.1-0.2,0.2-0.3
		c0-0.1,0-0.2,0.1-0.3c0.1-0.4,0.2-0.7,0.3-1.1c0-0.1,0-0.3,0-0.4c0-0.1,0.1-0.2,0.1-0.3c0-1.8,0-3.7-0.2-5.5
		c-0.2-1.9-0.8-3.7-2.2-5.2c-1-1.1-1.1-2.3-0.1-3.4c0.9-1.1,2.2-1.2,3.4-0.4c0.5,0.3,0.8,0.3,1.1-0.2c0.1-0.1,0.2-0.1,0.2-0.2
		c0.3-0.2,0.7-0.3,1-0.5c0.2,0,0.5,0,0.7,0c0.5,0.2,0.9,0.3,1.4,0.5l0,0c1.2,1.6,1.2,2.6,0.3,3.9c-0.1,0.2-0.2,0.4-0.3,0.6l0,0
		c-0.9,1-1.1,2.2-1.1,3.5c0,0.2,0,0.4,0,0.6c0,0.4,0,0.9,0,1.3c0,0.1,0,0.3,0,0.4c0.1,1,0.2,2,0.3,3c0,0.1,0,0.3,0.1,0.4
		c0.2,0.8,0.3,1.7,0.6,2.5c0.3,0.7,0.9,1.2,1.3,1.8l0,0C167.1,194.9,167.4,195.3,167.7,195.8z"/>
	<path class="st0" d="M108.3,163.2c-0.6-0.3-1.2-0.7-1.8-1c-0.1-0.1-0.2-0.1-0.3-0.2c-1-0.4-2.1-0.8-3.1-1.2c-0.1,0-0.3,0-0.4,0
		c-0.9-0.1-1.7-0.3-2.6-0.2c-1.2,0.2-2.4,0.1-3.4-0.5c-0.1-0.1-0.2-0.1-0.2-0.2c-0.7-0.9-1.3-1.9-1.1-3.2c0.2-1.4,1-2.4,2.4-2.9
		c0.2-0.1,0.3-0.2,0.5-0.2c0.1,0,0.2-0.1,0.3-0.1c0.1-0.4,0.3-0.7,0.3-1.1c-0.1-2.7,1.4-4.3,4.1-4c0.6,0.1,1.2,0.5,1.8,0.7
		c0,0,0,0,0,0c0.4,0.6,0.7,1.3,1.1,1.9c0.2,0.5,0.4,0.9,0.6,1.4c0,0.1,0.1,0.2,0.1,0.3c0.1,0.2,0.3,0.5,0.4,0.7c0,0.1,0,0.1,0.1,0.2
		c0.7,1,1.4,2,2.5,2.6l0,0c0,0,0,0,0,0c1,0.7,2,1.5,3,2.2c0,0,0.1,0,0.1,0c0.1,0.1,0.2,0.2,0.3,0.2c0,0,0.1,0.1,0.1,0.1
		c0.2,0.1,0.4,0.3,0.6,0.4c0,0,0,0,0.1,0c1.5,1.2,3.2,2.1,5.1,2.6c1.5,0.5,3,0.7,4.6,0.2c0.2,0,0.3,0,0.5,0c0.1,0,0.2,0,0.3,0
		c0.2,0,0.3,0,0.5,0c1,0.4,2,0.8,2.5,1.9c0.2,0.4,0.3,0.9,0.5,1.4c0,0.3,0,0.5,0,0.8c-0.4,1.5-1.3,2.6-2.9,3.1
		c-0.3,0.1-0.6,0.6-0.6,0.8c0.3,1.3-0.1,2.4-0.7,3.4c-0.2,0.1-0.4,0.2-0.5,0.3c-1.3,0.9-2.6,1.1-4,0.4c-0.2-0.1-0.4-0.2-0.6-0.3
		c0,0-0.1-0.1-0.1-0.1c-0.2-0.2-0.3-0.4-0.5-0.6c-0.1-0.1-0.1-0.2-0.2-0.3c-0.1-0.1-0.2-0.3-0.2-0.4c0-0.1,0-0.1-0.1-0.2
		c-0.5-2.6-2.2-4.3-4.1-5.9c-0.7-0.6-1.5-1.1-2.3-1.7c-0.1-0.1-0.2-0.1-0.3-0.2c-0.3-0.2-0.6-0.4-0.9-0.6c0,0-0.1,0-0.1,0
		c-0.3-0.2-0.6-0.4-1-0.6C108.4,163.2,108.4,163.2,108.3,163.2z"/>
	<path class="st0" d="M179.9,132c-0.2,0.3-0.4,0.6-0.6,0.9c0,0,0,0.1,0,0.1c-0.2,0.3-0.4,0.6-0.6,1c0,0,0,0.1,0,0.1
		c-0.4,0.7-0.9,1.5-1.3,2.2c-0.9,1.7-1.5,3.5-1.2,5.4c0.1,0.7,0.1,1.3,0.2,2c0,0.1,0,0.2-0.1,0.3c-0.4,0.4-0.8,1-1.3,1.3
		c-1.4,0.7-2.8,0.2-3.5-1.2c-0.2-0.4-0.4-0.9-1-0.6c-0.2,0-0.3,0-0.5,0c-0.8-0.1-1.4-0.2-2-0.8c-1.2-1.2-0.9-3.5,1.1-4.3
		c0.8-0.3,1.4-1,2.1-1.4c0,0,0.1-0.1,0.1-0.1c0.3-0.3,0.6-0.6,0.9-1c0,0,0,0,0,0c0.2-0.3,0.4-0.5,0.6-0.8c0,0,0,0,0,0
		c0.3-0.4,0.6-0.9,0.9-1.3c0,0,0-0.1,0-0.1c0.1-0.1,0.2-0.2,0.2-0.4c0.1-0.2,0.2-0.3,0.2-0.5c0.9-1.3,1.6-2.8,1.9-4.4
		c0-0.1,0-0.2,0-0.3c0-0.9,0.2-1.9,0.1-2.8c-0.2-1.1,0-2,0.8-2.7c0.9-0.7,2.1-0.8,3.1-0.2c0.2,0.1,0.3,0.2,0.5,0.4
		c0.2,0.3,0.4,0.7,0.6,1c0.2,0.5,0.6,0.6,1.1,0.3c0.3,0,0.5,0,0.8,0c0.4,0.2,0.9,0.3,1.3,0.5c1.2,1.7,1.3,2.5,0.1,4.1
		c0,0-0.1,0-0.1,0c-0.1,0.1-0.2,0.2-0.4,0.3l0,0c0,0,0,0,0,0c-1.1,0.4-2.2,0.7-2.9,1.8c-0.2,0.2-0.4,0.4-0.6,0.6
		C180.3,131.6,180.1,131.8,179.9,132C179.9,132,179.9,132,179.9,132z"/>
	<path class="st0" d="M122.4,211.1c0.3-0.2,0.6-0.4,0.8-0.6c0.1,0,0.1-0.1,0.2-0.1c0.1-0.1,0.2-0.2,0.4-0.3c0.1-0.1,0.2-0.2,0.4-0.2
		c0.6-0.5,1.2-1.1,1.8-1.6c0,0,0.1-0.1,0.1-0.1c0.3-0.4,0.6-0.7,0.9-1.1c0.1-0.2,0.2-0.4,0.3-0.6c0.2-0.5,0.4-0.9,0.5-1.4
		c0-0.1,0-0.2,0-0.3c0.3-0.9,0.9-1.6,1.8-2c0.1,0,0.2,0,0.3,0c0.9,0,1.8,0.1,2.3,0.9c0.3,0.5,0.5,1.1,0.6,1.6c0.1,0.6,0.2,1,0.9,1.2
		c1.2,0.3,2,1.6,1.8,2.7c-0.3,1.4-1.2,2.2-2.6,2.2c-0.5,0-0.9,0.1-1.4,0.1c-0.1,0-0.3,0-0.4,0c-0.4,0.1-0.9,0.1-1.2,0.3
		c-1.1,0.6-2.1,1.2-3.2,1.8l0,0c0,0,0,0,0,0c-0.6,0.4-1.1,0.8-1.7,1.2c0,0,0,0,0,0c-0.8,0.8-1.7,1.6-2.5,2.4c0,0,0,0,0,0.1
		c-0.2,0.3-0.5,0.6-0.7,1c0,0,0,0.1,0,0.1c-0.3,0.7-0.6,1.3-0.8,2c-0.4,1.2-1.5,1.9-2.8,1.7c-1.1-0.1-2-1.2-2-2.4
		c0-0.5,0.1-1.2-0.7-1.2c-0.1,0-0.2,0-0.3,0c-1.5-1-1.9-2-1.5-3.3c0.1-0.3,0.3-0.6,0.4-0.9c0-0.1,0.1-0.1,0.1-0.2
		c0.6-0.2,1.2-0.5,1.9-0.6c0.6-0.1,1.2,0.1,1.8,0c0.9-0.2,1.8-0.7,2.7-1c0.1-0.1,0.2-0.1,0.4-0.2c0.1,0,0.1-0.1,0.2-0.1
		c0.1-0.1,0.3-0.2,0.4-0.3C121.6,211.6,122,211.3,122.4,211.1z"/>
	<path class="st0" d="M213.6,260.1c0,0.1,0,0.2,0,0.3c-0.3,0.7-0.6,1.5-1,2.1c-0.7,0.8-1.7,0.8-2.6,0.5c-0.9-0.3-1.5-1-1.6-2
		c-0.1-0.8-0.4-1.2-1.3-1.3c-1.2-0.1-2-1.4-2-2.7c0-1.2,1-2.2,2.2-2.4c0.9-0.2,1.9-0.5,2.8-0.7c0.1-0.1,0.2-0.1,0.3-0.2
		c0.3-0.1,0.6-0.3,0.9-0.4c0,0,0,0,0,0c1.1-0.9,2.3-1.8,3.4-2.7c0.2-0.2,0.3-0.4,0.5-0.5c0.4-0.4,0.8-0.8,1.2-1.3c0,0,0-0.1,0-0.1
		c0.2-0.3,0.4-0.5,0.6-0.8l0,0c0,0,0,0,0,0c0.2-0.3,0.4-0.5,0.6-0.8c0.1-0.1,0.1-0.2,0.2-0.3c0.3-0.8,0.7-1.5,1-2.3
		c0.2-0.5,0.2-1.1,0.3-1.6c0-0.1,0-0.2,0.1-0.3c1.4-1.3,2.4-1.6,3.7-0.8c0.5,0.3,0.8,0.9,1.3,1.4c0,0.1,0,0.3,0.1,0.4
		c0.1,0.3,0.2,0.6,0.4,0.9c0,0,0,0,0,0c0.1,0,0.1,0.1,0.2,0.1c0.1,0,0.3,0,0.4,0c0.6,0.4,1.2,0.8,1.8,1.2c0.1,0.1,0.1,0.1,0.2,0.2
		c0.7,2.2-0.2,3.4-2,4c-0.1,0-0.2,0-0.3,0c-0.3,0.1-0.6,0.1-1,0.2l0,0c-1.2-0.3-2.1,0.4-2.9,1.1c0,0,0,0,0,0
		c-0.1,0.1-0.2,0.2-0.3,0.3l0,0c0,0,0,0,0,0c-0.5,0.4-1,0.7-1.4,1.1c0,0,0,0,0,0c-0.2,0.2-0.4,0.4-0.6,0.6c0,0,0,0,0,0
		c-0.8,0.8-1.7,1.6-2.5,2.4c-0.3,0.3-0.5,0.7-0.7,1l0,0c0,0,0,0,0,0c-0.2,0.2-0.3,0.4-0.5,0.6c-0.1,0.1-0.2,0.3-0.3,0.4
		C213.9,258.4,213.6,259.2,213.6,260.1z"/>
	<path class="st0" d="M103.5,108.3c0.1,0,0.2,0,0.3,0c0.6,0.3,1.2,0.5,1.5,1.2c0.4,1,0,1.7-0.5,2.4c0,0-0.1,0.1-0.1,0.1
		c-0.2,0.3-0.4,0.5-0.6,0.8c0,0,0,0,0,0c-0.2,0.5-0.4,0.9-0.6,1.4c0,0.1,0,0.3,0,0.4c-0.1,0.6-0.2,1.1-0.3,1.7c0,0.2,0,0.4,0,0.6
		c0,1.1,0,2.1,0,3.2c0,0.2,0,0.3,0,0.5c0.2,0.6,0.5,1.2,0.7,1.8c0.3,0.4,0.5,0.9,0.8,1.3c0,0.1,0,0.2,0,0.3
		c-0.3,2.2-1.4,2.7-3.4,1.6c-0.2-0.1-0.5,0.1-0.8,0.1c-0.1,0.1-0.3,0.1-0.4,0.2c-0.6-0.1-1.3,0-1.8-0.3c-1.1-0.6-1.2-1.9-0.4-2.9
		c0.6-0.8,0.9-1.8,1.4-2.7c0-0.1,0-0.2,0.1-0.3c0.1-0.3,0.2-0.7,0.2-1c0-1.4,0-2.8,0.1-4.3c0-0.1,0-0.2,0-0.3c-0.1-1-0.3-1.9-1-2.6
		c0,0,0-0.1,0-0.1c-0.7-1.6-0.6-2,0.5-3.1c0,0,0.1,0,0.1,0c0.7,0,1.3,0.1,2,0.1c0,0,0.1,0,0.1,0c0.3,0.5,0.6,0.5,1.1,0.3
		C102.8,108.6,103.1,108.4,103.5,108.3z"/>
	<path class="st0" d="M135,42.6c-0.9,0.2-1.8,0.4-2.7,0.6c-0.1,0-0.2,0.1-0.3,0.1c-0.2,0.1-0.4,0.3-0.6,0.4c0,0-0.1,0-0.1,0
		c-0.1,0.1-0.3,0.2-0.4,0.3c0,0,0,0,0,0c-0.1,0.1-0.2,0.2-0.3,0.3c-0.1,0.1-0.3,0.1-0.4,0.2c-0.8,0.1-1.5,0.2-2.1-0.5
		c-0.6-0.7-0.8-1.6-0.2-2.5c0.2-0.3,0.4-0.6,0.1-1c-0.7-0.9-0.7-1.8-0.1-2.5c0.6-0.7,1.5-0.9,2.6-0.3c0,0,0.1,0,0.1,0
		c0.8,0.8,1.8,1.3,2.9,1.3c1.8,0.1,3.6,0.1,5.4-0.1c1-0.1,1.9-0.8,2.8-1.2c0.6-0.3,1.1-0.5,1.7-0.8c0.1,0,0.2,0,0.3,0
		c0.4,0.2,0.8,0.4,1.2,0.6l0,0c0,0,0,0,0,0c0.3,0.6,0.6,1.3,0.2,2c-0.4,0.7-0.6,1.3,0.1,2c0.2,0.2,0.1,0.5,0.2,0.8
		c0,0.1,0,0.3,0,0.4c-0.4,0.8-1,1.3-1.8,1.5c-0.1,0-0.3,0-0.4,0c-0.3-0.1-0.5-0.2-0.8-0.3l0,0c0,0,0,0,0,0c-1-1-2.2-1.4-3.5-1.4
		c-0.2,0-0.4,0-0.6,0c-0.8,0-1.6,0-2.4,0C135.4,42.6,135.2,42.6,135,42.6z"/>
</g>
<g id="Layer_2">
	<path class="st1" d="M23.4,0c0.1,2.4-0.8,4.5-2.1,6.5c-0.5,0.9-1,1.8-1.5,2.6c-0.6,0.9-1.4,1.6-1.9,2.5c-1,1.5-1.7,3.1-2.3,4.7
		c-0.8,2.3-2.2,4.2-4.7,4.8c-2.3,0.6-4.3,0-6.1-1.5c-0.3-0.2-0.5-0.3-0.8-0.5c-1.1-1.3-2.1-2.5-3.1-3.9c-0.4-0.5-0.6-1.1-0.9-1.7
		C0,9.1,0,4.5,0,0C7.8,0,15.6,0,23.4,0z"/>
	<path class="st1" d="M287.9,182.6c0.3-0.7,0.6-1.5,0.9-2.2c0.1-0.1,0.3-0.1,0.4-0.3c0.9-1.9,2.3-3.3,4.2-4.2c0.2,0,0.5-0.1,0.8-0.1
		c0.2,0,0.5-0.1,0.7-0.1c0.8,0.1,1.7,0,2.4,0.3c0.8,0.4,1.4,1.1,2.1,1.6c0.2,0.2,0.4,0.3,0.6,0.4c0,7.4,0,14.7,0,22.1
		c-0.8-0.1-1.6-0.2-2.4-0.3c-0.9-0.2-1.7-0.4-2.5-0.6c-0.3-0.1-0.7-0.1-1-0.2c-0.1,0-0.2-0.1-0.3-0.1c-0.1,0-0.2,0-0.3,0
		c-1.4-0.4-2.7-0.8-4.1-1.2c-0.1,0-0.3-0.1-0.4-0.1c-1.1-0.5-1.9-1.2-2.6-2.1c-0.1-0.2-0.1-0.4-0.2-0.6c-0.1-0.5-0.1-1-0.2-1.5
		c0-0.2,0-0.5,0-0.7c0-0.2-0.1-0.4-0.1-0.6c0-0.2,0-0.5,0.1-0.7c0.1-0.6,0.1-1.1,0.2-1.7c0-0.2,0-0.4,0-0.6c0.1-0.7,0.2-1.3,0.4-2
		C287,185.5,287.4,184.1,287.9,182.6z"/>
	<path class="st1" d="M0,81.4c0.8-0.5,1.5-1,2.3-1.4c1.2-0.6,2.4-1.1,3.8-1.3c1.4-0.2,2.6,0.3,3.7,1.1c0.3,0.3,0.5,0.5,0.8,0.8
		c1.1,1.5,1.7,3.2,1.6,5.1c0,1.1-0.3,2.2-0.7,3.3c-0.4,1.1-0.7,2.2-1.2,3.2c-0.4,0.9-0.8,1.8-1.3,2.6c-0.5,0.9-1.1,1.9-1.8,2.7
		c-0.4,0.4-1,0.7-1.6,0.8c-1.8,0.3-3.5-0.3-5.2-0.8c-0.2,0-0.4-0.1-0.6-0.1C0,92.1,0,86.8,0,81.4z"/>
	<path class="st1" d="M287.1,292.9c-0.1,0-0.1-0.1-0.2-0.1c-0.7-0.4-1.4-0.8-2.1-1.3c-0.5-0.3-0.9-0.7-1.4-1c0,0,0-0.1,0-0.1
		c-0.1-0.1-0.1-0.1-0.2-0.2c0,0,0,0,0,0l0,0c-0.2-0.3-0.4-0.7-0.7-1c-0.6-0.9-0.4-2.3,0.5-3c0.7-0.6,1.4-1.1,2.1-1.7
		c0.2-0.1,0.5-0.1,0.7-0.2c1.3-0.4,2.6-0.7,3.9-1.1c1,0,2,0.1,3,0.1c0.9,0.3,1.9,0.6,2.7,1c0.7,0.3,1.3,0.8,1.9,1.2
		c0.3,0.2,0.5,0.5,0.8,0.7c0.5,0.8,1.1,1.7,1.6,2.5c0.1,0.3,0.2,0.7,0.4,1c0,1.2,0,2.5,0,3.8c-0.3,0.5-0.7,0.9-1,1.4
		c-0.1,0.1-0.2,0.2-0.3,0.2c-0.6,0.4-1.2,0.7-2,0.7c-0.3,0-0.7,0-1,0.1c-0.4,0-0.7-0.1-1.1-0.1c-0.5-0.2-1-0.3-1.5-0.5
		c-0.4-0.2-0.8-0.3-1.2-0.5c-0.9-0.3-1.7-0.7-2.6-1c-0.1-0.1-0.3-0.1-0.4-0.2C288.3,293.5,287.7,293.2,287.1,292.9z"/>
	<path class="st1" d="M0.6,179c1.2,2.9,3.6,4.8,5.7,7c0.7,0.8,1.4,1.7,2.2,2.5c0.7,0.7,1.1,1.6,1.4,2.4c0.5,1.6,0.4,3.2-0.4,4.7
		c-0.9,1.7-2.3,2.8-3.9,3.6c-0.8,0.4-1.8,0.5-2.7,0.6C1.8,200,0.9,200,0,200.1c0-7.1,0-14.3,0-21.4C0.2,178.8,0.4,178.9,0.6,179z"/>
	<path class="st1" d="M2,297.2c0.1,0,0.1,0,0.1,0c0.3-0.1,0.5-0.3,0.8-0.4c0.8-0.4,1.6-0.7,2.3-1.1c0.1,0,0.2-0.1,0.3-0.1
		c1.4-0.5,2.7-1,4.1-1.5c0.6-0.1,1.2-0.3,1.8-0.4c0.2,0,0.4-0.1,0.6-0.1c0.4-0.1,0.8-0.1,1.2-0.2c0.2,0,0.4,0,0.6-0.1
		c0.1,0,0.2,0,0.3,0c0.1,0,0.2,0,0.3,0c1.7,0.1,3.3,0.3,4.8,1.2c0.6,0.4,1.4,0.6,1.8,1.3c0.4,0.6,1,1,1.4,1.5c0,0.1,0.1,0.2,0.1,0.3
		c0.2,0.6,0.5,1.2,0.7,1.8c0,0.1,0,0.2,0,0.3c0,0.2,0.1,0.4,0.1,0.6c-7.8,0-15.6,0-23.4,0c0-0.6,0-1.2,0-1.8
		c0.2-0.1,0.3-0.2,0.5-0.3c0.3-0.2,0.6-0.3,0.9-0.5C1.6,297.4,1.8,297.3,2,297.2z"/>
	<path class="st1" d="M2.9,289.5c-0.1-0.1-0.2-0.3-0.3-0.4c-0.2-0.3-0.3-0.5-0.5-0.8c-0.5-0.9-1-1.8-1.5-2.8
		c-0.2-0.4-0.4-0.8-0.6-1.2c0-1.8,0-3.5,0-5.2c0.6-0.1,1.2-0.2,1.8-0.3c0.5,0,1,0,1.5,0c1.3,0.5,2.7,0.9,4,1.5
		c0.9,0.5,1.6,1.3,2.5,2c0,0.1,0.1,0.1,0.1,0.2c0.1,0.1,0.3,0.3,0.4,0.4c0.1,0.2,0.2,0.4,0.3,0.6c0.4,1,0.7,1.9,1.1,2.9
		c0.3,1.5-0.1,2.7-1.2,3.7c-0.2,0.1-0.3,0.3-0.4,0.5c-0.2,0.1-0.4,0.2-0.6,0.3c-1.3,0.3-2.6,0.6-3.9,1c-0.1,0-0.2,0-0.3,0
		c-0.3-0.1-0.7-0.3-1-0.4c-0.2-0.2-0.3-0.4-0.5-0.6c-0.2-0.3-0.4-0.6-0.6-0.9C3.1,289.7,3,289.6,2.9,289.5z"/>
	<path class="st1" d="M155.8,2.6c0.1-0.2,0.3-0.4,0.4-0.6c0.7-0.7,1.5-1.3,2.2-2c4.7,0,9.5,0,14.2,0c-0.2,1.2-0.4,2.4-1,3.6
		c-0.8,1.3-1.8,2.3-3,3.2c-0.3,0.2-0.6,0.3-0.9,0.5c-1.7,0.9-3.5,1-5.3,0.8c-1.8-0.2-3.7-0.8-5.2-2C155.6,4.9,155.2,4.3,155.8,2.6z"
		/>
	<path class="st1" d="M177.1,11.8c-0.2,0.1-0.5,0.1-0.7,0.2c-0.7,0-1.5,0.1-2.2,0.1c-0.3-0.1-0.6-0.3-0.9-0.4
		c-0.4-0.5-0.8-1-1.2-1.5c0-0.3,0-0.6-0.1-0.9c0.1-0.5,0.1-1,0.3-1.5c0.7-1.8,1.4-3.6,2.4-5.2c0.5-0.9,1-1.8,1.5-2.6
		c1.6,0,3.1,0,4.7,0c0.8,0.6,1.7,1.2,2.5,1.8c0.1,0.3,0.2,0.5,0.3,0.8c0.4,1.1,0.2,2.2-0.1,3.3c-0.1,0.2-0.2,0.5-0.3,0.7
		c0,0.1,0,0.2,0,0.3c0,0,0,0,0,0.1c-0.5,0.7-1,1.3-1.6,2c-0.4,0.4-0.9,0.9-1.4,1.2C179.3,10.7,178.2,11.2,177.1,11.8z"/>
	<path class="st1" d="M296.6,95.8c-0.2-0.1-0.3-0.2-0.5-0.3c-0.3-0.2-0.6-0.4-0.9-0.6c-0.1-0.1-0.3-0.2-0.4-0.3
		c-0.4-0.4-0.9-0.8-1.3-1.2c-1.5-1.4-2.4-3.1-2.1-5.2c0.1-0.6,0.3-1.4,0.6-1.9c0.5-0.8,1.4-1.3,2.3-1.8c0.7-0.4,1.5-0.6,2.3-1
		c0.2-0.1,0.4-0.2,0.6-0.3c0.6-0.3,1.3-0.7,1.9-1c0.3-0.2,0.6-0.3,1-0.4c0,5.2,0,10.3,0,15.5C298.8,96.8,297.7,96.3,296.6,95.8z"/>
	<path class="st1" d="M282.1,6.1c-0.1-0.1-0.3-0.2-0.4-0.3c-0.7-0.5-1.3-1-2-1.6c0,0,0-0.1-0.1-0.1c-0.4-0.4-0.7-0.8-1.1-1.2
		c-0.2-0.3-0.4-0.6-0.6-0.9c-0.3-0.7-0.5-1.4-0.8-2.1c5.3,0,10.6,0,15.9,0c0.5,1.1,0.7,2.3,0.2,3.5c-0.1,0.2-0.2,0.4-0.3,0.6
		c-0.3,0.4-0.6,0.7-0.9,1.1c-0.9,1-2.1,1.3-3.3,1.8c-0.2,0-0.4,0.1-0.6,0.1c-0.1,0-0.2,0.1-0.3,0.1c-1,0-2,0-3,0
		C283.9,6.8,283,6.4,282.1,6.1z"/>
	<path class="st1" d="M291.8,212.5c0-0.3,0-0.6-0.1-0.9c0-0.2,0-0.3,0-0.5c0.1-0.2,0.2-0.4,0.2-0.6c0-0.1-0.1-0.2-0.1-0.3
		c0-0.2,0.1-0.4,0.1-0.6c0.1-0.3,0.2-0.5,0.3-0.8c0.4-1,0.9-2,1.1-3.1c0.2-1.2,0.8-2.1,1.6-3c0.2-0.1,0.5-0.2,0.7-0.3
		c0.1,0,0.2,0,0.3-0.1c0.4,0,0.8,0,1.2,0c0.9,0.2,1.9,0.4,2.8,0.5c0,2.9,0,5.7,0,8.6c-0.1,0.1-0.3,0.2-0.4,0.3
		c-1.1,0.7-2.1,1.6-3.2,2.2c-0.8,0.4-1.7,0.4-2.6,0.5c-0.2-0.1-0.5-0.1-0.7-0.2C292.4,214,291.9,213.4,291.8,212.5z"/>
	<path class="st1" d="M284.2,294.6c0,0,0.1,0,0.1,0.1c0.4,0.2,0.8,0.4,1.2,0.5c0.3,0.1,0.5,0.2,0.8,0.3c0.5,0.3,1,0.6,1.5,0.9
		c0.1,0.1,0.3,0.1,0.4,0.2c0.6,0.3,1.2,0.6,1.8,0.9c0.2,0.2,0.4,0.3,0.6,0.5c0.2,0.1,0.4,0.3,0.7,0.4c0.8,0.3,1.2,0.9,1.4,1.6
		c-5.2,0-10.4,0-15.6,0c0-0.2-0.1-0.3-0.1-0.5c-0.2-1-0.5-2.1-0.6-3.1c0-0.7,0.3-1.5,0.4-2.2c0.1-0.1,0.3-0.2,0.4-0.3
		c1.3-0.6,2.6-0.6,3.9-0.2C282.3,294,283.3,294.3,284.2,294.6z"/>
	<path class="st1" d="M84.8,8c0-0.1-0.1-0.1-0.1-0.2c-0.1-0.2-0.2-0.4-0.3-0.6c-0.1-0.6-0.3-1.2-0.4-1.8c0-0.3,0-0.6,0-0.9
		c0.2-0.8,0.4-1.7,0.6-2.5C84.6,1.7,84.8,1.4,85,1C85,1,85,0.9,85.1,0.9c0.2-0.3,0.4-0.6,0.6-0.9c2.8,0,5.7,0,8.6,0c0,0,0,0.1,0,0.1
		c-0.2,0.6-0.3,1.3-0.5,1.9c-0.2,0.4-0.3,0.8-0.5,1.2c-0.3,0.5-0.5,1-0.8,1.5c-0.1,0.2-0.2,0.4-0.3,0.6c-0.4,0.7-0.8,1.3-1.2,2
		c-0.1,0.1-0.1,0.2-0.2,0.3c-0.4,0.5-0.8,1-1.3,1.5c-1.1,0.8-2.2,0.9-3.3,0.2c-0.1,0-0.1-0.1-0.2-0.1c0,0-0.1,0-0.1,0
		c-0.2-0.1-0.3-0.3-0.5-0.4c0,0,0-0.1-0.1-0.1C85.1,8.5,84.9,8.2,84.8,8z"/>
	<path class="st1" d="M158.7,300c0.3-0.2,0.7-0.5,1-0.7c0.4-0.3,0.9-0.5,1.4-0.7c0.2-0.1,0.4-0.2,0.6-0.3c1.6-0.7,3.2-1.4,4.8-2
		c0.6-0.2,1.2-0.4,1.8-0.5c2.1-0.4,3.7,0.9,4.1,3c0.1,0.4,0.1,0.8,0.2,1.3C168,300,163.3,300,158.7,300z"/>
	<path class="st1" d="M298.9,11.5c-0.1-0.3-0.3-0.7-0.4-1c-0.2-0.6-0.5-1.1-0.7-1.7c-0.3-1-0.6-2.1-0.8-3.2
		c-0.2-0.8-0.2-1.6-0.3-2.5c-0.1-0.2-0.2-0.4-0.2-0.7c0.1-0.2,0.1-0.3,0.2-0.5c0-0.2,0.1-0.4,0.1-0.6c0.1-0.2,0.2-0.5,0.3-0.7
		c0.1-0.1,0.1-0.2,0.2-0.3c0-0.1,0.1-0.2,0.1-0.3c0.9,0,1.7,0,2.6,0c0,4.4,0,8.8,0,13.2c-0.2-0.2-0.3-0.3-0.5-0.5
		C299.3,12.3,299.1,11.9,298.9,11.5z"/>
	<path class="st1" d="M86.3,299.2c0.3-0.2,0.7-0.4,1-0.6c0.7-0.3,1.4-0.6,2.1-0.9c0.2-0.1,0.4-0.1,0.6-0.2c0.4-0.1,0.7-0.1,1.1-0.2
		c0.2,0,0.5-0.1,0.7-0.1c0.6,0.1,1.2,0.2,1.8,0.3c0,0,0.1,0.1,0.1,0.1c0.5,0.7,0.7,1.4,0.5,2.2c-2.8,0-5.5,0-8.2,0
		C86.1,299.7,86.2,299.5,86.3,299.2z"/>
	<path class="st1" d="M2.1,206.2c-0.1,1.6-0.6,3.1-1.5,4.5c-0.1,0.2-0.4,0.3-0.6,0.5c0-2.6,0-5.3,0-7.9c0.7,0,1,0.6,1.5,1
		C1.7,204.9,1.9,205.6,2.1,206.2z"/>
	<path class="st1" d="M297.6,300c0-0.1,0-0.2,0-0.3c0.1-0.1,0.2-0.1,0.3-0.2c0.7-0.4,1.4-0.8,2.1-1.2c0,0.5,0,1.1,0,1.6
		C299.2,300,298.4,300,297.6,300z"/>
	<path class="st1" d="M300,283.8c-0.1-0.2-0.4-0.4-0.4-0.7c-0.1-0.8-0.3-1.7-0.3-2.5c0-0.3,0.4-0.6,0.7-0.9
		C300,281.1,300,282.4,300,283.8z"/>
	<path class="st1" d="M176.7,300c0.6-0.5,2.1-0.5,2.7,0C178.5,300,177.6,300,176.7,300z"/>
	<path class="st1" d="M194.2,288.8c0,0.2,0.1,0.4,0.1,0.6c0.2,0.7,0.3,1.5,0.1,2.2c-0.2,1.4-0.9,2.5-1.8,3.4c-0.4,0.3-0.7,0.7-1.1,1
		c-0.9,0.5-1.7,1-2.7,1.4c-0.5,0.2-1,0.2-1.6,0.3c-2.1,0.2-4.3,0.1-6.3-0.7c-3.2-1.2-6.4-2.6-9.6-4c-1.8-0.8-2.6-2.3-2.4-4.3
		c0.1-1,0.3-2.1,0.4-3.1c0.1-0.3,0.1-0.5,0.2-0.8c0.1-0.4,0.2-0.8,0.3-1.2c0.1-0.4,0.2-0.9,0.3-1.3c0.3-0.6,0.5-1.3,0.8-1.9
		c0.1-0.3,0.2-0.5,0.4-0.8c0.1-0.1,0.1-0.3,0.2-0.4c0.1-0.2,0.2-0.5,0.4-0.7c0-0.1,0-0.1,0.1-0.2c0.1-0.2,0.2-0.4,0.3-0.7
		c0.1-0.2,0.2-0.3,0.3-0.5c0.1-0.2,0.3-0.5,0.4-0.7c0,0,0-0.1,0-0.1c0.3-0.5,0.5-0.9,0.8-1.3c0.1-0.1,0.2-0.1,0.3-0.2
		c0.3-0.3,0.6-0.7,0.9-1c0.3-0.2,0.6-0.5,0.9-0.7c0.2-0.1,0.3-0.3,0.5-0.4c0,0,0.1,0,0.1,0c0.1-0.1,0.3-0.2,0.4-0.3
		c0.2-0.2,0.4-0.4,0.6-0.5c0.6-0.2,1.1-0.4,1.7-0.6c1-0.3,2-0.2,2.9,0.1c0.3,0.1,0.7,0.1,1,0.2c0.2,0.2,0.3,0.3,0.5,0.5
		c0.4,0.4,0.9,0.8,1.4,1.2c1.1,1,1.5,2.4,2,3.7c0,0.1,0.1,0.2,0.1,0.3c0.2,0.4,0.3,0.7,0.5,1.1c1,1.5,2.1,3,3.1,4.5
		c0.2,0.3,0.6,0.6,0.9,0.9c0.1,0.3,0.3,0.6,0.4,0.9c0.2,0.3,0.4,0.5,0.6,0.8c0.5,0.9,0.9,1.9,1.4,2.8c0,0.1,0,0.2,0,0.3
		C194.1,288.6,194.2,288.7,194.2,288.8z"/>
	<path class="st1" d="M145.1,80.8c0,0.1-0.1,0.2-0.1,0.3c-0.7,1.6-1.5,3.2-2.2,4.9c0,0.1,0,0.2,0,0.3c-0.1,0.1-0.2,0.1-0.3,0.2
		c-0.4,0.6-0.7,1.1-1.1,1.7c-0.3,0.4-0.7,0.8-1,1.2c-1.4,1.2-2.9,1.2-4.5,0.6c-0.9-0.3-1.8-0.6-2.7-0.9c-0.4-0.1-0.8-0.2-1.2-0.3
		c-0.2,0-0.3-0.1-0.5-0.1c-0.6-0.2-1.2-0.4-1.8-0.7c-0.4-0.1-0.7-0.3-1.1-0.4c0,0-0.1-0.1-0.1-0.1c0,0,0-0.1-0.1-0.1
		c-0.5-0.2-1-0.4-1.5-0.7c-1.6-1-3.2-1.9-4.4-3.5c-0.1-0.2-0.3-0.4-0.4-0.6c-0.2-0.4-0.5-0.8-0.7-1.2c-0.1-0.2-0.2-0.4-0.3-0.6
		c-0.2-0.9-0.4-1.7-0.5-2.6c0-0.3,0-0.6,0-0.9c0.1-0.3,0.2-0.7,0.2-1c0.1-1,0.5-1.8,1.1-2.5c0.2-0.2,0.2-0.5,0.4-0.7
		c0.2,0,0.3-0.1,0.5-0.1c0.4-0.3,0.9-0.6,1.3-1c0.2-0.1,0.5-0.2,0.7-0.3c0.2-0.1,0.5-0.3,0.7-0.3c1.6-0.4,3.1-0.7,4.7-1
		c1.2-0.3,2.4-0.6,3.6-0.9c0.2,0,0.4-0.1,0.6-0.1c0.4-0.2,0.9-0.3,1.3-0.5c0.3-0.2,0.6-0.3,0.9-0.5c0.8-0.3,1.6-0.6,2.4-0.9
		c0.2,0,0.4,0,0.6-0.1c0.7,0,1.5,0,2.2,0.1c1.9,0.4,3.1,1.6,3.7,3.3c0,0,0,0,0,0c0.2,0.6,0.3,1.3,0.5,1.9c0.3,1.1,0,2.2,0,3.3
		C145.7,77.9,145.4,79.4,145.1,80.8z"/>
	<path class="st1" d="M67.8,152.2c-0.1,0-0.3,0-0.4,0c-2.1,0.6-4,1.7-5.8,2.9c-1.5,0.9-2.9,1.8-4.6,2.4l0,0c0,0,0,0,0,0
		c-0.9,0.1-1.9,0.1-2.8,0.2c-0.2,0-0.4,0-0.6,0c-0.4-0.2-0.7-0.4-1.1-0.6c-1.5-0.9-2.4-2.2-3-3.8c-0.5-1.8-0.2-3.6,0-5.4
		c0-0.1,0.1-0.2,0.1-0.3c0-0.1,0.1-0.2,0.1-0.3c0.2-0.7,0.4-1.4,0.7-2.1c0,0,0.1,0,0.1,0c0,0,0.1-0.1,0.1-0.1c0-0.1,0-0.2,0-0.3
		c0.1-0.1,0.1-0.2,0.2-0.3c0.1-0.2,0.2-0.4,0.3-0.6c0.2-0.4,0.4-0.8,0.5-1.2c0,0,0-0.1,0-0.1c0.1-0.1,0.2-0.2,0.3-0.3
		c0.6-1.2,1.3-2.3,1.9-3.5c0.3-0.5,0.5-1.1,0.8-1.6c0.6-0.2,1.2-0.4,1.9-0.6c0.1,0,0.2-0.2,0.3-0.1c1,0.2,1.9,0.3,2.9,0.5
		c0,0,0,0,0.1,0c0.5,0.2,1,0.4,1.5,0.6c0.7,0.2,1.4,0.4,2.1,0.7c0.4,0.1,0.7,0.5,1.1,0.6c0.4,0.2,0.9,0.3,1.3,0.4
		c0,0.1-0.1,0.4,0,0.4c0.4,0.2,0.8,0.4,1.2,0.5c0.1,0.1,0.1,0.2,0.2,0.3c0.3,0.3,0.7,0.5,1,0.8c0.2,0.2,0.4,0.3,0.6,0.5
		c0.3,0.4,0.7,0.7,1,1.1c0.3,0.3,0.6,0.6,0.9,0.9c0.1,0.2,0.2,0.4,0.3,0.6c0.2,0.5,0.4,1,0.6,1.5c0.1,0.2,0.2,0.5,0.3,0.7
		c0,0.2-0.1,0.3-0.1,0.5c0,0.2,0,0.5,0,0.7c-0.2,0.6-0.3,1.3-0.5,1.9c-0.2,0.2-0.4,0.4-0.6,0.6c-0.2,0.2-0.3,0.3-0.5,0.5
		c-0.2,0.1-0.4,0.3-0.6,0.4C69,151.5,68.4,151.9,67.8,152.2z"/>
	<path class="st1" d="M89.7,13.7c0.1,0.1,0.1,0.2,0.2,0.3c0.2,0.3,0.4,0.7,0.6,1c0.3,0.6,0.5,1.3,0.8,1.9c0.5,1.2,1,2.5,1.5,3.7
		c0.3,0.9,0.4,1.9,0.7,2.9c0,1.4-0.1,2.7-0.2,4.1c0,0.3-0.2,0.7-0.3,1c-0.1,0.1-0.2,0.2-0.3,0.3c-0.1,0.1-0.2,0.3-0.3,0.4
		c-0.5,0.6-1.1,1.1-1.6,1.7c-0.7,0.7-1.5,0.9-2.5,0.9c-0.2,0-0.4,0.1-0.5,0.2c-0.3-0.1-0.7-0.1-1-0.2c-0.2-0.1-0.4-0.2-0.6-0.3
		c-0.2-0.1-0.5-0.1-0.7-0.2c-0.2-0.1-0.4-0.2-0.5-0.3c-0.5-0.3-0.9-0.6-1.4-0.9c-0.3-0.2-0.6-0.4-0.9-0.6c-0.2-0.1-0.3-0.2-0.5-0.3
		c-0.3-0.2-0.6-0.5-0.9-0.7c-0.1-0.1-0.3-0.2-0.4-0.3c-0.2-0.1-0.4-0.3-0.6-0.4c-0.2-0.1-0.4-0.3-0.6-0.4c-0.2-0.1-0.3-0.2-0.5-0.3
		c-0.2,0-0.3-0.1-0.5-0.1c0,0-0.1-0.1-0.1-0.1c-0.1-0.1-0.2-0.2-0.3-0.3c-0.1,0-0.2-0.1-0.3-0.1c-0.3-0.2-0.6-0.3-1-0.5
		c-0.3-0.1-0.6-0.2-0.9-0.3c-0.5-0.4-1-0.7-1.5-1.1c-0.3-0.4-0.7-0.7-1-1.1c-0.1-0.1-0.2-0.3-0.3-0.4c0-0.1-0.1-0.2-0.1-0.3
		c-0.1-0.3-0.2-0.7-0.3-1c0-0.7,0.1-1.4,0.1-2.1c0.1-0.2,0.1-0.3,0.2-0.5c0.3-0.4,0.5-0.9,0.8-1.3c0.3-0.4,0.6-0.8,0.9-1.2
		c0.1-0.1,0.3-0.3,0.4-0.4c0.1-0.1,0.3-0.1,0.4-0.2c0.4-0.3,0.8-0.6,1.2-0.9c0.1-0.1,0.3-0.2,0.4-0.3c0.4-0.2,0.8-0.4,1.2-0.6
		c0.2-0.1,0.5-0.2,0.7-0.3c0.1,0,0.2-0.1,0.3-0.1c0.2-0.1,0.4-0.2,0.6-0.3c0.1-0.1,0.3-0.1,0.4-0.2c0.2-0.1,0.4-0.1,0.6-0.2
		c0.2-0.1,0.5-0.2,0.7-0.3c0.6-0.2,1.2-0.3,1.8-0.5c0.1,0,0.3-0.1,0.4-0.1c0.2,0,0.4-0.1,0.6-0.1c1.3-0.1,2.5-0.4,3.8,0.1
		C88.8,12.8,89.2,13.3,89.7,13.7z"/>
	<path class="st1" d="M247.9,52.5c-0.6,0.1-1.2,0.3-1.9,0.3c-0.7,0-1.4-0.1-2-0.2c-0.5-0.5-1.2-0.8-1.4-1.4
		c-0.7-1.4-1.3-2.9-1.9-4.4c-0.4-1-0.7-2-1-3.1c-0.2-0.7-0.2-1.5-0.4-2.3c-0.4-1.3,0.1-2.5,0.4-3.7c0.2-0.7,0.8-1.4,1.3-2
		c0.6-0.6,1.2-1.3,1.9-1.5c2-0.5,3.8-0.1,5.5,1.2c0.7,0.5,1.4,1,2.2,1.4c0.3,0.2,0.5,0.5,0.8,0.7c0.9,0.7,1.9,1.3,2.8,2
		c0.1,0.1,0.2,0.1,0.4,0.2c0.7,0.4,1.4,0.7,2.1,1.1c0,0,0.1,0,0.1,0.1c0.3,0.2,0.6,0.5,0.9,0.7c0.2,0.2,0.3,0.5,0.5,0.7
		c0.9,1.5,0.6,3-0.1,4.5c-0.1,0.1-0.1,0.3-0.2,0.4c-0.1,0-0.2,0-0.3,0.1c-0.6,1-1.6,1.6-2.6,2.2c-0.8,0.5-1.7,1-2.6,1.5
		c-0.1,0-0.3,0.1-0.4,0.1c-0.1,0-0.2,0-0.3,0c-0.7,0.2-1.4,0.5-2.1,0.7C249.1,52.2,248.5,52.3,247.9,52.5z"/>
	<path class="st1" d="M101.2,239.3c0.1,0,0.3,0,0.4,0c0.1,0,0.2,0.1,0.3,0.1c0.1,0,0.2,0,0.3,0.1c0.7,0.3,1.4,0.5,2,1
		c1.5,1.3,2.1,3,2.1,4.9c0,0.1-0.1,0.3-0.1,0.4c-0.1,0.3-0.1,0.6-0.2,0.9c-0.4,1.3-0.9,2.5-1.4,3.7c-0.1,0.2-0.2,0.3-0.3,0.5
		c0,0-0.1,0.1,0,0.1c-0.1,0.1-0.1,0.2-0.2,0.3c-0.7,1.2-1.5,2.3-2.1,3.5c-0.8,1.4-2,1.7-3.4,1.5c-1.6-0.2-3.1-0.9-4.5-1.7
		c-1.7-0.9-3.4-2-4.7-3.6c-0.2-0.4-0.5-0.7-0.7-1.1c-0.3-0.8-0.7-1.6-0.7-2.4c0-0.8,0.4-1.6,0.6-2.3c0.1,0,0.1,0,0.2,0
		c0.6-0.4,1.2-0.9,1.7-1.3c0.2,0,0.4-0.1,0.6-0.1c0.4-0.1,0.7-0.2,1.1-0.3c0.1-0.1,0.2-0.2,0.3-0.3c0.2,0,0.4,0,0.6-0.1
		c0.9-0.4,1.8-0.8,2.6-1.3c0.4-0.2,0.9-0.5,1.3-0.7c0.4-0.3,0.8-0.6,1.2-0.9c0.1,0,0.2,0,0.3-0.1
		C99.4,239.8,100.3,239.5,101.2,239.3z"/>
	<path class="st1" d="M251.6,243.8c0.4-0.1,0.8-0.2,1.2-0.3c1,0.1,2.1,0.2,3.1,0.2c0.2,0.1,0.5,0.2,0.7,0.3c0.1,0.1,0.3,0.2,0.4,0.3
		c0.8,0.9,1.8,1.7,2.4,2.8c0.6,1.1,0.9,2.5,1.3,3.8c0,0.1,0.1,0.3,0.1,0.4c0.3,1.3,0.6,2.7,0.8,4c0,0.3-0.1,0.6-0.1,0.9
		c-0.3,1.2-1.4,1.8-2.4,2.3c-0.9,0.5-1.9,0.8-2.9,1.1c-1.4,0.4-2.9,0.6-4.4,0.9c-0.4,0-0.8,0-1.2,0c-1.3-0.2-2.6-0.2-3.6-1.3
		c0,0,0,0,0,0c-0.3-0.3-0.6-0.7-0.9-1c-0.3-1-0.5-2-0.1-3c0.3-0.6,0.6-1.3,0.9-1.9c0.1-0.2,0.3-0.4,0.4-0.6c0.5-1.3,0.9-2.6,1.4-3.9
		c0.3-0.8,0.5-1.6,0.8-2.4c0-0.1,0.1-0.2,0.1-0.3c0.2-0.4,0.4-0.7,0.6-1.1c0,0,0-0.1,0-0.1c0.2-0.1,0.3-0.2,0.5-0.4
		c0-0.1,0.1-0.1,0.1-0.2C251.2,244.2,251.4,244,251.6,243.8z"/>
	<path class="st1" d="M49.4,245c1.7-2.1,3.9-2.5,6.3-1.8c1.4,0.4,2.1,1.8,2.4,3.2c0.3,1.6,0.5,3.2,0.8,4.8c0.3,1.3,0.7,2.6,1,3.8
		c0.6,2,0,3.9-1.9,4.8c-0.4,0.2-1,0.3-1.5,0.3c-1.5,0.2-3,0-4.4-0.5c-1.8-0.7-3.6-1.5-5.1-2.8c-0.3-0.3-0.7-0.6-1-0.9
		c-1.1-1-1.1-2.3-0.6-3.5c0.7-1.8,1.6-3.5,2.4-5.3c0.2-0.4,0.4-0.7,0.7-1C48.8,245.8,49.1,245.4,49.4,245z"/>
	<path class="st1" d="M213.6,174c-0.1,0.4-0.1,0.7-0.2,1.1c-0.1,0.5-0.1,1.1-0.2,1.6c-0.1,0.1-0.1,0.1-0.2,0.2
		c-0.1,0.3-0.3,0.6-0.4,0.9c-0.1,0.2-0.3,0.5-0.4,0.7c-0.8,0.6-1.7,1.1-2.8,0.9c-0.4-0.1-0.7,0-1.1,0c-0.1-0.1-0.3-0.1-0.4-0.2
		c-0.9-0.6-1.9-1.2-2.8-1.8c0,0,0,0,0,0c0,0,0-0.1,0-0.1c-1.8-1.7-3.2-3.6-4.2-5.8c-0.6-1.2-0.4-2.5,0.7-3.5c0.5-0.4,1-0.9,1.5-1.3
		c1.1-1,2.2-2.1,3.6-2.8c0.2-0.1,0.4-0.3,0.6-0.5c0.2-0.1,0.4-0.1,0.5-0.2c0.5-0.2,0.9-0.5,1.4-0.6c1.9-0.2,3.9-0.1,5.3,1.5
		c0.1,0.2,0.3,0.3,0.4,0.5c0.2,0.4,0.3,0.9,0.5,1.3c0,0.1,0,0.3,0,0.4c0,0.4,0,0.9-0.1,1.3c0,0.2-0.1,0.3-0.1,0.5
		c-0.3,0.9-0.5,1.7-0.8,2.6c0,0.1,0,0.3,0,0.4C214.2,172.1,213.9,173,213.6,174z"/>
	<path class="st1" d="M223.4,124.5c-0.1,0.4-0.3,0.9-0.4,1.3c-0.3,0.8-0.7,1.5-1.4,2c-0.1,0.1-0.1,0.2-0.2,0.4
		c-0.3,0.1-0.5,0.2-0.8,0.3c-1.2,0.4-2.3,0.1-3.4-0.1c-0.2-0.1-0.4-0.1-0.6-0.2c-0.8-0.4-1.6-0.8-2.4-1.1c-1.3-0.4-2.7-0.8-4.1-1.1
		c-0.1-0.1-0.3-0.1-0.4-0.2c-2-1-2.6-2.4-2-4.5c0.2-0.4,0.3-0.7,0.5-1.1c0.4-0.6,0.9-1.1,1.3-1.7c0.2-0.2,0.4-0.4,0.6-0.6
		c0.4-0.3,0.8-0.6,1.2-0.9c1.4-1,2.8-1.9,4.5-2.3c0.7-0.2,1.4-0.2,2.1,0.3c0.9,0.6,1.4,1.5,2,2.3c1.2,1.6,2.3,3.2,3,5.1
		c0.1,0.4,0.1,0.9,0.2,1.3C223.3,124,223.3,124.2,223.4,124.5z"/>
	<path class="st1" d="M42.6,37.9c0.2,0.5,0.4,1,0.6,1.4c0.1,0.2,0.2,0.4,0.3,0.6c0.3,0.6,0.6,1.2,0.9,1.8c0.1,0.5,0.2,1,0.3,1.5
		c0.1,0.6,0.2,1.3,0.3,1.9c0.1,0.8-0.1,1.6-0.7,2.2c-0.2,0.1-0.4,0.3-0.6,0.4c-0.3,0.1-0.6,0.3-0.9,0.4c-0.3,0.2-0.7,0.3-1,0.5
		c-0.2,0.1-0.3,0.1-0.5,0.2c-0.2,0.1-0.4,0.2-0.6,0.3c-0.3,0.1-0.6,0.2-0.9,0.3c-0.3,0.1-0.6,0.2-0.9,0.3c-0.3,0.1-0.7,0.2-1,0.3
		c-0.1,0-0.2,0.1-0.3,0.1c-0.9,0-1.9,0.1-2.8,0.1c-1.6,0-2.7-0.9-3.4-2.2c-0.9-1.5-0.6-3.1,0.4-4.5c0.8-1.2,1.7-2.4,2.5-3.6
		c0.1-0.2,0.2-0.4,0.2-0.7c0.3-0.5,0.6-1,0.9-1.5c0.1-0.2,0.1-0.4,0.2-0.5c0.9-1.2,2-2,3.6-1.9c0.1,0,0.2,0,0.3,0.1
		c0.5,0.2,1,0.5,1.5,0.7c0.1,0.1,0.2,0.1,0.3,0.2c0.2,0.1,0.4,0.3,0.6,0.4c0.2,0.2,0.3,0.5,0.5,0.7C42.3,37.6,42.4,37.7,42.6,37.9z"
		/>
	<path class="st1" d="M162.8,294.4c-0.4,0.3-0.9,0.5-1.3,0.8c-0.3,0.2-0.5,0.3-0.8,0.5c-0.1,0.1-0.2,0.1-0.3,0.2
		c-0.2,0.1-0.3,0.2-0.5,0.2c-0.4,0.2-0.8,0.4-1.2,0.6c-0.1,0.1-0.2,0.2-0.3,0.3c-0.5,0.2-1,0.4-1.5,0.6c-0.6,0.2-1.2,0.5-1.8,0.7
		c-0.1,0.1-0.3,0.1-0.4,0.2c-0.9,0.1-1.8,0.2-2.7,0.3c-0.4,0-0.7-0.1-1.1-0.1c-1.1-0.8-1.2-2-1.2-3.3c0.1-0.4,0.1-0.8,0.2-1.2
		c0.2-0.8,0.3-1.5,0.5-2.3c0.2-0.3,0.4-0.5,0.5-0.8c0.2-0.3,0.3-0.7,0.5-1c0.1-0.1,0.1-0.2,0.2-0.3c0.3-0.5,0.7-1,1-1.5
		c0.2-0.1,0.3-0.2,0.5-0.2c0.2-0.3,0.5-0.6,0.7-0.9c0.4-0.2,0.7-0.4,1.1-0.6c0.5-0.2,1-0.4,1.5-0.6c0.5-0.1,1-0.2,1.5-0.4
		c1.1,0,2.1,0,3.2,0c0.4,0.1,0.8,0.2,1.2,0.3c0.2,0.1,0.4,0.2,0.6,0.3c0.1,0.1,0.3,0.1,0.4,0.2c0.4,0.2,0.7,0.5,1.1,0.7
		c0.1,0.1,0.1,0.1,0.2,0.2c0.2,0.3,0.5,0.5,0.7,0.8c0,0,0,0,0,0c0.1,0.2,0.2,0.4,0.4,0.6c0.1,0.2,0.2,0.5,0.3,0.7
		c0,0.4,0.1,0.8,0.1,1.2c-0.1,0.3-0.1,0.6-0.2,0.9c-0.3,0.5-0.7,1-1,1.5c-0.2,0.2-0.4,0.4-0.6,0.5c-0.2,0.2-0.5,0.3-0.7,0.5
		c-0.1,0-0.1,0.1-0.2,0.1C163.2,294.2,163,294.3,162.8,294.4z"/>
	<path class="st1" d="M151.3,252c-0.5-0.1-1.1-0.2-1.6-0.3c-0.7,0-1.3,0-2-0.1c-0.1,0-0.3,0-0.4,0.1c-0.3,0-0.7-0.1-1-0.1
		c-1.4-0.1-2.3-0.8-2.6-2.1c-0.3-1-0.2-2.1,0.3-3c0.1-0.2,0.1-0.4,0.1-0.6c0-0.1,0-0.2,0-0.2c0.1,0,0.2,0,0.3-0.1
		c1.2-1.9,2.5-3.6,4.5-4.8c0.9-0.5,1.7-0.8,2.7-0.5c0.2,0.1,0.3,0.2,0.5,0.3c0.1,0.1,0.3,0.1,0.4,0.2l0,0c0.5,0.4,1,0.9,1.4,1.3
		c1.7,1.6,3.6,3,4.2,5.4c0,0.3,0.1,0.5,0.1,0.8c0,0.2,0,0.5,0,0.7c0,0.1-0.1,0.3-0.1,0.4c-0.2,0.9-0.5,1.6-1.2,2.2
		c-0.8,0.6-1.6,0.8-2.5,0.9c-0.2,0-0.4,0-0.6,0C152.9,252.3,152.1,252.2,151.3,252z"/>
	<path class="st1" d="M137.6,94.6c0.1,0.2,0.2,0.4,0.4,0.5c0.3,0.6,0.6,1.2,0.9,1.8c0,0.2,0.1,0.3,0.1,0.5c0.2,0.3,0.3,0.7,0.5,1
		c0.1,0.3,0.2,0.5,0.3,0.8c0.5,1.5,1,3.1,1.5,4.6c0,1.1,0,2.2,0,3.3c-0.2,0.2-0.3,0.5-0.5,0.7c-0.2,0.1-0.5,0.2-0.7,0.3
		c-0.7,0-1.5,0-2.2,0c-0.3,0-0.6-0.1-0.9-0.2c-0.1,0-0.2-0.1-0.3-0.1c-0.1,0-0.2-0.1-0.3-0.1c0,0-0.1,0-0.1,0
		c-0.6-0.2-1.2-0.5-1.7-0.7c-0.1-0.1-0.2-0.1-0.3-0.2c-0.7-0.6-1.5-1.2-2.2-1.9c-1-1-1.5-2.2-2-3.5c-0.1-1.2-0.2-2.5-0.3-3.7
		c0-0.3,0.1-0.7,0.2-1.1c0.1,0,0.3,0,0.3-0.1c0.3-0.6,0.5-1.1,0.8-1.7c0.1-0.2,0.2-0.3,0.3-0.5c0.3-0.3,0.6-0.6,0.9-0.9
		c0,0,0.1-0.1,0.1-0.1c0.4-0.3,0.8-0.5,1.2-0.8c0.3,0,0.6,0,0.8,0C135.8,92.6,136.8,93.3,137.6,94.6z"/>
	<path class="st1" d="M148.6,106.6c-0.6,0-1.2,0-1.8,0c-0.7-0.7-1.5-1.3-2-2.1c-0.7-1.1-1.2-2.4-1.8-3.6c-0.5-1.1-0.8-2.3-1.2-3.4
		c-0.1-0.4-0.2-0.9-0.4-1.3c-0.1-1.2-0.3-2.4-0.4-3.5c0.1-0.2,0.3-0.4,0.4-0.6c0.5-0.6,1.1-1.2,2-1.4c1.6-0.3,3.1-0.1,4.6,0.6
		c0.1,0.1,0.2,0.1,0.3,0.2c0.4,0.2,0.7,0.5,1.1,0.7c0.6,0.7,1.2,1.5,1.7,2.2c0.8,1.1,1.1,2.3,1.2,3.6c0.2,2.3-0.5,4.5-1.7,6.4
		c-0.2,0.4-0.5,0.7-0.7,1.1C149.5,105.8,149.1,106.2,148.6,106.6z"/>
	<path class="st1" d="M275.1,192.3c0.6-0.2,1.1-0.3,1.7-0.5c0.3,0,0.7,0,1-0.1c0.1,0,0.3,0,0.4,0c0.3,0,0.7,0,1,0
		c0.5,0.1,1,0.2,1.5,0.3c0.1,0.1,0.1,0.2,0.2,0.3c0.7,0.5,1.3,0.9,2,1.4c0.1,0.1,0.2,0.3,0.3,0.4c1,1.8,0.2,3.3-0.8,4.7
		c-0.1,0.1-0.2,0.2-0.4,0.3c-1,0.7-2,1.5-3,2.2c-0.9,0.7-1.8,1.3-2.7,1.9c-0.2,0.1-0.3,0.4-0.4,0.5c0,0,0,0,0,0
		c-0.2,0-0.4,0-0.5,0.1c-0.2,0.1-0.5,0.3-0.7,0.4c-0.3,0.2-0.7,0.3-1,0.5c-1,0.1-2,0.1-3,0.2c-0.3-0.3-0.6-0.5-0.8-0.8
		c-0.2-0.5-0.3-1-0.3-1.5c-0.1-0.9-0.1-1.8,0-2.7c0.1-0.7,0.3-1.4,0.5-2.1c0.1-0.4,0.2-0.7,0.3-1.1c0.8-1.3,1.7-2.6,2.9-3.6
		c0.2-0.1,0.5-0.3,0.7-0.4C274.2,192.7,274.7,192.5,275.1,192.3z"/>
	<path class="st1" d="M290.4,201.6c0.7,1.3,0.8,2.7,0.6,4.2c0,0.5-0.2,1-0.3,1.5c-0.2,0.2-0.3,0.5-0.5,0.7c-0.9,1.4-2,2.6-3.4,3.4
		c-0.2,0.1-0.4,0.2-0.5,0.3l0,0c-0.2,0.1-0.4,0.2-0.6,0.2c-1.5,0.5-3.1,0.5-4.7,0.4c-0.4-0.1-0.8-0.1-1.2-0.2
		c-0.8-0.2-1.6-0.5-2.4-0.7c-0.2-0.1-0.3-0.3-0.5-0.4c-0.7-0.4-1.1-1.1-1.3-1.9c0-0.2,0.1-0.4,0.1-0.6c0-0.1,0-0.2,0-0.2
		c0.5-1.2,1.4-2.2,2.4-3.1c0,0,0.1-0.1,0.1-0.1c1.5-1,3-2.1,4.6-3.1c0.9-0.6,1.9-1.1,2.8-1.7c0,0,0.1,0,0.1-0.1
		c1.1-0.2,2.2-0.4,3.3,0.1c0.1,0.1,0.2,0.1,0.3,0.2c0.2,0,0.3,0.1,0.5,0.1C290,201,290.2,201.3,290.4,201.6z"/>
	<path class="st1" d="M78.3,204.7c-0.2-0.3-0.4-0.6-0.7-0.9c-0.6-0.9-1.3-1.7-1.9-2.6c-0.1-0.1-0.1-0.2-0.2-0.3
		c-0.6-1.2-0.6-2.4,0.2-3.6c0.1-0.1,0.2-0.3,0.3-0.4c0.7-0.4,1.4-0.8,2.1-1.2c1.1,0,2.2,0,3.3,0c0.9,0.3,1.9,0.5,2.7,0.9
		c1,0.4,2.1,0.4,3,1.2c0.6,0.6,0.9,1.3,0.8,2c-0.2,1.4-0.6,2.9-1.1,4.2c-0.3,1-0.9,1.9-1.4,2.8c-0.5,0.5-1,0.9-1.5,1.4
		c-0.2,0.1-0.4,0.2-0.6,0.3c-0.6,0-1.3,0-1.9,0c-0.2-0.1-0.4-0.3-0.6-0.4c-0.1,0-0.2,0-0.3,0c-0.2-0.3-0.4-0.6-0.6-0.9
		C79.4,206.4,78.9,205.6,78.3,204.7z"/>
	<path class="st1" d="M283.5,16.9c-0.1-0.1-0.1-0.2-0.2-0.2c-0.1-0.3-0.3-0.5-0.4-0.8c-0.4-1.1-0.8-2.2,0.1-3.1
		c0.6-0.6,1.4-1,2.1-1.4c0.6-0.2,1.2-0.4,1.8-0.6c1.6-0.3,3.3-0.5,4.9-0.8c1-0.1,2-0.5,3,0c0.4,0.4,0.8,0.8,1.2,1.2
		c0.1,0.2,0.1,0.5,0.2,0.7c0.1,0.2,0.2,0.3,0.3,0.5c0.2,0.6,0.5,1.2,0.7,1.8c0,0.2,0,0.5,0.1,0.7c0,0.2,0,0.4,0,0.6
		c0,0.1,0,0.3,0,0.4c-0.1,0.4-0.2,0.7-0.3,1.1c-0.2,0.3-0.3,0.7-0.5,1c-0.1,0-0.2,0.1-0.3,0.1c-0.5,0.3-1,0.6-1.5,0.9
		c-0.2,0.1-0.5,0.1-0.7,0.2c-0.6,0.1-1.1,0.3-1.7,0.4c-0.3,0-0.7,0-1,0c-1.1-0.2-2.2-0.3-3.3-0.5c-0.2-0.1-0.5-0.1-0.7-0.2
		c-1-0.5-1.9-1-2.8-1.6C284.1,17.3,283.8,17.1,283.5,16.9z"/>
	<path class="st1" d="M166.6,282.8c-0.1,0-0.2,0-0.3,0.1c-0.1,0-0.2,0-0.3,0c-0.1,0-0.2,0-0.3,0c-0.8-0.1-1.5-0.2-2.3-0.2
		c-0.3,0-0.6,0-0.9-0.1c-1.1-0.1-2.1-0.3-3.2-0.4c-0.6-0.2-1.1-0.4-1.7-0.6c-0.5-0.2-1-0.4-1.5-0.6c-0.2-0.1-0.4-0.2-0.6-0.3
		c-0.1-0.2-0.2-0.4-0.3-0.6c-0.4-0.9-0.3-1.7-0.1-2.6c0.2-0.3,0.4-0.6,0.6-0.9c0.7-0.9,1.7-1.4,2.6-1.9c0.1-0.1,0.2-0.2,0.3-0.3
		c0.8-0.2,1.7-0.4,2.5-0.7c0.3-0.1,0.6-0.2,0.9-0.3c0.1,0,0.3,0,0.4,0c0.1,0,0.2,0,0.2,0c0.1,0,0.3,0,0.4,0c0.1,0,0.3,0,0.4,0.1
		c0.4,0,0.7,0,1.1,0.1c0.2,0.1,0.5,0.1,0.8,0.2c0.2,0.1,0.5,0.2,0.7,0.3c0.4,0.2,0.9,0.4,1.3,0.6c0.2,0.2,0.4,0.4,0.6,0.6
		c0.2,0.4,0.5,0.8,0.7,1.2c0.3,1.3,0.1,2.5-0.5,3.7c-0.1,0.2-0.1,0.3-0.1,0.5C167.8,281.3,167.2,282,166.6,282.8z"/>
	<path class="st1" d="M60.9,126.2c0.1,0.5,0.2,1.1,0.3,1.6c0,0.5,0,0.9,0,1.4c-0.1,0.4-0.1,0.9-0.2,1.3c-0.4,1.2-0.9,2.4-2.1,3.1
		c-0.1,0.1-0.1,0.3-0.1,0.5c-1,0-2,0.1-3,0.1c-0.3-0.3-0.7-0.6-1-0.9c-0.7-0.9-1.2-1.8-1.9-2.8c0-0.1,0-0.2,0-0.2
		c-0.3-0.6-0.7-1.3-1-1.9c-0.1-0.4-0.3-0.9-0.4-1.3c-0.2-0.6-0.4-1.3-0.6-1.9c0-0.1-0.2-0.2-0.3-0.3c0-0.4,0-0.8-0.1-1.2
		c0-0.4,0-0.8,0-1.2c0.1-0.3,0.3-0.7,0.4-1c0.2-0.2,0.5-0.4,0.7-0.6c0.2,0,0.4-0.1,0.6-0.1c0.4,0,0.8,0,1.2,0c0.2,0,0.4,0.1,0.6,0.1
		c0.9,0.3,1.7,0.5,2.6,0.8c0.3,0.1,0.6,0.3,0.9,0.4c0.1,0.1,0.2,0.3,0.3,0.4c1,0.6,1.8,1.4,2.4,2.4
		C60.4,125.2,60.6,125.7,60.9,126.2z"/>
	<path class="st1" d="M43.7,136.4c-1-1.3-1.6-2.9-1.6-4.6c0-0.5,0.1-1,0.1-1.5c0.5-1.1,0.9-2.3,1.4-3.4c0.1-0.1,0.1-0.2,0.2-0.3
		c0.2-0.3,0.3-0.6,0.5-0.9c0,0,0.1-0.1,0.1-0.1c0.7-0.4,1.4-1,2.4-0.8c0.2,0.1,0.5,0.2,0.7,0.4c0.4,0.3,0.8,0.7,1.2,1
		c0.3,0.4,0.5,0.8,0.8,1.2c0.2,0.6,0.5,1.1,0.7,1.7c0,0.1,0.1,0.3,0.1,0.4c0.2,0.4,0.3,0.8,0.5,1.2c0.1,0.1,0.2,0.2,0.2,0.4
		c0.2,0.5,0.3,1.1,0.5,1.6c0.1,0.2,0.1,0.4,0.2,0.6c0.1,0.4,0.3,0.8,0.4,1.2c0,0.1,0,0.1,0,0.2c0,0.1,0.1,0.3,0.1,0.5
		c0,0.4,0.1,0.8,0.1,1.2c-0.1,0.4-0.1,0.9-0.2,1.3c-0.2,0.3-0.5,0.5-0.7,0.8c-0.3,0.2-0.7,0.4-1,0.6c-2.4,0.6-4.1,0.1-5.8-1.6
		C44.2,137,43.9,136.7,43.7,136.4z"/>
	<path class="st1" d="M254.2,161.7c-0.1,0-0.2,0-0.3-0.1c-1.1-0.9-2.3-1.7-3.2-2.6c-0.8-0.8-1.4-1.7-1.9-2.6c-0.6-1-0.5-2.4,0.3-3.2
		c0.3-0.3,0.6-0.5,0.9-0.8c0.3-0.3,0.6-0.5,0.8-0.8c1.1-1,2.3-1.9,3.9-2.3c1.7-0.4,3.3,0.1,4.3,1.4c0.1,0.2,0.2,0.4,0.3,0.6
		c0,0.7,0,1.4,0.1,2.1c-0.1,0.2-0.2,0.3-0.2,0.5c-0.1,0.4-0.2,0.8-0.3,1.2c-0.3,1.1-0.7,2.2-0.9,3.4c-0.3,1.7-0.6,2.5-2.2,3.2
		c-0.1,0.1-0.3,0.1-0.4,0.2C254.9,161.8,254.6,161.8,254.2,161.7z"/>
	<path class="st1" d="M192.4,45.4c-0.1,0-0.2,0-0.2,0c-0.2-0.1-0.5-0.1-0.7-0.2c-0.5-0.3-1.2-0.5-1.6-1c-0.6-0.8-0.8-1.8-0.8-2.9
		c0-0.1,0-0.3,0-0.4c0-0.7,0-1.3,0.1-2c0-0.1,0.1-0.2,0.1-0.3c0-0.3-0.1-0.5,0-0.8c0.4-1,0.8-2,1.2-3c0.1-0.1,0.2-0.2,0.3-0.3
		c0.4-0.1,0.9-0.3,1.3-0.3c1.8,0.2,3.6,0.4,5.4,0.6c0.5,0.3,1.1,0.5,1.6,0.8c0.4,0.4,0.8,0.7,1.2,1.1c0.1,0.3,0.3,0.6,0.4,0.9
		c0.4,1,0.2,1.9-0.1,2.8c-0.2,0.1-0.3,0.3-0.5,0.4c-0.7,0.5-1.4,1-2.1,1.4c-1,0.6-2,1.1-3,1.7c-0.3,0.2-0.5,0.4-0.8,0.6
		c-0.4,0.2-0.9,0.4-1.3,0.6C192.7,45.2,192.6,45.3,192.4,45.4z"/>
	<path class="st1" d="M273.4,182.8C273.4,182.8,273.4,182.7,273.4,182.8c0.5-0.4,1-0.8,1.6-1.1c1.1-0.5,2.2-1,3.3-1.5
		c1.1,0,2.2,0,3.3,0c1.9,0.4,3.1,1.4,3.3,3.4c0,0.1,0,0.2,0,0.3c-0.1,0.4-0.1,0.8-0.2,1.2c-0.2,0.9-0.4,1.9-0.8,2.7
		c-0.6,1-1.8,0.9-2.8,1.1c-0.1,0-0.2,0-0.3,0c-0.4,0-0.8,0-1.2,0c-0.4,0-0.8,0-1.2,0c-1.7,0.1-3.3-0.1-5-0.6c0,0-0.1,0-0.1,0
		c-0.9-0.6-1.6-1.4-1.5-2.6C272,184.5,272.5,183.6,273.4,182.8z"/>
	<path class="st1" d="M147.7,80.8c0.1-0.1,0.1-0.2,0.2-0.3c0.9-0.6,1.9-1.1,3.1-0.9c0.9,0.2,1.7,0.6,2.6,0.9c0.1,0,0.1,0.1,0.2,0.1
		c0.4,0.3,0.7,0.6,1.1,0.9c0.1,0.1,0.2,0.2,0.3,0.3c0.1,0.1,0.3,0.2,0.4,0.3c0.1,0.1,0.2,0.2,0.2,0.3c0,0.1,0,0.3,0.1,0.4
		c0.4,0.7,0.7,1.3,1.1,2c0.1,0.1,0.1,0.2,0.2,0.4c0.2,0.7,0.4,1.4,0.5,2.1c0.3,1.5-0.2,2.8-1.4,3.8c-0.7,0-1.4,0-2.1-0.1
		c-0.3,0-0.7-0.2-1-0.3c-0.2-0.1-0.4-0.2-0.5-0.3c-0.9-0.5-1.7-1-2.6-1.5c-0.1-0.1-0.3-0.2-0.4-0.3c-0.4-0.3-0.8-0.6-1.2-0.9
		c-0.1-0.1-0.3-0.2-0.4-0.3c-0.2-0.2-0.4-0.4-0.6-0.5c-1-0.7-1.2-1.2-0.9-2.5c0-0.1,0-0.3,0-0.4c0.1-0.3,0.1-0.6,0.2-0.9
		C147,82.4,147.3,81.6,147.7,80.8z"/>
	<path class="st1" d="M127.3,98.2c-0.4,0.9-0.9,1.7-1.3,2.6c-0.6,0.4-1.1,0.8-1.7,1.2c-0.4-0.1-0.8-0.1-1.2-0.2
		c-0.2-0.1-0.4-0.3-0.6-0.4c-0.1-0.1-0.2-0.1-0.2-0.2c-0.2-0.1-0.3-0.3-0.5-0.4c-0.1-0.1-0.2-0.2-0.2-0.3c-0.5-0.9-1.1-1.9-1.6-2.8
		c-0.1-0.2-0.1-0.4-0.2-0.6c-0.1-0.8-0.3-1.6-0.4-2.4c0-0.2,0-0.4,0-0.6c0.2-0.9,0.4-1.9,0.6-2.8c0-0.1,0.1-0.1,0.1-0.2
		c0.2-0.4,0.4-0.7,0.6-1.1c0,0,0-0.1,0-0.1c0.6-0.5,1.1-1.2,2-1.3c0.1,0,0.3-0.1,0.4-0.1c0.2,0,0.4,0,0.6,0c0.3,0,0.6,0,0.9,0
		c0.3,0.1,0.6,0.2,0.9,0.3c0.4,0.2,0.9,0.5,1.3,0.7c0.3,0.2,0.6,0.4,0.9,0.6c0.2,0.2,0.4,0.3,0.4,0.6c0.2,0.4,0.5,1,0.5,1.4
		C128.3,94.2,127.8,96.2,127.3,98.2z"/>
	<path class="st1" d="M19.2,104.5c-0.5,1.3-0.9,2.7-1.7,3.8c-0.8,1.2-2.5,1.4-3.5,0.3c-0.7-0.8-1.3-1.6-1.8-2.5
		c-0.3-0.5-0.4-1-0.6-1.6c-0.6-1.6-1.1-3.1-1.6-4.7c-0.6-1.9,0.5-3.4,1.8-3.7c1.3-0.3,2.7-0.2,3.9,0.5c1.5,0.7,2.6,1.9,3.2,3.4
		c0.5,1.2,0.4,2.6,0.5,3.9C19.3,104.2,19.3,104.3,19.2,104.5z"/>
	<path class="st1" d="M2.4,102.8c0.6-0.9,1.3-1.6,2.4-1.9c1.1-0.2,2.4,0.3,3,1.3c0.9,1.5,1.9,3,2.6,4.6c0.6,1.5,1.5,2.9,1.2,4.6
		c-0.1,0.6-0.3,1.1-0.5,1.6c-0.2,0.1-0.4,0.2-0.6,0.4c-1,0.2-2,0.2-3-0.2c-0.5-0.2-1-0.3-1.5-0.5c-1.4-0.5-2.4-1.5-3.3-2.6
		c-0.8-1.1-1.1-2.3-1.2-3.6c-0.1-0.8,0.2-1.7,0.3-2.5C2.1,103.6,2.3,103.2,2.4,102.8z"/>
	<path class="st1" d="M94.6,15c-0.5-0.1-1.1-0.2-1.6-0.3c-0.2-0.1-0.3-0.3-0.5-0.4c-0.7-1-0.9-2.2-0.5-3.4c0.1-0.4,0.2-0.7,0.4-1.1
		c0.1-0.3,0.3-0.6,0.4-0.9c0.2-0.5,0.4-1,0.7-1.5c0.1-0.2,0.2-0.5,0.3-0.7c0.3-0.5,0.5-1,0.8-1.5c0.2-0.4,0.5-0.8,0.7-1.2
		c0.4-0.5,0.8-1,1.2-1.5c0.2-0.1,0.4-0.2,0.5-0.3c0.2-0.1,0.3-0.2,0.5-0.3c0.2,0,0.5-0.1,0.7-0.1c0.3,0.2,0.7,0.3,1,0.5
		c0.3,0.3,0.5,0.7,0.8,1c0.1,0.2,0.3,0.4,0.4,0.7c0.2,0.3,0.3,0.6,0.5,0.8c0.1,0.6,0.3,1.1,0.4,1.7c0,0.2,0.1,0.5,0.1,0.7
		c-0.1,0.9,0,1.8-0.2,2.8c-0.1,0.7-0.4,1.3-0.7,1.9c-0.2,0.3-0.3,0.5-0.5,0.8c-0.2,0.2-0.3,0.5-0.5,0.7c-0.1,0.1-0.3,0.2-0.4,0.3
		c-0.2,0.1-0.3,0.2-0.5,0.3c-0.4,0.3-0.9,0.6-1.3,0.9c-0.2,0.1-0.4,0.1-0.6,0.2c-0.1,0-0.2,0-0.3,0C95.8,14.9,95.2,14.9,94.6,15z"/>
	<path class="st1" d="M191.7,213.8c0.2,0.1,0.5,0.1,0.7,0.2c0.6,0.5,1.2,0.9,1.6,1.5c1.1,1.2,1.6,2.7,1.9,4.3c0.5,2.5,0.1,2.8-2,3.7
		c-0.9,0.4-1.7,0.9-2.5,1.1c-1,0.2-2.1,0.2-3.2,0.2c-0.3,0-0.7-0.2-1-0.4c-1.2-0.8-1.9-1.9-1.4-3.5c0.2-0.3,0.3-0.7,0.5-1
		c0.3-0.4,0.7-0.8,1-1.3c0.6-1,1.2-2.1,1.9-3.2c0.2-0.3,0.4-0.5,0.5-0.8C190.4,214.3,191,214,191.7,213.8z"/>
	<path class="st1" d="M237.9,65.7c-0.4-1-0.1-2,0.1-3c0.2-0.5,0.4-1,0.6-1.5c0.1-0.2,0.2-0.4,0.3-0.6c0.1-0.1,0.1-0.1,0.2-0.2
		c0.9-1.4,1.8-2.8,2.7-4.2c0-0.1,0-0.2,0-0.3c0.2-0.2,0.5-0.3,0.7-0.5c1-0.7,2.1-0.7,3.1-0.1c0.1,0,0.1,0.1,0.2,0.1
		c0.2,0.2,0.4,0.3,0.6,0.5c0.1,0.1,0.2,0.3,0.4,0.4c0.3,0.7,0.6,1.4,0.9,2.1c0,0.2,0,0.5,0,0.7c0,1-0.1,2-0.5,3
		c-0.1,0.1-0.1,0.2-0.2,0.3c-0.8,1.5-2.1,2.5-3.6,3.3c-0.4,0.1-0.7,0.2-1,0.3c-0.5,0.1-0.9,0.2-1.4,0.2
		C239.9,66.4,238.8,66.8,237.9,65.7z"/>
	<path class="st1" d="M231.7,59.2c0-0.1-0.1-0.3-0.1-0.4c-0.1-0.7-0.2-1.4-0.3-2.1c0-0.2,0-0.4,0-0.6c0.1-0.7,0.2-1.3,0.3-2
		c0.1-0.2,0.1-0.5,0.2-0.7c0.3-0.5,0.6-1.1,0.9-1.6c0.1-0.1,0.2-0.2,0.3-0.3c0.6-0.4,1.2-0.8,1.8-1.1c1.9-0.8,4.3-0.9,5.5,1
		c0.1,0.1,0.1,0.3,0.2,0.4c0,0.4,0,0.8,0,1.2c0,0.1,0,0.2,0,0.3c-1.1,2.6-2.1,5.2-3.9,7.4c-1.1,1.4-2,1.7-3.6,1
		c-0.1-0.2-0.3-0.4-0.4-0.6C232.3,60.4,232,59.8,231.7,59.2z"/>
	<path class="st1" d="M136.1,137c0.4,0,0.9,0.1,1.3,0.1c0.1,0,0.2-0.1,0.3-0.1c0.1,0,0.2,0,0.3,0c0.6,0.4,1.2,0.7,1.8,1.1
		c0.3,0.2,0.5,0.4,0.8,0.6c0,0,0,0.1,0.1,0.1c0.4,0.3,0.7,0.6,1.1,1c0,0,0.1,0.1,0.1,0.1c0.3,0.3,0.5,0.5,0.8,0.8
		c0.1,0.1,0.2,0.3,0.3,0.4c0.8,0.9,0.9,1.9,0.1,2.8c-0.8,1-1.6,2-2.6,2.9c-1.2,1.1-2.5,1.9-4.3,1.4c-0.3-0.3-0.6-0.5-0.9-0.8
		c-0.2-0.6-0.3-1.3-0.5-1.9c0-0.1,0-0.2,0-0.3c-0.1-0.5-0.2-1.1-0.3-1.6c-0.1-0.3-0.3-0.6-0.4-0.9c-0.1-0.3-0.1-0.6-0.2-0.8
		c-0.3-1.2-0.5-2.4,0.1-3.6c0.1-0.1,0.2-0.2,0.3-0.3C134.9,137.6,135.5,137.3,136.1,137z"/>
	<path class="st1" d="M69.6,127.3c0.1,0.1,0.1,0.2,0.2,0.3c0.3,0.8,0.5,1.5,0.8,2.3c0.1,0.5,0.3,1,0.4,1.5c0,0.2,0,0.3,0,0.5
		c0,0.1,0,0.2,0,0.3c0,0.6-0.1,1.3-0.1,1.9c-0.1,0.3-0.2,0.6-0.2,0.9c-0.2,0.3-0.3,0.7-0.5,1c-0.4,0.4-0.7,0.8-1.1,1.2
		c-0.3,0.2-0.7,0.3-1,0.5c-1.1,0.3-2.2,0.1-3.1-0.5c-0.4-0.3-0.8-0.6-1.3-0.9c-0.7-0.5-1-1.2-0.7-2.1c0-0.2,0-0.4,0-0.6
		c0.1-0.4,0.1-0.8,0.2-1.2c0-0.1,0.1-0.2,0.1-0.3c0.1-0.4,0.3-0.9,0.4-1.3c0.1-0.5,0.2-0.9,0.2-1.4c0.3-0.6,0.5-1.3,0.8-1.9
		c0.3-0.3,0.5-0.6,0.8-0.9c0.2-0.2,0.4-0.3,0.6-0.5c0.7-0.3,1.4-0.1,2.1,0.2c0.2,0.2,0.5,0.4,0.7,0.5
		C69.1,127.1,69.3,127.2,69.6,127.3z"/>
	<path class="st1" d="M38.7,143.5c-0.4-1.2-1-2.2-0.6-3.6c0.5-1.5,1.3-2.1,2.9-1.7c1.1,0.2,2.1,0.7,3,1.3c0.7,0.4,1.4,0.9,2.1,1.3
		c0.4,0.3,0.7,0.6,1.2,0.8c1,0.5,1.3,1.1,1,2.1c-0.2,0.8-0.5,1.6-0.7,2.5c-0.3,0.4-0.6,0.8-0.8,1.2c-1.2,1.1-2.6,0.9-3.9,0.4
		c-1.6-0.6-2.6-1.8-3.4-3.3c-0.1-0.2-0.2-0.4-0.3-0.6C38.9,143.8,38.8,143.7,38.7,143.5z"/>
	<path class="st1" d="M96.1,265.3c-0.1-1.1-0.3-2.1-0.2-3.2c0.1-1.8,1.5-3.9,3.6-3.7c0.9,0.1,1.5,0.6,1.9,1.3c1.4,2.5,2.6,5.1,2.8,8
		c0,0.2-0.1,0.4-0.1,0.6c-0.2,0.5-0.3,1-0.8,1.2c-0.2,0.1-0.5,0.1-0.7,0.2c-1-0.3-2-0.5-3-0.8c-0.2-0.1-0.4-0.2-0.6-0.3
		c-0.3-0.2-0.7-0.5-0.9-0.8c-0.7-0.7-1.3-1.5-1.9-2.3C96.1,265.5,96.1,265.4,96.1,265.3z"/>
	<path class="st1" d="M111.3,260.2c0.1,1.9-0.7,3.6-1.7,5.2c-0.8,1.2-2.2,1.3-3.2,0.2c-1.3-1.4-1.7-3.2-2.3-4.9
		c-0.4-1.2-0.6-2.6-0.8-3.9c-0.1-1.1,1.2-2,2.3-2.1c1.8-0.1,3.2,0.7,4.4,2c0.4,0.4,0.6,1.1,0.9,1.7c0.1,0.2,0.2,0.4,0.3,0.6
		C111.3,259.5,111.3,259.9,111.3,260.2z"/>
	<path class="st1" d="M104,19.3c-0.2,0.3-0.4,0.7-0.6,1c-0.1,0.1-0.1,0.2-0.2,0.3c-0.2,0.3-0.4,0.6-0.7,0.9c0,0-0.1,0.1-0.1,0.1
		c-0.1,0.2-0.3,0.3-0.4,0.5c-0.2,0.2-0.3,0.3-0.5,0.5c0,0-0.1,0.1-0.1,0.1c-0.1,0-0.2,0-0.3,0.1c-0.3,0.2-0.7,0.4-1,0.6
		c-0.2,0-0.3,0.1-0.5,0.1c-0.7,0.1-1.5,0.2-2.2,0.3c-0.2-0.1-0.5-0.2-0.7-0.3c-0.3-0.4-0.7-0.8-1-1.2c0-0.1-0.1-0.2-0.1-0.2
		c-0.6-1.3-0.8-2.7-0.5-4.2c0.2,0,0.3-0.1,0.5-0.1c0.5-0.3,0.9-0.6,1.3-0.9c0.3-0.2,0.5-0.3,0.8-0.5c0.1,0,0.2-0.1,0.3-0.1
		c1.3-0.7,2.7-1.2,4.2-1.5c0.5,0.1,1.1,0.1,1.6,0.2c0.3,0.3,0.5,0.7,0.8,1c0.1,0.5,0.2,0.9,0.3,1.4c-0.1,0.1-0.1,0.2-0.2,0.3
		c-0.1,0.5-0.2,0.9-0.2,1.4c0,0,0,0-0.1,0.1C104.2,19.1,104.1,19.2,104,19.3z"/>
	<path class="st1" d="M78.4,12.2c-0.2,0-0.4,0.1-0.6,0.1c-0.3,0-0.6,0.1-0.8,0c-0.6-0.2-1.1-0.6-1.7-0.9c-0.2-0.4-0.4-0.9-0.6-1.3
		c-0.1-0.2-0.1-0.4-0.2-0.6c-0.1-0.4-0.1-0.8-0.2-1.2C74.3,6.3,75,4.6,75.9,3C76,2.9,76,2.8,76.1,2.7c0.2-0.2,0.4-0.4,0.6-0.6
		c0.1-0.1,0.2-0.2,0.3-0.3c0.9-0.3,1.7-0.7,2.7-0.3c0.2,0.2,0.4,0.4,0.6,0.6c0.1,0.2,0.2,0.3,0.3,0.5c0.2,0.4,0.3,0.7,0.5,1.1
		c0,0.1,0,0.2,0.1,0.3c0.1,0.3,0.2,0.6,0.3,0.9c0.1,0.7,0.2,1.4,0.3,2.1c0,0.2,0.1,0.4,0.1,0.7c0,1,0.5,2.1-0.1,3.1
		c-0.1,0.1-0.2,0.2-0.3,0.2c-0.2,0.1-0.3,0.2-0.5,0.3c-0.3,0.2-0.7,0.3-1,0.5c-0.1,0-0.2,0.1-0.3,0.1c-0.1,0-0.2,0.1-0.3,0.1
		C78.9,12,78.7,12.1,78.4,12.2z"/>
	<path class="st1" d="M21.6,96.7c-2.2,0.2-3.8-0.9-5.6-1.9c-0.7-0.4-1.5-0.9-2.2-1.5c-0.3-0.3-0.7-0.8-0.6-1.2
		c0.1-1.3,0.4-2.6,1.2-3.6c0.8-1,2.1-1.3,3.4-1c2.2,0.6,3.4,2.1,4.4,4c0.6,1.1,1.1,2.3,0.6,3.6c-0.1,0.4-0.4,0.8-0.6,1.2
		C22,96.5,21.8,96.6,21.6,96.7z"/>
	<path class="st1" d="M299.6,99.6c0,0.9,0,1.9,0,2.8c-0.2,1.1-0.5,2.2-0.7,3.3c-0.3,1.2-0.9,2.2-1.8,3.1c0,0,0,0,0,0
		c-1.3,0.2-2.5-0.1-3.2-1.4c-0.2-0.3-0.5-0.5-0.8-0.8c-0.1-0.3-0.1-0.6-0.2-0.9c-0.1-0.4-0.2-0.7-0.3-1.1c-0.1-0.3-0.1-0.7-0.2-1
		c0-0.4-0.1-0.7-0.1-1.1c0-0.2,0-0.3,0-0.5c0.2-0.9,0.4-1.8,0.6-2.7c0-0.1,0.1-0.1,0.1-0.2c0.1-0.2,0.3-0.4,0.4-0.6
		c0.2-0.2,0.4-0.4,0.6-0.6c1.8-0.8,3.2,0.3,4.8,0.8C299.2,99,299.4,99.4,299.6,99.6z"/>
	<path class="st1" d="M264.6,266c-0.5-0.4-1.1-0.7-1.6-1.2c-1.4-1.3-2.1-2.9-1.7-4.8c0.3-1.2,1.8-2,3.1-1.5c1.2,0.4,2.3,0.9,3.4,1.4
		c1,0.4,1.9,0.9,2.8,1.4c0.2,0.2,0.4,0.4,0.6,0.6c1,1.1,1.4,1.7,0.2,3.1c0,0-0.1,0-0.1,0c-0.2,0.1-0.4,0.2-0.7,0.3
		c-0.8,0.3-1.6,0.6-2.3,0.9c-0.6,0-1.2,0.1-1.8,0.1C265.9,266.3,265.2,266.1,264.6,266z"/>
	<path class="st1" d="M271,259.4c-0.7-0.3-1.5-0.6-2.2-0.9c-1-0.5-2-1.1-3-1.6c-0.4-0.2-0.8-0.4-1.2-0.6c-0.4-0.6-1.1-1-1.2-1.8
		c-0.1-0.8,0.3-2.1,1.1-2.5c0.4-0.2,0.8-0.5,1.2-0.7c0.3-0.1,0.6-0.1,0.9-0.2c0.2,0,0.4-0.1,0.6-0.1c0.6,0.1,1.2,0.1,1.8,0.2
		c0.8,0.3,1.5,0.7,2.3,1c0,0,0.1,0.1,0.1,0.1c0.3,0.3,0.6,0.6,0.9,1c0,0,0,0.1,0.1,0.1c0.9,1.4,1.4,2.9,1.4,4.6c0,1-0.5,1.6-1.7,1.6
		c-0.3,0-0.6,0-0.9,0C271.1,259.4,271.1,259.4,271,259.4z"/>
	<path class="st1" d="M44.7,258.3c0,1.7-0.9,3.3-2.6,4c-0.9,0.4-1.8,0.6-2.8,0.8c-1.5,0.3-2.8-0.5-4-1.3c-0.5-0.3-0.9-0.7-1.4-1.1
		c-0.5-0.5-0.3-1.9,0.2-2.3c1.6-1.4,3.7-1.7,5.7-2.1c0.9-0.2,1.9-0.5,2.9-0.3C44.2,256.1,44.6,256.7,44.7,258.3z"/>
	<path class="st1" d="M39.3,247.8c1.3-0.1,2.3,0.3,3.3,1c1.4,1.1,2.1,3.4-0.4,4.6c-1.4,0.6-2.8,1.2-4.3,1.6
		c-1.1,0.3-2.4,0.3-3.5,0.3c-0.8,0-1.2-0.9-1.2-1.8c0-1.4,0.8-2.5,1.5-3.5c0.9-1.3,2.3-2.1,4-2.2C38.9,247.8,39.1,247.8,39.3,247.8z
		"/>
	<path class="st1" d="M232,49.6c-0.1,0-0.2,0-0.3,0.1c-0.2,0-0.5,0.1-0.7,0.1c-0.2,0-0.3,0-0.5,0c-0.1,0-0.3,0-0.4,0
		c-0.3-0.2-0.6-0.3-0.9-0.5c-0.1-0.1-0.2-0.2-0.3-0.3c-0.1-0.6-0.3-1.3-0.3-1.9c0-0.5,0.3-1,0.4-1.5c0.1-0.2,0.2-0.5,0.3-0.7
		c0.1-0.1,0.3-0.2,0.4-0.3c0.3-0.4,0.6-0.9,0.9-1.2c1.1-1.2,2.4-1.9,4.1-2c0.1,0,0.2,0,0.3,0c1.9,0.1,2.2,1.8,2.8,3.1
		c0.2,0.4,0.1,1,0,1.4c-0.1,0.4-0.3,0.9-0.6,1.1c-1.3,0.8-2.7,1.4-4,2.1C232.8,49.3,232.4,49.5,232,49.6z"/>
	<path class="st1" d="M249.7,58.2c0-0.9-0.1-1.9-0.1-2.8c0-0.1,0-0.1,0-0.2c0,0,0-0.1,0-0.1c0-0.2,0.1-0.3,0.1-0.5
		c0-0.1,0-0.2,0-0.3c0.6-0.3,1.2-0.7,1.8-1c1.2-0.5,2.4-0.5,3.6-0.2c0.5,0.7,0.9,1.4,1.4,2.1c0,0.8,0.1,1.6,0.1,2.4
		c-0.2,0.8-0.4,1.6-0.7,2.4c-0.3,0.5-0.6,1-0.9,1.5c-0.2,0.3-0.5,0.5-0.7,0.8c0,0-0.1,0-0.1,0.1c-0.6,0.8-1.6,0.7-2.4,0.6
		c-0.3,0-0.5-0.3-0.7-0.6c-0.9-1.1-1-2.5-1.3-3.7c0-0.1,0-0.1,0-0.2C249.8,58.3,249.8,58.3,249.7,58.2z"/>
	<path class="st1" d="M195,160.7c1.9-0.3,3.5,0.4,4.9,1.6c0.9,0.7,1.4,2.8,0.9,3.8c-0.2,0.4-0.6,0.6-0.9,0.9c-0.1,0-0.2,0.1-0.3,0.1
		c-1.4,0-2.9-0.1-4.3-0.1c-1.6,0-3-0.6-4.4-1.2c-0.1-0.1-0.2-0.3-0.3-0.4c-0.6-0.6-0.3-1.3,0-1.9c0.2-0.3,0.4-0.5,0.6-0.8
		c0.2-0.2,0.5-0.4,0.7-0.6c0.1-0.1,0.2-0.2,0.3-0.3c0.5-0.3,1.1-0.6,1.6-0.9C194.2,160.9,194.6,160.8,195,160.7z"/>
	<path class="st1" d="M191.7,168.2c1.2,0.2,2.4,0.4,3.5,0.6c1.1,0.3,2.3,0.4,3.1,1.2c0.7,0.7,0.7,1.7,0.3,2.5
		c-0.6,1.2-1.6,1.8-2.8,2.3c-0.1,0-0.2,0.1-0.4,0.2c0,0-0.1,0-0.1,0c-0.2,0-0.3,0-0.5,0c-0.6,0-1.3,0-1.9,0c-0.7-0.3-1.3-0.6-2-0.9
		c0,0,0,0,0,0c-0.2-0.1-0.3-0.2-0.5-0.3l0,0c-0.2-0.3-0.4-0.5-0.6-0.8c-0.2-0.2-0.4-0.4-0.6-0.6c-0.2-0.5-0.5-1-0.7-1.5
		c-0.1-0.2-0.2-0.5-0.4-0.7c0-0.3,0-0.7,0-1c0.1-0.2,0.2-0.3,0.3-0.5c0.1-0.1,0.2-0.2,0.3-0.3C189.8,168.4,190.7,168.3,191.7,168.2z
		"/>
	<path class="st1" d="M225.3,113.4c-0.7,0.8-1.5,1.5-2.5,1.9c-1.3,0.6-3.3-0.3-3.2-1.8c0.1-1.5,0.4-2.9,0.7-4.4
		c0.2-0.8,0.4-1.6,0.6-2.4c0,0,0-0.1,0-0.1c0.3-0.3,0.6-0.6,0.8-0.9c0.1-0.1,0.2-0.1,0.4-0.2c0.5,0.1,1,0,1.4,0.2
		c2,1.4,3.2,4.3,2.2,6.8C225.6,112.8,225.4,113.1,225.3,113.4z"/>
	<path class="st1" d="M219.4,106.5c-0.5,1.7-0.9,3.5-1.5,5.2c-0.4,1.1-2,1.7-3,1.1c-1.5-0.8-1.9-2.1-2.2-3.6
		c-0.2-1.5,0.3-2.8,1.4-3.8c0.4-0.4,0.8-0.7,1.2-1.1c0.6-0.3,1.2-0.6,1.7-0.9c0.5,0,1.1,0,1.6,0c0.2,0.2,0.4,0.5,0.6,0.7
		c0,0.2,0.1,0.3,0.1,0.5c0,0.2,0,0.3,0,0.5C219.4,105.5,219.4,106,219.4,106.5z"/>
	<path class="st1" d="M114.9,253.2c0,0.3,0,0.7,0,1c0.1,1.1-1.5,2.1-2.4,1.6c-1-0.5-2.1-1-3-1.6c-0.7-0.4-1.3-1-2-1.5
		c-0.9-0.6-0.9-1.4-0.5-2.2c0.3-0.7,0.6-1.4,1-2.1c0.1-0.1,0.1-0.1,0.2-0.2c0.5-0.2,1.1-0.5,1.6-0.7c0.2,0,0.4,0,0.6,0
		c0.3,0.1,0.7,0.2,1,0.4c0.6,0.5,1.4,0.8,1.9,1.5c0.6,0.8,1,1.9,1.5,2.8c0,0.1,0,0.1,0,0.2c0.1,0.1,0.1,0.2,0.2,0.2
		C115,252.8,114.9,253,114.9,253.2z"/>
	<path class="st1" d="M89,263.4c-0.3-0.9-0.7-1.8-0.9-2.7c-0.1-0.9,0.1-1.8,0.1-2.6c0.1-0.2,0.1-0.4,0.2-0.6
		c0.2-1.2,1.3-2.3,2.5-2.2c0.9,0.1,1.8,0.6,2.7,1c0,0,0,0.1,0,0.1c1.8,0.9,0.9,2.4,0.7,3.6c-0.2,1.2-0.7,2.4-1.3,3.5
		c-0.9,1.7-2.1,1.9-3.5,0.5C89.3,263.7,89.2,263.5,89,263.4C89,263.4,89,263.4,89,263.4z"/>
	<path class="st1" d="M55.3,50.4c-0.4,0.2-0.8,0.3-1.2,0.5c-0.1,0-0.2,0-0.3,0c-0.7-0.2-1.4-0.4-2.1-0.6c-0.3-0.1-0.6-0.2-0.9-0.4
		c-0.3-0.2-0.6-0.4-0.9-0.6c-0.2-0.1-0.4-0.2-0.6-0.4c-0.4-0.2-0.8-0.5-1.2-0.7c-0.4-0.3-0.7-0.6-1.1-0.9c-0.6-0.8-0.6-1.6-0.1-2.5
		c0.2-0.2,0.4-0.4,0.6-0.6c1.5-1,3-1.1,4.6-0.5c0.2,0.1,0.4,0.1,0.6,0.1c0.7,0.8,1.5,1.6,2.2,2.3c0,0.2,0,0.4,0.1,0.5
		c0.8,0.9,0.4,2,0.5,3.1C55.4,50,55.4,50.2,55.3,50.4z"/>
	<path class="st1" d="M51.4,51.9c0.4,0.2,0.8,0.4,0.9,0.9c0,0.2,0.1,0.3,0.1,0.5c0,0.3,0,0.7-0.1,1c-0.1,0.1-0.1,0.2-0.2,0.3
		c-0.5,0.3-1,0.6-1.5,0.8c-0.9,0.3-1.9,0.5-2.9,0.8c-0.2,0-0.3,0-0.5,0c-0.7-0.2-1.4-0.4-2.1-0.6c-0.3-0.2-0.5-0.4-0.8-0.6
		c-0.3-0.4-0.6-0.7-0.8-1.1c-0.3-0.9-0.5-1.8-0.8-2.7c0.2-0.6,0.4-1.1,0.6-1.7c0,0,0,0,0,0c0.4-0.1,0.9-0.3,1.3-0.4
		c0.2,0,0.3,0,0.5,0c0.1,0,0.1,0,0.2,0c0.5,0.2,1,0.3,1.5,0.5c0.1,0,0.2,0.1,0.3,0.1c0.1,0,0.2,0.1,0.3,0.1c0.3,0.2,0.7,0.3,1,0.5
		c0.2,0.1,0.5,0.2,0.7,0.4c0.6,0.3,1.1,0.7,1.7,1C51.1,51.7,51.3,51.8,51.4,51.9z"/>
	<path class="st1" d="M256,268.1c-0.1-0.1-0.2-0.1-0.3-0.2c-0.2-0.2-0.5-0.4-0.7-0.6c-0.2-0.3-0.5-0.6-0.7-0.9c-0.8-1-1-2-0.6-3.2
		c0.2-0.6,0.6-1.1,1.3-1.2c0.8-0.2,1.5-0.4,2.3-0.6c0.6-0.1,1,0.2,1.3,0.7c0.6,1,1.4,2,1.8,3.1c0.4,1.1,1,2.2,0.5,3.4
		c-0.3,0.2-0.6,0.5-0.9,0.7c-1.4,0.6-2.5-0.2-3.7-0.9C256.3,268.3,256.2,268.2,256,268.1z"/>
	<path class="st1" d="M264.7,249.8c-0.3,0-0.6-0.1-0.9,0c-0.9,0.1-1.4-0.1-1.7-1c-0.3-0.8-0.6-1.6-0.8-2.4c-0.1-0.4,0.3-0.8,0.4-1.2
		c0.2-0.2,0.4-0.4,0.6-0.6c0.3-0.2,0.6-0.3,0.9-0.5c1.1,0,2.2,0,3.3,0c0.1,0,0.2,0,0.3,0c0.1,0,0.2,0,0.3,0c0.4,0.2,0.9,0.4,1.3,0.6
		c0.2,0.2,0.4,0.4,0.6,0.5c0.1,0.1,0.2,0.1,0.3,0.2c1.4,1.1,1.3,2.8-0.5,3.5c-0.5,0.2-1,0.4-1.5,0.6c-0.1,0-0.2,0-0.3,0
		c-0.1,0.1-0.2,0.1-0.3,0.2c-0.5,0-1,0.1-1.5,0.1c-0.2,0-0.3,0.1-0.5,0.1C264.8,249.7,264.8,249.8,264.7,249.8z"/>
	<path class="st1" d="M46.3,246.1C46.3,246.2,46.3,246.2,46.3,246.1c-1.2,1.5-1.3,1.6-3.2,1c-1.4-0.5-2.7-1-4.1-1.6
		c-1.1-0.5-1.3-2.2-0.3-3c1.9-1.5,4-1.6,6.2-0.9c0.6,0.2,1.2,0.3,1.5,1c0,0.1,0.3,0.1,0.4,0.2c0.3,1,0.2,2-0.3,2.9
		C46.5,245.9,46.4,246,46.3,246.1z"/>
	<path class="st1" d="M45.6,267.2c-0.2,0-0.5-0.1-0.8-0.1c-1.4-0.4-1.4-1.7-0.8-2.9c0.7-1.6,2-2.8,3.1-4.1c0.2-0.3,0.7-0.7,1.3-0.3
		c0.5,0.3,1,0.4,1.5,0.6c2,0.9,2.1,2.7,1.1,4.2C49.7,266.3,47.9,267.1,45.6,267.2z"/>
	<path class="st1" d="M150.8,231.3c0.1,2.1,0.2,4.2-0.4,6.3c-0.2,0.9-1.4,1.4-2.2,1.2c-1.5-0.3-2.3-1.3-2.8-2.6
		c-0.1-0.2-0.1-0.5-0.2-0.7c0,0,0.1-0.1,0.1-0.1c-0.6-1.4,0.2-2.5,0.7-3.7c0.1-0.2,0.3-0.4,0.4-0.5c0.2-0.2,0.4-0.4,0.6-0.7
		c0.4-0.2,0.8-0.5,1.2-0.7c1.4-0.5,1.8-0.3,2.4,1C150.7,231,150.8,231.2,150.8,231.3z"/>
	<path class="st1" d="M156,239.4c-0.5,0.1-0.9,0.4-1.4,0.4c-1.2,0.1-2.1-0.7-2.2-1.9c-0.1-1.3-0.1-2.6-0.1-3.8c0-0.5,0.1-1,0.1-1.4
		c0-0.2,0.1-0.4,0.1-0.6c0.3-0.5,0.6-1,0.8-1.4c0.3,0,0.7,0,1,0c0.5,0.3,0.9,0.5,1.4,0.8c0.1,0.2,0.3,0.3,0.4,0.5
		c0.9,0.9,1.5,1.9,1.7,3.2c0.2,1.1-0.1,2-0.6,3c-0.2,0.4-0.5,0.8-0.8,1.1C156.3,239.2,156.1,239.3,156,239.4z"/>
	<path class="st1" d="M194.9,177.9c1.3-1.2,2.9-1.8,4.5-2.5c1.1-0.5,1.6-0.5,2.3,0.5c0.6,0.8,1,1.7,1.5,2.5c0,0.1,0,0.1,0,0.2
		c-0.5,1.2-1.2,2.1-2.4,2.5c-0.1,0.1-0.3,0.1-0.4,0.2c-1.2,0-2.4,0-3.6,0.1c-0.3-0.1-0.6-0.1-0.9-0.2c-0.4-0.4-0.9-0.8-1.3-1.2
		c0-0.5,0-1,0-1.5C194.7,178.2,194.8,178.1,194.9,177.9L194.9,177.9z"/>
	<path class="st1" d="M206.5,159.2c0.4,1,0.4,2-0.5,2.8c-0.7,0.6-1.6,1-2.4,1.5c-0.2,0.1-0.5,0-0.7-0.2c-0.7-0.6-1.4-1.2-2-1.9
		c-0.6-0.6-1.2-1.2-1.7-1.9c-0.9-1.3-0.7-2.7,1.2-3.1c0.2,0,0.3-0.1,0.4-0.1c1.8,0,3.3,0.6,4.7,1.7
		C205.9,158.4,206.2,158.8,206.5,159.2z"/>
	<path class="st1" d="M95.7,199.8c-0.4,0.3-0.9,0.6-1.4,0.9c-0.3,0.2-0.6,0.2-1,0.3c-1.4,0.2-2.6,0.2-3.7-0.9
		c-0.7-0.8-0.5-2.5,0.5-3c0.7-0.4,1.4-0.9,2.1-1.3c0.9-0.5,1.9-0.9,2.9-1.3c0.8-0.3,1.4-0.1,1.9,0.6c0,0.5,0,1,0,1.5
		c-0.1,0.5-0.3,1-0.4,1.5c-0.1,0.3-0.2,0.7-0.3,1C96.1,199.3,95.9,199.5,95.7,199.8z"/>
	<path class="st1" d="M93.7,191.2c0.5,0.7,0.4,1.2-0.1,1.8c-1.1,1.3-2.6,2-4.1,2.6c-0.3,0.1-0.6,0.4-0.9,0.4c-0.7,0-1.4,0.1-2.1-0.1
		c-0.9-0.2-0.7-1.1-0.8-1.7c0.1-0.6,0.2-1.2,0.4-1.8c0.2-0.2,0.3-0.5,0.5-0.7c0.1-0.2,0.3-0.3,0.4-0.5c0.2-0.2,0.4-0.4,0.6-0.6
		c0.2-0.1,0.4-0.2,0.6-0.2c0.3-0.1,0.5-0.2,0.8-0.3c0.1,0,0.2-0.1,0.3-0.1c0.4-0.1,0.8-0.1,1.2-0.2c0.1,0,0.2,0,0.3,0
		c0.4,0.1,0.7,0.2,1.1,0.3c0.1,0,0.2,0.1,0.3,0.1c0.5,0.2,0.9,0.4,1.4,0.6C93.5,191,93.6,191.1,93.7,191.2z"/>
	<path class="st1" d="M209.2,108.3c0.9,0.4,1.4,1.1,1.7,1.9c0.5,1.1,0.9,2.2,1.3,3.3c0.2,0.6,0,1.1-0.5,1.5
		c-0.6,0.4-1.2,0.8-1.8,1.2c-0.5,0-1.1,0-1.6-0.1c-0.9-0.7-1.3-1.6-1.7-2.7c0-0.8,0-1.5,0-2.3c0.1-0.1,0.1-0.3,0.2-0.4
		c0-0.1,0-0.2,0-0.3c0.4-0.6,0.7-1.2,1.1-1.7c0.2-0.3,0.6-0.4,0.9-0.6C208.9,108.2,209,108.3,209.2,108.3z"/>
	<path class="st1" d="M224.4,116.1c0.7-0.6,1.2-1.3,2-1.7c0.1,0,0.3-0.1,0.4-0.1c0.7-0.4,1.5-0.6,2.2-0.1c0.2,0.3,0.4,0.5,0.6,0.8
		c0,0.6,0.1,1.3-0.1,1.9c-0.3,1-0.8,2-1.2,3c-0.6,0.4-1.1,0.7-1.7,1.1c-0.7,0.4-1.5,0.4-2.2,0c-0.8-0.8-1.3-1.9-1.5-3
		c0-0.2,0.3-0.5,0.4-0.8c0.1-0.1,0.2-0.2,0.3-0.3c0.1-0.1,0.3-0.3,0.4-0.4C224.2,116.3,224.3,116.2,224.4,116.1z"/>
	<path class="st1" d="M48,41.9c-1.5,0.4-2.4-0.4-3-1.7c-0.1-0.3-0.1-0.7-0.2-1c0-1.6,0.9-2.1,2.1-2.4c0.2,0,0.3-0.1,0.5-0.1
		c0.6,0,1.2,0,1.8,0.1c0.2,0.1,0.4,0.1,0.6,0.2c0.7,0.4,1.5,0.8,2.2,1.2c0.7,0.4,0.7,1.2,0.6,1.8c0,0.3-0.4,0.7-0.7,0.8
		c-0.7,0.3-1.5,0.5-2.3,0.8c-0.1,0-0.3,0.1-0.4,0.1c-0.2,0-0.4,0.1-0.6,0.1C48.4,41.8,48.2,41.8,48,41.9z"/>
	<path class="st1" d="M40.7,58.1c-0.1,0-0.2-0.1-0.3-0.1c-0.1,0-0.2-0.1-0.3-0.1c-1.4-0.5-2.5-1.3-3-2.7c-0.1-0.4-0.2-0.8-0.4-1.2
		c0-0.4,0-0.8,0.1-1.2c0-0.1,0-0.2,0.1-0.3c0.4-0.3,0.9-0.6,1.3-0.9c0.1,0,0.2-0.1,0.3-0.1c0.2,0,0.4-0.1,0.6-0.1
		c0.4-0.1,0.8-0.1,1.2-0.2c0.3,0.1,0.5,0.3,0.8,0.4c0.2,0.3,0.3,0.5,0.5,0.8c0.1,0.1,0.2,0.3,0.3,0.4c0.1,0.3,0.3,0.5,0.4,0.8
		c0.1,0.2,0.2,0.5,0.3,0.7c0.1,0.2,0.3,0.3,0.4,0.5c0.1,0.5,0.2,0.9,0.3,1.4c0,0.2,0,0.5,0.1,0.7c-0.2,0.3-0.3,0.7-0.5,1
		c-0.1,0.1-0.2,0.1-0.3,0.2c-0.5,0.1-1,0.1-1.5,0.2C40.8,58.2,40.8,58.2,40.7,58.1z"/>
	<path class="st1" d="M185.8,28.2c0.7,0.8,1.6,1.6,2.2,2.5c0.5,0.7,0.9,1.6,1.3,2.5c0.3,0.9-0.2,1.5-1,1.9c-1.2,0.6-2.2,0.1-3.1-0.4
		c0,0,0,0,0,0c-0.4-0.5-0.8-0.9-1.2-1.4c-0.2-0.4-0.3-0.9-0.5-1.3c0-0.6,0-1.3,0.1-1.9c0.1-0.3,0.2-0.6,0.3-0.9
		c0.2-0.4,0.4-0.7,0.6-1.1C184.9,27.7,185.4,27.9,185.8,28.2z"/>
	<path class="st1" d="M242.4,148.6c0.4-0.2,0.9-0.4,1.3-0.7c0.2,0,0.4-0.1,0.6-0.1c0.7,0.1,1.5,0.2,2.2,0.3c0.1,0,0.2,0.1,0.3,0.1
		c1.1,0.7,1.9,1.5,1.8,3c-0.1,0.9-0.6,1.5-1.5,1.5c-1,0-2-0.2-2.9-0.2c-1,0-1.9-0.3-2.8-0.8c-0.5-0.3-1.1-0.8-0.8-1.4
		c0.2-0.5,0.8-0.9,1.2-1.3c0.1-0.1,0.2-0.1,0.2-0.2C242.2,148.7,242.3,148.7,242.4,148.6z"/>
	<path class="st1" d="M193.5,27.9c0.7,1.1,1,2.4,0.6,3.6c-0.2,0.6-0.8,1.1-1.4,1.4c-0.5,0.3-1.1,0.2-1.7-0.4c-1.3-1.3-2.4-2.7-3-4.4
		c-0.2-0.5-0.1-1-0.2-1.6c0.2-0.1,0.4-0.2,0.6-0.2c1,0,2-0.3,2.9,0.1c0.1,0,0.2,0.1,0.3,0.1c0.2,0,0.3,0.1,0.5,0.1c0,0,0.1,0,0.1,0
		c0.3,0.3,0.5,0.5,0.8,0.8C193.2,27.6,193.3,27.8,193.5,27.9z"/>
	<path class="st1" d="M239.7,153.6c0.8-0.1,1.6-0.3,2.4-0.2c1,0.1,1.9,0.3,2.9,0.6c0.6,0.2,1.2,0.4,1.6,0.7c0.9,0.7,0.6,2.3-0.3,2.9
		c-1.1,0.8-2.2,0.9-3.5,0.8c-0.2-0.1-0.5-0.1-0.7-0.2c0-0.1-0.1-0.2-0.1-0.2c-1.7-0.8-2.4-2.1-2.7-3.8
		C239.4,154,239.6,153.8,239.7,153.6z"/>
	<path class="st1" d="M140.6,237.3c0.1-0.1,0.2-0.2,0.3-0.4c0.5-1,1.7-1.2,2.4-0.4c1,1.2,1.9,2.4,2.7,3.7c0.2,0.3,0,0.9-0.2,1.2
		c-0.4,0.6-1,1.1-1.5,1.6c-0.1,0-0.2,0.1-0.3,0.1c-0.1,0-0.2,0.1-0.4,0.1c-0.4-0.1-0.7-0.1-1.1-0.2c-0.2-0.2-0.5-0.4-0.7-0.6
		c-0.1-0.1-0.3-0.2-0.4-0.3c-0.2-0.4-0.4-0.8-0.6-1.2c0-0.1,0-0.2-0.1-0.3c0-0.2-0.1-0.3-0.1-0.5
		C140.6,239.3,140.6,238.3,140.6,237.3z"/>
	<path class="st1" d="M158.3,243.9c-0.2-0.2-0.4-0.3-0.7-0.5c-0.2-0.3-0.5-0.5-0.7-0.8c-0.1-0.3-0.3-0.7-0.4-1c0-0.1,0-0.2,0-0.3
		c0.1-0.2,0.1-0.3,0.2-0.5c0.5-0.8,1.1-1.6,1.5-2.5c0.7-1.2,2.4-1.7,3.4-0.9c0,0,0.1,0.1,0.1,0.1c0.5,1.1,0.7,2.3,0.3,3.5
		c-0.2,0.7-0.4,1.4-0.9,1.9c-0.6,0.7-1.4,1.2-2.4,1.2C158.7,244.1,158.5,244,158.3,243.9z"/>
	<path class="st1" d="M84.9,192.6c-0.1,0.3-0.3,0.5-0.4,0.8c-0.4,1.1-1.3,1.4-2.4,1.2c-0.1,0-0.2,0-0.4,0c-0.4-0.2-0.8-0.3-1.2-0.5
		c-0.7-1-0.7-2-0.2-3.1c0,0,0.1,0,0.1-0.1c0.3-0.4,0.6-0.7,0.9-1.1c0.2-0.2,0.3-0.4,0.5-0.6c0.2-0.1,0.4-0.2,0.6-0.3
		c0.1-0.1,0.3-0.1,0.4-0.2c0.8-0.3,1.5-0.6,2.3-0.2c0.1,0,0.1,0,0.2,0.1c0.1,0.5,0.5,1.1,0.4,1.6c-0.1,0.7-0.4,1.4-0.7,2.1
		C85,192.3,84.9,192.5,84.9,192.6z"/>
	<path class="st1" d="M93.6,206.3c-1,0.3-2,0.7-3,0.8c-1.9,0.2-3.4-1.2-2.3-3.4c0.2-0.4,0.4-0.7,0.7-1.1c0.2-0.1,0.5-0.1,0.7-0.2
		c0.9,0,1.8-0.1,2.7,0c0.5,0,0.9,0.3,1.3,0.5c0.1,0.1,0.3,0.1,0.4,0.2c0.8,0.6,0.9,1,0.6,1.9c-0.1,0.1-0.1,0.2-0.2,0.3
		C94.3,205.6,94,205.9,93.6,206.3C93.6,206.2,93.6,206.2,93.6,206.3z"/>
	<path class="st1" d="M200.2,224.4c-0.7-0.4-1.3-0.8-2-1.2c-0.7-0.5-1.1-1.2-0.8-1.9c0.2-0.5,0.8-0.9,1.2-1.3
		c0.6-0.5,1.3-0.1,1.9-0.3c0.3,0.1,0.5,0.1,0.8,0.2c0.4,0.2,0.8,0.3,1.2,0.5c0.1,0.2,0.3,0.4,0.4,0.6c0.2,0.3,0.4,0.7,0.6,1
		c0.3,0.9,0.6,1.8,0.3,2.8c-0.3,0.2-0.7,0.5-1,0.4c-0.6-0.1-1.2-0.4-1.8-0.6C200.8,224.6,200.5,224.5,200.2,224.4z"/>
	<path class="st1" d="M197.6,229c-0.3-0.1-0.6-0.3-0.9-0.4c-0.2-0.1-0.3-0.2-0.5-0.3c-0.7-0.7-1.4-1.3-1.5-2.3
		c-0.1-1.4,0.3-2,1.8-2.1c0.7,0.3,1.4,0.5,2.1,0.8c0.3,0.1,0.6,0.3,0.9,0.4c0.1,0.1,0.2,0.1,0.3,0.2c0.5,0.3,1,0.7,1.5,1
		c0.1,0.3,0.3,0.5,0.4,0.8c0.1,0.6-0.3,1-0.8,1.2c-0.7,0.3-1.3,0.6-2,0.9c0,0,0,0,0,0c-0.3,0-0.6,0-0.9,0
		C197.8,229,197.7,229,197.6,229z"/>
	<path class="st1" d="M147.3,145.9c-1.3-0.1-2.5-1-2.8-2.3c-0.2-0.6,0.5-1.6,1.3-1.7c1.4-0.2,2.7-0.4,4.1-0.5c0.4,0,0.9,0.2,1.3,0.3
		c0.1,0.1,0.2,0.1,0.3,0.2c0.4,0.7-0.1,1.2-0.3,1.9c-0.1,0.1-0.1,0.2-0.2,0.3c-0.2,0.3-0.5,0.5-0.7,0.8c-0.1,0.1-0.2,0.2-0.3,0.3
		c-0.1,0.1-0.3,0.2-0.4,0.3c0,0,0,0.1,0,0.1c-0.5,0.1-1,0.3-1.5,0.4C147.8,146,147.5,146,147.3,145.9z"/>
	<path class="st1" d="M150.1,138c0.1,0.3,0.3,0.6,0.4,0.9c0.1,0.4-0.2,1.1-0.7,1.2c-1.3,0.2-2.5,0.5-3.8,0.7c-0.5,0.1-1.1,0-1.6-0.1
		c-0.5-0.1-0.7-0.5-0.9-0.9c0-0.1-0.1-0.3-0.1-0.4c0.1-0.4,0.2-0.9,0.3-1.3c0.3-0.3,0.6-0.7,0.9-1c1.3-0.8,2.6-0.8,3.9-0.2
		c0.2,0.1,0.4,0.2,0.6,0.3c0.2,0.2,0.5,0.4,0.7,0.6C149.9,137.8,150,137.9,150.1,138z"/>
	<path class="st1" d="M244.8,162.9c-0.1-0.1-0.2-0.3-0.3-0.4c-0.8-0.8-0.8-1.7,0.2-2.4c1-0.6,2-1.1,3.1-1.6c0.5-0.2,1.1-0.3,1.4,0.4
		c0.2,0.4,0.6,0.6,0.7,1c0.6,1.3,0.3,2-1,2.6c-0.1,0-0.2,0.1-0.2,0.2C247.5,163.5,246.1,163.2,244.8,162.9z"/>
	<path class="st1" d="M185.8,36.3c0.5,0.3,1,0.7,1.6,0.9c0.5,0.2,0.6,0.5,0.7,1c0,1.7-0.5,2.6-1.7,2.7c-0.8,0.1-1.6-0.1-2.2-0.6
		c-0.6-0.5-1.1-1.1-1.6-1.6c0-0.1,0-0.1-0.1-0.1c0-0.6-0.7-1.1-0.3-1.8c0.4-0.7,1.1-0.8,1.9-0.7c0.3,0,0.5,0.1,0.8,0.2
		c0.2,0,0.3,0,0.5,0C185.6,36.2,185.7,36.3,185.8,36.3z"/>
	<path class="st1" d="M196.1,33.4c-0.4-0.3-0.6-0.6-0.7-1.3c-0.3-1.4,0-2.8,0.3-4.1c0.1-0.4,0.9-0.7,1.5-0.5
		c0.3,0.1,0.6,0.3,0.8,0.5c0.9,0.9,1.5,2,1.5,3.4c0,0.7-0.2,1.3-0.7,1.8c-0.4,0.2-0.8,0.3-1.1,0.5c-0.2,0-0.3,0-0.5,0
		C196.8,33.5,196.5,33.5,196.1,33.4z"/>
	<path class="st1" d="M247.5,144.9c0.3-0.1,0.6-0.2,0.9-0.3c1.3-0.2,3.7,0.7,4.2,1.9c0.6,1.2,0.3,2.3-0.9,2.9
		c-1.2,0.6-1.7,0.5-2.6-0.5c-0.5-0.6-1.1-1.1-1.6-1.6c-0.2-0.4-0.4-0.7-0.6-1.1c0.1-0.3,0.1-0.5,0.2-0.8
		C247.2,145.2,247.4,145.1,247.5,144.9z"/>
	<path class="st1" d="M190.2,226.4c0.6-0.8,1.5-0.7,2.3-1c0.1-0.1,0.4,0.1,0.5,0.2c0.5,0.7,1.1,1.3,1.5,2.1c0.3,0.5,0.4,1.1,0.5,1.7
		c0,0.3-0.2,0.6-0.3,0.8c-0.2,0.1-0.3,0.2-0.5,0.3c-0.8,0.3-1.5,0-2.2-0.5c-0.2-0.1-0.3-0.1-0.5-0.2c-0.2-0.2-0.4-0.3-0.6-0.5
		c0,0-0.1-0.1-0.1-0.1c-0.5-0.7-0.9-1.5-0.8-2.4C190.1,226.7,190.2,226.5,190.2,226.4z"/>
	<path class="st1" d="M140.3,134.4c0.1-0.1,0.2-0.2,0.3-0.3c0.3-0.2,0.5-0.3,0.8-0.5c0.8-0.1,1.5-0.3,2.3-0.3c1.3,0,1.7,0.6,1.4,1.8
		c-0.3,0.4-0.6,0.7-0.8,1.1c-0.5,0.4-1,0.9-1.5,1.3c-0.7,0.5-1.3,0.4-1.9-0.1C139.3,136.2,139.3,135.7,140.3,134.4z"/>
	<path class="st1" d="M197,218.5c-0.7-0.7-0.8-1.6-0.8-2.5c0.2-0.3,0.5-0.6,0.7-0.9c0.3-0.1,0.6-0.2,1-0.4c0.5,0,0.9,0,1.4,0
		c0.2,0.1,0.5,0.2,0.7,0.2c0.4,0.2,0.9,0.4,1.3,0.6c0.2,0.2,0.3,0.5,0.5,0.7c0.3,1,0.2,1.2-0.7,1.8c-0.2,0-0.3,0.1-0.5,0.1
		c-1,0.2-2,0.3-3,0.5C197.3,218.6,197.2,218.6,197,218.5z"/>
	<path class="st1" d="M143.2,149.8c-0.1-0.1-0.3-0.1-0.4-0.2c-0.7-0.4-1.4-1-1.3-1.9c0.1-0.9,0.6-1.7,1.6-2c0.4-0.1,0.9,0.1,1.3,0.4
		c1,0.6,1.9,1.3,2.9,1.9c0,0.2-0.1,0.4-0.1,0.6c-0.2,0.3-0.4,0.6-0.6,0.9C145.5,150.1,144.3,149.8,143.2,149.8z"/>
</g>
</svg>
