<?xml version="1.0" encoding="utf-8"?>
<!-- Generator: Adobe Illustrator 26.5.0, SVG Export Plug-In . SVG Version: 6.00 Build 0)  -->
<svg version="1.1" xmlns="http://www.w3.org/2000/svg" xmlns:xlink="http://www.w3.org/1999/xlink" x="0px" y="0px"
	 viewBox="0 0 100 100" style="enable-background:new 0 0 100 100;" xml:space="preserve">
<style type="text/css">
	.st0{fill:#05CCC0;}
	.st1{fill:#F3F5F8;}
	.st2{fill:#106D6A;}
	.st3{fill:#FFFFFF;}
	.st4{fill:#FDFDFD;}
	.st5{fill:#E1E1E1;}
	.st6{fill:#FEFEFE;}
	.st7{fill:#B8E3F8;}
	.st8{fill:#B8E2F7;}
	.st9{fill:#FDFCFC;}
	.st10{fill:#B2D4E5;}
	.st11{fill:#E38787;}
	.st12{fill:#E7E9EC;}
	.st13{fill:#3E3B3B;}
	.st14{fill:#393A3B;}
	.st15{fill:#B9E3F8;}
	.st16{fill:#FDFEFE;}
	.st17{fill:#B9E4F8;}
</style>
<g id="Layer_2">
	<g id="Layer_2_00000124147986899870748040000009013127560201801124_">
		<path class="st0" d="M50,11.9c10.3-0.2,19.2,3.7,26.9,10.3c12.8,11,19.4,25.3,22.5,41.7c1.1,6.2,0.2,11.8-3.7,16.9
			c-3.9,5.1-9.8,7.1-15.8,5c-11.7-4.1-23.7-5.7-35.8-5c-7.9,0.5-15.8,1.8-23.1,4.8c-9,3.7-18.1-3-20.4-11.9c-1.3-5-0.3-9.8,0.9-14.7
			c3.1-13,8.8-24.6,18.4-34.1c7-7,15.4-11.4,25.2-12.9C46.6,11.7,48.3,11.9,50,11.9z"/>
	</g>
	<path class="st1" d="M35.4,47.8"/>
</g>
<g id="Layer_3">
	<g>
		<path class="st2" d="M11.8,94.2c-2.2,0-2.8-0.7-2.8-2.9V47.8l-3.4,0c-2.1,0-2.6-1-2.6-2.6c-0.1-3.5,1.2-6,3.9-7.3
			c0.9-0.4,1.9-0.6,2.9-0.7c0.4-0.1,0.8-0.1,1.2-0.2l0.1,0l2.6,0c1.5,0,3,0,4.6,0l1.7,0c1.8,0,2.4,1.1,2.6,2l0,0.2l0,0.2
			c-0.3,1.2-1.2,1.9-2.5,1.9l-0.3,0c-0.2,0-0.4,0-0.5,0l-0.4,0c-0.9,0-1.8,0-2.7,0c-1.1,0-2.2,0-3.2,0c-1,0-2,0-3,0
			c-0.7,0-1.3,0.3-1.8,0.8c-0.3,0.4-0.6,0.9-0.6,1.4l36.4,0l25,0l12.5,0h11.4c-0.1-0.5-0.3-1-0.6-1.4c-0.5-0.5-1.1-0.8-1.8-0.8
			c-1,0-2,0-3,0c-1.1,0-2.2,0-3.2,0c-0.9,0-1.8,0-2.7,0l-12.5,0l-25,0l-0.4,0c-0.2,0-0.5,0-0.7,0l-5.4,0c-1.4,0-2.8,0-4.1,0
			c0,0,0,0,0,0c-0.7,0-1.3-0.2-1.6-0.6C30.9,40.1,31,39.2,31,39c0.2-2,2.1-2,2.7-2l53.7,0c0.3,0,0.5,0,0.8,0l0.5,0l0.1,0
			c0.3,0,0.6,0,0.8,0.1c0.7,0,1.4,0.1,2.1,0.3c2.9,0.8,5,3.5,5.1,6.6c0.1,1.5,0.1,2.5-0.6,3.2c-0.7,0.7-1.6,0.7-3.1,0.7h-2.3v43.6
			c0,2.2-0.7,2.9-2.8,2.9H11.8z M37.3,89.9v-6.7l0-11.8l0-15.7l-16.2,0l0,11.9l0,11l0,11.3H37.3z M16.9,89.9l0-35.6
			c0-2.2,0.7-2.9,2.8-2.9h19c2.2,0,2.9,0.7,2.9,2.8l0,35.6h45l0-39.1c0-0.2,0-0.3,0-0.5l0-0.3l0-2.2H13.3V50l0,0.3
			c0,0.1,0,0.2,0,0.3c0,13.1,0,26.2,0,39.3H16.9z"/>
		<path class="st3" d="M11.1,37.9c2.3,0,4.7,0,7,0c0.6,0,1.1,0,1.7,0c0,0,0,0,0,0c0.8,0,1.4,0.3,1.6,1.2c-0.2,0.8-0.7,1.1-1.5,1.1
			c0,0-0.1,0-0.1,0c-0.1,0-0.1,0-0.2,0c-0.3,0-0.6,0-0.9,0c-2,0-4,0-5.9,0c-1,0-2,0-3,0c-2.2,0-3.7,2-3.5,4.2c4.1,0,8.3,0,12.4,0
			c4.2,0,8.3,0,12.5,0c0.1,0,0.1,0,0.2,0c4,0,8.1,0,12.1,0c0.1,0,0.1,0,0.2,0c4.2,0,8.3,0,12.5,0c4.2,0,8.3,0,12.5,0
			c4.2,0,8.3,0,12.5,0c4.1,0,8.3,0,12.4,0c0.3-2.3-1.3-4.2-3.5-4.2c-1,0-2,0-3,0c-2,0-4,0-5.9,0c-4.2,0-8.3,0-12.5,0
			c-4.2,0-8.3,0-12.5,0c-4.2,0-8.3,0-12.5,0c-0.4,0-0.7,0-1.1,0c-1.8,0-3.6,0-5.4,0c-1.4,0-2.8,0-4.1,0c0,0,0,0,0,0
			c-0.9,0-1.1-0.4-1-1.2c0.1-0.8,0.5-1.1,1.7-1.1c17.9,0,35.8,0,53.7,0c0.4,0,0.8,0,1.3,0c0.9,0.1,1.9,0.1,2.8,0.3
			c2.5,0.7,4.3,3,4.4,5.7c0.1,2.8,0,2.8-2.7,2.8c-1.1,0-2.1,0-3.3,0c0,0.4,0,0.8,0,1.2c0,14.5,0,28.9,0,43.4c0,1.6-0.2,1.9-1.8,1.9
			c-12.7,0-25.4,0-38.1,0s-25.4,0-38.1,0c-1.6,0-1.8-0.2-1.8-1.9c0-14.4,0-28.9,0-43.3c0-0.4,0-0.8,0-1.3c-0.9,0-1.8,0-2.7,0
			c-0.6,0-1.1,0-1.7,0c-1.3,0-1.6-0.3-1.6-1.7c-0.1-2.8,0.7-5.1,3.3-6.4C8.4,38.2,9.8,38.2,11.1,37.9 M12.3,90.9c1.9,0,3.7,0,5.6,0
			c0-0.4,0-0.8,0-1.2c0-11.8,0-23.6,0-35.4c0-1.6,0.2-1.9,1.8-1.9c3.2,0,6.3,0,9.5,0c3.2,0,6.4,0,9.5,0c1.6,0,1.9,0.2,1.9,1.8
			c0,11.8,0,23.7,0,35.5c0,0.4,0,0.8,0,1.1c15.7,0,31.3,0,47,0c0-0.4,0-0.6,0-0.9c0-13.1,0-26.1,0-39.2c0-0.3,0-0.5,0-0.8
			c0-1.1,0-2.1,0-3.2c-25.1,0-50.2,0-75.3,0c0,1.1,0,2.1,0,3.2c0,0.2,0,0.4,0,0.6c0,13.2,0,26.4,0,39.6
			C12.2,90.4,12.3,90.6,12.3,90.9 M20.1,90.9c3.5,0,7,0,10.4,0c2.6,0,5.1,0,7.7,0c0-2.6,0-5.1,0-7.7c0-3.9,0-7.8,0-11.6
			c0-0.1,0-0.1,0-0.2c0-3.5,0-7,0-10.5c0-0.1,0-0.3,0-0.4c0-1.9,0-3.8,0-5.8c-2,0-4,0-6,0c-4,0-8.1,0-12.1,0c0,0.1-0.1,0.1-0.1,0.2
			c0,4,0,7.9,0,11.9c0,0.1,0,0.1,0,0.2c0,3.8,0,7.6,0,11.5c0,0.1,0,0.1,0,0.2c0,3.6,0,7.1,0,10.7c0,0.1,0,0.1,0,0.2
			C20.1,90,20.1,90.4,20.1,90.9 M88.8,35.9l-0.1,0l-0.4,0c-0.3,0-0.5,0-0.8,0l-32.8,0l-20.9,0c-3,0-3.6,1.9-3.7,3
			c-0.1,1,0.2,1.8,0.7,2.4c0.6,0.6,1.3,0.9,2.3,0.9h0l0,0c1.4,0,2.7,0,4.1,0c1,0,2.1,0,3.1,0l2.3,0c0.2,0,0.4,0,0.6,0l0.4,0l0,0h0
			l8.3,0l4.2,0l6.2,0l6.2,0l6.2,0l6.2,0c0.9,0,1.8,0,2.7,0c1.1,0,2.2,0,3.2,0c1,0,2,0,3,0c0.3,0,0.6,0.1,0.8,0.2h-9.7l-12.5,0
			l-12.5,0l-12.5,0l-0.2,0l-12.1,0l-0.2,0l-12.5,0H9c0.2-0.1,0.5-0.2,0.8-0.2c1,0,2,0,3,0c1.1,0,2.2,0,3.2,0c0.9,0,1.8,0,2.7,0l0,0
			l0,0c0.1,0,0.3,0,0.4,0c0.2,0,0.3,0,0.5,0l0.1,0c0.1,0,0.1,0,0.2,0c1.8,0,3.1-1,3.4-2.7l0.1-0.4l-0.1-0.4
			c-0.2-0.8-0.9-2.8-3.6-2.8c-0.6,0-1.2,0-1.7,0c-1.5,0-3.1,0-4.6,0l-2.4,0l-0.2,0l-0.2,0c-0.3,0.1-0.7,0.1-1.1,0.2
			c-1,0.1-2.1,0.3-3.2,0.8c-2.2,1-4.7,3.3-4.5,8.3c0.1,1.5,0.5,3.6,3.6,3.6c0.6,0,1.1,0,1.7,0l0.7,0l0,8.6l0,33.9
			c0,2.7,1.1,3.9,3.8,3.9l38.1,0l38.1,0c2.7,0,3.8-1.2,3.8-3.9l0-33.6l0-8.9h1.3c1.6,0,2.9,0,3.9-1c1-1,0.9-2.3,0.8-3.9
			c-0.1-3.6-2.5-6.6-5.9-7.5c-0.8-0.2-1.6-0.3-2.3-0.3c-0.3,0-0.5,0-0.8-0.1L88.8,35.9L88.8,35.9z M14.3,48.8h71.3V50v0.1l0,0.1
			l0,0.3c0,0.1,0,0.2,0,0.4c0,11.8,0,23.6,0,35.4v2.8h-43l0-7.9l0-26.7c0-2.7-1.1-3.8-3.9-3.8l-9.5,0l-9.5,0c-2.7,0-3.8,1.1-3.8,3.9
			l0,26.8l0,7.8h-1.6c0-12.8,0-25.5,0-38.3c0-0.1,0-0.1,0-0.2c0-0.1,0-0.2,0-0.2l0-0.1V50V48.8L14.3,48.8z M22.1,56.7l10.2,0h4v3.8
			l0,0.4l0,10.5l0,0.2l0,5.8l0,5.8v5.7h-5.7h-8.4l0-10.3l0-0.2l0-11l0-0.5l0-0.2L22.1,56.7L22.1,56.7z"/>
	</g>
	<path class="st1" d="M21.4,39.1c-0.2-0.9-0.8-1.2-1.6-1.2c-2.9,0-5.8,0-8.7,0c0-0.8,0-1.6,0-2.5c0.9-0.1,1.1-0.8,1.1-1.6
		c0-3.9,0-7.9,0-11.8c0-3,2.3-5.2,5.3-5.2c1.1,0,2.3,0,3.4,0c0.8,0,1.4-0.3,1.5-1.2c0.9,0,1.8,0,2.7,0c0.3,1.8,1.2,3.3,2.5,4.6
		c-0.5,0.6-1,1.2-1.4,1.8c-1.6,2.6-1.3,5.2,0,7.8c0.1,0.9,0.1,2,0.4,2.8c1.4,3.3,5.1,4.6,8.7,3.9c2.8-0.5,4.7-2.4,6-4.9
		c0.3-0.6,0.6-0.8,1.3-0.8c4.9,0,9.7,0,14.6,0c0.6,0,0.9,0.2,1.2,0.7c0.6,1,1.3,2.1,2.1,2.9c1.8,1.8,4.1,2.5,6.7,2.3
		c3.3-0.2,7-2.8,6.5-6.8c1.7-3.4,1.5-6.5-1.3-9.3c-0.1-0.1-0.1-0.2-0.1-0.2c0.5-0.7,1.1-1.4,1.5-2.1c0.4-0.8,0.6-1.7,0.9-2.5
		c0.9,0,1.9,0,2.8,0c0.1,0.9,0.6,1.2,1.5,1.2c0.9,0,1.8,0,2.7,0c3.7,0,5.9,2.1,5.9,5.8c0,3.8,0,7.5,0,11.3c0,0.8,0.2,1.5,1.1,1.6
		c0,0.8,0,1.6,0,2.5c-0.4,0-0.8,0-1.3,0c-17.9,0-35.8,0-53.7,0c-1.2,0-1.6,0.3-1.7,1.1c-0.1,0.8,0.2,1.2,1.1,1.2c3.2,0,6.4,0,9.5,0
		c0.4,0,0.7,0,1.1,0c0,1.4,0,2.7,0,4.1c-0.1,0-0.1,0.1-0.2,0.1c-4,0-8.1,0-12.1,0c-0.1-0.1-0.1-0.1-0.2-0.2c0-1.7,0-3.4,0-5.3
		c-1.2,0-2.3,0-3.3,0c-0.1-0.7-0.5-1.1-1.2-1.1c-0.7,0-1.1,0.4-1.2,1.1C24.1,39.1,22.8,39.1,21.4,39.1z"/>
	<g>
		<path class="st2" d="M32.6,34.6c-2.8,0-5.3-1.4-7.3-4.3l-0.1-0.1c-1.6-3.2-1.6-6.1,0.1-8.7c0.3-0.4,0.6-0.8,0.9-1.2
			c-1.2-1.4-1.9-2.9-2.1-4.5c-0.2-2.8,0.6-5.1,2.3-7c1.7-1.9,3.9-2.9,6.3-2.9c2.7,0,5.3,1.4,7.1,3.7c0.6,0.9,1.1,1.8,1.6,2.8
			c0,0.1,0,0.1,0.1,0.1c2.8,0,5.6,0,8.4,0c2.8,0,5.6,0,8.4,0l0,0c0,0,0,0,0-0.1c1-2.2,2.3-3.9,4.1-5.1c1.5-1,3-1.5,4.7-1.5
			c4.3,0,8.1,3.5,8.6,7.9c0,0.5,0,0.9,0,1.3c0,0.2,0,0.3,0,0.5l-0.1,0.3c-0.1,0.2-0.2,0.5-0.2,0.8c-0.2,0.6-0.4,1.3-0.7,1.9
			c-0.3,0.6-0.7,1.1-1.1,1.6c0,0,0,0,0,0c2.5,2.9,2.9,6.2,1,10l-0.1,0.2l-0.6,0.8c-1.6,2.2-4.1,3.5-6.8,3.5c-1.5,0-2.9-0.4-4.2-1.1
			c-2-1.1-3.5-2.9-4.5-5.3c0-0.1-0.1-0.1-0.1-0.2c0,0-0.1,0-0.2,0l-2.3,0c-2,0-4,0-6,0c-2.6,0-4.7,0-6.7-0.1l-0.2,0
			c-1.1,0-1.5,0.2-2,1.2c-1.2,2.7-3.5,4.6-6.4,5.2C33.8,34.6,33.2,34.6,32.6,34.6z M59.2,23.8c1.4,0,2.3,0.6,2.8,2
			c0.6,1.8,1.5,3.1,2.8,3.9c0.7,0.5,1.5,0.7,2.3,0.7c0.8,0,1.6-0.2,2.2-0.7c1.5-1,2.4-3,2.1-4.6c-0.2-1-0.8-1.9-1.8-2.7
			c-0.8-0.7-1.5-1.3-1.5-2.2c0-0.9,0.7-1.5,1.5-2.1c0.1-0.1,0.3-0.2,0.4-0.3c1.9-1.8,2-4.3,0.2-6.2c-0.9-1-2-1.5-3.1-1.5
			c-1,0-2,0.4-2.8,1.2c-1,0.9-1.7,2.3-2.3,3.6c-0.6,1.3-1.5,1.9-2.8,1.9c-3.1,0-6.2,0-9.2,0c-3.1,0-6.1,0-9.2,0
			c-1.5,0-2.4-0.6-2.9-2c-0.7-1.9-1.6-3.2-2.9-3.9c-0.8-0.4-1.5-0.7-2.2-0.7c-0.8,0-1.5,0.3-2.3,0.8c-1.6,1.2-2.3,2.7-2,4.5
			c0.2,1.1,0.8,1.9,1.9,2.8c0.6,0.5,1.4,1.1,1.4,2c0,0.9-0.7,1.6-1.3,2c-0.2,0.2-0.5,0.4-0.7,0.5c-1.8,1.7-1.9,4-0.2,6
			c0.9,1,2,1.6,3.2,1.6c0.9,0,1.8-0.3,2.6-0.9c1.1-0.8,2-2.1,2.5-3.7c0.4-1.3,1.4-2,2.8-2c1.4,0,2.8,0,4.1,0l5.2,0l5.2,0
			C56.4,23.8,57.8,23.8,59.2,23.8L59.2,23.8z"/>
		<path class="st3" d="M67.1,6.8c3.8,0,7.2,3.2,7.6,7c0.1,0.6,0,1.2,0,1.7c-0.3,0.9-0.5,1.8-0.9,2.5c-0.4,0.8-1,1.4-1.5,2.1
			c0,0.1,0.1,0.2,0.1,0.2c2.7,2.8,2.9,5.9,1.3,9.3c-0.2,0.3-0.4,0.5-0.6,0.8c-1.5,2-3.7,3.1-6,3.1c-1.3,0-2.5-0.3-3.7-1
			c-1.9-1.1-3.2-2.8-4.1-4.8C59,27.2,58.7,27,58.1,27c0,0,0,0,0,0c-2.8,0-5.5,0-8.3,0c-2.2,0-4.5,0-6.7-0.1c-0.1,0-0.1,0-0.2,0
			c-1.4,0-2.3,0.4-2.9,1.8c-1.1,2.4-3,4.1-5.7,4.6c-0.6,0.1-1.1,0.2-1.7,0.2c-2.7,0-4.8-1.5-6.4-3.9c-1.3-2.6-1.6-5.2,0-7.8
			c0.4-0.6,0.9-1.2,1.4-1.8c-1.3-1.3-2.2-2.8-2.5-4.6c-0.2-2.3,0.5-4.4,2.1-6.2c1.6-1.7,3.6-2.6,5.6-2.6c2.3,0,4.6,1.1,6.3,3.3
			c0.6,0.8,1.1,1.7,1.5,2.6c0.2,0.5,0.4,0.7,1,0.7c0,0,0,0,0,0c2.8,0,5.6,0,8.4,0c2.8,0,5.6,0,8.4,0c0,0,0,0,0,0
			c0.6,0,0.8-0.2,1-0.7c0.8-1.9,2-3.5,3.7-4.6C64.3,7.2,65.7,6.8,67.1,6.8 M32.7,31.4c1.1,0,2.2-0.4,3.2-1.1
			c1.4-1.1,2.3-2.5,2.9-4.2c0.3-1,0.9-1.3,1.8-1.3c0,0,0,0,0,0c1.4,0,2.7,0,4.1,0c1.7,0,3.4,0,5.2,0c1.7,0,3.4,0,5.2,0
			c1.4,0,2.7,0,4.1,0c0,0,0,0,0,0c1,0,1.5,0.3,1.8,1.3c0.6,1.8,1.6,3.3,3.2,4.4c0.9,0.6,1.9,0.9,2.9,0.9c1,0,1.9-0.3,2.8-0.9
			c1.9-1.3,2.9-3.6,2.5-5.6c-0.3-1.4-1.1-2.4-2.1-3.3c-1.5-1.2-1.5-1.6,0-2.7c0.2-0.1,0.3-0.2,0.4-0.4c2.3-2.1,2.4-5.2,0.3-7.6
			C69.9,9.7,68.5,9,67.1,9c-1.2,0-2.4,0.5-3.5,1.5c-1.1,1-1.9,2.5-2.5,3.8c-0.5,0.9-0.9,1.3-1.9,1.3c0,0,0,0,0,0c-3.1,0-6.1,0-9.2,0
			c-3.1,0-6.1,0-9.2,0c0,0,0,0,0,0c-1,0-1.6-0.3-1.9-1.3c-0.6-1.8-1.6-3.5-3.4-4.5C34.5,9.3,33.6,9,32.7,9c-1,0-1.9,0.3-2.9,1
			c-1.8,1.3-2.7,3.2-2.4,5.5c0.2,1.5,1.1,2.6,2.3,3.5c1.3,0.9,1.3,1.5,0,2.5c-0.3,0.2-0.5,0.4-0.7,0.6c-2.2,2-2.3,5-0.3,7.3
			C29.8,30.7,31.2,31.4,32.7,31.4 M67.1,4.8L67.1,4.8c-1.8,0-3.6,0.6-5.2,1.6c-1.8,1.2-3.2,2.8-4.2,5c-2.6,0-5.2,0-7.8,0
			c-2.6,0-5.2,0-7.8,0c-0.4-0.9-0.9-1.7-1.5-2.5c-2-2.6-4.9-4.1-7.9-4.1c-2.7,0-5.2,1.1-7,3.2c-1.9,2.1-2.8,4.7-2.6,7.7l0,0.1
			c0.2,1.6,0.8,3,1.8,4.4c-0.2,0.2-0.3,0.5-0.5,0.7c-1.8,3-1.9,6.2-0.1,9.7l0.1,0.3c2.2,3.1,4.9,4.7,8.1,4.7c0.7,0,1.4-0.1,2.1-0.2
			c3.2-0.7,5.7-2.7,7.1-5.7C42,29,42.1,29,42.9,29l0.2,0c2,0,4.2,0.1,6.7,0.1c2,0,4,0,6,0l1.9,0c1.1,2.4,2.7,4.2,4.7,5.3
			c1.5,0.8,3.1,1.3,4.7,1.3c3,0,5.7-1.4,7.6-3.9l0.4-0.5l0.2-0.2l0.2-0.3c1.9-3.8,1.7-7.4-0.6-10.4c0.3-0.4,0.5-0.7,0.8-1.2
			c0.4-0.7,0.6-1.5,0.8-2.1c0.1-0.2,0.1-0.5,0.2-0.7l0.1-0.7c0-0.2,0-0.3,0-0.5c0-0.4,0-0.9,0-1.4C76.1,8.7,71.9,4.8,67.1,4.8
			L67.1,4.8z M32.7,29.4c-0.9,0-1.8-0.4-2.5-1.2c-1.3-1.5-1.2-3.3,0.2-4.6c0.2-0.2,0.4-0.3,0.6-0.5c0.5-0.4,1.7-1.3,1.7-2.8
			c0-1.5-1.3-2.5-1.8-2.8c-0.9-0.7-1.4-1.4-1.5-2.2c-0.2-1.5,0.3-2.6,1.6-3.6c0.6-0.4,1.1-0.6,1.7-0.6c0.5,0,1.1,0.2,1.7,0.5
			c1.1,0.7,1.9,1.7,2.5,3.4c0.6,1.8,1.9,2.7,3.8,2.7c3.1,0,6.2,0,9.2,0c3.1,0,6.1,0,9.2,0c2.3,0,3.3-1.4,3.8-2.4
			c0.6-1.2,1.2-2.4,2.1-3.3c0.6-0.6,1.3-0.9,2.1-0.9c0.9,0,1.7,0.4,2.4,1.2c1.4,1.6,1.4,3.4-0.1,4.8c-0.1,0.1-0.2,0.2-0.3,0.3
			c-0.8,0.6-1.9,1.5-1.9,2.9c0,1.4,1.1,2.4,1.9,3c0.8,0.7,1.3,1.3,1.4,2.1c0.2,1.2-0.5,2.8-1.7,3.6c-0.5,0.4-1.1,0.5-1.7,0.5
			c-0.6,0-1.2-0.2-1.8-0.6c-1.1-0.7-1.8-1.8-2.4-3.4c-0.4-1.2-1.4-2.7-3.7-2.7l-0.1,0c-1.4,0-2.7,0-4.1,0l-2.6,0l-2.6,0l-2.6,0
			l-2.6,0c-1.4,0-2.7,0-4.1,0l-0.1,0c-2.3,0-3.3,1.4-3.7,2.7c-0.5,1.4-1.2,2.5-2.2,3.2C34.1,29.1,33.4,29.4,32.7,29.4L32.7,29.4z"/>
	</g>
	<g>
		<path class="st2" d="M10.9,36.4c-0.8-0.1-2-0.6-2-2.5c0-1.7,0-3.3,0-5c0-2.3,0-4.7,0-7c0-4.5,3.4-8.1,7.9-8.4
			c0.8-0.1,1.6-0.1,2.2-0.1l1.9,0c1.2,0,2.1,0.7,2.4,1.9l0,0.2l0,0.2c-0.2,1.3-1.1,2-2.4,2l-0.1,0c-0.5,0-1.1,0-1.6,0
			c-0.6,0-1.2,0-1.7,0c-2.5,0-4.3,1.8-4.3,4.3c0,3.2,0,6.4,0,9.5l0,2.3c0,1.9-1.1,2.5-2,2.6l-0.2,0L10.9,36.4z"/>
		<path class="st3" d="M19.1,14.5c0.5,0,1,0,1.4,0c0.2,0,0.3,0,0.5,0c0,0,0,0,0,0c0.7,0,1.2,0.4,1.4,1.1c-0.1,0.8-0.6,1.2-1.4,1.2
			c0,0-0.1,0-0.1,0c-0.6,0-1.1,0-1.7,0c-0.6,0-1.2,0-1.7,0c-3,0.1-5.2,2.3-5.3,5.2c0,3.9,0,7.9,0,11.8c0,0.8-0.2,1.5-1.1,1.6
			c-0.9-0.1-1.2-0.7-1.2-1.5c0-4,0-8,0-11.9c0-4,3-7.1,7-7.5C17.7,14.5,18.4,14.5,19.1,14.5 M19.1,12.5c-0.7,0-1.5,0-2.3,0.1
			C11.8,12.9,8,17,8,22c0,2.3,0,4.7,0,7c0,1.7,0,3.3,0,5c0,1.9,1.1,3.2,2.9,3.5l0.3,0l0.3,0c0.9-0.1,2.8-0.7,2.8-3.6l0-2.3
			c0-3.1,0-6.4,0-9.5c0-1.9,1.4-3.2,3.3-3.3c0.6,0,1.1,0,1.7,0c0.5,0,1.1,0,1.6,0l0.1,0c1.8,0,3.1-1.1,3.4-2.8l0.1-0.4l-0.1-0.4
			c-0.4-1.6-1.6-2.7-3.3-2.7l-0.5,0l-0.7,0L19.1,12.5L19.1,12.5z"/>
	</g>
	<g>
		<path class="st2" d="M88.5,36.4c-0.9-0.1-2-0.7-2-2.6c0-3.8,0-7.5,0-11.3c0-3.2-1.7-4.8-4.9-4.8l-1.6,0c-0.4,0-0.7,0-1.1,0l-0.1,0
			c-1.3,0-2.2-0.7-2.4-2l-0.1-0.5l0.3-0.3c0.1-0.1,0.2-0.2,0.3-0.3c0.3-0.4,0.8-1,1.5-1l0.7,0c0.5,0,1,0,1.5,0c1,0,2.3,0,3.7,0.3
			c3.7,0.8,6.4,4.1,6.5,8c0,2.7,0,5.4,0,8c0,1.4,0,2.9,0,4.3c0,1.3-0.7,2.2-2,2.4l-0.2,0L88.5,36.4z"/>
		<path class="st3" d="M80.7,14.5c1.2,0,2.3,0.1,3.5,0.3c3.3,0.7,5.6,3.6,5.7,7c0.1,4.1,0,8.2,0,12.2c0,0.8-0.3,1.3-1.1,1.4
			c-0.9-0.1-1.1-0.8-1.1-1.6c0-3.8,0-7.5,0-11.3c0-3.7-2.2-5.8-5.9-5.8c-0.5,0-1.1,0-1.6,0c-0.4,0-0.7,0-1.1,0c0,0-0.1,0-0.1,0
			c-0.8,0-1.3-0.3-1.4-1.2c0.4-0.4,0.7-1,1.1-1C79.3,14.5,80,14.5,80.7,14.5 M80.7,12.5c-0.5,0-1,0-1.5,0l-0.7,0
			c-1.2,0-1.9,0.9-2.3,1.4c-0.1,0.1-0.1,0.2-0.2,0.2l-0.7,0.7l0.1,1c0.2,1.8,1.5,2.9,3.4,2.9l0.2,0c0.3,0,0.7,0,1,0
			c0.3,0,0.6,0,0.8,0c0.3,0,0.5,0,0.8,0c2.6,0,3.9,1.3,3.9,3.8c0,3.8,0,7.5,0,11.3c0,2.9,2,3.5,2.8,3.6l0.3,0l0.3,0
			c1.8-0.3,2.9-1.6,2.8-3.4c0-1.4,0-2.9,0-4.3c0-2.6,0-5.3,0-8c-0.1-4.3-3.1-8.1-7.3-8.9C83.2,12.6,81.8,12.5,80.7,12.5L80.7,12.5z"
			/>
	</g>
	<path class="st4" d="M87.5,50c0,0.3,0,0.5,0,0.8c0,13.1,0,26.1,0,39.2c0,0.3,0,0.6,0,0.9c-15.7,0-31.3,0-47,0c0-0.4,0-0.8,0-1.1
		c0-11.8,0-23.7,0-35.5c0-1.6-0.2-1.8-1.9-1.8c-6.3,0-12.7,0-19,0c-1.6,0-1.8,0.2-1.8,1.9c0,11.8,0,23.6,0,35.4c0,0.4,0,0.8,0,1.2
		c-1.9,0-3.7,0-5.6,0c0-0.2-0.1-0.5-0.1-0.7c0-13.2,0-26.4,0-39.6c0-0.2,0-0.4,0-0.6C37.3,50,62.4,50,87.5,50z M64.7,78.4
		c5.2,0,10.3,0,15.5,0c1.5,0,1.8-0.3,1.8-1.8c0-7.5,0-14.9,0-22.4c0-1.5-0.3-1.8-1.8-1.8c-10.3,0-20.6,0-30.9,0
		c-1.5,0-1.8,0.3-1.8,1.7c0,7.5,0,15,0,22.5c0,1.5,0.3,1.8,1.8,1.8C54.5,78.4,59.6,78.4,64.7,78.4z"/>
	<path class="st5" d="M87.5,50c-25.1,0-50.2,0-75.3,0c0-1,0-2.1,0-3.2c25.1,0,50.1,0,75.3,0C87.5,47.9,87.5,48.9,87.5,50z"/>
	<path class="st6" d="M20.1,78.4c0-3.8,0-7.6,0-11.5c0.1-0.1,0.1-0.1,0.2-0.2c4-4,8-8,12.1-12c2,0,3.9,0,6,0c0,2,0,3.9,0,5.8
		c-0.1,0.1-0.2,0.3-0.3,0.4c-0.3,0.3-0.6,0.5-0.9,0.8c-5.3,5.3-10.7,10.7-16,16c-0.3,0.3-0.6,0.5-0.9,0.8
		C20.2,78.4,20.2,78.4,20.1,78.4z"/>
	<path class="st7" d="M20.3,78.4c0.3-0.3,0.6-0.5,0.9-0.8c5.3-5.3,10.7-10.7,16-16c0.3-0.3,0.6-0.5,0.9-0.8c0.1,0,0.2,0,0.3,0
		c0,3.5,0,7,0,10.5c0,0.1-0.1,0.1-0.1,0.2c-0.8,0.7-1.5,1.4-2.3,2.1c0-0.8,0-1.5,0-2.3c0-0.8-0.3-1.3-1.1-1.3
		c-0.8,0-1.1,0.5-1.2,1.3c0,0.9-0.1,1.7,0,2.6c0.1,0.5,0.3,1,0.5,1.5c-0.2,0.3-0.4,0.5-0.7,0.8c-2.9,2.9-5.8,5.8-8.6,8.6
		c-1.5,1.5-3,2.9-4.5,4.4c-0.1,0-0.1,0-0.2,0c0-3.6,0-7.1,0-10.7C20.2,78.5,20.2,78.5,20.3,78.4z"/>
	<path class="st6" d="M20.3,89.3c1.5-1.5,3-2.9,4.5-4.4c2.9-2.9,5.8-5.7,8.6-8.6c0.2-0.2,0.5-0.5,0.7-0.8c1.4,0.2,1.7-0.1,1.8-1.7
		c0.8-0.7,1.5-1.4,2.3-2.1c0,0,0.1,0,0.1,0l0.1,0c0,3.9,0,7.8,0,11.6c-2.6,2.6-5.2,5.1-7.7,7.7c-3.4,0-6.9,0-10.4,0
		c0-0.5,0-0.9,0-1.4C20.2,89.4,20.2,89.4,20.3,89.3z"/>
	<path class="st8" d="M32.4,54.7c-4,4-8,8-12.1,12c-0.1,0-0.1,0-0.2,0c0-4,0-7.9,0-11.9c0-0.1,0.1-0.1,0.1-0.2
		C24.3,54.7,28.3,54.7,32.4,54.7z"/>
	<path class="st9" d="M21.4,39.1c1.3,0,2.7,0,4,0c0.1,0.7,0.5,1.1,1.1,1.1c0.7,0,1.1-0.4,1.3-1.1c1.1,0,2.1,0,3.3,0
		c0,1.8,0,3.5,0,5.3c0,0,0,0.1,0,0.2c-4.2,0-8.3,0-12.5,0c0-1.4,0-2.8,0-4.2c0.4,0,0.8-0.1,1.1,0C20.7,40.3,21.3,40,21.4,39.1z"/>
	<path class="st4" d="M43.6,44.4c0-1.4,0-2.7,0-4.1c4.2,0,8.3,0,12.5,0c0,1.4,0,2.8,0,4.2c-4.2,0-8.3,0-12.5,0
		C43.7,44.4,43.7,44.4,43.6,44.4z"/>
	<path class="st0" d="M56.1,44.5c0-1.4,0-2.8,0-4.2c4.2,0,8.3,0,12.5,0c0,1.4,0,2.8,0,4.2C64.5,44.5,60.3,44.5,56.1,44.5z"/>
	<path class="st9" d="M68.6,44.5c0-1.4,0-2.8,0-4.2c4.2,0,8.3,0,12.5,0c0,1.4,0,2.8,0,4.2C76.9,44.5,72.8,44.5,68.6,44.5z"/>
	<path class="st0" d="M18.7,40.3c0,1.4,0,2.8,0,4.2c-4.1,0-8.3,0-12.4,0c-0.3-2.3,1.3-4.2,3.5-4.2C12.7,40.2,15.7,40.3,18.7,40.3z"
		/>
	<path class="st0" d="M81.1,44.5c0-1.4,0-2.8,0-4.2c3,0,6-0.1,8.9,0c2.2,0,3.7,2,3.5,4.2C89.4,44.5,85.2,44.5,81.1,44.5z"/>
	<path class="st10" d="M30.6,90.9c2.6-2.6,5.2-5.1,7.7-7.7c0,2.5,0,5.1,0,7.7C35.7,90.9,33.1,90.9,30.6,90.9z"/>
	<path class="st10" d="M38.3,60.9c-0.1,0-0.2,0-0.3,0c0.1-0.1,0.2-0.3,0.3-0.4C38.3,60.6,38.3,60.8,38.3,60.9z"/>
	<path class="st10" d="M20.3,54.7c0,0.1-0.1,0.1-0.1,0.2C20.2,54.8,20.2,54.7,20.3,54.7z"/>
	<path class="st11" d="M31.2,44.5c0-0.1,0-0.1,0-0.2c0.1,0.1,0.1,0.1,0.2,0.2C31.3,44.5,31.2,44.5,31.2,44.5z"/>
	<path class="st10" d="M38.3,71.6L38.3,71.6c-0.1,0-0.1,0-0.1,0c0-0.1,0.1-0.1,0.1-0.2C38.3,71.5,38.3,71.5,38.3,71.6z"/>
	<path class="st11" d="M43.6,44.4c0,0,0,0.1,0,0.1c-0.1,0-0.1,0-0.2,0C43.5,44.5,43.6,44.4,43.6,44.4z"/>
	<path class="st10" d="M20.3,78.4c0,0.1-0.1,0.1-0.1,0.2c0-0.1,0-0.1,0-0.2C20.2,78.4,20.2,78.4,20.3,78.4z"/>
	<path class="st10" d="M20.1,66.7c0.1,0,0.1,0,0.2,0c-0.1,0.1-0.1,0.1-0.2,0.2C20.1,66.9,20.1,66.8,20.1,66.7z"/>
	<path class="st10" d="M20.3,89.3c-0.1,0.1-0.1,0.1-0.2,0.2c0-0.1,0-0.1,0-0.2C20.2,89.3,20.2,89.3,20.3,89.3z"/>
	<path class="st12" d="M26.1,29.7c2,2.8,4.5,4.4,8.1,3.7c2.7-0.6,4.6-2.2,5.7-4.6c0.7-1.5,1.6-1.9,3.1-1.8c5,0.1,10,0.1,15,0
		c0.6,0,1,0.2,1.2,0.8c0.9,2,2.1,3.7,4.1,4.8c3.4,1.9,7.4,1,9.7-2.1c0.2-0.3,0.4-0.5,0.6-0.8c0.5,4-3.2,6.6-6.5,6.8
		c-2.6,0.2-4.8-0.5-6.7-2.3c-0.8-0.8-1.5-1.8-2.1-2.9c-0.3-0.6-0.6-0.7-1.2-0.7c-4.9,0-9.7,0-14.6,0c-0.7,0-1,0.2-1.3,0.8
		c-1.3,2.5-3.2,4.4-6,4.9c-3.6,0.7-7.3-0.6-8.7-3.9C26.2,31.7,26.3,30.7,26.1,29.7z"/>
	<path class="st13" d="M27.9,39.1c-0.1,0.7-0.5,1.1-1.3,1.1c-0.7,0-1.1-0.4-1.1-1.1c0.1-0.7,0.5-1.1,1.2-1.1
		C27.4,37.9,27.8,38.4,27.9,39.1z"/>
	<g>
		<path class="st0" d="M67.1,30.6c-0.8,0-1.7-0.3-2.5-0.8c-1.3-0.9-2.3-2.2-2.9-4c-0.4-1.2-1.2-1.8-2.5-1.8c-1.4,0-2.7,0-4.1,0
			l-5.2,0l-5.2,0c-1.3,0-2.7,0-4,0c0,0,0,0,0,0c-1.4,0-2.2,0.6-2.6,1.8c-0.6,1.7-1.4,2.9-2.6,3.8c-0.8,0.6-1.8,1-2.8,1
			c-1.3,0-2.5-0.6-3.4-1.7c-1.7-2.1-1.6-4.5,0.3-6.3c0.2-0.2,0.4-0.4,0.7-0.6c0.6-0.4,1.2-1,1.2-1.8c0-0.8-0.7-1.4-1.3-1.8
			c-1.2-0.9-1.9-1.8-2-3c-0.3-1.9,0.4-3.5,2.1-4.8c0.8-0.6,1.6-0.9,2.4-0.9c0.8,0,1.5,0.2,2.3,0.7c1.4,0.8,2.4,2.1,3,4.1
			c0.4,1.3,1.2,1.8,2.6,1.8c3.1,0,6.2,0,9.2,0c3.1,0,6.1,0,9.2,0l0,0c1.3,0,2-0.5,2.6-1.7c0.6-1.3,1.4-2.7,2.4-3.6
			c0.8-0.8,1.9-1.2,3-1.2c1.2,0,2.4,0.6,3.3,1.6c1.9,2.1,1.8,4.7-0.2,6.6c-0.1,0.1-0.3,0.2-0.4,0.3c-0.8,0.6-1.4,1.2-1.4,1.9
			c0,0.8,0.6,1.3,1.4,2c1.1,0.8,1.6,1.7,1.9,2.8c0.3,1.7-0.6,3.8-2.2,4.9C68.7,30.4,67.9,30.6,67.1,30.6z"/>
		<path class="st3" d="M32.7,10.5c0.6,0,1.3,0.2,2,0.6c1.2,0.7,2.1,1.9,2.7,3.7c0.5,1.6,1.6,2.3,3.4,2.3c3.1,0,6.1,0,9.2,0
			c3.1,0,6.1,0,9.2,0c2,0,2.8-1.2,3.3-2.2c0.6-1.2,1.3-2.5,2.2-3.4c0.7-0.7,1.5-1,2.4-1c1,0,2,0.5,2.8,1.3c1.6,1.8,1.5,3.9-0.2,5.5
			c-0.1,0.1-0.2,0.2-0.3,0.3c-0.7,0.6-1.7,1.3-1.7,2.5c0,1.2,1,2,1.7,2.6c0.9,0.7,1.4,1.5,1.6,2.4c0.3,1.5-0.5,3.2-1.9,4.1
			c-0.6,0.4-1.3,0.6-2,0.6c-0.7,0-1.4-0.2-2.1-0.6c-1.2-0.8-2-1.9-2.6-3.6c-0.5-1.5-1.6-2.3-3.3-2.3l-0.1,0l0,0c-1.4,0-2.7,0-4.1,0
			l-2.6,0l-2.6,0l-2.6,0l-2.6,0c-1.4,0-2.7,0-4.1,0l-0.1,0h0c-1.6,0-2.7,0.8-3.3,2.3c-0.5,1.5-1.3,2.7-2.3,3.5
			c-0.7,0.5-1.5,0.8-2.3,0.8c-1.1,0-2.1-0.5-2.9-1.4c-1.5-1.8-1.4-3.8,0.2-5.3c0.2-0.2,0.4-0.3,0.6-0.5c0.4-0.3,1.5-1.1,1.5-2.4
			c0-1.1-0.8-1.9-1.6-2.4c-1.1-0.8-1.6-1.6-1.7-2.5c-0.3-1.7,0.3-3,1.8-4C31.3,10.8,32,10.5,32.7,10.5 M32.7,9c-1,0-1.9,0.3-2.9,1
			c-1.8,1.3-2.7,3.2-2.4,5.5c0.2,1.5,1.1,2.6,2.3,3.5c1.3,0.9,1.3,1.5,0,2.5c-0.3,0.2-0.5,0.4-0.7,0.6c-2.2,2-2.3,5-0.3,7.3
			c1.1,1.3,2.5,2,4,2c1.1,0,2.2-0.4,3.2-1.1c1.4-1.1,2.3-2.5,2.9-4.2c0.3-1,0.9-1.3,1.8-1.3c0,0,0,0,0,0c1.4,0,2.7,0,4.1,0
			c1.7,0,3.4,0,5.2,0c1.7,0,3.4,0,5.2,0c1.4,0,2.7,0,4.1,0c0,0,0,0,0,0c1,0,1.5,0.3,1.8,1.3c0.6,1.8,1.6,3.3,3.2,4.4
			c0.9,0.6,1.9,0.9,2.9,0.9c1,0,1.9-0.3,2.8-0.9c1.9-1.3,2.9-3.6,2.5-5.6c-0.3-1.4-1.1-2.4-2.1-3.3c-1.5-1.2-1.5-1.6,0-2.7
			c0.2-0.1,0.3-0.2,0.4-0.4c2.3-2.1,2.4-5.2,0.3-7.6C69.9,9.7,68.5,9,67.1,9c-1.2,0-2.4,0.5-3.5,1.5c-1.1,1-1.9,2.5-2.5,3.8
			c-0.5,0.9-0.9,1.3-1.9,1.3c0,0,0,0,0,0c-3.1,0-6.1,0-9.2,0c-3.1,0-6.1,0-9.2,0c0,0,0,0,0,0c-1,0-1.6-0.3-1.9-1.3
			c-0.6-1.8-1.6-3.5-3.4-4.5C34.5,9.3,33.6,9,32.7,9L32.7,9z"/>
	</g>
	<g>
		<path class="st2" d="M49.3,79.4c-2,0-2.8-0.8-2.8-2.8V54.1c0-2,0.8-2.7,2.8-2.7l30.9,0c2,0,2.8,0.8,2.8,2.8c0,7.5,0,14.9,0,22.4
			c0,2.1-0.8,2.8-2.8,2.8H75L49.3,79.4z M59.9,75.1l11.6,0h7.2l0-19.4l-27.8,0l0,19.4H59.9z"/>
		<path class="st3" d="M64.8,52.4c5.2,0,10.3,0,15.5,0c1.5,0,1.8,0.3,1.8,1.8c0,7.5,0,14.9,0,22.4c0,1.5-0.3,1.8-1.8,1.8
			c-2.3,0-4.6,0-7,0c-2.8,0-5.7,0-8.5,0c-2.8,0-5.6,0-8.5,0c-2.3,0-4.6,0-6.9,0c-1.4,0-1.8-0.3-1.8-1.8c0-7.5,0-15,0-22.5
			c0-1.5,0.3-1.7,1.8-1.7C54.5,52.4,59.6,52.4,64.8,52.4 M49.9,76.1c3.4,0,6.6,0,9.9,0c3.9,0,7.8,0,11.7,0c2.7,0,5.4,0,8.2,0
			c0-2.8,0-5.5,0-8.2c0-3.9,0-7.8,0-11.7c0-0.5,0-1,0-1.5c-3.3,0-6.5,0-9.7,0c-3.9,0-7.8,0-11.7,0c-2.8,0-5.6,0-8.4,0
			c0,2.9,0,5.6,0,8.3c0,3.9,0,7.8,0,11.7C49.9,75.1,49.9,75.6,49.9,76.1 M64.8,50.4l-15.4,0c-2.6,0-3.8,1.2-3.8,3.7
			c0,7.5,0,15,0,22.5c0,2.6,1.2,3.8,3.8,3.8l6.9,0l4.2,0l4.2,0l4.3,0l4.3,0l7,0c2.6,0,3.8-1.2,3.8-3.8c0-7.5,0-14.9,0-22.4
			c0-2.6-1.2-3.8-3.8-3.8L64.8,50.4L64.8,50.4z M51.9,56.7h6.4l11.7,0h7.7l0,11.2V74h-6.2l-11.7,0h-7.9l0-3.3l0-7.8V56.7L51.9,56.7z
			"/>
	</g>
	<path class="st14" d="M35.9,73.7c-0.1,1.6-0.4,1.9-1.8,1.7c-0.2-0.5-0.5-1-0.5-1.5c-0.1-0.9,0-1.7,0-2.6c0-0.7,0.4-1.3,1.2-1.3
		c0.8,0,1.1,0.5,1.1,1.3C35.9,72.2,35.9,73,35.9,73.7z"/>
	<path class="st15" d="M69.9,54.7c3.2,0,6.4,0,9.7,0c0,0.5,0,1,0,1.5c-0.2,0.1-0.4,0.3-0.5,0.4c-6.3,6.3-12.6,12.5-18.9,18.8
		c-0.2,0.2-0.3,0.4-0.5,0.6c-3.3,0-6.6,0-9.9,0c0-0.5,0-0.9,0-1.4c0.3-0.3,0.6-0.5,0.9-0.8c6-6,12-11.9,17.9-17.9
		C69.1,55.6,69.5,55.1,69.9,54.7z"/>
	<path class="st16" d="M69.9,54.7c-0.4,0.4-0.8,0.9-1.3,1.3c-6,6-12,11.9-17.9,17.9c-0.3,0.3-0.6,0.5-0.9,0.8c0-3.9,0-7.8,0-11.7
		c2.8-2.8,5.6-5.6,8.4-8.3C62.2,54.7,66.1,54.7,69.9,54.7z"/>
	<path class="st6" d="M59.8,76.1c0.2-0.2,0.3-0.4,0.5-0.6c6.3-6.3,12.6-12.5,18.9-18.8c0.2-0.2,0.3-0.3,0.5-0.4c0,3.9,0,7.8,0,11.7
		c-2.7,2.7-5.4,5.4-8.2,8.2C67.6,76,63.7,76.1,59.8,76.1z"/>
	<path class="st17" d="M58.3,54.7c-2.8,2.8-5.6,5.6-8.4,8.3c0-2.7,0-5.5,0-8.3C52.7,54.7,55.5,54.7,58.3,54.7z"/>
	<path class="st15" d="M71.5,76c2.7-2.7,5.4-5.4,8.2-8.2c0,2.7,0,5.4,0,8.2C76.9,76,74.2,76,71.5,76z"/>
	<path class="st0" d="M32.8,44.5c0-1.4,0-2.8,0-4.2c4.2,0,8.3,0,12.5,0c0,1.4,0,2.8,0,4.2C41.2,44.5,37,44.5,32.8,44.5z"/>
</g>
<g id="Layer_1">
</g>
</svg>
