<?xml version="1.0" encoding="utf-8"?>
<!-- Generator: Adobe Illustrator 26.5.0, SVG Export Plug-In . SVG Version: 6.00 Build 0)  -->
<svg version="1.1" id="Layer_1" xmlns="http://www.w3.org/2000/svg" xmlns:xlink="http://www.w3.org/1999/xlink" x="0px" y="0px"
	 viewBox="0 0 256 256" style="enable-background:new 0 0 256 256;" xml:space="preserve">
<style type="text/css">
	.st0{fill:#106D6A;}
</style>
<g transform="translate(1.4065934065934016 1.4065934065934016) scale(2.81 2.81)">
	<path class="st0" d="M45,34.8c-9.6,0-17.4-7.8-17.4-17.4S35.4,0,45,0s17.4,7.8,17.4,17.4S54.6,34.8,45,34.8z M45,7
		c-5.7,0-10.4,4.7-10.4,10.4S39.3,27.8,45,27.8s10.4-4.7,10.4-10.4S50.7,7,45,7z"/>
	<path class="st0" d="M69.4,90c-1.9,0-3.5-1.6-3.5-3.5V61.8c0-7.3-5.9-13.2-13.2-13.2H37.3c-7.3,0-13.2,5.9-13.2,13.2v24.7
		c0,1.9-1.6,3.5-3.5,3.5s-3.5-1.6-3.5-3.5V61.8c0-11.1,9.1-20.2,20.2-20.2h15.4c11.1,0,20.2,9.1,20.2,20.2v24.7
		C72.9,88.4,71.3,90,69.4,90z"/>
	<path class="st0" d="M53.5,67.7h-5v-5c0-1.9-1.6-3.5-3.5-3.5s-3.5,1.6-3.5,3.5v5h-5c-1.9,0-3.5,1.6-3.5,3.5s1.6,3.5,3.5,3.5h5v5
		c0,1.9,1.6,3.5,3.5,3.5s3.5-1.6,3.5-3.5v-5h5c1.9,0,3.5-1.6,3.5-3.5S55.5,67.7,53.5,67.7z"/>
</g>
</svg>
