<?xml version="1.0" encoding="utf-8"?>
<!-- Generator: Adobe Illustrator 26.5.0, SVG Export Plug-In . SVG Version: 6.00 Build 0)  -->
<svg version="1.1" xmlns="http://www.w3.org/2000/svg" xmlns:xlink="http://www.w3.org/1999/xlink" x="0px" y="0px"
	 viewBox="0 0 100 100" style="enable-background:new 0 0 100 100;" xml:space="preserve">
<style type="text/css">
	.st0{fill:#05CCC0;}
	.st1{fill:#F3F5F8;}
	.st2{fill:#106D6A;}
	.st3{fill:#FFFFFF;}
	.st4{fill:#FDFDFD;}
	.st5{fill:#E7E9EC;}
	.st6{fill:#FCFCFC;}
	.st7{fill:#F8F8F8;}
</style>
<g id="Layer_2">
	<g id="Layer_2_00000124147986899870748040000009013127560201801124_">
		<path class="st0" d="M50,11.9c10.3-0.2,19.2,3.7,26.9,10.3c12.8,11,19.4,25.3,22.5,41.7c1.1,6.2,0.2,11.8-3.7,16.9
			c-3.9,5.1-9.8,7.1-15.8,5c-11.7-4.1-23.7-5.7-35.8-5c-7.9,0.5-15.8,1.8-23.1,4.8c-9,3.7-18.1-3-20.4-11.9c-1.3-5-0.3-9.8,0.9-14.7
			c3.1-13,8.8-24.6,18.4-34.1c7-7,15.4-11.4,25.2-12.9C46.6,11.7,48.3,11.9,50,11.9z"/>
	</g>
	<path class="st1" d="M35.4,47.8"/>
</g>
<g id="Layer_3">
</g>
<g id="Layer_1">
	<g>
		<path class="st2" d="M76.3,96.3l-61,0c-0.2,0-0.5,0-0.7,0c-1.8-0.1-3-1.4-3.1-3.2c0-1.8,1.3-3.2,3.1-3.3c0.3,0,0.6,0,0.9,0l1.1,0
			h1l-0.2-1.1c-0.3-1.6-0.5-3.1-0.8-4.6l-2.2-12.4c-1.5-8.2-3-16.5-4.5-24.7c-0.1-0.8-0.2-0.8-0.7-1c-2.4-0.7-4-2.5-4.4-5.1
			c-0.4-2.7,0.5-4.9,2.7-6.5c3.5-2.6,7.1-5.2,10.7-7.7L48.4,4.7C49.4,4,50.1,3.6,51,3.6c0.9,0,1.7,0.4,2.6,1.1
			c3.7,2.7,7.5,5.4,11.2,8.1c9.6,7,19.6,14.2,29.4,21.2c2.2,1.5,3.3,3.9,3.2,6.3c-0.2,2.3-1.5,4.3-3.5,5.3c0,0-0.3,0.2-0.6,0.2
			c-0.8,0.1-1,0.4-1.2,1.8l0,0.2c-1.9,10.6-3.8,21.1-5.7,31.7c0,0-1.8,10.2-1.9,10.4l1.2,0c0.5,0,1,0,1.4,0c2.1,0,3.5,1.4,3.5,3.3
			c0,1.9-1.4,3.2-3.4,3.2c-1.6,0-3.1,0-4.7,0L76.3,96.3z M77.8,89.8l0.8-4.7H68v4.7H77.8z M34.1,89.7v-4.7H23.4l0.8,4.7H34.1z
			 M61.3,89.7c0-1.3,0-2.7,0-4c0-3.7,0-7.5,0-11.2c-0.1-5.2-4.3-9.5-9.4-9.9c-0.3,0-0.5,0-0.8,0c-5,0-9.1,3.4-10.1,8.3l0,0.2
			c-0.1,0.3-0.1,0.5-0.1,0.8c0,4.6,0,9.1,0,13.7v2.2H61.3z M21.4,74.3c0.3,1.5,0.5,2.8,0.8,4.2c1.7,0,3.4,0,5.1,0l6.8,0v-4.8H21.3
			L21.4,74.3z M71.6,78.5c2.8,0,5.5,0,8.3,0c0.3-1.5,0.6-3,0.8-4.5l0-0.2H67.9v4.7L71.6,78.5z M51,58.1c6.4,0,11.4,2.9,14.8,8.7
			c0.2,0.3,0.2,0.3,0.5,0.3c1.5,0,2.9,0,4.4,0l5,0h6.3l1.1-5.9c0.9-5.1,1.9-10.5,2.9-15.7c0.1-0.8,0.1-0.9-0.6-1.4
			c-6.8-4.8-13.6-9.6-20.4-14.4L51,19.9l-0.3,0.2L44,24.9c-9.2,6.5-18.3,13-27.5,19.4c-0.5,0.3-0.5,0.4-0.4,0.9
			c0.7,3.5,1.3,7.1,2,10.6l0.8,4.3c0.3,1.7,1.3,6.9,1.3,6.9l1.8,0l4.7,0c3.1,0,6.2,0,9.4,0c0.1,0,0.2-0.1,0.2-0.2
			c3.4-5.8,8.3-8.7,14.7-8.8H51z M11.4,39.8c0.3-0.2,0.6-0.3,0.8-0.5c8.3-5.9,35.9-25.4,35.9-25.4c1.2-0.8,2-1.4,2.9-1.4
			c0.9,0,1.7,0.5,2.9,1.3l35.9,25.4c0.1,0.1,0.2,0.2,0.3,0.3c0,0,0.1,0,0.1,0.1c0.2,0,0.4,0,0.6-0.1c0,0-0.1,0-0.1-0.1
			c-0.1-0.1-0.2-0.1-0.3-0.2l-6.3-4.6c-11-7.9-21.9-15.8-32.9-23.8c-0.1-0.1-0.2-0.1-0.2-0.1c0,0-0.1,0.1-0.2,0.2
			c-10,7.2-20,14.4-29.9,21.7l-7.5,5.4c-0.2,0.1-0.4,0.3-0.6,0.4c-0.5,0.4-1,0.7-1.4,1.1c0,0,0,0.1-0.1,0.1
			C11.3,39.8,11.4,39.8,11.4,39.8z"/>
		<path class="st3" d="M51,4.6c0.6,0,1.1,0.3,2,0.9c13.5,9.8,27,19.6,40.6,29.3c4,2.8,3.5,8.1-0.2,10c-0.1,0-0.1,0.1-0.2,0.1
			c-1.8,0.1-1.9,1.4-2.1,2.8c-2.5,13.9-5,27.7-7.5,41.6c-0.1,0.5-0.2,1-0.3,1.6c0.8,0,1.6,0,2.4,0c0.5,0,1,0,1.4,0
			c1.5,0,2.5,0.9,2.5,2.3c0,1.3-0.9,2.2-2.4,2.2c-1.6,0-3.1,0-4.7,0c-2,0-4.1,0-6.1,0c-5.4,0-10.8,0-16.2,0c-14.8,0-29.6,0-44.3,0
			c-0.2,0-0.3,0-0.5,0c-0.2,0-0.4,0-0.7,0c-1.3-0.1-2.1-1-2.1-2.2c0-1.2,0.9-2.2,2.2-2.3c0.3,0,0.6,0,0.8,0c0.4,0,0.8,0,1.2,0
			c0,0,0,0,0,0c0.3,0,0.5,0,0.8,0c0.4,0,0.9,0,1.3,0c-0.4-2.4-0.8-4.7-1.2-6.9c-2.2-12.4-4.5-24.7-6.7-37.1
			c-0.2-0.8-0.3-1.5-1.4-1.8c-2.1-0.6-3.4-2.2-3.7-4.3c-0.4-2.3,0.4-4.2,2.3-5.6c5.1-3.7,10.2-7.3,15.2-11
			C31.9,17.9,40.4,11.7,49,5.5C49.9,4.9,50.4,4.6,51,4.6 M11.3,41.1c0.6-0.3,1-0.6,1.5-0.9c12-8.5,23.9-16.9,35.9-25.4
			c1.1-0.8,1.7-1.2,2.4-1.2c0.6,0,1.2,0.4,2.3,1.2c12,8.5,23.9,17,35.9,25.4c0.3,0.2,0.5,0.5,0.8,0.5c0,0,0,0,0,0
			c0.5,0,1.2,0,1.6-0.4c0.5-0.5,0.3-1.1-0.3-1.5c-0.2-0.1-0.3-0.3-0.5-0.4c-13-9.4-26-18.8-39-28.2C51.5,10,51.3,9.9,51,9.9
			c-0.3,0-0.5,0.1-0.8,0.4c-12.5,9-25,18.1-37.4,27.1c-0.7,0.5-1.5,1-2.1,1.6c-0.3,0.3-0.5,0.9-0.3,1.2
			C10.4,40.4,10.9,40.7,11.3,41.1 M26.7,68.1c3.1,0,6.2,0,9.3,0c0.3,0,0.8-0.4,1-0.7c3.1-5.3,7.7-8.3,13.9-8.3c0,0,0.1,0,0.1,0
			c6.2,0,10.8,2.9,13.9,8.2c0.3,0.6,0.7,0.8,1.4,0.8c0,0,0,0,0,0c1.5,0,2.9,0,4.4,0c1.6,0,3.3,0,4.9,0c2.3,0,4.7,0,7,0
			c0.1-0.3,0.2-0.5,0.2-0.8c1.3-7.2,2.6-14.4,3.9-21.6c0.2-1.2,0-1.7-1-2.4C77,37.1,68.3,30.9,59.5,24.7c-2.8-2-5.7-4-8.5-6
			c-0.3,0.2-0.6,0.4-0.9,0.6c-11.4,8.1-22.8,16.2-34.2,24.2c-0.8,0.5-1,1-0.8,1.9c0.9,5,1.8,10,2.7,14.9c0.5,2.6,0.9,5.1,1.4,7.7
			c0.2,0,0.3,0.1,0.4,0.1C22,68.1,24.4,68.1,26.7,68.1 M39.7,90.7c7.5,0,15.1,0,22.6,0c0-5.5,0.1-10.9,0-16.2
			c-0.1-5.7-4.7-10.4-10.4-10.9c-0.3,0-0.6,0-0.9,0c-5.4,0-10,3.7-11.1,9.1c-0.1,0.4-0.2,0.8-0.2,1.2C39.7,79.5,39.7,85.1,39.7,90.7
			 M22.2,79.5C22.2,79.5,22.2,79.5,22.2,79.5c1.8,0,3.5,0,5.3,0c1.8,0,3.5,0,5.3,0c0.8,0,1.5,0,2.4,0c0-2.3,0-4.5,0-6.8
			c-5,0-9.9,0-15,0c0.4,2,0.8,4,1.1,6C21.3,79.4,21.6,79.5,22.2,79.5 M81.9,72.7c-5.1,0-10.1,0-15,0c0,2.3,0,4.4,0,6.7
			c1.6,0,3.1,0,4.7,0c2.9,0,5.7,0,8.5,0c0.2,0,0.6-0.2,0.7-0.4C81.2,77,81.5,74.9,81.9,72.7 M23.4,90.7c4,0,7.8,0,11.7,0
			c0-2.3,0-4.5,0-6.7c-4.3,0-8.6,0-12.9,0C22.6,86.3,23,88.6,23.4,90.7 M79.8,84.1c-4.4,0-8.6,0-12.9,0c0,2.3,0,4.4,0,6.7
			c3.9,0,7.8,0,11.7,0C79,88.5,79.4,86.3,79.8,84.1 M51,2.6L51,2.6c-1.3,0-2.3,0.7-3.2,1.3c-8.6,6.2-17.2,12.4-25.7,18.6l-4.6,3.3
			c-3.5,2.6-7.1,5.1-10.6,7.7C4.4,35.3,3.2,38,3.7,41c0.5,3,2.3,5.1,5.1,5.9c0,0.1,0,0.2,0,0.2c1.5,8.2,3,16.5,4.5,24.7l2.2,12.4
			c0.3,1.5,0.5,3,0.8,4.6c-0.1,0-0.2,0-0.3,0c-0.2,0-0.4,0-0.6,0c-0.3,0-0.6,0-1,0c-2.3,0.1-4.1,2-4,4.3c0,2.2,1.7,4,4,4.2
			c0.3,0,0.5,0,0.8,0l0.3,0l0.2,0l44.3,0l16.2,0l3.1,0l3.1,0c1.6,0,3.2,0,4.7,0c2.6,0,4.4-1.7,4.4-4.2c0-2.5-1.9-4.3-4.5-4.3
			c-0.5,0-1,0-1.4,0l1.7-9.1C89.2,69.1,91.1,58.5,93,48l0-0.2c0.1-0.3,0.1-0.7,0.2-1c0,0,0.1,0,0.1,0c0.5,0,0.9-0.3,1-0.4
			c2.3-1.2,3.7-3.5,3.9-6.1c0.2-2.8-1.2-5.5-3.6-7.2C84.9,26.1,75,18.9,65.4,12c-3.7-2.7-7.5-5.4-11.2-8.1C53.1,3.1,52.2,2.6,51,2.6
			L51,2.6z M17.1,45.1c9.2-6.4,18.4-13,27.4-19.4l6.5-4.6l1.5,1l5.8,4.1l6.1,4.3c6.6,4.7,13.5,9.6,20.3,14.3
			c0.1,0.1,0.2,0.1,0.2,0.2c0,0.1,0,0.1,0,0.2c-1,5.3-2,10.6-2.9,15.8c-0.3,1.7-0.6,3.3-0.9,5h-5.4l-2.5,0l-2.5,0
			c-1.4,0-2.8,0-4.2,0c-3.5-5.9-8.9-9-15.5-9l-0.1,0c-6.7,0-11.9,3.1-15.4,9c-2.5,0-5.3,0-8.8,0l-4.7,0l-1.1,0l-0.2-0.8
			c-0.3-1.8-0.7-3.5-1-5.3c-0.3-1.4-0.5-2.9-0.8-4.3C18.4,52.2,17.8,48.6,17.1,45.1L17.1,45.1z M41.7,88.7l0-1.3c0-4.6,0-9.1,0-13.6
			c0-0.1,0-0.4,0.1-0.6l0-0.2c0.9-4.4,4.7-7.5,9.1-7.5c0.2,0,0.5,0,0.7,0c4.7,0.4,8.4,4.3,8.5,8.9c0.1,3.7,0.1,7.5,0,11.2
			c0,1,0,2,0,3H41.7L41.7,88.7z M22.5,74.7h10.6v2.8h-0.4l-2.6,0l-2.7,0c-1.5,0-2.9,0-4.4,0C22.9,76.6,22.7,75.6,22.5,74.7
			L22.5,74.7z M68.9,74.7h10.6c-0.2,0.9-0.3,1.8-0.5,2.7c-2.5,0-4.9,0-7.4,0l-2.3,0l-0.4,0V74.7L68.9,74.7z M24.6,86.1h8.5v2.7h-8
			l-0.5-2.6L24.6,86.1L24.6,86.1z M69,86.1h8.5L77,88.8h-8V86.1L69,86.1z"/>
	</g>
	<path class="st1" d="M82.7,68.1c-2.3,0-4.7,0-7,0c-3.1,0-6.2,0-9.4,0c-0.7,0-1-0.2-1.4-0.8c-3.1-5.4-7.8-8.3-14-8.2
		c-6.2,0-10.8,3-13.9,8.3c-0.2,0.3-0.6,0.7-1,0.7c-5.5,0-10.9,0-16.4,0c-0.1,0-0.2,0-0.4-0.1c-0.5-2.6-0.9-5.1-1.4-7.7
		c-0.9-5-1.8-10-2.7-14.9c-0.2-0.9,0-1.4,0.8-1.9c11.4-8.1,22.8-16.1,34.2-24.2c0.3-0.2,0.5-0.4,0.9-0.6c2.8,2,5.6,4,8.5,6
		c8.8,6.2,17.6,12.5,26.4,18.6c0.9,0.7,1.2,1.2,1,2.4c-1.4,7.2-2.6,14.4-3.9,21.6C82.9,67.6,82.8,67.8,82.7,68.1z M73.7,42
		c-0.1,0-0.1-0.1-0.2-0.1c-0.1-0.6-0.1-1.3-0.3-1.9c-0.8-3-4.9-5.1-8.2-4.5c-2.7,0.5-4.5,2.3-5.9,4.5c-0.3,0.5-0.7,0.7-1.3,0.7
		c-4.4,0-8.7,0-13.1,0c-1,0-1.6-0.3-2.1-1.1c-2.1-3.4-5.2-4.8-8.6-4c-4.1,1-6,3.6-5.4,7.7c0.2,1.2,0.6,2.3,1.1,3.4
		c0.3,0.6,0.3,1.1,0,1.8c-0.5,1.1-0.9,2.2-1.1,3.4c-0.8,4.5,1.7,7.1,6.2,7.8c3.7,0.6,6.1-1.6,8-4.5c0.3-0.5,0.7-0.8,1.3-0.8
		c4.5,0,9,0,13.5,0c0.7,0,1,0.2,1.4,0.8c0.5,0.8,1.1,1.6,1.8,2.3c3,2.9,7.5,3,10.6,0.2c1.1-0.9,1.6-2.1,1.8-3.5c0.2-2.1-0.4-4-1.2-6
		c-0.2-0.4-0.1-1,0-1.4C72.6,45.3,73.2,43.7,73.7,42z M51.1,25c-3.8,0-6.8,3-6.8,6.8c0,3.8,3.1,6.8,6.8,6.8c3.7,0,6.8-3.1,6.8-6.8
		C57.9,28.1,54.8,25,51.1,25z"/>
	<path class="st4" d="M39.7,90.7c0-5.6,0-11.3,0-16.9c0-0.4,0.1-0.8,0.2-1.2c1.2-5.7,6.3-9.5,12-9.1c5.7,0.4,10.3,5.1,10.4,10.9
		c0.1,5.4,0,10.8,0,16.2C54.8,90.7,47.3,90.7,39.7,90.7z M44.2,81.7c1.3,0,2.3-1,2.3-2.3c0-1.2-1-2.2-2.3-2.2c-1.3,0-2.3,1-2.3,2.3
		C42,80.7,43,81.7,44.2,81.7z"/>
	<path class="st1" d="M11.3,41.1c-0.4-0.4-0.9-0.6-1.1-1c-0.1-0.3,0.1-0.9,0.3-1.2c0.6-0.6,1.4-1.1,2.1-1.6c12.5-9,25-18,37.4-27.1
		c0.6-0.4,1-0.5,1.6,0c13,9.4,26,18.8,39,28.2c0.2,0.1,0.4,0.2,0.5,0.4c0.5,0.4,0.8,1.1,0.3,1.5c-0.4,0.3-1,0.3-1.6,0.4
		c-0.3,0-0.5-0.3-0.8-0.5c-12-8.5-23.9-17-35.9-25.4c-2.2-1.6-2.5-1.6-4.7,0c-12,8.5-23.9,17-35.9,25.4
		C12.4,40.5,11.9,40.7,11.3,41.1z"/>
	<path class="st5" d="M35.1,72.7c0,2.3,0,4.5,0,6.8c-0.9,0-1.7,0-2.4,0c-3.5,0-7,0-10.5,0c-0.6,0-0.9-0.1-1-0.8c-0.3-2-0.7-4-1.1-6
		C25.2,72.7,30.2,72.7,35.1,72.7z"/>
	<path class="st5" d="M66.9,79.5c0-2.3,0-4.5,0-6.7c4.9,0,9.9,0,15,0c-0.4,2.1-0.7,4.2-1.2,6.3c0,0.2-0.4,0.4-0.7,0.4
		C75.7,79.5,71.4,79.5,66.9,79.5z"/>
	<path class="st1" d="M23.4,90.7c-0.4-2.2-0.8-4.4-1.2-6.7c4.3,0,8.6,0,12.9,0c0,2.2,0,4.4,0,6.7C31.2,90.7,27.4,90.7,23.4,90.7z"/>
	<path class="st1" d="M79.8,84.1c-0.4,2.3-0.8,4.4-1.2,6.7c-3.9,0-7.8,0-11.7,0c0-2.2,0-4.4,0-6.7C71.2,84.1,75.5,84.1,79.8,84.1z"
		/>
	<path class="st0" d="M73.7,42c-0.5,1.6-1.1,3.3-1.6,4.9c-0.1,0.4-0.2,1,0,1.4c0.8,1.9,1.4,3.8,1.2,6c-0.2,1.4-0.7,2.6-1.8,3.5
		c-3.1,2.7-7.6,2.7-10.6-0.2c-0.7-0.7-1.3-1.5-1.8-2.3c-0.4-0.6-0.7-0.8-1.4-0.8c-4.5,0-9,0-13.5,0c-0.7,0-1,0.2-1.3,0.8
		c-1.9,2.9-4.3,5.1-8,4.5c-4.5-0.7-7-3.3-6.2-7.8c0.2-1.2,0.6-2.3,1.1-3.4c0.3-0.6,0.3-1.1,0-1.8c-0.5-1.1-0.9-2.2-1.1-3.4
		c-0.6-4.1,1.2-6.7,5.4-7.7c3.4-0.8,6.5,0.6,8.6,4c0.5,0.9,1.1,1.1,2.1,1.1c4.4-0.1,8.7,0,13.1,0c0.6,0,0.9-0.2,1.3-0.7
		c1.4-2.2,3.1-4,5.9-4.5c3.4-0.7,7.4,1.5,8.2,4.5c0.2,0.6,0.2,1.3,0.3,1.9C73.6,42,73.7,42,73.7,42z M51,50c2.9,0,5.8,0,8.7,0
		c1.3,0,2.1,0.5,2.6,1.7c0.4,0.9,0.9,1.7,1.5,2.4c1.1,1.2,2.4,1.4,4,0.8c0.9-0.4,1.4-1,1.1-1.9c-0.4-1.2-0.7-2.5-1.4-3.6
		c-0.7-1.2-0.6-2.2,0-3.5c0.6-1.1,1-2.4,1.3-3.7c0.1-0.5-0.3-1.3-0.7-1.6c-1.2-0.9-3-0.8-4,0.3c-0.7,0.7-1.3,1.6-1.7,2.5
		c-0.6,1.4-1.5,2-3,2c-5.5,0-11.1-0.1-16.6,0c-1.7,0-2.8-0.5-3.3-2.1c-0.4-1.3-1.3-2.4-2.6-2.9c-1.2-0.5-2.4-0.3-3.4,0.5
		c-0.8,0.7-0.4,1.7-0.1,2.6c0.3,0.9,0.7,1.8,1.2,2.6c0.7,1.1,0.6,2,0,3.2c-0.6,1.2-1.1,2.5-1.4,3.8c-0.2,0.9,0.2,1.5,1.1,1.8
		c1.5,0.6,2.9,0.4,4-0.8c0.6-0.7,1.1-1.5,1.5-2.3c0.7-1.5,1.2-1.9,2.8-1.9C45.3,50,48.2,50,51,50z"/>
	<path class="st0" d="M51.1,25c3.8,0,6.8,3.1,6.8,6.8c0,3.7-3.1,6.7-6.8,6.8c-3.7,0-6.8-3.1-6.8-6.8C44.2,28,47.3,25,51.1,25z
		 M51,34c1.2,0,2.2-1,2.3-2.2c0-1.2-1-2.3-2.3-2.3c-1.3,0-2.3,1.1-2.3,2.3C48.8,33.1,49.8,34,51,34z"/>
	<path class="st0" d="M44.2,81.7c-1.2,0-2.2-1-2.2-2.2c0-1.2,1.1-2.3,2.3-2.3c1.2,0,2.2,1,2.3,2.2C46.5,80.7,45.5,81.7,44.2,81.7z"
		/>
	<path class="st6" d="M51,50c-2.8,0-5.7,0-8.5,0c-1.7,0-2.1,0.4-2.8,1.9c-0.4,0.8-0.9,1.6-1.5,2.3c-1.1,1.2-2.5,1.4-4,0.8
		c-0.8-0.3-1.3-0.9-1.1-1.8c0.4-1.3,0.8-2.6,1.4-3.8c0.6-1.1,0.6-2.1,0-3.2c-0.5-0.8-0.9-1.7-1.2-2.6c-0.3-0.9-0.7-1.9,0.1-2.6
		c1-0.8,2.2-1,3.4-0.5c1.4,0.5,2.2,1.6,2.6,2.9c0.6,1.6,1.7,2.2,3.3,2.1c5.5-0.1,11.1,0,16.6,0c1.5,0,2.4-0.5,3-2
		c0.4-0.9,1-1.8,1.7-2.5c1-1,2.9-1.2,4-0.3c0.4,0.3,0.8,1.1,0.7,1.6c-0.3,1.3-0.7,2.5-1.3,3.7c-0.7,1.2-0.7,2.2,0,3.5
		c0.6,1.1,1,2.4,1.4,3.6c0.3,0.9-0.2,1.5-1.1,1.9c-1.5,0.6-2.9,0.4-4-0.8c-0.6-0.7-1.1-1.6-1.5-2.4c-0.5-1.2-1.3-1.7-2.6-1.7
		C56.8,50,53.9,50,51,50z"/>
	<path class="st7" d="M51,34c-1.2,0-2.2-1-2.3-2.2c0-1.2,1-2.3,2.3-2.3c1.3,0,2.3,1.1,2.3,2.3C53.3,33.1,52.2,34.1,51,34z"/>
</g>
</svg>
