<?xml version="1.0" encoding="utf-8"?>
<!-- Generator: Adobe Illustrator 26.5.0, SVG Export Plug-In . SVG Version: 6.00 Build 0)  -->
<svg version="1.1" xmlns="http://www.w3.org/2000/svg" xmlns:xlink="http://www.w3.org/1999/xlink" x="0px" y="0px"
	 viewBox="0 0 100 100" style="enable-background:new 0 0 100 100;" xml:space="preserve">
<style type="text/css">
	.st0{fill:#05CCC0;}
	.st1{fill:#106D6A;}
	.st2{fill:#FFFFFF;}
	.st3{fill:#FBFBFB;}
	.st4{fill:#F5F4F5;}
	.st5{fill:#FCFCFC;}
	.st6{fill:#E0DDE1;}
	.st7{fill:#FDFDFD;}
</style>
<g id="Layer_2">
	<g id="Layer_2_00000124147986899870748040000009013127560201801124_">
		<path class="st0" d="M50,11.9c10.3-0.2,19.2,3.7,26.9,10.3c12.8,11,19.4,25.3,22.5,41.7c1.1,6.2,0.2,11.8-3.7,16.9
			c-3.9,5.1-9.8,7.1-15.8,5c-11.7-4.1-23.7-5.7-35.9-5c-7.9,0.5-15.8,1.8-23.1,4.8c-9,3.7-18.1-3-20.4-11.9c-1.3-5-0.3-9.8,0.9-14.7
			c3.1-13,8.8-24.6,18.4-34.1c7-7,15.4-11.4,25.2-12.9C46.6,11.7,48.3,11.9,50,11.9z"/>
	</g>
</g>
<g id="Layer_1">
	<g id="Layer_3">
	</g>
	<g>
		<path class="st1" d="M20.7,97.6c-6.2,0-11.1-3.8-12.6-9.6c-0.8-2.9-1.7-5.9-2.6-8.8c-0.4-1.2-0.8-2.4-1.1-3.7
			c-0.7-2.4-0.3-4.8,1-6.7C6.8,67,9,66,11.4,66c2.7,0,5.3,0,8,0l6.9,0c1.9,0,3.9,0,5.8,0h0c0.1,0,0.2,0,0.2,0c0,0,0-0.1,0-0.2
			c0.6-2.5,1.5-5,2.9-7.4c-1.9-1.6-3-3.8-3.2-6.4c-0.5-0.1-1-0.2-1.5-0.3c-4.9-1.4-7.3-5.5-6-10.4c1.5-5.8,4.3-10.6,8.5-14
			c2.6-2.2,5.5-3.3,8.4-3.3c1.8,0,3.6,0.4,5.4,1.2c0,0,0.1,0,0.3-0.1c1.4-0.3,2.7-0.7,3.9-1c0.2-0.1,0.5-0.2,0.6-0.3
			c0.5-0.5,1-0.9,1.5-1.4c0.4-0.4,0.7-0.7,1.1-1.1c0.6-0.6,1.3-0.9,2-0.9c0.7,0,1.3,0.3,1.8,0.8c1,1.1,0.9,2.6-0.2,3.7
			c-0.1,0.1-0.2,0.2-0.3,0.3l2.3,1.3c0.8-0.5,1.4-0.7,2-0.7c0.6,0,1.1,0.2,1.6,0.8c1.2,1.3,0.7,2.6,0.1,3.4l1.5,2
			c0.1-0.1,0.2-0.2,0.3-0.3c0.5-0.4,1-0.6,1.6-0.6c0.7,0,1.4,0.3,1.8,0.8c0.9,1,0.9,2.2,0.1,3.3c-0.2,0.3-0.5,0.5-0.7,0.7
			c0,0-0.4,0.4-0.5,0.5c0.1,0.4,0.3,0.9,0.4,1.3c0.5,1.3,0.9,2.7,1.2,4.2c0.5,2.6,0,4.9-1.2,6.6c-1.3,1.8-3.4,3-6.1,3.5l-0.3,0
			c-0.1,2.3-1,4.3-2.6,5.9c1.8,2.1,3.2,4.6,4.3,8c3.1,0,6.2,0,9.2,0l6.1,0v-6.4c0-10,0-20,0-30.1c0-0.4-0.1-0.6-0.4-0.9
			c-3.8-3.8-7.7-7.7-11.5-11.5l-4-4c-0.6-0.6-1.3-1.4-1.3-2.4c0-1,0.8-1.7,1.4-2.3c2.3-2,5.2-3.1,8.3-3.1c2.4,0,4.7,0.7,6.7,2
			l0.1,0.1c0.3-0.4,0.7-0.7,1-1.1c0.8-0.8,1.6-1,2.1-1c0.6,0,1.2,0.3,1.7,0.7c1.1,1,1,2.6-0.1,3.8c-0.3,0.3-0.6,0.6-0.9,0.9
			c-0.1,0.1-0.1,0.1-0.2,0.2c2.8,4.7,2.9,9.4,0.1,14c1.7,1.6,2,3.6,1.9,5.4c-0.1,8.8-0.1,17.8,0,26.5l0,9.2l3.6,0c0.7,0,1.4,0,2.1,0
			c2.2,0.1,4.2,1.2,5.5,3c1.2,1.7,1.6,3.9,1.1,6c-1.4,5-2.9,9.9-4.4,14.5c-1.5,4.6-5.7,7.8-10.6,8c-0.5,0-1,0-1.5,0H79
			c-5.4,0-10.7,0-16.1,0c-5.4,0-10.7,0-16.1,0C36.7,97.5,28.4,97.5,20.7,97.6L20.7,97.6z M11.5,81.4c0.5,1.7,1.1,3.5,1.5,5.3
			c0.9,3.6,3.7,5.7,7.6,5.7c9.3,0,18.5-0.1,27.7-0.1l31.6,0c0.3,0,0.5,0,0.8,0c2.9-0.2,4.9-1.6,5.9-4.2c0.8-2,1.4-4.1,2-6.3
			c0.1-0.5,0.3-1,0.5-1.6H11.2C11.3,80.7,11.4,81.1,11.5,81.4z M37.1,75.3c0.4,0,0.8,0,1.2,0c0,0,0.1,0,0.1,0c0-0.1,0-0.1,0-0.2
			c0.3-2.6,0.9-4.9,2-7c0.3-0.5,1.1-2.1,2.6-2.1c0.4,0,0.7,0.1,1.1,0.3c0.9,0.4,2.1,1.5,0.9,4.1c-0.7,1.6-1.2,3.2-1.5,4.9h8
			c-0.5-1.8-1-3.8-1.6-5.8c-0.4-1.4,0.1-2.7,1.3-3.3c0.3-0.2,0.7-0.2,1.1-0.2c1,0,1.9,0.6,2.3,1.6c0.2,0.5,0.5,1.1,0.7,1.7
			c0.4,1.7,0.8,3.3,1.2,5l0.2,1h2.8c-0.1-3.5-0.6-6.3-1.6-8.9c-0.6-1.7-1.6-3.8-3.2-5.4c-0.4-0.4-0.7-0.5-0.7-0.5
			c-0.2,0-0.5,0-0.8,0c-2.5,0-4.6-0.9-6.4-2.6c-2.4,2.1-3.2,2.3-6.8,2.5c-2.5,4.2-3.7,9-3.7,14.9C36.6,75.3,36.9,75.3,37.1,75.3z
			 M12.7,71.1c-0.6,0-1.1,0-1.7,0c-1,0-1.8,0.8-1.9,1.8c-0.1,1,0.4,1.9,1.3,2.2c0.3,0.1,0.7,0.2,1.2,0.2c3.7,0,7.4,0,11.1,0l8.5,0
			l0.2-4.2l-16.9,0L12.7,71.1z M84.9,75.3c0.7,0,1.3,0,2,0c1,0,1.8,0,2.6-0.1c1.1-0.1,1.7-1.1,1.7-2c0-1-0.7-2-1.5-2
			c-0.8,0-1.6-0.1-2.7-0.1c-0.7,0-1.3,0-2,0c-0.4,0-0.7,0-1.1,0v4.1C84.2,75.2,84.5,75.2,84.9,75.3z M78.6,75.2v-4.1H64.4l0.3,4.1
			H78.6z M36.8,41.1c0.6,0,1.1,0.2,1.6,0.6c0.6,0.4,0.9,1.1,1,1.7c0.1,0.7-0.1,1.3-0.6,1.9c-1.3,1.6-1.8,3.6-1.6,6.7
			c0.1,1.7,1.3,3,3,3.3c0.2,0,0.4,0.1,0.6,0.1c1.3,0,2.6-0.8,3.2-2c0.3-0.7,0.2-0.7,0-0.9c-0.4-0.3-0.6-0.7-0.9-1
			c-0.6-0.9-0.7-1.9-0.3-2.8c0.4-0.9,1.2-1.4,2.2-1.5c0.6,0,1.3-0.1,1.9-0.1c0.6,0,1.3,0,1.9,0.1c1,0.1,1.8,0.6,2.2,1.5
			c0.4,0.9,0.3,1.9-0.3,2.8c-0.3,0.4-0.6,0.8-1,1.2c-0.1,0.1-0.2,0.2,0,0.6c0.6,1.4,1.9,2.3,3.3,2.3c1.6,0,2.9-1,3.3-2.3
			c0.6-2,0.6-5.8-1.6-7.3c-1.1-0.7-1.4-2-0.8-3c0.3-0.6,1.1-1.4,2-1.5c0.1,0,0.2,0,0.3,0c0.9,0,1.6,0.5,1.9,0.8
			c1.6,1.2,2.7,2.9,3.2,5c1-0.2,2-0.6,2.6-1.4c0.6-0.8,0.6-2,0.2-3.5c-1.2-4-3.1-7.4-5.9-10c-0.8-0.8-1.8-1.5-2.9-2
			c-1.1-0.6-2.3-0.9-3.3-0.9c-0.9,0-1.7,0.2-2.5,0.7c-0.9,0.5-1.8,0.8-2.6,0.8c-0.8,0-1.6-0.2-2.7-0.8c-0.9-0.5-1.8-0.7-2.7-0.7
			c-1.5,0-3.1,0.6-4.7,1.9c-3.6,2.7-6,6.6-7.2,11.6c-0.2,0.9-0.4,2.2,0.4,3.2c0.5,0.7,1.4,1.1,2.5,1.3c0.5-1.9,1.3-3.5,2.4-4.8
			C35.3,41.5,36.1,41.1,36.8,41.1z M78.2,21c1.2-2.4,0.7-5.9-1.2-8.1c-1.5-1.6-3.5-2.5-5.6-2.5c-1.1,0-2.1,0.2-3.1,0.7L78.2,21z"/>
		<path class="st2" d="M81.3,6.3c0.4,0,0.7,0.1,1,0.4c0.7,0.7,0.6,1.6-0.2,2.4c-0.3,0.3-0.5,0.6-0.8,0.8c-0.3,0.2-0.5,0.5-0.8,0.7
			c3.2,4.8,3.3,9.6,0.1,14.4c0.1,0.1,0.1,0.2,0.2,0.3c1.7,1.3,2,3,2,5c-0.1,11.8,0,23.6,0,35.4c0,0.4,0,0.8,0,1.3c0.5,0,1,0,1.4,0
			c0.3,0,0.6,0,0.8,0c0.1,0,0.2,0,0.3,0c0.7,0,1.3,0,2,0c0.7,0,1.4,0,2,0c3.9,0.2,6.7,3.9,5.6,7.7c-1.4,4.9-2.8,9.7-4.3,14.5
			c-1.4,4.2-5.3,7.1-9.7,7.3c-0.5,0-1,0-1.5,0c-0.2,0-0.4,0-0.7,0c-10.6,0-21.3,0-31.9,0c-8.7,0-17.4,0-26.2,0.1c0,0-0.1,0-0.1,0
			c-5.9,0-10.3-3.6-11.6-8.8C8,83.5,6.6,79.4,5.3,75.3C4,70.8,7,67,11.4,67c0,0,0,0,0.1,0c2.6,0,5.3,0,7.9,0c2.3,0,4.6,0,6.9,0
			c1.9,0,3.9,0,5.8,0c0,0,0,0,0,0c0.7,0,1.1-0.2,1.2-0.9c0.6-2.8,1.7-5.4,3.2-7.8c-2.4-1.7-3.5-4-3.5-6.9c-0.8-0.2-1.5-0.3-2.2-0.5
			c-4.4-1.2-6.5-4.7-5.3-9.2c1.3-5.3,3.9-10,8.2-13.5c2.4-2,5-3.1,7.7-3.1c1.6,0,3.2,0.4,5,1.1c0.1,0,0.2,0.1,0.4,0.1
			c0.2,0,0.4,0,0.6-0.1c1.3-0.3,2.6-0.7,3.9-1c0.4-0.1,0.7-0.3,1-0.5c0.9-0.8,1.7-1.7,2.6-2.5c0.4-0.4,0.9-0.6,1.3-0.6
			c0.4,0,0.8,0.2,1.1,0.5c0.6,0.7,0.5,1.6-0.2,2.3c-0.4,0.4-0.9,0.8-1.4,1.2c1.5,0.8,2.8,1.5,4.1,2.2c0.8-0.6,1.4-0.9,1.9-0.9
			c0.3,0,0.6,0.2,0.9,0.4c0.7,0.7,0.6,1.5-0.4,2.7c0.9,1.2,1.7,2.3,2.6,3.5c0.4-0.3,0.7-0.7,1.1-1c0.3-0.2,0.7-0.4,1-0.4
			c0.4,0,0.8,0.2,1.1,0.5c0.6,0.7,0.6,1.4,0.1,2c-0.2,0.3-0.5,0.6-0.8,0.8c-0.3,0.3-0.6,0.5-0.7,0.7c0.6,2,1.4,3.9,1.8,5.9
			c0.9,4.8-1.7,8.2-6.5,8.9c-0.3,0.1-0.7,0.1-1.1,0.2c0,2.7-1,4.9-3.1,6.7c2.4,2.4,3.8,5.3,4.8,8.4c0.1,0.3,0.5,0.6,0.8,0.6
			c3.1,0,6.2,0,9.3,0c2.3,0,4.5,0,6.8,0c0.1,0,0.2,0,0.4-0.1c0-0.3,0-0.7,0-1c0-12.1,0-24.2,0-36.3c0-0.7-0.2-1.2-0.7-1.6
			c-5.2-5.2-10.3-10.4-15.4-15.5c-1.3-1.3-1.3-2,0.1-3.3c2.2-1.9,4.9-2.8,7.6-2.8c2.1,0,4.3,0.6,6.2,1.8c0.2,0.2,0.5,0.3,0.8,0.5
			c0.5-0.6,1-1.1,1.5-1.7C80.3,6.5,80.8,6.3,81.3,6.3 M78.3,22.6c2.2-2.8,1.9-7.5-0.7-10.3c-1.7-1.9-4-2.9-6.3-2.9
			c-1.6,0-3.3,0.5-4.8,1.4C70.5,14.8,74.4,18.7,78.3,22.6 M46.9,29.6c-0.7,0-1.4-0.2-2.2-0.6c-1.1-0.6-2.1-0.8-3.2-0.8
			c-1.9,0-3.7,0.8-5.4,2.1c-4,3.1-6.4,7.3-7.6,12.1c-0.9,3.5,1,5.6,4.6,5.8c0.4-1.9,1.1-3.7,2.4-5.2c0.4-0.5,0.8-0.7,1.3-0.7
			c0.3,0,0.7,0.1,1,0.4c0.7,0.5,0.8,1.4,0.2,2.2c-1.8,2.2-2,4.7-1.8,7.4c0.1,2.2,1.7,3.9,3.8,4.3c0.3,0,0.5,0.1,0.8,0.1
			c1.7,0,3.4-1,4.1-2.6c0.4-0.8,0.5-1.5-0.3-2.2c-0.3-0.2-0.5-0.6-0.7-0.9c-0.8-1.1-0.2-2.6,1.2-2.7c0.6,0,1.2-0.1,1.9-0.1
			c0.6,0,1.2,0,1.8,0.1c1.4,0.1,2,1.6,1.2,2.7c-0.3,0.4-0.5,0.7-0.9,1c-0.5,0.5-0.5,1-0.3,1.7c0.7,1.8,2.4,2.9,4.3,2.9c0,0,0,0,0,0
			c1.9,0,3.7-1.2,4.2-3c0.7-2.4,0.7-6.6-2-8.4c-0.6-0.4-0.8-1.1-0.5-1.7c0.2-0.5,0.8-0.9,1.3-1c0,0,0.1,0,0.1,0c0.4,0,1,0.3,1.3,0.6
			c1.7,1.3,2.7,3.1,3.1,5.3c3.9-0.4,5.6-2.6,4.5-6.3c-1.2-4-3.1-7.5-6.1-10.4c-0.9-0.9-2-1.6-3.2-2.2c-1.2-0.6-2.5-1-3.7-1
			c-1,0-2,0.2-3,0.8C48.2,29.3,47.6,29.6,46.9,29.6 M35.4,76.3c0.6,0,1.2,0,1.8,0c0.4,0,0.7,0,1.1,0c0.1,0,0.2,0,0.2,0
			c0.7,0,0.9-0.3,1-1.1c0.2-2.3,0.8-4.6,1.9-6.7c0.5-1.1,1.1-1.6,1.7-1.6c0.2,0,0.4,0.1,0.7,0.2c0.9,0.4,1.1,1.3,0.4,2.8
			c-0.9,2-1.5,4.1-1.7,6.4c3.4,0,6.8,0,10.2,0c0-0.4,0-0.8-0.1-1.2c-0.5-2-1-3.9-1.6-5.9c-0.3-0.9,0-1.7,0.8-2.1
			C52,67,52.2,67,52.4,67c0.6,0,1.1,0.4,1.4,1c0.2,0.5,0.5,1,0.6,1.5c0.5,2.2,1.1,4.5,1.6,6.8c1.4,0,3,0,4.6,0
			c0-3.5-0.4-6.9-1.7-10.2c-0.8-2.1-1.8-4.2-3.5-5.8c-0.4-0.4-0.9-0.8-1.4-0.8c0,0,0,0-0.1,0c-0.3,0-0.5,0-0.8,0c-2.5,0-4.6-1-6.3-3
			c-2.9,2.6-3.2,2.7-7,2.9c-0.3,0-0.6,0.3-0.7,0.5C36.2,64.9,35.2,70.5,35.4,76.3 M22.5,76.3c3,0,6,0,9,0c0.2,0,0.5,0,0.7-0.1
			c0.1-2,0.2-4,0.3-6.2c-0.4,0-0.7,0-1.1,0c-2.9,0-5.9,0-8.8,0c-2.7,0-5.3,0-8,0c0,0,0,0,0,0c-0.6,0-1.2,0-1.9,0c-0.6,0-1.1,0-1.7,0
			c-1.5,0.1-2.6,1.2-2.8,2.6c-0.2,1.4,0.6,2.8,2,3.3c0.5,0.2,1,0.2,1.5,0.2C15.2,76.3,18.9,76.3,22.5,76.3 M86.8,76.3
			c0.9,0,1.8,0,2.6-0.1c1.5-0.1,2.6-1.5,2.6-3c0-1.5-1-2.9-2.5-3c-0.9-0.1-1.8-0.1-2.7-0.1c-1.3,0-2.7,0-4.1,0c0,2,0,4,0,6.1
			C84.2,76.2,85.5,76.3,86.8,76.3 M63.8,76.2c5.2,0,10.5,0,15.8,0c0-2,0-4,0-6.1c-5.5,0-10.9,0-16.3,0
			C63.5,72.2,63.7,74.2,63.8,76.2 M90.4,79.4c-26.9,0-53.6,0-80.5,0c0.7,2.6,1.6,5.1,2.2,7.6c1,4,4.2,6.5,8.6,6.5c0,0,0,0,0.1,0
			c9.3,0,18.5-0.1,27.8-0.1c10.1,0,20.3,0,30.4,0c0.2,0,0.4,0,0.7,0c0,0,0,0,0,0c0.2,0,0.3,0,0.5,0c0.3,0,0.5,0,0.8,0
			c3.2-0.3,5.6-1.8,6.7-4.8C88.6,85.6,89.4,82.5,90.4,79.4 M81.3,4.3c-0.7,0-1.7,0.2-2.8,1.3C78.3,5.7,78.2,5.8,78,6
			c-2-1.1-4.3-1.8-6.7-1.8c-3.3,0-6.5,1.2-8.9,3.3c-0.9,0.7-1.7,1.7-1.8,3c-0.1,1.3,0.8,2.3,1.6,3.2l4.2,4.2
			c3.8,3.8,7.5,7.6,11.3,11.3c0,0,0.1,0.1,0.1,0.1c0,0,0,0,0,0.1c0,10,0,19.9,0,29.9l0,5.5l-0.3,0l-4.8,0c-2.8,0-5.6,0-8.4,0
			c-1-2.8-2.2-5-3.7-6.9c1.2-1.4,2-3.1,2.2-5.1c2.7-0.5,4.9-1.8,6.3-3.8c1.4-2,1.9-4.6,1.4-7.4c-0.3-1.5-0.8-2.9-1.2-4.3
			c-0.1-0.2-0.2-0.5-0.2-0.7c0,0,0,0,0,0c0.2-0.2,0.5-0.5,0.8-0.9c1.1-1.5,1-3.2-0.2-4.5c-0.7-0.8-1.6-1.2-2.6-1.2
			c-0.6,0-1.2,0.2-1.7,0.5l-0.5-0.7c0.9-1.8,0.3-3.2-0.6-4c-0.7-0.7-1.5-1.1-2.4-1.1c-0.7,0-1.4,0.2-2,0.6L59,25
			c1-1.4,0.9-3.2-0.3-4.4c-0.7-0.7-1.6-1.1-2.5-1.1c-1,0-1.9,0.4-2.7,1.2c-0.4,0.4-0.7,0.7-1.1,1.1c-0.5,0.5-0.9,1-1.4,1.4
			c0,0,0,0,0,0c0,0-0.1,0-0.2,0.1c-1.2,0.3-2.4,0.7-3.8,1c-1.8-0.8-3.7-1.2-5.5-1.2c-3.1,0-6.2,1.2-9,3.5c-4.4,3.6-7.3,8.5-8.8,14.5
			c-1.4,5.5,1.3,10.1,6.7,11.6c0.3,0.1,0.6,0.1,0.8,0.2c0.3,2.3,1.3,4.2,2.9,5.7c-1.1,2.1-1.9,4.1-2.4,6.3c-1.8,0-3.5,0-5.2,0
			l-3.5,0l-3.5,0c-2.6,0-5.3,0-7.9,0l-0.1,0c-2.8,0-5.2,1.2-6.8,3.3c-1.6,2.1-2,4.9-1.2,7.6c0.4,1.2,0.7,2.4,1.1,3.7
			c0.9,2.9,1.8,5.8,2.5,8.7c1.6,6.3,6.9,10.3,13.6,10.3l0.1,0c7.6,0,15.9-0.1,26.2-0.1c5.3,0,10.6,0,15.9,0c5.3,0,10.6,0,15.9,0
			l0.7,0c0.6,0,1.1,0,1.6,0c5.3-0.2,10-3.7,11.5-8.7c1.5-4.6,3-9.6,4.4-14.6c0.7-2.3,0.2-4.8-1.2-6.8c-1.5-2-3.7-3.3-6.2-3.4
			c-0.6,0-1.3,0-2.2,0c-0.3,0-0.7,0-1,0c-0.3,0-0.7,0-1,0L85,65l-0.3,0c0-2.8,0-5.5,0-8.3c0-8.6,0-17.6,0-26.4
			c0-1.7-0.2-3.9-1.7-5.6c2.5-4.6,2.5-9.2-0.1-13.7c0.2-0.2,0.3-0.3,0.5-0.5c1.5-1.6,1.6-3.8,0.1-5.2C83,4.6,82.2,4.3,81.3,4.3
			L81.3,4.3z M70.1,11.5c0.4-0.1,0.9-0.1,1.3-0.1c1.8,0,3.5,0.8,4.8,2.2c1.3,1.5,1.9,3.7,1.5,5.6l-2.2-2.2L70.1,11.5L70.1,11.5z
			 M46.9,31.6c1,0,2-0.3,3.1-0.9c0.6-0.4,1.3-0.5,2-0.5c0.9,0,1.8,0.3,2.8,0.8c1,0.5,1.9,1.2,2.7,1.9c2.6,2.5,4.5,5.7,5.6,9.5
			c0.2,0.8,0.4,2-0.1,2.7c-0.2,0.3-0.6,0.6-1.1,0.8c-0.7-1.9-1.8-3.4-3.3-4.6c-0.4-0.3-1.4-1-2.6-1c-0.2,0-0.3,0-0.5,0
			c-1.2,0.2-2.2,1.2-2.7,2c-0.8,1.5-0.3,3.4,1.1,4.3c1.7,1.1,1.7,4.3,1.2,6.2c-0.2,0.9-1.2,1.5-2.3,1.6c0,0,0,0,0,0
			c-1,0-1.9-0.5-2.3-1.4c0.3-0.4,0.6-0.7,0.8-1c0.8-1.1,1-2.6,0.4-3.8c-0.6-1.2-1.7-1.9-3-2c-0.6,0-1.3-0.1-2-0.1
			c-0.7,0-1.3,0-2,0.1c-1.3,0.1-2.5,0.9-3,2c-0.6,1.2-0.4,2.6,0.4,3.8l0,0.1c0.2,0.3,0.5,0.7,0.8,1c-0.4,0.9-1.4,1.4-2.3,1.4
			c-0.1,0-0.3,0-0.4,0c-1.2-0.2-2.1-1.2-2.1-2.4c-0.2-2.8,0.2-4.5,1.4-6c0.6-0.8,0.9-1.7,0.8-2.6c-0.1-0.9-0.6-1.8-1.3-2.4
			c-0.7-0.5-1.4-0.8-2.2-0.8c-1.1,0-2.1,0.5-2.8,1.4c-1,1.2-1.8,2.6-2.3,4.2c-0.5-0.2-0.8-0.4-1-0.7c-0.5-0.6-0.4-1.6-0.2-2.3
			c1.2-4.7,3.5-8.4,6.9-11c1.4-1.1,2.8-1.7,4.1-1.7c0.8,0,1.5,0.2,2.3,0.6C45,31.3,45.9,31.6,46.9,31.6L46.9,31.6z M40.6,61.4
			c3.1-0.2,4.2-0.5,6.2-2.2c1.8,1.5,4,2.2,6.4,2.2c0.2,0,0.4,0,0.6,0c0.1,0.1,0.2,0.1,0.3,0.2c1.5,1.5,2.4,3.5,3,5.1
			c0.8,2.2,1.3,4.6,1.5,7.5h-0.9l-0.1-0.3c-0.4-1.7-0.8-3.3-1.2-4.9c-0.2-0.8-0.5-1.4-0.7-1.9C55,65.8,53.8,65,52.4,65
			c-0.5,0-1,0.1-1.5,0.3c-1.6,0.7-2.4,2.6-1.9,4.4c0.4,1.5,0.9,3.1,1.2,4.5h-5.5c0.3-1.2,0.6-2.4,1.2-3.5c1.7-3.6-0.6-5.1-1.3-5.4
			c-0.5-0.2-1-0.4-1.6-0.4c-1.4,0-2.6,0.9-3.5,2.7c-1,2-1.7,4.2-2,6.6c-0.1,0-0.1,0-0.2,0C37.5,69.2,38.5,65.1,40.6,61.4L40.6,61.4z
			 M22.5,74.3c-3.6,0-7.2,0-10.9,0c-0.5,0-0.7-0.1-0.9-0.1C10.3,74,10,73.5,10.1,73c0.1-0.5,0.5-0.9,1-0.9c0.5,0,1,0,1.6,0
			c0.3,0,0.6,0,0.9,0c0.3,0,0.6,0,0.9,0l8,0l4.4,0l3.4,0l-0.1,2.2L22.5,74.3L22.5,74.3z M84.8,72.1C84.8,72.1,84.8,72.1,84.8,72.1
			c0.7,0,1.4,0,2.1,0c1,0,1.9,0,2.6,0.1c0.2,0,0.6,0.5,0.6,1c0,0.5-0.3,1-0.7,1c-0.7,0-1.5,0.1-2.5,0.1c-0.6,0-1.3,0-2,0
			c0,0-0.1,0-0.1,0V72.1L84.8,72.1z M65.5,72.1h12.1v2.1H65.7L65.5,72.1L65.5,72.1z M12.5,81.4h75.1c0,0.1-0.1,0.2-0.1,0.3
			c-0.6,2.2-1.2,4.2-2,6.2c-0.8,2.2-2.4,3.3-5,3.5c-0.2,0-0.4,0-0.6,0l-0.2,0l-0.2,0l-0.7,0c-5.1,0-10.1,0-15.2,0
			c-5.1,0-10.1,0-15.2,0c-11.1,0-19.7,0-27.8,0.1l0,0c-3.4,0-5.8-1.8-6.6-5C13.6,84.7,13.1,83,12.5,81.4L12.5,81.4z"/>
	</g>
	<path class="st2" d="M73.4,28c-0.2,0.5-0.3,0.9-0.5,1.1c-0.5,0.5-1,1.1-1.5,1.5c-0.6,0.6-1.5,0.5-2.1-0.1c-0.6-0.6-0.6-1.4-0.1-2.1
		c0.5-0.5,0.9-1.1,1.5-1.5c0.4-0.3,1.2-0.4,1.6-0.2C72.8,27,73.1,27.6,73.4,28z"/>
	<path class="st2" d="M68.1,22.7c-0.2,0.5-0.3,0.9-0.6,1.2c-0.4,0.5-0.9,1-1.4,1.4c-0.7,0.6-1.5,0.5-2.1,0c-0.6-0.5-0.6-1.5-0.1-2.1
		c0.5-0.6,1-1.2,1.6-1.5c0.4-0.3,1.1-0.3,1.6-0.1C67.5,21.7,67.7,22.3,68.1,22.7z"/>
	<path class="st3" d="M59.4,20.3c-0.2-0.1-0.8-0.4-1-0.8c-0.2-0.5-0.2-1.2,0-1.6c0.4-0.7,1.1-1.3,1.8-1.8c0.4-0.2,1.1-0.3,1.5,0
		c0.4,0.2,0.7,0.8,0.8,1.3C62.7,18.4,60.7,20.3,59.4,20.3z"/>
	<path class="st2" d="M69.6,54.5c0,0.9-0.8,1.7-1.7,1.8c-0.9,0-1.7-0.8-1.7-1.7c0-0.9,0.7-1.7,1.6-1.7
		C68.8,52.8,69.6,53.6,69.6,54.5z"/>
	<path class="st2" d="M49.5,17.2c0.9,0,1.7,0.8,1.7,1.7c0,0.9-0.8,1.7-1.7,1.7c-0.9,0-1.7-0.7-1.7-1.6C47.8,18,48.6,17.2,49.5,17.2z
		"/>
	<path class="st2" d="M75.5,39.2c0,1-0.8,1.7-1.7,1.7c-0.9,0-1.7-0.8-1.7-1.8c0-0.9,0.8-1.7,1.6-1.7C74.7,37.4,75.5,38.2,75.5,39.2z
		"/>
	<path class="st2" d="M29.9,25.3C29.8,26.3,29,27,28,26.9c-0.9-0.1-1.7-0.9-1.6-1.8c0.1-0.9,0.9-1.6,1.9-1.5
		C29.2,23.6,29.9,24.5,29.9,25.3z"/>
	<path class="st4" d="M9.9,79.4c26.9,0,53.6,0,80.5,0c-0.9,3.1-1.7,6.2-2.8,9.2c-1.1,3-3.5,4.5-6.7,4.8c-0.4,0-0.8,0-1.3,0
		c-19.6,0-39.2,0-58.9,0c-4.4,0-7.6-2.4-8.6-6.5C11.4,84.4,10.6,81.9,9.9,79.4z"/>
	<path class="st5" d="M60.5,48.1c-0.4-2.2-1.4-4-3.1-5.3c-0.4-0.3-1-0.6-1.5-0.6c-0.5,0.1-1,0.6-1.3,1c-0.3,0.6-0.1,1.3,0.5,1.7
		c2.7,1.8,2.7,6,2,8.4c-0.5,1.8-2.3,3-4.2,3c-1.9,0-3.6-1.1-4.3-2.9c-0.3-0.6-0.3-1.2,0.3-1.7c0.3-0.3,0.6-0.7,0.9-1
		c0.8-1.1,0.2-2.6-1.2-2.7c-1.2-0.1-2.5-0.1-3.7,0c-1.4,0.1-2,1.6-1.2,2.7c0.2,0.3,0.4,0.7,0.7,0.9c0.8,0.6,0.7,1.4,0.3,2.2
		c-0.9,1.8-3,2.9-4.9,2.5c-2.1-0.4-3.6-2.1-3.8-4.3c-0.2-2.6,0.1-5.2,1.8-7.4c0.6-0.7,0.4-1.6-0.2-2.2c-0.7-0.6-1.6-0.5-2.2,0.3
		c-1.3,1.5-2,3.3-2.4,5.2c-3.6-0.1-5.5-2.3-4.6-5.8c1.2-4.8,3.6-9,7.6-12.1c2.6-2,5.5-2.8,8.5-1.3c1.6,0.8,2.7,0.9,4.3,0
		c2.2-1.2,4.5-0.9,6.7,0.2c1.1,0.6,2.2,1.3,3.2,2.2c3,2.9,5,6.4,6.1,10.4C66.1,45.5,64.5,47.7,60.5,48.1z M51.6,41.5
		c1.1,0,2-0.9,2-2c0-1.1-1-2-2.1-2c-1.1,0-2,1-2,2.1C49.6,40.7,50.5,41.5,51.6,41.5z M41.6,41.5c1.1,0,2.1-0.9,2.1-2
		c0-1.1-0.9-2.1-2-2.1c-1.1,0-2,0.9-2.1,2C39.6,40.6,40.4,41.5,41.6,41.5z"/>
	<path class="st4" d="M52.7,76.2c-3.5,0-6.8,0-10.2,0c0.2-2.3,0.7-4.4,1.7-6.4c0.7-1.4,0.6-2.3-0.4-2.8c-1-0.5-1.7,0-2.4,1.4
		c-1.1,2.1-1.6,4.4-1.9,6.7c-0.1,0.9-0.4,1.2-1.2,1.1c-0.9-0.1-1.9,0-2.9,0c-0.1-5.8,0.8-11.4,3.8-16.4c0.1-0.2,0.5-0.5,0.7-0.5
		c3.8-0.2,4.1-0.3,7-2.9c1.9,2.2,4.2,3.2,7.1,2.9c0.5,0,1.1,0.4,1.5,0.8c1.6,1.6,2.7,3.6,3.5,5.8c1.2,3.3,1.6,6.7,1.7,10.2
		c-1.6,0-3.2,0-4.6,0c-0.5-2.3-1.1-4.5-1.6-6.8c-0.1-0.5-0.4-1-0.6-1.5c-0.4-0.9-1.3-1.2-2.1-0.9c-0.8,0.3-1,1.2-0.8,2.1
		c0.6,2,1.1,3.9,1.6,5.9C52.7,75.4,52.7,75.8,52.7,76.2z"/>
	<path class="st6" d="M32.4,70.1c-0.1,2.1-0.2,4.1-0.3,6.2c-0.2,0-0.5,0.1-0.7,0.1c-6.6,0-13.2,0-19.8,0c-0.5,0-1-0.1-1.5-0.2
		c-1.4-0.5-2.2-1.9-2-3.3c0.2-1.4,1.4-2.5,2.8-2.6c1.2-0.1,2.4,0,3.6,0c5.6,0,11.2,0,16.8,0C31.7,70.1,32.1,70.1,32.4,70.1z"/>
	<path class="st6" d="M79.6,70.1c0,2.1,0,4,0,6.1c-5.3,0-10.5,0-15.8,0c-0.2-2-0.3-4-0.5-6.1C68.7,70.1,74.1,70.1,79.6,70.1z"/>
	<path class="st7" d="M66.6,10.8c3.7-2.4,8.2-1.8,11.1,1.4c2.6,2.9,2.9,7.6,0.7,10.3C74.4,18.7,70.5,14.8,66.6,10.8z"/>
	<path class="st6" d="M82.8,76.2c0-2.1,0-4.1,0-6.1c2.3,0,4.6-0.1,6.8,0c1.4,0.1,2.5,1.5,2.5,3c0,1.5-1.1,2.9-2.6,3
		C87.3,76.3,85.1,76.2,82.8,76.2z"/>
	<g>
		<path class="st1" d="M51.6,42.5c-1.7,0-3-1.3-3-3c0-1.6,1.4-3.1,3-3.1c1.7,0,3,1.4,3.1,3c0,0.8-0.3,1.6-0.9,2.1
			C53.2,42.2,52.4,42.5,51.6,42.5L51.6,42.5z"/>
		<path class="st2" d="M51.6,37.5c1.1,0,2,0.9,2,2c0,1.1-0.9,2-2,2c0,0,0,0,0,0c-1.1,0-2-0.9-2-2C49.6,38.4,50.5,37.5,51.6,37.5
			C51.6,37.5,51.6,37.5,51.6,37.5 M51.6,35.5L51.6,35.5L51.6,35.5c-2.2,0-4,1.8-4,4.1c0,2.2,1.8,4,4,4c1.1,0,2.1-0.4,2.9-1.2
			c0.8-0.8,1.2-1.8,1.2-2.8C55.6,37.3,53.8,35.5,51.6,35.5L51.6,35.5z"/>
	</g>
	<g>
		<path class="st1" d="M41.6,42.5c-0.8,0-1.6-0.3-2.1-0.9c-0.6-0.6-0.8-1.3-0.8-2.2c0-1.7,1.4-3,3-3c1.7,0,3.1,1.5,3,3.1
			C44.6,41.2,43.3,42.5,41.6,42.5L41.6,42.5z"/>
		<path class="st2" d="M41.6,37.5C41.6,37.5,41.6,37.5,41.6,37.5c1.1,0,2.1,1,2,2.1c0,1.1-0.9,2-2,2c0,0,0,0,0,0c-1.1,0-2-0.9-2-2.1
			C39.6,38.4,40.5,37.5,41.6,37.5 M41.6,35.5L41.6,35.5c-2.2,0-4,1.8-4,4c0,2.3,1.7,4,4,4.1l0,0l0,0c2.2,0,4-1.7,4-3.9
			C45.7,37.4,43.9,35.5,41.6,35.5L41.6,35.5L41.6,35.5L41.6,35.5z"/>
	</g>
</g>
</svg>
