<?xml version="1.0" encoding="utf-8"?>
<!-- Generator: Adobe Illustrator 26.5.0, SVG Export Plug-In . SVG Version: 6.00 Build 0)  -->
<svg version="1.1" xmlns="http://www.w3.org/2000/svg" xmlns:xlink="http://www.w3.org/1999/xlink" x="0px" y="0px"
	 viewBox="0 0 100 100" style="enable-background:new 0 0 100 100;" xml:space="preserve">
<style type="text/css">
	.st0{fill:#05CCC0;}
	.st1{fill:#F3F5F8;}
	.st2{fill:#106D6A;}
	.st3{fill:#FFFFFF;}
	.st4{fill:#F5F9FE;}
	.st5{fill:#E6EBFB;}
	.st6{fill:#FCFDFE;}
	.st7{fill:#E7E9EC;}
	.st8{fill:#E4EAFB;}
	.st9{fill:#F8FAFE;}
	.st10{fill:#FEFEFE;}
	.st11{fill:#F9FBFE;}
	.st12{fill:#FBFCFE;}
</style>
<g id="Layer_2">
	<g id="Layer_2_00000124147986899870748040000009013127560201801124_">
		<path class="st0" d="M50.5,13.3c9.8-0.2,18.2,3.5,25.5,9.8c12.1,10.4,18.4,24,21.3,39.6c1,5.9,0.2,11.2-3.5,16
			c-3.7,4.8-9.3,6.7-15,4.7c-11.1-3.9-22.5-5.4-34-4.7c-7.5,0.5-15,1.7-21.9,4.6C14.4,86.8,5.8,80.5,3.6,72c-1.2-4.7-0.3-9.3,0.9-14
			c2.9-12.3,8.3-23.4,17.4-32.4c6.6-6.6,14.6-10.8,23.9-12.3C47.3,13.1,48.9,13.3,50.5,13.3z"/>
	</g>
	<path class="st1" d="M36.6,47.4"/>
	<g>
		<path class="st2" d="M5,97.8l-0.2-0.1c-1.1-0.7-2.3-1.6-2.7-3.2l0-0.1v-1.9l0.4-0.3c0.1-0.1,0.2-0.2,0.3-0.3
			c0.3-0.3,0.7-0.6,1.3-0.8c0.2-0.1,0.5-0.1,0.7-0.1c0.5,0,1.6,0.2,2.2,1.6l6.1,0c0-0.2,0-0.3,0-0.4c0-1.6,1.1-2.6,2.5-2.7
			c1.4,0,2.5,1.1,2.6,2.6c0,0.1,0,0.3,0,0.4h2.6L20,90.7c-0.9-2-1.8-3.9-2.8-5.9c-0.8-1.5-0.7-3.1,0.1-4.6l-2,0.7
			c0,0-3.9,1.9-5.3,2.6c-0.1,0-0.2,0.1-0.3,0.1C9.4,83.8,9,84,8.5,84.1c-0.2,0-0.3,0-0.5,0c-1.1,0-2-0.6-2.4-1.6
			c-0.2-0.6-0.4-1.9,1-3c2.3-1.8,5.2-3.1,8.9-4.2c1.3-0.4,2.8-0.8,4.2-1.1c0.2-0.1,0.3-0.1,0.4-0.4c0.4-1.2,0.6-1.9,0.5-2.2
			c-0.1-0.3-0.7-0.8-1.5-1.6l-0.9-0.8c-0.4-0.3-0.7-0.6-1.1-0.9c-1.7-1.5-2.5-3.4-2.5-5.7c0-0.1,0-0.2,0-0.3c0-0.3,0-0.6,0-1
			c0-0.1,0-0.2,0-0.2c0,0,0,0,0,0c0,0-0.1-0.1-0.4-0.2c-2.9-1.3-4.4-3.7-4.3-6.8c0-3.1,1.6-5.3,4.4-6.6c0.2-0.1,0.2-0.1,0.2-0.1l0,0
			c0,0,0-0.1,0-0.3c0-0.7,0-1.3,0-2c0-2.1,0-4.2,0.2-6.3c0.5-5.2,3.3-9.2,8.4-12c0.5-0.2,0.8-0.5,1.1-0.7c2-1.8,4.5-2.8,7.2-2.8
			c2.7,0,5.3,1,7.3,2.9c0.2,0.2,0.5,0.4,0.9,0.6c5.7,3,8.6,7.7,8.6,13.9c0,1.7,0,3.3,0,5l0,1.6l1,0.4l0.1,0.1
			c0.2,0.2,0.4,0.3,0.6,0.4c0.5,0.4,1,0.7,1.4,1.2c2.5,3,2.3,6.7-0.6,10l-0.1,0.1l-0.1,0.1c-0.2,0.1-0.4,0.2-0.5,0.3
			c-0.5,0.3-1,0.6-1.6,0.9c-0.1,0-0.2,0.1-0.2,0.1c0,0,0,0.1,0,0.2c0.3,3.3-0.9,6-3.5,8c-0.7,0.5-1.5,1.2-2.3,2
			c0,0.1-0.1,0.2-0.1,0.3c0,1.9,0.8,2.7,2.7,3.1c2.4,0.5,4.7,1.4,6.9,2.4l1.1,0.5c3.6,1.5,5.9,4.3,6.7,8.1c0.3,1.6,0.6,3.3,0.8,4.9
			l0.2,1.5c0.5,3.3-1.2,4.9-2.8,5.6l-0.2,0.1H5z M36.3,92.7c1.6-3.3,3.1-6.6,4.7-9.9c0-0.1,0.1-0.1,0.1-0.2
			c-0.3-0.8-0.7-1.5-1.1-2.3c-0.4,0.2-0.9,0.4-1.2,0.7c-0.2,0.1-0.3,0.3-0.3,0.4c-0.5,2.3-1,4.7-1.4,7l-0.2,1.1
			c-0.2,1-0.4,1.9-0.6,3l0,0.2C36.2,92.7,36.3,92.7,36.3,92.7z M22.9,80.3c-0.4,0.7-0.7,1.4-1,2c0,0.1,0,0.3,0,0.4
			c1.3,2.8,2.6,5.5,3.9,8.3l0.6,1.2c0.1,0.3,0.2,0.4,0.3,0.4l0,0c-0.8-3.8-1.5-7.7-2.3-11.5C23.9,80.9,23.4,80.6,22.9,80.3z
			 M55.6,92.6c-0.3-2.7-0.5-5.3-1.7-7.7c-0.3-0.7-0.6-1.1-0.9-1.3c-1.3-0.7-2.6-1.4-3.9-2c-0.5-0.2-1-0.5-1.5-0.7l-1.9-0.7
			c0,0,0,0,0,0c0.8,1.5,0.8,3.1,0,4.6c-0.6,1.2-1.2,2.5-1.8,3.7l-0.5,1.1c-0.4,0.9-0.9,1.8-1.3,2.8h2.6c0.2-1.6,0.6-3.1,2.4-3.1
			c0.1,0,0.1,0,0.2,0c2.4,0.2,2.5,2,2.6,3.1H55.6z M31.5,90c0-0.1,0.9-4.7,0.9-4.7h-1.9C30.5,85.2,31.2,88.5,31.5,90z M31.4,80
			c0.7,0,1.3,0,2,0c0,0,0,0,0,0c0.2-1.6,1.1-2.8,2.7-3.5c0.6-0.3,1.1-0.6,1.7-0.9c0,0,0.1,0,0.1,0l-0.2-0.6c0,0,0,0,0,0
			c-0.8,0.3-1.6,0.6-2.5,0.6c-1,0-2.1,0.1-3.4,0.1c-0.8,0-1.6,0-2.3,0c-0.8,0-1.5,0-2.3,0h-0.2l-1.9-0.7L25,75.5l0.9,0.4L26,76
			c0.1,0.1,0.1,0.1,0.2,0.2c0,0,0.1,0.1,0.1,0.1c1.7,0.7,2.8,2,3.1,3.7L31.4,80z M33.7,70.5l0.1,0c0.2,0.1,0.4,0.1,0.6,0.1
			c0.5,0,0.9-0.2,1.3-0.5c1.8-1.5,3.5-3,5.2-4.5l1.4-1.3c0.5-0.4,0.7-1,0.7-1.7c0-1.2,0-2.4,0-3.6c0-1.4,0.9-2.4,2.3-2.6
			c0.2,0,0.5-0.1,0.7-0.1c0.8-0.2,1.3-0.7,1.5-1.4c0.4-1.4-0.3-1.9-0.5-2.1c-0.4-0.3-1-0.6-1.6-0.7c-1.6-0.4-2.5-1-2.5-3.1v-0.1
			h-2.2l-0.3,0c-0.1,0-0.1,0-0.2,0H22.5c-0.1,0-0.2,0-0.3,0l-0.3,0h-2.2c0,2.1-0.6,2.8-2.8,3.2c-0.4,0.1-0.9,0.3-1.2,0.6
			c-0.6,0.5-0.8,1.2-0.6,2.1c0.2,0.6,0.6,1.4,2.1,1.6c1.8,0.2,2.5,1.1,2.5,2.8c0,1.1,0,2.1,0,3.2c0,0.9,0.3,1.6,1,2.2
			c0.8,0.7,1.7,1.4,2.5,2.2c1.2,1,2.4,2.1,3.6,3.1c0.2,0.2,0.5,0.3,0.9,0.4c0.2,0.1,0.3,0.1,0.4,0.2L33.7,70.5z M43,43.7v-1.1
			l-2.3,0c-1.3,0-2.5,0-3.8,0c0,0-0.1,0.1-0.2,0.1l-0.1,0c-0.7,0.4-1.5,0.7-2.2,0.9C37.3,43.7,40.2,43.7,43,43.7z M28.4,43.7
			c-0.8-0.2-1.5-0.6-2.2-1c-0.2-0.1-0.3-0.1-0.3-0.1h-0.5c-0.8,0-1.6,0-2.4,0l-1,0h-2.1v1.1C19.8,43.7,27.3,43.7,28.4,43.7z
			 M26.7,31.5c0,0.3-0.1,0.7-0.2,1c-0.1,0.8-0.3,1.5-0.2,2.1c0.2,2.3,2.5,4.4,5,4.4c0.1,0,0.3,0,0.4,0c1.7,0,3.1-0.8,4.1-2.1
			c1-1.4,1.3-3,0.9-4.6c-0.6-2.2-2.6-3.8-4.6-3.8l-0.8,0C29.1,28.6,27.6,29.5,26.7,31.5z M21.7,37.4l-0.4-2c-0.4,0.6-0.7,1.3-0.9,2
			H21.7z M42.6,37.4c-0.2-0.7-0.6-1.4-0.9-2l-0.5,2H42.6z"/>
		<path class="st3" d="M31.5,24.2c2.4,0,4.7,0.9,6.6,2.6c0.3,0.3,0.7,0.6,1.1,0.8c5.2,2.8,8.1,7.1,8.1,13.1c0,2.4,0,4.9,0,7.3
			c0.5,0.2,1,0.4,1.5,0.6c0.6,0.5,1.3,0.9,1.8,1.6c2.2,2.7,2,5.8-0.5,8.7c-0.6,0.4-1.2,0.9-1.9,1.1c-0.7,0.3-0.9,0.7-0.8,1.4
			c0.3,2.9-0.7,5.3-3.1,7.1c-0.9,0.6-1.7,1.4-2.4,2.1c-0.2,0.2-0.4,0.7-0.4,1.1c0.1,2.3,1,3.6,3.5,4.1c2.7,0.5,5.3,1.7,7.9,2.8
			c3.3,1.4,5.3,3.9,6.1,7.4c0.4,2.1,0.7,4.2,1.1,6.4c0.3,2-0.2,3.6-2.2,4.6c-17.5,0-34.9,0-52.4,0c-1-0.6-1.9-1.3-2.2-2.6
			c0-0.4,0-0.9,0-1.3c0.4-0.3,0.8-0.8,1.3-0.9c0.1,0,0.3-0.1,0.4-0.1c0.7,0,1.2,0.6,1.5,1.5c0.1,0,0.1,0.1,0.2,0.1c1,0,2,0,3,0
			c1.6,0,3.2,0,4.8,0c0-0.6,0-1,0-1.4c0-1.1,0.6-1.7,1.5-1.7c0,0,0,0,0,0c0.9,0,1.5,0.7,1.6,1.7c0,0.5,0,0.9,0,1.4
			c1.8,0,3.4,0,5.1,0c-0.2-0.4-0.3-0.7-0.4-1c-1.3-2.7-2.5-5.5-3.9-8.2c-0.6-1.3-0.6-2.5,0.1-3.7c0.3-0.6,0.6-1.2,1-2.1
			c-1.6,0.5-2.9,1-4.3,1.4c-1.8,0.9-3.6,1.8-5.3,2.6c-0.4,0.2-0.8,0.4-1.2,0.5c-0.1,0-0.3,0-0.4,0c-0.6,0-1.2-0.3-1.4-1
			c-0.3-0.8,0.1-1.4,0.7-1.8c2.6-2,5.5-3.2,8.5-4.1c1.4-0.4,2.8-0.8,4.2-1.1c0.6-0.1,0.9-0.4,1.1-1c0.9-2.9,0.9-2.9-1.3-4.9
			c-0.6-0.6-1.3-1.1-1.9-1.7c-1.5-1.3-2.2-3-2.2-5c0-0.4,0-0.7,0-1.1c0.1-0.8-0.2-1.1-1-1.5c-2.5-1.1-3.8-3.1-3.7-5.8
			c0-2.7,1.4-4.6,3.8-5.7c0.7-0.3,0.9-0.7,0.9-1.3c0-2.7-0.1-5.5,0.1-8.2c0.5-5.2,3.4-8.8,7.9-11.2c0.5-0.2,0.9-0.5,1.3-0.9
			C26.8,25.1,29.1,24.2,31.5,24.2 M31.2,40c0.2,0,0.3,0,0.5,0c4,0,7-4.1,5.8-8c-0.8-2.6-3.1-4.5-5.6-4.5c0,0,0,0-0.1,0
			c-0.2,0-0.5,0-0.7,0c-2.6,0.1-4.4,1.4-5.5,3.7c-0.2,1.2-0.5,2.3-0.4,3.5C25.5,37.5,28.3,40,31.2,40 M19,38.4c1.4,0,2.7,0,3.9,0
			c-0.4-1.8-0.7-3.5-1.1-5.3C20.4,34.5,19.4,36.2,19,38.4 M40,38.4c1.2,0,2.5,0,3.8,0c-0.3-2.1-1.7-4.7-2.7-5.1
			C40.8,34.9,40.4,36.6,40,38.4 M31.4,43.2c-1.6,0-3.2-0.4-4.8-1.3c-0.2-0.1-0.5-0.3-0.8-0.3c-0.2,0-0.3,0-0.5,0c-1.1,0-2.3,0-3.4,0
			c-1,0-2,0-3,0c0,1,0,2,0,3.1c1.1,0,2.1,0,3.1,0c7.2,0,14.5,0,21.7,0c0,0,0,0,0,0c0.1,0,0.3-0.1,0.4-0.1c0-1,0-2,0-3
			c-1.1,0-2.2,0-3.2,0c-1.3,0-2.6,0-3.8,0c-0.3,0-0.5,0.2-0.8,0.3C34.6,42.7,33,43.2,31.4,43.2 M34.5,71.6c0.7,0,1.4-0.2,2-0.7
			c2.3-1.9,4.5-3.9,6.7-5.8c0.7-0.7,1-1.5,1-2.5c0-1.2,0-2.4,0-3.6c0-1,0.5-1.5,1.5-1.6c0.3,0,0.5-0.1,0.8-0.1c1.2-0.3,2-1,2.3-2.2
			c0.3-1.2,0.2-2.3-0.8-3.1c-0.6-0.4-1.3-0.7-2-0.9c-1.4-0.3-1.8-0.7-1.8-2.1c0-0.4,0-0.7,0-1.1c-1.2,0-2.2,0-3.2,0
			c-0.2,0-0.4-0.1-0.5-0.1c-3.1,0-6.1,0-9.2,0c-2.9,0-5.8,0-8.7,0c-0.2,0-0.4,0.1-0.6,0.1c-1,0-2,0-3.1,0c0,0.3,0,0.6,0,0.9
			c0,1.8-0.3,2-2,2.3c-0.6,0.1-1.2,0.4-1.6,0.8c-1,0.8-1.3,2-0.9,3.2c0.4,1.4,1.5,2.1,2.9,2.3c1.3,0.2,1.6,0.6,1.7,1.9
			c0,1,0,2.1,0,3.1c0,1.2,0.4,2.2,1.3,3c2,1.7,4,3.5,6.1,5.3c0.5,0.4,1.2,0.6,1.8,0.8c1.9,0,3.7,0,5.6,0
			C33.9,71.6,34.2,71.6,34.5,71.6 M28.8,81c0.9,0,1.8,0,2.6,0c0.7,0,1.3,0,2,0c0,0,0.1,0,0.1,0c0.6,0,0.9-0.2,1-0.8
			c0.2-1.3,0.9-2.2,2.1-2.8c0.9-0.4,1.7-0.9,2.6-1.4c-0.3-0.9-0.5-1.7-0.7-2.4c-1.1,0.3-2.1,0.9-3.2,0.9c-1.1,0.1-2.2,0.1-3.3,0.1
			c-1.5,0-3.1,0-4.6,0c-0.9-0.4-1.8-0.7-2.7-1.1c-0.2,0.8-0.5,1.6-0.8,2.5c0.6,0.3,1.1,0.5,1.6,0.7c0.2,0.1,0.3,0.3,0.5,0.4
			c1.6,0.7,2.5,1.9,2.7,3.6C28.6,80.8,28.7,80.9,28.8,81 M40.5,93.5c1.8,0,3.4,0,5,0c0.2-2.4,0.5-3.1,1.5-3.1c0.1,0,0.1,0,0.2,0
			c2,0.1,1.5,1.8,1.7,3.1c1.5,0,3.1,0,4.6,0c1,0,2.1,0,3.2,0c-0.3-3.2-0.5-6.3-1.9-9.1c-0.3-0.6-0.7-1.4-1.3-1.7
			c-1.8-1-3.7-1.9-5.6-2.8c-1.3-0.4-2.7-0.9-4.2-1.4c0.4,0.9,0.7,1.6,1,2.2c0.7,1.2,0.7,2.4,0,3.7c-0.8,1.6-1.6,3.3-2.4,4.9
			C41.8,90.7,41.2,92.1,40.5,93.5 M35,93.7c0.2-0.1,0.3-0.1,0.5-0.1c0.3,0,0.6,0.1,0.9,0.1c0.3,0,0.7-0.1,0.9-0.6
			c1.6-3.3,3.1-6.6,4.7-9.9c0.1-0.3,0.2-0.6,0.1-0.9c-0.5-1.1-1-2.2-1.6-3.4c-0.8,0.4-1.6,0.8-2.2,1.2c-0.3,0.2-0.6,0.6-0.7,1
			c-0.6,2.7-1.1,5.4-1.6,8.1C35.5,90.7,35.3,92.1,35,93.7 M26.8,93.7c0.3,0,0.6-0.1,1-0.3c0-0.1,0-0.1,0-0.2
			c-0.8-4.1-1.6-8.2-2.5-12.4c0-0.2-0.2-0.4-0.4-0.6c-0.8-0.5-1.6-0.9-2.4-1.3c-0.5,1.1-1,2-1.5,3c-0.1,0.3-0.1,0.9,0,1.2
			c1.5,3.2,3,6.4,4.5,9.5C25.8,93.4,26.2,93.7,26.8,93.7 M33.6,84.2c-1.5,0-2.8,0-4.3,0c0.6,3,1.2,6,1.9,9c0,0.1,0.2,0.3,0.3,0.4
			c0.1-0.2,0.4-0.3,0.4-0.5c0.3-1.2,0.5-2.5,0.7-3.7C32.9,87.7,33.2,86,33.6,84.2 M31.5,22.2L31.5,22.2c-2.9,0-5.7,1.1-7.9,3.1
			c-0.2,0.2-0.5,0.4-0.9,0.6c-5.4,2.9-8.4,7.2-8.9,12.8c-0.2,2.2-0.2,4.3-0.2,6.4c0,0.6,0,1.1,0,1.7c-3,1.4-4.7,4-4.7,7.3
			c0,3.4,1.6,6.1,4.7,7.6c0,0.2,0,0.4,0,0.6c0,0.1,0,0.2,0,0.3c0,2.6,1,4.8,2.8,6.5c0.4,0.3,0.7,0.6,1.1,1c0.3,0.3,0.6,0.5,0.9,0.8
			c0.5,0.4,1,0.9,1.2,1.1c0,0.3-0.2,0.8-0.4,1.4c-1.4,0.3-2.7,0.7-4,1.1c-3.8,1.1-6.7,2.5-9.2,4.4c-2,1.5-1.6,3.4-1.4,4.1
			c0.5,1.4,1.8,2.3,3.3,2.3c0.2,0,0.4,0,0.7,0c0.7-0.1,1.2-0.4,1.5-0.6c0.1,0,0.1-0.1,0.2-0.1c1.3-0.6,2.6-1.3,3.9-2l1.3-0.6l0,0
			c-0.2,1.1,0,2.3,0.6,3.5c0.7,1.5,1.4,3,2.2,4.5c-0.6-0.8-1.6-1.3-2.8-1.3c-1.9,0-3.2,1.3-3.5,3.1l-2.8,0l-1.5,0l-0.3,0
			c-0.7-1-1.6-1.6-2.8-1.6c-0.3,0-0.6,0-0.9,0.1c-0.7,0.2-1.3,0.6-1.7,1c-0.1,0.1-0.2,0.2-0.3,0.2L1,91.8v1v1.3v0.2l0.1,0.2
			c0.5,2,1.9,3.1,3.1,3.8l0.5,0.3h0.6h52.4h0.4l0.4-0.2c2.6-1.2,3.8-3.6,3.3-6.7c-0.1-0.5-0.2-1-0.2-1.5c-0.2-1.6-0.5-3.3-0.8-4.9
			c-0.9-4.2-3.4-7.2-7.3-8.8c-0.4-0.2-0.8-0.3-1.1-0.5c-2.3-1-4.6-1.9-7.1-2.4c-1.5-0.3-1.9-0.8-1.9-2c0.7-0.7,1.4-1.3,2-1.7
			c2.8-2.1,4.2-4.9,4-8.3c0.5-0.2,0.9-0.5,1.3-0.8c0.2-0.1,0.3-0.2,0.5-0.3l0.3-0.2l0.2-0.2c3.1-3.7,3.3-7.9,0.6-11.2
			c-0.5-0.6-1-1-1.5-1.4c-0.2-0.1-0.4-0.3-0.5-0.4l-0.2-0.2l-0.3-0.1l-0.2-0.1l0-1c0-1.7,0-3.4,0-5c0-6.6-3.1-11.6-9.2-14.8
			c-0.3-0.2-0.5-0.3-0.7-0.5C37.2,23.4,34.4,22.2,31.5,22.2L31.5,22.2z M27.6,31.8c0.8-1.5,1.9-2.2,3.5-2.3l0.3,0l0.4,0l0.1,0l0.1,0
			c0,0,0,0,0,0c1.6,0,3.2,1.3,3.7,3.1c0.4,1.3,0.1,2.6-0.7,3.7c-0.8,1.1-2,1.7-3.2,1.7l-0.1,0l-0.1,0c-0.1,0-0.2,0-0.3,0
			c-1.9,0-3.8-1.7-4-3.5c0-0.5,0.1-1.2,0.2-1.9C27.5,32.3,27.6,32.1,27.6,31.8L27.6,31.8z M20.7,49.9h1.2H22l0.1,0
			c0.1,0,0.2,0,0.3,0c0,0,0.1,0,0.1,0c2.9,0,5.8,0,8.6,0c3,0,6.1,0,9.1,0c0,0,0.1,0,0.1,0c0.1,0,0.2,0,0.2,0l0.1,0h0.1h1.2
			c0.2,1.7,1.2,2.6,3.2,3.1c0.5,0.1,0.9,0.3,1.2,0.5c0.1,0.1,0.3,0.3,0.1,1c-0.1,0.4-0.2,0.6-0.8,0.7c-0.2,0-0.4,0.1-0.7,0.1
			c-1.9,0.3-3.1,1.6-3.2,3.5c0,1.3,0,2.6,0,3.7c0,0.6-0.2,0.8-0.3,0.9l-1.4,1.3c-1.7,1.5-3.5,3.1-5.2,4.5c-0.2,0.2-0.4,0.3-0.7,0.3
			c-0.1,0-0.2,0-0.4-0.1l-0.3-0.1l-0.3,0l-5.2,0c-0.1,0-0.2-0.1-0.3-0.1c-0.2-0.1-0.5-0.2-0.6-0.3c-1.2-1-2.4-2-3.5-3.1
			c-0.8-0.7-1.7-1.5-2.5-2.2c-0.5-0.4-0.7-0.8-0.6-1.5c0-1,0-2,0-3.2c0-2.3-1.2-3.5-3.4-3.8c-1-0.1-1.2-0.6-1.3-0.9
			c-0.2-0.6,0-0.9,0.3-1.1c0.2-0.2,0.5-0.3,0.7-0.3C19.4,52.7,20.4,51.8,20.7,49.9L20.7,49.9z M31.9,76.6c0.9,0,1.6,0,2.3,0
			c-0.8,0.8-1.3,1.6-1.6,2.4c-0.4,0-0.8,0-1.2,0c-0.4,0-0.8,0-1.2,0c-0.3-0.9-0.8-1.8-1.5-2.4c0.3,0,0.5,0,0.8,0
			C30.3,76.6,31.1,76.6,31.9,76.6L31.9,76.6z M39.4,81.8c0.1,0,0.1-0.1,0.2-0.1c0.1,0.3,0.3,0.6,0.4,0.9c-0.4,0.9-0.9,1.9-1.4,2.9
			C38.8,84.3,39.1,83,39.4,81.8L39.4,81.8z M23,82.5c0.1-0.3,0.3-0.6,0.4-0.9c0.1,0,0.1,0.1,0.2,0.1c0.2,1.2,0.5,2.3,0.7,3.5
			C23.8,84.3,23.4,83.4,23,82.5L23,82.5z M44.3,90.1l0.5-1c0.6-1.2,1.2-2.5,1.8-3.7c0.6-1.2,0.8-2.3,0.7-3.5c0.5,0.2,1,0.5,1.4,0.7
			c1.3,0.6,2.6,1.2,3.8,1.9c0.1,0.1,0.2,0.2,0.5,0.9c0.9,1.9,1.2,4,1.5,6.3h-1h-2.8c-0.2-1.2-0.9-2.9-3.4-3.1c-0.1,0-0.2,0-0.3,0
			C45.7,88.5,44.8,89.2,44.3,90.1L44.3,90.1z M43.7,91.5c0.2-0.4,0.3-0.7,0.5-1.1c-0.1,0.3-0.2,0.7-0.3,1.1H43.7L43.7,91.5z
			 M19.2,91.5c0-0.1,0-0.1,0-0.2C19.2,91.4,19.2,91.5,19.2,91.5L19.2,91.5L19.2,91.5z"/>
	</g>
	<g>
		<path class="st2" d="M56.2,61.5c-1.9,0-2.8-0.7-3.1-2.4l0-0.2l0.1-0.2c0.4-1.7,1.2-2.3,2.9-2.3l6,0l0-4.2c0-3.5,0-7,0-10.5
			c0-3.4,2.5-5.8,5.8-5.8l0.4,0c0.6,0,1.1,0,1.7,0c0.5,0,1.1,0,1.6,0c0.8,0,1.4,0,2-0.1c0.1,0,0.3,0,0.4,0c1.6,0,3,0.6,4.1,1.7
			c1.2,1.2,1.8,2.8,1.8,4.6c-0.1,3.3,0,6.8,0,10.1c0,1.3,0,4.1,0,4.1h8.5c0.2,0,0.4,0,0.6,0c0.5,0,1,0,1.5,0.1c0,0,0,0,0,0
			c0,0,0-0.1,0-0.1c0-7,0-14,0-21v-6.8h-2.1l-0.3,0c-0.1,0-0.2,0-0.3,0l-36.4,0c0,0.4,0,0.8,0,1.2c0,1.8-0.7,2.7-2.5,2.9l-0.2,0
			l-0.2-0.1c-1.6-0.4-2.2-1.2-2.2-2.8l0-0.2c0-0.2,0-0.5,0-0.7c0.1-0.6,0.1-0.6-0.5-0.8c-1.4-0.5-2.4-1.6-2.7-3.1
			c-0.3-1.6,0.3-3.2,1.6-4.2c2.1-1.7,4.1-3.3,6.2-4.9l2.4-1.9L67.9,2.4c1-0.8,2-1.2,3-1.2c1,0,1.9,0.4,3,1.2
			c1.2,0.9,5.5,4.3,5.5,4.3c0.2-2.2,1.7-3.8,3.8-3.9c1.3-0.1,2.6-0.1,3.8-0.1c1.1,0,2.2,0,3.3,0.1c2.4,0.1,3.8,1.8,3.9,4.6l0,1.3
			c0,2.8,0,5.6,0,8.4c0,1.1,0.2,1.5,0.8,1.8c0.5,0.3,1,0.7,1.4,1.1c0.6,0.6,1.1,1.2,1.7,1.8l0.9,1v2.3l-0.1,0.2
			c-0.5,1.2-1.4,2.5-3.1,2.9c0,0,0,0.2,0,0.3v29.6c0,2.4-0.9,3.3-3.3,3.3l-18.1,0L56.2,61.5z M72.4,56.4l0.4,0c0.2,0,0.4,0,0.6,0
			h0.3c0.2,0,0.7,0,0.9,0c0-0.3,0-0.8,0-1.2l0-3.6c0-3.3,0-6.5,0-9.8c0-0.6-0.1-0.7-0.7-0.7l-0.3,0c-0.3,0-0.6,0-0.9,0l-0.5,0
			l-1.3,0c-0.9,0-1.7,0-2.6,0l0-1v1c-1.1,0-1.2,0.1-1.2,1.2c0,4.7,0,9.4,0,14.1c0,0,0,0,0,0H72.4z M90.7,23.2c0.2,0,0.3,0,0.5,0
			l0.3,0l0.5,0l-4.3-3.4c-5.5-4.3-10.9-8.6-16.4-12.9C71.1,6.7,71,6.6,71,6.6c0,0-0.1,0.1-0.1,0.2l-0.1,0.1l-0.4,0.2
			c-0.1,0.1-0.2,0.1-0.3,0.2c-6.3,5-12.7,10-19,15c-0.3,0.3-0.7,0.5-1,0.8L90.7,23.2z M84.6,8c0,0.5,0,1.1,0,1.6
			c-0.1,0.9,0.1,1.4,0.8,1.9c1.2,0.8,2.3,1.7,3.5,2.7c0-2.1,0-4.1,0-6.1c-1,0-1.9,0-2.9,0L84.6,8z"/>
		<path class="st3" d="M70.9,2.2c0.8,0,1.5,0.3,2.4,1c2.1,1.6,4.1,3.2,6.2,4.9c0.3,0.2,0.5,0.4,0.9,0.7c0-0.7,0-1.2,0-1.8
			c0.1-1.7,1.1-3,2.8-3.1c1.2-0.1,2.5-0.1,3.7-0.1c1.1,0,2.1,0,3.2,0.1c1.9,0.1,2.9,1.5,2.9,3.6c0,3.2,0.1,6.5,0,9.7
			c0,1.2,0.2,2.1,1.3,2.7c0.4,0.2,0.8,0.6,1.2,0.9c0.8,0.8,1.5,1.7,2.3,2.6c0,0.6,0,1.1,0,1.7c-0.6,1.2-1.3,2.3-2.8,2.5
			c-0.1,0-0.3,0.3-0.3,0.5c-0.1,0.2,0,0.5,0,0.7c0,9.9,0,19.8,0,29.6c0,1.8-0.5,2.3-2.3,2.3c-5.9,0-11.7,0-17.6,0
			c-6.2,0-12.4,0-18.6,0c-1.4,0-1.9-0.4-2.1-1.6c0.3-1.2,0.7-1.5,1.9-1.5c0.8,0,1.6,0,2.5,0c1.2,0,2.3,0,3.5,0c0,0,0,0,0,0
			c0.1,0,0.2,0,0.3,0c0.2,0,0.4,0,0.7,0c0-0.4,0-0.6,0-0.9c0-4.9,0-9.8,0-14.8c0-2.8,2-4.8,4.8-4.8c0.1,0,0.3,0,0.4,0
			c1.1,0,2.2,0,3.3,0c0.7,0,1.4,0,2.1-0.1c0.1,0,0.2,0,0.3,0c2.8,0,4.9,2.3,4.9,5.3c-0.1,4.7,0,9.4,0,14.1c0,0.4,0,0.7,0,1.1
			c3.2,0,6.3,0,9.4,0c0.7,0,1.4,0,2,0.1c0.1,0,0.2,0,0.3,0c0.7,0,0.9-0.3,0.9-1.1c0-9.3,0-18.6,0-27.8c0-0.3,0-0.6,0-1
			c-1.1,0-2.1,0-3.1,0c-0.2,0-0.4,0-0.6,0c-6,0-11.9,0-17.9,0c-6.2,0-12.5,0-18.7,0c-0.2,0-0.5,0-0.8,0.1c0,0.7,0,1.4,0,2.1
			c0,1.3-0.4,1.8-1.7,2c-1.1-0.3-1.5-0.7-1.5-1.9c0-0.3,0-0.6,0-0.8c0.1-0.9,0-1.5-1.1-1.8c-2.4-0.8-2.7-4-0.8-5.6
			c2.8-2.3,5.7-4.6,8.6-6.8c4.9-3.8,9.7-7.7,14.6-11.5C69.4,2.5,70.2,2.2,70.9,2.2 M47.1,24.2c0.3,0,0.6,0,0.7,0c0.1,0,0.2,0,0.3,0
			c14.2,0,28.4,0,42.6,0c0,0,0,0,0,0c0.3,0,0.6,0,0.8,0c1,0,2,0,3.2,0c-0.3-0.3-0.4-0.5-0.6-0.6C86.7,17.7,79.3,11.9,71.9,6
			c-0.4-0.3-0.7-0.5-1-0.5c-0.3,0-0.6,0.2-0.9,0.6c-0.2,0.1-0.4,0.3-0.6,0.4c-6.3,5-12.7,10-19,15C49.3,22.4,48.3,23.2,47.1,24.2
			 M89.8,16.2c0-3.1,0-5.9,0-8.7c0-0.2-0.3-0.5-0.4-0.5c-1.2,0-2.3,0-3.5,0c-0.8,0-1.6,0-2.4,0c0,0.9,0.1,1.7,0,2.5
			c-0.1,1.2,0.2,2.1,1.3,2.8C86.5,13.4,88,14.7,89.8,16.2 M66.2,57.4c2.1,0,4.2,0,6.2,0c0.3,0,0.6,0,0.9,0c0.1,0,0.2,0,0.3,0
			c2,0,2-0.1,2-2.3c0-4.5,0-8.9,0-13.4c0-1.2-0.5-1.7-1.7-1.7c-0.1,0-0.2,0-0.3,0c-0.5,0-0.9,0-1.4,0c-1.3,0-2.6,0-3.9,0
			c0,0,0,0,0,0c-1.6,0-2.2,0.5-2.2,2.2c0,4.7,0,9.4,0,14.1C66.2,56.7,66.2,57,66.2,57.4 M70.9,0.2c-1.2,0-2.4,0.5-3.6,1.4
			c-3,2.4-6,4.8-9,7.1l-5.6,4.4c-0.8,0.6-1.6,1.3-2.4,1.9c-2,1.6-4.1,3.3-6.2,4.9c-1.5,1.3-2.3,3.2-1.9,5.2c0.3,1.7,1.5,3.1,3.1,3.8
			c0,0.3,0,0.5,0,0.7l0,0.2c0,2,0.9,3.2,2.9,3.8l0.4,0.1l0.4-0.1c2.3-0.4,3.3-1.6,3.3-3.9c0-0.1,0-0.1,0-0.2l17.5,0l17.9,0
			c0.1,0,0.1,0,0.2,0l0.2,0l0.1,0h0.1h1.1l0,6c0,6.5,0,13.2,0,19.9c-0.2,0-0.4,0-0.5,0c-0.2,0-0.4,0-0.6,0l0,0h0h-7.5
			c0-1,0-2.1,0-3.1c0-3.3,0-6.7,0-10c0-2-0.7-3.9-2-5.3c-1.3-1.3-3-2-4.8-2c-0.2,0-0.3,0-0.5,0c-0.6,0-1.2,0.1-2,0.1
			c-0.5,0-1.1,0-1.6,0c-0.6,0-1.1,0-1.7,0l-0.4,0c-3.9,0-6.8,2.9-6.8,6.8c0,3.5,0,6.9,0,10.4l0,3.2l-0.8,0l-1.8,0
			c-0.8,0-1.6,0-2.5,0c-2.2,0-3.3,0.9-3.9,3L52,58.9l0.1,0.5c0.5,2.2,1.8,3.2,4.1,3.2l18.6,0l17.6,0c2.9,0,4.3-1.4,4.3-4.3l0-19.4
			l0-9.8c1.6-0.7,2.5-2.1,3-3.2l0.2-0.4v-0.4v-1.7v-0.8l-0.5-0.6c-0.2-0.2-0.4-0.5-0.6-0.7c-0.5-0.6-1.1-1.3-1.7-1.9
			c-0.5-0.5-1.1-1-1.6-1.3c-0.2-0.1-0.3-0.2-0.3-0.9c0.1-2.8,0.1-5.7,0-8.4l0-1.3c0-3.2-1.9-5.4-4.8-5.6c-1.1-0.1-2.2-0.1-3.3-0.1
			c-1.2,0-2.5,0-3.8,0.1c-2,0.1-3.6,1.3-4.3,3.1c-0.2-0.2-0.5-0.4-0.7-0.6c-1.2-0.9-2.3-1.8-3.5-2.8C73.3,0.6,72.1,0.2,70.9,0.2
			L70.9,0.2z M52.8,22.2c5.9-4.7,11.9-9.3,17.8-14c0.1-0.1,0.2-0.1,0.2-0.2C70.9,8,71,7.9,71,7.9c5.3,4.2,10.6,8.4,15.8,12.5
			l2.3,1.8l-36.1,0L52.8,22.2L52.8,22.2z M85.6,9l0.3,0c0.6,0,1.3,0,1.9,0c0,1,0,2,0,3.1c-0.6-0.5-1.3-1-1.9-1.4
			c-0.4-0.3-0.5-0.4-0.4-0.9C85.5,9.4,85.6,9.2,85.6,9L85.6,9z M68.2,42c0.1,0,0.1,0,0.2,0c0.9,0,1.8,0,2.7,0l1.2,0l0.6,0
			c0.3,0,0.5,0,0.8,0c0,3.2,0,6.3,0,9.5l0,3.6c0,0.1,0,0.2,0,0.3l-0.2,0c-0.2,0-0.4,0-0.6,0l-0.3,0l0,0h0h-4.3c0-4.4,0-8.7,0-13.1
			C68.2,42.2,68.2,42.1,68.2,42L68.2,42z"/>
	</g>
	<path class="st4" d="M3,94.2c0.3,1.2,1.2,2,2.2,2.6c-0.7,0-1.5,0-2.2,0C3,95.9,3,95,3,94.2z"/>
	<path class="st1" d="M48.7,31.6c1.3-0.2,1.7-0.7,1.7-2c0-0.7,0-1.4,0-2.1c0.3,0,0.6-0.1,0.8-0.1c12.2,0,24.4,0,36.6,0
		c0.2,0,0.4,0,0.6,0c0,1.1,0,2.3,0,3.4c0,8.8,0,17.6,0,26.4c-3.1,0-6.2,0-9.4,0c0-0.4,0-0.7,0-1.1c0-4.7-0.1-9.4,0-14.1
		c0.1-3.1-2.3-5.5-5.2-5.3c-1.9,0.1-3.9,0-5.8,0c-2.8,0-4.8,2-4.8,4.8c0,4.9,0,9.8,0,14.8c0,0.2,0,0.5,0,0.9c-0.4,0-0.7,0-1,0
		c-2,0-4,0-6,0c-1.3,0-1.6,0.3-1.9,1.5c-1.4,0-2.7,0-4.1,0c2.5-2.9,2.7-6,0.5-8.7c-0.5-0.6-1.2-1-1.8-1.6
		C48.7,43,48.7,37.3,48.7,31.6z"/>
	<path class="st5" d="M14.9,80c1.3-0.4,2.7-0.9,4.3-1.4c-0.4,0.9-0.7,1.5-1,2.1c-0.7,1.2-0.7,2.4-0.1,3.7c1.3,2.7,2.6,5.4,3.9,8.2
		c0.1,0.3,0.3,0.6,0.4,1c-1.7,0-3.3,0-5.1,0c0-0.5,0-0.9,0-1.4c0-1-0.7-1.7-1.6-1.7c-0.9,0-1.5,0.6-1.5,1.7c0,0.4,0,0.9,0,1.4
		c-1.6,0-3.2,0-4.8,0c0.3-3,0.6-6,1.6-8.8c0.6-1.8,1.8-3.1,3.3-4.1C14.5,80.5,14.7,80.2,14.9,80z"/>
	<path class="st0" d="M7,87.3c0,0.8-0.7,1.6-1.6,1.6c-0.9,0-1.6-0.7-1.6-1.6c0-0.8,0.7-1.6,1.6-1.6C6.3,85.7,7,86.4,7,87.3z"/>
	<path class="st5" d="M6.4,93.6c-0.1,0-0.1-0.1-0.2-0.1C6.3,93.5,6.3,93.5,6.4,93.6z"/>
	<path class="st1" d="M21.9,47.9c0.2,0,0.4-0.1,0.6-0.1c6,0,11.9,0,17.9,0c0.2,0,0.4,0,0.5,0.1c-0.2,1.2,0.4,1.6,1.5,1.8
		c3.2,0.8,4.4,5.3,2,7.6c-0.9,0.8-2.1,1.3-3.4,2c0,0.8,0,2,0,3.1c0,1.4-0.5,2.7-1.5,3.7c-0.6,0.7-1.4,1.2-2.1,1.8
		c-1.3,1.2-2.6,2.3-3.9,3.5c-1.9,0-3.7,0-5.6,0c0.3-0.8,0-1.3-0.6-1.8c-1.3-1.1-2.6-2.1-3.7-3.3c-0.7-0.7-1.3-1.7-1.5-2.7
		c-0.3-1.2-0.2-2.4-0.2-3.6C21.9,56,21.9,52,21.9,47.9z"/>
	<path class="st1" d="M53.5,93.6c-1.5,0-3.1,0-4.6,0c-0.2-1.3,0.3-3-1.7-3.1c-1.1-0.1-1.4,0.6-1.7,3c-1.6,0-3.3,0-5,0
		c0.7-1.4,1.3-2.8,2-4.2c0.8-1.6,1.5-3.3,2.4-4.9c0.6-1.3,0.7-2.5,0-3.7c-0.3-0.6-0.6-1.3-1-2.2c1.6,0.5,2.9,1,4.2,1.4
		c0.3,0.3,0.5,0.5,0.9,0.8c1.2,0.8,2.2,1.8,2.8,3.2C53,87,53.4,90.3,53.5,93.6z"/>
	<path class="st6" d="M21.9,47.9c0,4,0,8,0,12.1c0,1.2-0.1,2.5,0.2,3.6c0.3,1,0.8,2,1.5,2.7c1.1,1.2,2.5,2.2,3.7,3.3
		c0.6,0.5,0.9,1,0.6,1.8c-0.6-0.3-1.3-0.4-1.8-0.8c-2.1-1.7-4-3.5-6.1-5.3c-0.9-0.8-1.4-1.8-1.3-3c0-1,0-2.1,0-3.1
		c0-1.3-0.4-1.7-1.7-1.9c-1.4-0.2-2.5-0.9-2.9-2.3c-0.3-1.2-0.1-2.4,0.9-3.2c0.5-0.4,1.1-0.7,1.6-0.8c1.7-0.3,2-0.6,2-2.3
		c0-0.3,0-0.5,0-0.9C19.9,47.9,20.9,47.9,21.9,47.9z"/>
	<path class="st1" d="M31.2,27.5c0.2,0,0.5,0,0.7,0c0.2,0.2,0.3,0.5,0.5,0.7c3,2.9,3,8.1-0.1,10.9c-0.2,0.2-0.4,0.5-0.6,0.8
		c-3,0.3-6.2-2.3-6.4-5.3c-0.1-1.1,0.3-2.3,0.4-3.5c0.3-0.1,0.6-0.2,0.9-0.4c0.9-0.6,1.7-1.1,2.6-1.7C29.9,28.5,30.5,28,31.2,27.5z
		 M31.4,35.3c0.9,0,1.6-0.6,1.6-1.5c0-0.9-0.7-1.6-1.6-1.6c-0.8,0-1.5,0.7-1.6,1.5C29.8,34.5,30.5,35.2,31.4,35.3z"/>
	<path class="st7" d="M33.6,71.5c1.3-1.2,2.6-2.3,3.9-3.5c0.7-0.6,1.4-1.2,2.1-1.8c1-1,1.4-2.3,1.5-3.7c0-1.1,0-2.3,0-3.1
		c1.3-0.7,2.5-1.2,3.4-2c2.4-2.3,1.2-6.7-2-7.6c-1.1-0.3-1.7-0.7-1.5-1.8c1,0,2,0,3.2,0c0,0.3,0,0.7,0,1.1c0,1.4,0.4,1.8,1.8,2.1
		c0.7,0.2,1.4,0.5,2,0.9c1,0.8,1.1,1.9,0.8,3.1c-0.3,1.2-1.1,1.9-2.3,2.2c-0.3,0.1-0.5,0.1-0.8,0.1c-0.9,0.1-1.4,0.6-1.5,1.6
		c0,1.2,0,2.4,0,3.6c0,1-0.3,1.8-1,2.5c-2.2,2-4.4,3.9-6.7,5.8C35.6,71.5,34.6,71.8,33.6,71.5z"/>
	<path class="st1" d="M27.3,74.6c2.6,0,5.3,0.1,7.9,0c1.1-0.1,2.1-0.6,3.2-0.9c0.2,0.7,0.5,1.5,0.7,2.4c-0.9,0.5-1.7,1-2.6,1.4
		c-1.2,0.6-2,1.5-2.1,2.8c-0.1,0.7-0.4,0.8-1,0.8c-1.5,0-3.1,0-4.6,0c-0.1-0.1-0.2-0.2-0.2-0.3c-0.2-1.7-1.1-2.9-2.7-3.6
		c-0.2-0.1-0.3-0.2-0.5-0.4C26.4,76.4,27.3,75.9,27.3,74.6z"/>
	<path class="st8" d="M21.9,41.6c1.3,0,2.6-0.1,4,0c0.3,0,0.5,0.1,0.8,0.3c3.2,1.8,6.4,1.8,9.6,0c0.2-0.1,0.5-0.3,0.8-0.3
		c2.3,0,4.7,0,7.1,0c0,1.1,0,2,0,3c-0.1,0-0.3,0.1-0.4,0.1c-7.2,0-14.5,0-21.7,0C21.9,43.7,21.9,42.6,21.9,41.6z"/>
	<path class="st7" d="M35,93.7c0.3-1.6,0.6-3,0.8-4.4c0.5-2.7,1.1-5.4,1.6-8.1c0.1-0.4,0.4-0.8,0.7-1c0.7-0.5,1.4-0.8,2.2-1.2
		c0.6,1.2,1.1,2.3,1.6,3.4c0.1,0.2,0,0.6-0.1,0.9c-1.5,3.3-3.1,6.6-4.7,9.9C36.7,94.1,35.8,93.4,35,93.7z"/>
	<path class="st7" d="M22.5,78.9c0.9,0.5,1.7,0.9,2.4,1.3c0.2,0.1,0.4,0.3,0.4,0.6c0.8,4.1,1.7,8.2,2.5,12.4c0,0.1,0,0.1,0,0.2
		c-1.1,0.6-1.8,0.3-2.3-0.7c-1.5-3.2-3-6.3-4.5-9.5c-0.2-0.3-0.1-0.8,0-1.2C21.4,81,22,80,22.5,78.9z"/>
	<path class="st7" d="M53.5,93.6c-0.2-3.3-0.6-6.6-1.9-9.7c-0.6-1.4-1.6-2.3-2.8-3.2c-0.3-0.2-0.6-0.5-0.9-0.8
		c1.9,0.9,3.8,1.7,5.6,2.8c0.6,0.3,1,1.1,1.3,1.7c1.4,2.8,1.6,5.9,1.9,9.1C55.6,93.6,54.6,93.6,53.5,93.6z"/>
	<path class="st7" d="M31.7,40c0.2-0.3,0.4-0.6,0.6-0.8c3-2.8,3-8,0.1-10.9c-0.2-0.2-0.3-0.5-0.5-0.7c2.5,0,4.8,1.8,5.6,4.5
		C38.7,35.9,35.7,39.9,31.7,40z"/>
	<path class="st8" d="M29.3,84.2c1.5,0,2.8,0,4.3,0c-0.3,1.8-0.7,3.5-1,5.2c-0.2,1.2-0.5,2.5-0.7,3.7c0,0.2-0.3,0.3-0.4,0.5
		c-0.1-0.1-0.3-0.2-0.3-0.4C30.5,90.2,29.9,87.3,29.3,84.2z"/>
	<path class="st9" d="M22.9,38.4c-1.1,0-2.4,0-3.9,0c0.4-2.1,1.3-3.9,2.7-5.3C22.2,34.8,22.5,36.6,22.9,38.4z"/>
	<path class="st8" d="M40,38.4c0.4-1.7,0.8-3.4,1.2-5.1c1,0.4,2.4,3.1,2.7,5.1C42.5,38.4,41.2,38.4,40,38.4z"/>
	<path class="st10" d="M21.9,41.6c0,1,0,2,0,3.1c-1,0-2,0-3.1,0c0-1.1,0-2,0-3.1C19.9,41.6,20.9,41.6,21.9,41.6z"/>
	<path class="st11" d="M27.3,74.6c0.1,1.3-0.9,1.8-1.8,2.2c-0.5-0.2-1.1-0.5-1.6-0.7c0.3-0.9,0.5-1.7,0.8-2.5
		C25.5,73.9,26.4,74.3,27.3,74.6z"/>
	<path class="st12" d="M31.2,27.5c-0.7,0.5-1.3,1.1-2,1.6c-0.8,0.6-1.7,1.2-2.6,1.7c-0.3,0.2-0.6,0.3-0.9,0.4
		C26.8,28.9,28.6,27.6,31.2,27.5z"/>
	<path class="st1" d="M91.5,24.2c-0.3,0-0.6,0-0.8,0c-14.2,0-28.4,0-42.6,0c-0.2,0-0.5,0-1,0c1.2-1,2.2-1.8,3.3-2.6
		c6.3-5,12.7-10,19-15c0.2-0.2,0.4-0.3,0.6-0.4c0,0.1,0.1,0.2,0.1,0.2c2.1,1.7,4.3,3.4,6.4,5.1c4.5,3.6,9.1,7.1,13.6,10.6
		C90.8,22.7,91.5,23.2,91.5,24.2z"/>
	<path class="st1" d="M72.4,57.4c-2,0-4.1,0-6.2,0c0-0.4-0.1-0.7-0.1-1c0-4.7,0-9.4,0-14.1c0-1.7,0.5-2.2,2.2-2.2c1.3,0,2.6,0,3.9,0
		c0.1,0.4,0.2,0.8,0.2,1.2C72.4,46.6,72.4,52,72.4,57.4z"/>
	<path class="st7" d="M88.3,57.3c0-8.8,0-17.6,0-26.4c0-1.1,0-2.3,0-3.4c1,0,2,0,3.1,0c0,0.4,0,0.7,0,1c0,9.3,0,18.6,0,27.8
		c0,0.9-0.3,1.2-1.2,1.1C89.7,57.3,89,57.3,88.3,57.3z"/>
	<path class="st7" d="M72.4,57.4c0-5.4,0-10.8,0-16.1c0-0.4-0.1-0.8-0.2-1.2c0.6,0,1.1,0,1.7,0c1.2,0,1.7,0.5,1.7,1.7
		c0,4.5,0,8.9,0,13.4c0,2.3,0,2.3-2.3,2.3C73,57.4,72.7,57.4,72.4,57.4z"/>
	<path class="st1" d="M89.8,16.2c-1.8-1.4-3.4-2.8-5-3.9c-1-0.7-1.4-1.6-1.3-2.8c0.1-0.8,0-1.6,0-2.5c2,0,4,0,5.9,0
		c0.1,0,0.4,0.3,0.4,0.5C89.8,10.3,89.8,13.1,89.8,16.2z"/>
	<path class="st7" d="M91.5,24.2c0-1-0.7-1.5-1.4-2c-4.5-3.6-9-7.1-13.6-10.6c-2.1-1.7-4.3-3.4-6.4-5.1c-0.1-0.1-0.1-0.2-0.1-0.2
		c0.6-0.8,1.1-0.8,1.9-0.2c7.4,5.9,14.8,11.7,22.2,17.6c0.2,0.1,0.3,0.3,0.6,0.6C93.5,24.2,92.5,24.2,91.5,24.2z"/>
	<path class="st0" d="M31.4,35.3c-0.9,0-1.6-0.7-1.5-1.6c0-0.8,0.8-1.5,1.6-1.5c0.9,0,1.6,0.7,1.6,1.6C33,34.6,32.3,35.3,31.4,35.3z
		"/>
</g>
<g id="Layer_1">
</g>
</svg>
