<?xml version="1.0" encoding="utf-8"?>
<!-- Generator: Adobe Illustrator 26.5.0, SVG Export Plug-In . SVG Version: 6.00 Build 0)  -->
<svg version="1.1" id="Layer_1" xmlns="http://www.w3.org/2000/svg" xmlns:xlink="http://www.w3.org/1999/xlink" x="0px" y="0px"
	 viewBox="0 0 1191 500" style="enable-background:new 0 0 1191 500;" xml:space="preserve">
<style type="text/css">
	.st0{fill:#0EAF9F;}
	.st1{fill:#FFFFFF;}
</style>
<path class="st0" d="M251.4,397.3c-0.8-3-1.7-6-2.4-9.1c-1.6-6.5-2.6-13-2.6-19.6c0-8.2,0.6-16.2,2.7-24.2c0.5-2,1.3-3.9,2.3-5.8
	c2.3-4.3,5.9-7.1,10.7-8.3c3.3-0.9,6.5-1.9,9.7-3.4c5.5-2.7,10-6.5,13.6-11.5c3.8-5.1,3.7-9.7-0.3-14.7c-0.5-0.6-1.1-1.3-1.6-1.9
	c-10-10.7-20.1-21.3-30.2-32c-2.4-2.6-4.9-5.1-7.4-7.6c-1.5-1.5-2.2-3.4-2-5.6c0.6-7,1.3-14,1.8-21c0.1-1,0.1-2-0.1-3
	c-0.4-2.6-2.8-3.9-5.1-2.8c-1.4,0.6-2.8,1.5-3.9,2.6c-3.9,3.4-7.7,6.9-11.6,10.4c-0.4,0.4-1,0.8-1.6,1.4c-0.9-4.8-0.5-9.8-2.4-14.3
	c-2.5,0.3-4.5,1.3-6.3,2.9c-7.5,6.5-14.7,13.4-21.2,21c-8.2,9.7-14.4,20.4-19.2,32c-4,9.9-7.8,19.9-11.6,29.8
	c-10.8,28.9-21.7,57.8-32.5,86.8c-0.5,1.4-1.2,2.8-1.9,4.1c-3.1,5.6-8,8.6-14.3,8.6c-8.5,0-17.1,0.1-25.6-1
	c-3.2-0.4-6.5-0.9-9.5-2.1c-4.6-1.7-7.8-4.8-9.4-9.4c-1.3-3.7-1.9-7.5-2.3-11.4c-0.7-7-0.8-13.9-0.5-20.9c0.2-4.5,0.2-9,0.2-13.4
	c0-24.1,0.1-48.2,0.1-72.3c0-1.1,0-2.2-0.1-3.3c-0.2-2.7-1.5-4.5-4.1-5.2c-1.5-0.4-3.1-0.7-4.8-1.1c-5.4-1.3-10.5-3-15.1-6
	c-9.1-5.6-14.5-13.9-16.5-24.4c-0.8-4.4-0.9-8.9-0.6-13.4c0.3-3.9,1.8-7.5,3.9-10.8c2.2-3.3,5.1-6.2,8-9
	c8.1-7.9,16.2-15.7,24.3-23.6c7.7-7.5,15.3-15.1,23-22.6c0.8-0.8,1.5-1.6,2.4-2.3c6.3-5.1,10-12,13.5-19c1.9-3.9,2.5-8,2.6-12.2
	c0.2-8.9,0.1-17.7,0.2-26.6c0-2.9,0-5.8,0.2-8.7c0.4-5.1,3.9-9,9-10c0.8-0.2,1.6-0.3,2.4-0.4c4-0.2,8.2-0.4,12.2-0.4
	c1.3,0,2.4,0.1,3.7,0.3c3.3,0.5,5.9,2.3,7.8,5.1c1.4,2.2,2.3,4.6,3,7c0.4,1.5,0.8,3,1.4,4.5c0.8,1.9,1.9,2.2,3.6,1.1
	c1-0.6,1.9-1.3,2.8-2.2c4.8-4.6,9.8-9.1,14.5-13.8C175.5,74,186.8,63,198.1,52.1c2.2-2.2,4.6-4.2,6.9-6.1c3.6-3,7.6-5.1,12.3-5.8
	c3.9-0.6,7.8,0,11.4,1.6c3.4,1.5,6.3,3.8,8.9,6.4C249.7,60.1,261.8,72,274,83.9c21.2,20.5,42.5,41,63.5,61.6
	c20.3,19.8,40.2,39.8,60.4,59.8c3.2,3.2,6.6,6.4,9.9,9.6c3.6,3.6,5.9,7.9,6.8,12.9c0.6,3.7,0.4,7.3-0.2,10.9
	c-0.8,4.8-2.1,9.3-4,13.6c-4.7,10.1-12.5,16.1-23.6,18.1c-10.8,1.9-21.2,0.7-31.6-2.6c-17.4-5.5-32.3-15-45.3-27.4
	c-5.6-5.3-10.7-11-15.5-17c-5.7-7.3-9.9-15.4-13.2-24c-1.6-4.2-3.1-8.5-4.6-12.8c-3-9.3-8.3-16.9-15.8-23.2
	c-12.5-10.5-26.6-17.1-42.8-19.4c-7.7-1.1-15.4-1.1-23.1-0.2c-6.6,0.7-13.1,2.2-19.3,4.6c-7.4,3-14,7.3-19.4,13.3
	c-4.2,4.7-9,8.6-14.6,11.4c-5.6,2.7-11.5,4.1-17.7,4.4c-1.4,0.1-2.9,0.1-4.4,0c-8.1-0.4-15.2,2-21.8,6.5c-1.8,1.3-3.5,2.5-4.9,4.1
	c-5.5,6.1-7,13.3-3.6,20.7c5.9,12.9,14.1,24.4,25.3,33.3c10.3,8.2,22,13.4,35,15.4c8.7,1.3,17.4,0.7,26-1.4c2.6-0.6,4.9-1.8,7-3.4
	c1-0.8,2.1-1.5,3-2.5c4.9-5.3,10-10.4,14.6-15.9c5.2-6.3,11.3-11.2,19.3-12.4c0.7-0.1,0.4,0.1,1,0c3.3-0.4,6.6,2.7,6.4,5.9
	c-0.1,0.5-0.2,1-0.3,1.8c0.8-0.6,1.4-1.2,2.1-1.6c3-2.3,6-4.4,9.3-6.1c2.2-1.2,4.4-1.3,6.7-0.4c1.7,0.6,3.3,1.3,5,2
	c0.4,0.2,0.6,0.6,0.9,1c1,1.8,1.3,3.9,1.3,5.9c0,4.1,0.1,8.2-0.1,12.4c-0.4,6.9,2,12.9,6.4,18.1c1.5,1.8,3,3.5,4.8,5
	c6.5,5.9,12.5,12.4,18.3,18.9c1.8,2.1,3.9,3.9,5.3,6.3c0.3,0.4,0.8,0.8,1.3,1.2c4.8,4.2,6.7,9.6,6.1,16c-0.3,2.2-0.6,4.2-1.2,6.4
	c-1.4,5.7-4.7,10.2-9.2,13.7c-2.9,2.2-6.1,3.8-9.5,5.1c-3.2,1.3-6.5,2.7-9.6,4.2c-1.9,1-3.7,2.2-5.4,3.6c-5.9,4.8-8.9,10.9-9.2,18.4
	c-0.3,6.3,0,12.5,0.5,18.8c0.3,3.7,0.5,7.4,0.8,11.1c0.2,2.5,0.4,5.1,0.6,7.6C251.6,397.3,251.5,397.3,251.4,397.3z"/>
<g>
	<path class="st1" d="M594.9,323.6H458.4V115.4h128.9v40.5h-82.7V199h73.6v39.7h-73.6v44.4h90.4V323.6z"/>
	<path class="st1" d="M753.5,323.6H617V115.4h47v167.4h89.5V323.6z"/>
	<path class="st1" d="M770.4,323.6V115.4h46.8v208.2H770.4z"/>
	<path class="st1" d="M1010.7,156.3h-62.1v167.4h-47.3V156.3h-62.1v-40.9h171.4V156.3z"/>
	<path class="st1" d="M1169.2,323.6h-136.5V115.4h128.9v40.5h-82.7V199h73.6v39.7h-73.6v44.4h90.4V323.6z"/>
</g>
<g>
	<path class="st0" d="M459.3,352.4h15.1l14.8,39.2h0.2l15.1-39.2h14l-24.7,59.9h-10.5L459.3,352.4z"/>
	<path class="st0" d="M562.2,405.2c-2.1,2.6-4.7,4.6-7.8,6c-3.1,1.4-6.3,2.1-9.6,2.1c-3.2,0-6.2-0.5-9-1.6s-5.2-2.5-7.2-4.4
		c-2.1-1.9-3.7-4.1-4.9-6.8c-1.2-2.6-1.8-5.6-1.8-8.9c0-3.3,0.6-6.3,1.8-8.9c1.2-2.6,2.8-4.9,4.9-6.8c2.1-1.9,4.5-3.3,7.2-4.4
		s5.8-1.6,9-1.6c6,0,10.7,2,14.1,5.9c3.4,3.9,5.1,9.2,5.1,15.8v4h-29.4c0.5,2.5,1.6,4.4,3.3,5.8c1.7,1.4,3.8,2.1,6.2,2.1
		c2.1,0,3.8-0.5,5.3-1.4c1.5-0.9,2.7-2.1,3.8-3.6L562.2,405.2z M551.4,387c0.1-2.1-0.6-3.9-2.1-5.4c-1.5-1.5-3.4-2.3-5.7-2.3
		c-2.8,0-4.9,0.8-6.4,2.4c-1.5,1.6-2.4,3.4-2.5,5.3H551.4z"/>
	<path class="st0" d="M599.7,381.4h-11.2V395c0,2.2,0.3,4,0.9,5.5c0.6,1.4,2.3,2.1,4.9,2.1c0.8,0,1.7-0.1,2.8-0.2
		c1.1-0.1,1.9-0.4,2.5-1v10.6c-1.4,0.5-2.8,0.8-4.4,1c-1.5,0.2-3.1,0.3-4.6,0.3c-2.1,0-4-0.2-5.8-0.7c-1.8-0.5-3.4-1.2-4.7-2.2
		c-1.3-1-2.4-2.3-3.1-3.9c-0.8-1.6-1.1-3.5-1.1-5.7v-19.5h-8.2v-10.2h8.2V359h12.7v12.1h11.2V381.4z"/>
	<path class="st0" d="M645.2,405.2c-2.1,2.6-4.7,4.6-7.8,6c-3.1,1.4-6.3,2.1-9.6,2.1c-3.2,0-6.2-0.5-9-1.6s-5.2-2.5-7.2-4.4
		c-2.1-1.9-3.7-4.1-4.9-6.8c-1.2-2.6-1.8-5.6-1.8-8.9c0-3.3,0.6-6.3,1.8-8.9c1.2-2.6,2.8-4.9,4.9-6.8c2.1-1.9,4.5-3.3,7.2-4.4
		s5.8-1.6,9-1.6c6,0,10.7,2,14.1,5.9c3.4,3.9,5.1,9.2,5.1,15.8v4h-29.4c0.5,2.5,1.6,4.4,3.3,5.8c1.7,1.4,3.8,2.1,6.2,2.1
		c2.1,0,3.8-0.5,5.3-1.4c1.5-0.9,2.7-2.1,3.8-3.6L645.2,405.2z M634.4,387c0.1-2.1-0.6-3.9-2.1-5.4c-1.5-1.5-3.4-2.3-5.7-2.3
		c-2.8,0-4.9,0.8-6.4,2.4c-1.5,1.6-2.4,3.4-2.5,5.3H634.4z"/>
	<path class="st0" d="M654.8,371.1h12.6v6.7h0.2c1.4-2.5,3-4.4,4.8-5.8c1.8-1.3,4.2-2,7-2c0.7,0,1.4,0,2.2,0.1
		c0.8,0.1,1.5,0.2,2.1,0.3v11.6c-0.9-0.2-1.8-0.4-2.7-0.6c-0.9-0.2-1.8-0.2-2.7-0.2c-2.5,0-4.4,0.3-5.8,1c-1.4,0.7-2.5,1.6-3.3,2.8
		c-0.8,1.2-1.3,2.7-1.5,4.4c-0.2,1.7-0.3,3.6-0.3,5.6v17.1h-12.6V371.1z"/>
	<path class="st0" d="M688.3,358.2c0-2.1,0.7-3.8,2.2-5.2c1.5-1.4,3.2-2.1,5.2-2.1c2.1,0,3.8,0.7,5.3,2.1c1.5,1.4,2.2,3.2,2.2,5.2
		c0,2-0.7,3.7-2.2,5.2c-1.5,1.5-3.2,2.2-5.3,2.2c-2,0-3.7-0.7-5.2-2.2C689.1,362,688.3,360.2,688.3,358.2z M689.4,371.1H702v41.2
		h-12.7V371.1z"/>
	<path class="st0" d="M711.2,371.1h12.2v5.6h0.2c0.8-1.6,2.3-3.1,4.3-4.5c2-1.4,4.6-2.1,7.7-2.1c3.2,0,5.8,0.5,7.8,1.5
		c2,1,3.5,2.4,4.6,4.1c1.1,1.8,1.8,3.8,2.2,6.2c0.4,2.4,0.6,4.9,0.6,7.7v22.7h-12.7v-20.1c0-1.2,0-2.4-0.1-3.7
		c-0.1-1.3-0.3-2.5-0.7-3.5c-0.4-1-1.1-1.9-2-2.6c-0.9-0.7-2.1-1-3.7-1c-1.7,0-3,0.3-4,0.9c-1,0.6-1.8,1.4-2.3,2.4
		c-0.5,1-0.9,2.1-1.1,3.3c-0.2,1.2-0.3,2.5-0.3,3.9v20.5h-12.6V371.1z"/>
	<path class="st0" d="M785.6,407.1h-0.2c-1.5,2.2-3.4,3.8-5.7,4.8c-2.3,1-4.8,1.4-7.4,1.4c-1.9,0-3.8-0.3-5.5-0.8
		c-1.8-0.5-3.3-1.3-4.7-2.4c-1.3-1.1-2.4-2.4-3.2-4c-0.8-1.6-1.2-3.5-1.2-5.5c0-3.5,1-6.3,2.9-8.2c1.9-2,4.3-3.4,7.1-4.3
		c2.8-0.9,5.9-1.5,9.1-1.6c3.2-0.2,6.2-0.2,8.9-0.2c0-2.2-0.8-4-2.4-5.3c-1.6-1.3-3.5-2-5.8-2c-2.1,0-4,0.4-5.7,1.3
		c-1.7,0.8-3.3,2-4.7,3.6l-6.8-6.9c2.3-2.2,5-3.9,8.2-5c3.2-1.1,6.5-1.7,9.9-1.7c3.7,0,6.7,0.5,9.1,1.4s4.3,2.3,5.8,4.1
		c1.4,1.8,2.4,4,3,6.7c0.6,2.6,0.9,5.7,0.9,9.1v20.9h-11.6V407.1z M782.4,394.2c-1,0-2.2,0-3.6,0.1c-1.4,0.1-2.8,0.3-4.1,0.7
		c-1.3,0.4-2.5,1-3.4,1.8s-1.4,1.9-1.4,3.3c0,1.5,0.7,2.7,2,3.4c1.3,0.7,2.7,1.1,4.1,1.1c2.5,0,4.7-0.7,6.7-2c2-1.3,3-3.2,3-5.8
		v-2.8H782.4z"/>
	<path class="st0" d="M805.3,371.1h12.6v6.7h0.2c1.4-2.5,3-4.4,4.8-5.8c1.8-1.3,4.2-2,7-2c0.7,0,1.4,0,2.2,0.1
		c0.8,0.1,1.5,0.2,2.1,0.3v11.6c-0.9-0.2-1.8-0.4-2.7-0.6c-0.9-0.2-1.8-0.2-2.7-0.2c-2.5,0-4.4,0.3-5.8,1c-1.4,0.7-2.5,1.6-3.3,2.8
		c-0.8,1.2-1.3,2.7-1.5,4.4c-0.2,1.7-0.3,3.6-0.3,5.6v17.1h-12.6V371.1z"/>
	<path class="st0" d="M863.5,419c-0.8,2.2-1.7,4.2-2.5,5.9c-0.8,1.7-1.8,3.1-3,4.3c-1.2,1.2-2.7,2-4.7,2.6c-1.9,0.6-4.4,0.9-7.4,0.9
		c-3.1,0-6.2-0.5-9.4-1.6l1.7-10.4c1,0.4,2,0.7,2.9,0.9c0.9,0.2,1.9,0.3,3,0.3c1.5,0,2.6-0.2,3.5-0.5c0.9-0.3,1.6-0.7,2.2-1.3
		c0.6-0.6,1.1-1.3,1.5-2.1c0.4-0.8,0.8-1.8,1.3-3l0.9-2.4l-18.1-41.5h13.8l10.5,27.1h0.2l9.1-27.1h13L863.5,419z"/>
	<path class="st0" d="M949.5,367.9c-2.8-3.2-6.6-4.8-11.4-4.8c-2.5,0-4.8,0.5-7,1.4c-2.1,1-3.9,2.3-5.5,4c-1.5,1.7-2.7,3.8-3.6,6.1
		c-0.9,2.3-1.3,4.9-1.3,7.8c0,2.8,0.4,5.3,1.3,7.7c0.9,2.4,2.1,4.4,3.6,6.1c1.5,1.7,3.3,3,5.3,4c2.1,1,4.3,1.4,6.7,1.4
		c2.7,0,5.1-0.6,7.2-1.7c2.1-1.1,3.9-2.7,5.2-4.7l11,8.2c-2.5,3.6-5.8,6.2-9.7,7.9c-3.9,1.6-7.9,2.5-12.1,2.5c-4.7,0-9-0.7-12.9-2.2
		c-4-1.5-7.4-3.5-10.2-6.3c-2.9-2.7-5.1-6-6.7-9.9c-1.6-3.9-2.4-8.2-2.4-13.1s0.8-9.2,2.4-13.1c1.6-3.9,3.9-7.2,6.7-9.9
		c2.9-2.8,6.3-4.9,10.2-6.3c3.9-1.5,8.3-2.2,12.9-2.2c1.7,0,3.4,0.2,5.3,0.5c1.8,0.3,3.7,0.8,5.5,1.5c1.8,0.7,3.5,1.6,5.1,2.7
		c1.6,1.1,3.1,2.5,4.4,4.1L949.5,367.9z"/>
	<path class="st0" d="M1005.6,405.2c-2.1,2.6-4.7,4.6-7.8,6c-3.1,1.4-6.3,2.1-9.6,2.1c-3.2,0-6.2-0.5-9-1.6s-5.2-2.5-7.2-4.4
		c-2.1-1.9-3.7-4.1-4.9-6.8c-1.2-2.6-1.8-5.6-1.8-8.9c0-3.3,0.6-6.3,1.8-8.9c1.2-2.6,2.8-4.9,4.9-6.8c2.1-1.9,4.5-3.3,7.2-4.4
		s5.8-1.6,9-1.6c6,0,10.7,2,14.1,5.9c3.4,3.9,5.1,9.2,5.1,15.8v4H978c0.5,2.5,1.6,4.4,3.3,5.8c1.7,1.4,3.8,2.1,6.2,2.1
		c2.1,0,3.8-0.5,5.3-1.4c1.5-0.9,2.7-2.1,3.8-3.6L1005.6,405.2z M994.8,387c0.1-2.1-0.6-3.9-2.1-5.4c-1.5-1.5-3.4-2.3-5.7-2.3
		c-2.8,0-4.9,0.8-6.4,2.4c-1.5,1.6-2.4,3.4-2.5,5.3H994.8z"/>
	<path class="st0" d="M1015.2,371.1h12.2v5.6h0.2c0.8-1.6,2.3-3.1,4.3-4.5c2-1.4,4.6-2.1,7.7-2.1c3.2,0,5.8,0.5,7.8,1.5
		c2,1,3.5,2.4,4.6,4.1c1.1,1.8,1.8,3.8,2.2,6.2c0.4,2.4,0.6,4.9,0.6,7.7v22.7h-12.7v-20.1c0-1.2,0-2.4-0.1-3.7
		c-0.1-1.3-0.3-2.5-0.7-3.5c-0.4-1-1.1-1.9-2-2.6c-0.9-0.7-2.1-1-3.7-1c-1.7,0-3,0.3-4,0.9c-1,0.6-1.8,1.4-2.3,2.4
		c-0.5,1-0.9,2.1-1.1,3.3c-0.2,1.2-0.3,2.5-0.3,3.9v20.5h-12.6V371.1z"/>
	<path class="st0" d="M1091.6,381.4h-11.2V395c0,2.2,0.3,4,0.9,5.5c0.6,1.4,2.3,2.1,4.9,2.1c0.8,0,1.7-0.1,2.8-0.2
		c1.1-0.1,1.9-0.4,2.5-1v10.6c-1.4,0.5-2.8,0.8-4.4,1c-1.5,0.2-3.1,0.3-4.6,0.3c-2.1,0-4-0.2-5.8-0.7c-1.8-0.5-3.4-1.2-4.7-2.2
		c-1.3-1-2.4-2.3-3.1-3.9c-0.8-1.6-1.1-3.5-1.1-5.7v-19.5h-8.2v-10.2h8.2V359h12.7v12.1h11.2V381.4z"/>
	<path class="st0" d="M1137.2,405.2c-2.1,2.6-4.7,4.6-7.8,6c-3.1,1.4-6.3,2.1-9.6,2.1c-3.2,0-6.2-0.5-9-1.6s-5.2-2.5-7.2-4.4
		c-2.1-1.9-3.7-4.1-4.9-6.8c-1.2-2.6-1.8-5.6-1.8-8.9c0-3.3,0.6-6.3,1.8-8.9c1.2-2.6,2.8-4.9,4.9-6.8c2.1-1.9,4.5-3.3,7.2-4.4
		s5.8-1.6,9-1.6c6,0,10.7,2,14.1,5.9c3.4,3.9,5.1,9.2,5.1,15.8v4h-29.4c0.5,2.5,1.6,4.4,3.3,5.8c1.7,1.4,3.8,2.1,6.2,2.1
		c2.1,0,3.8-0.5,5.3-1.4c1.5-0.9,2.7-2.1,3.8-3.6L1137.2,405.2z M1126.4,387c0.1-2.1-0.6-3.9-2.1-5.4c-1.5-1.5-3.4-2.3-5.7-2.3
		c-2.8,0-4.9,0.8-6.4,2.4c-1.5,1.6-2.4,3.4-2.5,5.3H1126.4z"/>
	<path class="st0" d="M1146.7,371.1h12.6v6.7h0.2c1.4-2.5,3-4.4,4.8-5.8c1.8-1.3,4.2-2,7-2c0.7,0,1.4,0,2.2,0.1
		c0.8,0.1,1.5,0.2,2.1,0.3v11.6c-0.9-0.2-1.8-0.4-2.7-0.6c-0.9-0.2-1.8-0.2-2.7-0.2c-2.5,0-4.4,0.3-5.8,1c-1.4,0.7-2.5,1.6-3.3,2.8
		c-0.8,1.2-1.3,2.7-1.5,4.4c-0.2,1.7-0.3,3.6-0.3,5.6v17.1h-12.6V371.1z"/>
</g>
</svg>
