<?xml version="1.0" encoding="utf-8"?>
<!-- Generator: Adobe Illustrator 26.5.0, SVG Export Plug-In . SVG Version: 6.00 Build 0)  -->
<svg version="1.1" xmlns="http://www.w3.org/2000/svg" xmlns:xlink="http://www.w3.org/1999/xlink" x="0px" y="0px"
	 viewBox="0 0 100 100" style="enable-background:new 0 0 100 100;" xml:space="preserve">
<style type="text/css">
	.st0{fill:#05CCC0;}
	.st1{fill:#106D6A;}
	.st2{fill:#FFFFFF;}
	.st3{fill:#D9E2EB;}
	.st4{fill:#F3F5F8;}
	.st5{fill:#9EDFF4;}
	.st6{fill:#E7E9EC;}
	.st7{fill:#83D8F3;}
	.st8{fill:#9DDEF3;}
</style>
<g id="Layer_2">
	<g id="Layer_2_00000124147986899870748040000009013127560201801124_">
		<path class="st0" d="M50,11.9c10.3-0.2,19.2,3.7,26.9,10.3c12.8,11,19.4,25.3,22.5,41.7c1.1,6.2,0.2,11.8-3.7,16.9
			c-3.9,5.1-9.8,7.1-15.8,5c-11.7-4.1-23.7-5.7-35.9-5c-7.9,0.5-15.8,1.8-23.1,4.8c-9,3.7-18.1-3-20.4-11.9c-1.3-5-0.3-9.8,0.9-14.7
			c3.1-13,8.8-24.6,18.4-34.1c7-7,15.4-11.4,25.2-12.9C46.6,11.7,48.3,11.9,50,11.9z"/>
	</g>
</g>
<g id="Layer_1">
	<g>
		<g>
			<g>
				<path class="st1" d="M77,97.8c-3.4-0.1-6.9-0.3-10.2-0.4c-1.2-0.1-2.5-0.1-3.7-0.2c-4.3-0.2-22.3-1-22.3-1l-24-1.1
					c-1.5-0.1-2.4-1-2.5-2.5c0-0.2,0-0.4,0-0.6l0-81.5c0-2.4,0.6-3.1,2.9-3.3c3.7-0.4,7.3-0.8,11-1.1c3.7-0.4,7.3-0.8,11-1.1
					C43.5,4.5,48,4,52.4,3.6L61,2.7l3.4-0.4c1.3-0.1,2.7-0.3,4-0.4c0,0,0,0,0.1,0c0.1,0,0.2-0.1,0.2-0.1l0.2-0.1H72l0.2,0.1
					c0.2,0.1,0.5,0.2,0.7,0.2c0.6,0.2,1.2,0.4,1.8,0.7c3,1.6,4.6,4.3,4.7,7.7c0,0,0,0,0,0.1c0,0,0.1,0,0.1,0
					c3.7,1.1,6.1,4.3,6.2,8.4c0,2.1,0,4.2,0,6.3l0,2.7v46.7c0,1.8-0.5,2.5-2.1,3l-0.3,0.1l-0.3-0.1c-1.7-0.6-2-1.3-2-3V19.3
					c0-0.3,0-0.5,0-0.8c-0.1-1.2-0.7-2.3-1.5-2.9l0,62.9c0,0.7,0,1.3,0,2c-0.1,4.9-3.3,8.4-8.1,8.9c-1.9,0.2-3.9,0.4-5.8,0.6
					l-17,1.8l10,0.5c6,0.3,12.1,0.6,18.1,0.8l0.2,0c2.4,0,4-1.7,4.1-4.1c0-1.7,0-3.6,0-5.4c0-1.5,0.8-2.5,2.2-2.6l0.1,0l0.1,0
					c1.4,0.1,2.3,1.1,2.3,2.4c0,0.6,0,1.1,0,1.7c0,1.8,0,3.6-0.2,5.5c-0.4,4.1-4.1,7.4-8.2,7.4L77,97.8z M19,90.1l2.9-0.3L38.8,88
					l5.9-0.6c3-0.3,6-0.6,9.1-0.9c3.1-0.3,6.2-0.7,9.3-1l4.4-0.5l1-0.1c0.7-0.1,1.4-0.1,2.1-0.2c2.8-0.3,4-1.7,4-4.5l0-16.1
					l-4.9,0.5l-3,0.3l-6.4,0.7c-5.1,0.5-10.3,1.1-15.4,1.6c-6.4,0.7-12.8,1.4-19.2,2l-3.2,0.3c-1,0.1-1.9,0.2-2.9,0.3L19,69.9V90.1z
					 M19,65.1l3.2-0.3c3.3-0.3,6.5-0.7,9.7-1c3.7-0.4,18.1-1.9,18.1-1.9l19.4-2.1c0.5-0.1,1-0.1,1.5-0.2c1.2-0.1,2.4-0.3,3.5-0.3
					c0.1,0,0.1,0,0.1,0c0,0,0-0.1,0-0.2c0-11.9,0-23.8,0-35.8l0-12.3c0-0.5,0-0.9-0.1-1.2C74.3,8,72.7,6.6,71,6.5l-0.2,0
					c-0.6,0-1.1,0.1-1.7,0.2c-0.3,0-0.7,0.1-1,0.1l-0.1,0l-0.3,0c-0.1,0-0.1,0-0.2,0L41.6,9.5c-5.5,0.6-11,1.2-16.6,1.7
					c-1.6,0.2-3.1,0.3-4.7,0.5L19,11.9V65.1z"/>
			</g>
			<g>
				<path class="st2" d="M71.8,2.7c0.8,0.3,1.6,0.5,2.3,0.9c2.7,1.5,4.1,3.8,4.2,6.8c0,0.7,0.2,0.8,0.8,1c3.3,0.9,5.4,3.8,5.5,7.4
					c0,3,0,6,0,9c0,15.6,0,31.1,0,46.7c0,1.4-0.2,1.7-1.4,2.1c-1.2-0.4-1.3-0.6-1.3-2c0-18.3,0-36.6,0-55c0-0.4,0-0.7,0-1.1
					c-0.2-2.2-1.6-4-3.5-4.3c0,0.4,0,0.7,0,1.1c0,20.8,0,41.6,0,62.4c0,0.9,0,1.9,0,2.8c-0.1,4.4-2.9,7.4-7.2,7.9
					c-2.5,0.3-5,0.5-7.5,0.8c-6.8,0.7-13.6,1.4-20.5,2.1c-2.4,0.3-4.9,0.5-7.3,0.8c0.3,0.1,0.6,0.1,0.9,0.1c4.5,0.2,9,0.4,13.5,0.6
					c8.8,0.4,17.5,0.8,26.3,1.2c0.1,0,0.2,0,0.3,0c3,0,5-2.1,5.1-5.1c0-1.8,0-3.6,0-5.4c0-1,0.4-1.5,1.3-1.6
					c0.8,0.1,1.4,0.5,1.4,1.4c0,2.4,0.1,4.7-0.1,7.1c-0.4,3.6-3.7,6.5-7.2,6.5c-0.1,0-0.1,0-0.2,0c-4.7-0.1-9.3-0.4-14-0.6
					c-7.4-0.3-14.9-0.7-22.3-1c-8-0.4-16-0.7-24-1.1c-1,0-1.5-0.5-1.6-1.5c0-0.2,0-0.5,0-0.7c0-27.1,0-54.2,0-81.2
					c0-1.8,0.2-2.1,2.1-2.3C24.6,7.5,31.9,6.7,39.2,6c7.3-0.8,14.6-1.6,21.9-2.3c2.5-0.3,4.9-0.5,7.4-0.8c0.2,0,0.4-0.1,0.5-0.2
					C69.9,2.7,70.9,2.7,71.8,2.7 M67.9,5.8c-0.1,0-0.2,0-0.2,0c-0.1,0-0.2,0-0.3,0c-3.6,0.4-7.1,0.7-10.7,1.1c-5,0.5-10,1-15.1,1.6
					C36,9.1,30.5,9.6,24.9,10.2c-2.3,0.2-4.6,0.5-6.9,0.7c0,18.5,0,36.8,0,55.3c4.7-0.5,9.4-1,14-1.5c6-0.6,12.1-1.3,18.1-1.9
					c6.5-0.7,13-1.4,19.4-2.1c1.6-0.2,3.3-0.4,4.9-0.5c0.9,0,1.1-0.3,1.1-1.2c0-16,0-32,0-48c0-0.5,0-0.9-0.1-1.4
					c-0.3-2.3-2.2-4.1-4.5-4.2c-0.1,0-0.2,0-0.2,0C69.8,5.5,68.9,5.7,67.9,5.8C67.9,5.8,67.9,5.8,67.9,5.8 M18,91.2
					c1.4-0.1,2.7-0.3,4-0.4c5.6-0.6,11.3-1.2,16.9-1.8c5-0.5,10-1,15-1.6c4.6-0.5,9.1-1,13.7-1.5c1-0.1,2.1-0.2,3.1-0.3
					c3.4-0.4,4.9-2.2,4.9-5.5c0-5.4,0-10.8,0-16.2c0-0.3,0-0.6,0-1c-2.1,0.2-4,0.4-6,0.7c-1,0.1-2,0.2-3,0.3
					c-7.3,0.8-14.5,1.5-21.8,2.3c-7.5,0.8-14.9,1.6-22.4,2.4c-1.5,0.2-2.9,0.3-4.4,0.5C18,76.4,18,83.8,18,91.2 M72.1,0.7h-0.4H69
					h-0.3l-0.3,0.1c-0.1,0-0.2,0.1-0.3,0.1c-1.3,0.1-2.6,0.3-3.9,0.4c-1.1,0.1-2.2,0.2-3.4,0.3C58,2,55.2,2.3,52.3,2.6
					C47.9,3,43.4,3.5,39,4c-3.7,0.4-7.3,0.8-11,1.1C24.3,5.5,20.7,5.9,17,6.3c-2.8,0.3-3.8,1.5-3.8,4.3v81.2l0,0.2
					c0,0.2,0,0.4,0,0.6c0.1,2.1,1.4,3.3,3.5,3.4c4.6,0.2,9.1,0.4,13.7,0.6l10.3,0.5l9.8,0.5c4.2,0.2,8.3,0.4,12.5,0.6
					c1.2,0.1,2.5,0.1,3.7,0.2c3.4,0.2,6.8,0.3,10.3,0.4c0.1,0,0.1,0,0.2,0c4.6,0,8.8-3.7,9.2-8.3c0.2-1.9,0.2-3.7,0.2-5.6
					c0-0.6,0-1.1,0-1.7c0-1.9-1.3-3.2-3.2-3.4l-0.2,0l-0.2,0c-1.2,0.1-2.2,0.8-2.7,1.7c0-0.3,0.1-0.7,0.1-1.1c0-0.7,0-1.3,0-2l0-0.9
					v-0.8c0.4,0.7,1.1,1.2,2.2,1.5l0.6,0.2l0.6-0.2c2.4-0.7,2.8-2.1,2.8-4l0-37.9l0-8.7c0-0.9,0-1.8,0-2.7c0-2.1,0-4.2,0-6.3
					c0-4.3-2.5-7.8-6.3-9.1c-0.3-3.5-2.1-6.2-5.2-7.9c-0.7-0.4-1.3-0.6-1.9-0.8c-0.2-0.1-0.5-0.1-0.7-0.2L72.1,0.7L72.1,0.7z
					 M67.9,7.8L67.9,7.8l0.2,0l0.1,0c0.3,0,0.7-0.1,1-0.1c0.6-0.1,1.1-0.2,1.6-0.2c0.1,0,0.1,0,0.2,0c1.3,0,2.4,1.1,2.6,2.5
					c0,0.3,0.1,0.6,0.1,1.1l0,11.8c0,11.8,0,23.6,0,35.4c-1,0.1-1.9,0.2-2.8,0.3c-0.5,0.1-0.9,0.1-1.4,0.2l-6,0.6l-13.5,1.4L43,61.6
					c-3.7,0.4-7.4,0.8-11.2,1.2c-3.2,0.3-6.4,0.7-9.7,1L20,64V12.8l0.4,0c1.6-0.2,3.2-0.3,4.7-0.5c5.4-0.6,10.9-1.1,16.3-1.7l0.4,0
					l8.1-0.8l7-0.7L61,8.5c2.2-0.2,4.4-0.5,6.6-0.7l0.1,0l0.1,0L67.9,7.8L67.9,7.8z M20,70.8c0.9-0.1,1.7-0.2,2.6-0.3l3.6-0.4
					c6.3-0.7,12.5-1.3,18.8-2c5.3-0.6,10.5-1.1,15.8-1.6l6.1-0.6c0.7-0.1,1.4-0.1,2-0.2l1-0.1l3.8-0.4l0,3.6c0,3.8,0,7.6,0,11.4
					c0,2.4-0.8,3.3-3.2,3.6c-0.7,0.1-1.4,0.1-2.1,0.2l-1,0.1l-4.2,0.5c-3.2,0.3-6.3,0.7-9.5,1c-3,0.3-6.1,0.6-9.1,0.9
					c-2,0.2-3.9,0.4-5.9,0.6c-3.5,0.4-7,0.7-10.6,1.1l-6.3,0.7c-0.6,0.1-1.2,0.1-1.8,0.2V70.8L20,70.8z M61.7,91.4
					c0.7-0.1,1.4-0.1,2.1-0.2l1.8-0.2c1.9-0.2,3.8-0.4,5.7-0.6c4.3-0.4,7.4-2.9,8.6-6.7c0,1.8,0,3.5,0,5.2c0,1.9-1.2,3.2-3.1,3.2
					c-0.1,0-0.1,0-0.2,0C71.7,91.8,66.6,91.6,61.7,91.4L61.7,91.4z"/>
			</g>
		</g>
		<path class="st3" d="M83.2,81.9c-1,0.1-1.4,0.7-1.3,1.6c0,1.8,0,3.6,0,5.4c0,3.1-2.2,5.3-5.3,5.1c-8.8-0.4-17.5-0.8-26.3-1.2
			c-4.5-0.2-9-0.4-13.5-0.6c-0.3,0-0.6,0-0.9-0.1c2.4-0.3,4.9-0.5,7.3-0.8c6.8-0.7,13.6-1.4,20.5-2.1c2.5-0.3,5-0.5,7.5-0.8
			c4.4-0.4,7.2-3.5,7.2-7.9c0-0.9,0-1.9,0-2.8c0-20.8,0-41.6,0-62.4c0-0.4,0-0.7,0-1.1c1.9,0.3,3.3,2.1,3.5,4.3c0,0.4,0,0.7,0,1.1
			c0,18.3,0,36.6,0,55c0,1.4,0.1,1.6,1.3,2C83.2,78.3,83.2,80.1,83.2,81.9z"/>
		<path class="st4" d="M69.6,60.8c-6.5,0.7-13,1.4-19.4,2.1c-6,0.6-12.1,1.3-18.1,1.9c-4.7,0.5-9.3,1-14,1.5c0-18.4,0-36.8,0-55.3
			c2.3-0.2,4.6-0.5,6.9-0.7C30.5,9.6,36,9.1,41.6,8.5c5-0.5,10-1,15.1-1.6c3.6-0.4,7.1-0.7,10.7-1.1c0.2,0,0.4,0,0.5,0
			C68,6,68.2,6.3,68.3,6.5c0.8,1.1,1.3,2.2,1.3,3.6C69.6,26.9,69.6,43.8,69.6,60.8z M33.9,20.8c-1.1,1.1-2.2,2.2-3.3,3.2
			c-1.1-0.4-1.5-0.3-2.2,0.7c-2.8,4.4-4,9.3-3.1,14.5C27.2,50.2,37,57.7,48.2,56.6c11.4-1.1,19.9-11.5,18.6-23
			c-1.7-15.2-19.3-23.5-32.2-15.1C33.6,19.2,33.5,19.6,33.9,20.8z"/>
		<path class="st5" d="M67.6,86c-4.6,0.5-9.1,1-13.7,1.5c-5,0.5-10,1-15,1.6c-5.6,0.6-11.3,1.2-16.9,1.8c-1.3,0.1-2.6,0.3-4,0.4
			c0-7.4,0-14.7,0-22.1c1.5-0.2,2.9-0.3,4.4-0.5c7.5-0.8,14.9-1.6,22.4-2.4c7.3-0.8,14.5-1.5,21.8-2.3c1-0.1,2-0.2,3-0.3
			c0,5.6,0,11.1,0,16.7C69.6,82.4,68.9,84.3,67.6,86z M31.7,84c5.6-0.6,11.9-1.3,18.1-1.9c4.1-0.4,8.2-0.8,12.3-1.4
			c3-0.4,4.9-3,4.6-6.1c-0.2-2.7-2.7-4.8-5.6-4.7c-1.2,0-2.3,0.2-3.5,0.3c-9.2,1-18.4,2-27.7,3c-3,0.3-5,2.7-4.7,5.7
			C25.6,82.2,27.9,84.2,31.7,84z"/>
		<path class="st6" d="M69.6,60.8c0-16.9,0-33.8,0-50.7c0-1.3-0.5-2.5-1.3-3.6C68.2,6.3,68,6,67.9,5.8c1-0.1,2.1-0.3,3.1-0.3
			c2.3,0.1,4.2,1.9,4.5,4.2c0.1,0.5,0.1,0.9,0.1,1.4c0,16,0,32,0,48c0,0.9-0.2,1.1-1.1,1.2C72.9,60.4,71.2,60.6,69.6,60.8z"/>
		<path class="st7" d="M67.6,86c1.4-1.6,2.1-3.5,2-5.7c-0.1-5.6,0-11.1,0-16.7c2-0.2,3.9-0.4,6-0.7c0,0.4,0,0.7,0,1
			c0,5.4,0,10.8,0,16.2c0,3.4-1.6,5.2-4.9,5.5C69.6,85.8,68.6,85.9,67.6,86z"/>
		<path class="st4" d="M30.6,24c1.1-1.1,2.2-2.2,3.3-3.2c0.8,0.8,1.5,0.6,2.3,0c4-2.5,8.4-3.3,13-2.5c9.8,1.7,16.5,11.4,14.6,21.1
			c-2,9.9-12,16.4-21.8,14.1C29.7,50.7,24,37,30.7,26.3C31.2,25.5,31.3,24.8,30.6,24z M37,42.9c-0.9,0.9-1.8,1.8-2.7,2.7
			c-0.2,0.2-0.5,0.5-0.6,0.8c-0.2,0.6-0.1,1.2,0.5,1.5c0.7,0.5,1.3,0.3,1.8-0.2c1-0.9,1.9-1.9,2.9-2.9c2.2,1.8,2.9,1.7,4.8-0.2
			c3.1-3.1,6.2-6.1,9.3-9.2c0.2-0.2,0.5-0.4,0.7-0.7c0.3,0.3,0.6,0.6,0.9,0.8c0.6,0.5,1.2,0.4,1.7,0c0.7-0.6,0.7-1.4,0-2.1
			c-1-1-2-2-2.8-2.8c0.9-1,1.7-1.8,2.7-2.9c0.2,0.3,0.4,0.7,0.7,0.9c0.3,0.3,0.6,0.6,0.8,0.8c0.7,0.6,1.4,0.7,2,0
			c0.6-0.6,0.6-1.3-0.1-2c-1.8-1.8-3.5-3.6-5.3-5.3c-0.7-0.6-1.4-0.6-2-0.1c-0.6,0.6-0.6,1.3,0,2c0.5,0.5,1.1,1,1.7,1.5
			c-1,1-1.8,1.8-2.8,2.8c-0.9-1-1.8-2-2.8-2.9c-0.6-0.6-1.3-0.5-1.9,0.1c-0.5,0.6-0.6,1.2-0.1,1.8c0.2,0.2,0.4,0.4,0.6,0.7
			c-0.3,0.2-0.5,0.4-0.7,0.6c-3.3,3.2-6.5,6.5-9.8,9.7c-1.2,1.2-1.2,2.3-0.2,3.6C36.6,42.5,36.8,42.6,37,42.9z"/>
		<path class="st0" d="M30.6,24c0.7,0.7,0.6,1.4,0.1,2.3C24,37,29.7,50.7,42,53.5c9.8,2.3,19.8-4.2,21.8-14.1
			c1.9-9.8-4.7-19.4-14.6-21.1c-4.7-0.8-9,0-13,2.5c-0.8,0.5-1.6,0.7-2.3,0c-0.4-1.2-0.3-1.6,0.7-2.2c12.8-8.4,30.4-0.2,32.2,15.1
			c1.3,11.4-7.1,21.8-18.6,23C37,57.7,27.2,50.2,25.3,39.2c-0.9-5.2,0.3-10,3.1-14.5C29.1,23.7,29.5,23.6,30.6,24z"/>
		<g>
			<path class="st1" d="M31.1,85c-3.9,0-6.4-2.3-6.8-6.1c-0.3-3.5,2.1-6.4,5.6-6.8c6.9-0.7,13.8-1.5,20.8-2.2l6.9-0.7
				c0.3,0,0.7-0.1,1-0.1c0.8-0.1,1.7-0.2,2.6-0.2l0.2,0c3.3,0,6.2,2.5,6.4,5.6c0.3,3.7-2,6.8-5.5,7.2c-3,0.4-6,0.7-8.9,1
				c-1.1,0.1-2.3,0.2-3.4,0.4L31.9,85C31.6,85,31.3,85,31.1,85z M61.4,73.5c-0.1,0-0.2,0-0.2,0c-1.7,0.2-3.3,0.4-5,0.5
				c-0.9,0.1-1.8,0.2-2.8,0.3C47.3,75,34,76.4,34,76.4c-1.1,0.1-2.2,0.2-3.3,0.4c-1.3,0.2-1.8,0.8-1.7,2c0.1,0.7,0.4,1.4,2.1,1.4
				c0.2,0,0.3,0,0.5,0c0,0,4.5-0.5,6-0.6l18-1.9c1.9-0.2,3.8-0.4,5.8-0.6c1-0.1,1.3-0.6,1.5-1c0.2-0.6,0.1-1.3-0.2-1.8
				C62.5,73.9,62.1,73.5,61.4,73.5z"/>
			<path class="st2" d="M61.4,69.8c2.8,0,5.2,2.1,5.4,4.7c0.3,3.1-1.6,5.8-4.6,6.1c-4.1,0.5-8.2,0.9-12.3,1.4
				c-6.3,0.7-12.5,1.3-18.1,1.9c-0.2,0-0.4,0-0.6,0c-3.5,0-5.5-2-5.8-5.2c-0.3-3,1.7-5.4,4.7-5.7c9.2-1,18.4-2,27.7-3
				c1.2-0.1,2.3-0.3,3.5-0.3C61.3,69.8,61.3,69.8,61.4,69.8 M31.1,81.2c0.2,0,0.4,0,0.6,0c1.7-0.2,3.9-0.4,6-0.6
				c5.5-0.6,11-1.2,16.5-1.7c2.4-0.3,4.9-0.5,7.3-0.8c1.1-0.1,1.9-0.6,2.3-1.7c0.6-1.6-0.4-3.8-2.4-3.8c-0.1,0-0.2,0-0.3,0
				c-2.6,0.3-5.2,0.5-7.8,0.8c-6.1,0.7-12.2,1.3-18.3,2c-1.5,0.2-2.9,0.3-4.4,0.5c-1.9,0.2-2.8,1.3-2.6,3.1
				C28.2,80.4,29.2,81.2,31.1,81.2 M61.4,67.8L61.4,67.8c-0.1,0-0.2,0-0.2,0c-0.9,0-1.8,0.1-2.7,0.2c-0.3,0-0.6,0.1-1,0.1L52,68.7
				c-7.4,0.8-14.7,1.6-22.1,2.4c-4.1,0.4-6.9,3.8-6.5,7.9c0.4,4.3,3.3,7,7.8,7c0.3,0,0.5,0,0.8,0l0,0l0,0l5-0.5
				c4.2-0.4,8.6-0.9,13.1-1.4c1.1-0.1,2.2-0.2,3.4-0.4c2.9-0.3,6-0.6,9-1c4-0.5,6.7-4,6.4-8.3C68.5,70.7,65.3,67.8,61.4,67.8
				L61.4,67.8z M31.1,79.2c-1,0-1.1-0.2-1.1-0.5c-0.1-0.6-0.1-0.8,0.8-0.9c1.1-0.1,2.2-0.3,3.3-0.4l1.1-0.1c6.1-0.7,12.2-1.3,18.3-2
				c0.9-0.1,1.9-0.2,2.8-0.3c1.7-0.2,3.3-0.3,5-0.5c0,0,0.1,0,0.1,0c0.1,0,0.3,0,0.5,0.2c0.2,0.2,0.2,0.6,0.1,0.9
				c-0.1,0.2-0.1,0.3-0.7,0.4c-2,0.2-4,0.4-6,0.6L54,76.8l-7.2,0.8l-9.3,1C36,78.7,34.4,78.9,33,79l-1.6,0.2
				C31.4,79.2,31.2,79.2,31.1,79.2L31.1,79.2z"/>
		</g>
		<g>
			<path class="st1" d="M35,49.2c-0.5,0-0.9-0.2-1.4-0.5c-0.9-0.6-1.2-1.6-0.9-2.7c0.2-0.5,0.5-0.9,0.8-1.2c0.6-0.6,1.3-1.3,2-1.9
				l0.1-0.1c-1.4-1.7-1.3-3.4,0.3-4.9c3.3-3.2,6.5-6.5,9.8-9.7c0,0,0,0,0,0c0,0,0,0,0,0c-0.8-1-0.8-2.2,0.1-3.1
				c0.5-0.5,1.1-0.8,1.7-0.8c0.6,0,1.1,0.2,1.6,0.7c0.7,0.7,1.4,1.4,2,2.1c0,0,0.1,0.1,0.1,0.1l1.4-1.3c-0.3-0.3-0.6-0.6-0.9-0.9
				c-0.7-0.7-0.8-1.3-0.8-1.8c0-0.4,0.1-1,0.8-1.7c0.5-0.5,1-0.7,1.6-0.7c0.4,0,1.1,0.1,1.7,0.8c1.8,1.8,3.6,3.5,5.4,5.3
				c1,1,1,2.4,0.1,3.3c-0.5,0.5-1.1,0.8-1.7,0.8c-0.4,0-1.1-0.1-1.7-0.8c-0.3-0.3-0.6-0.6-0.9-0.9c0,0-1.2,1.3-1.2,1.3l0.1,0.1
				c0.7,0.7,1.4,1.3,2.1,2.1c0.7,0.7,0.8,1.4,0.8,1.9c0,0.6-0.3,1.2-0.9,1.7c-0.5,0.4-1,0.6-1.6,0.6c-0.5,0-1-0.2-1.5-0.6
				c-0.1-0.1-0.2-0.1-0.2-0.2c0,0-9.3,9.2-9.3,9.2c-1.1,1.1-2,1.8-3.1,1.8c-0.8,0-1.5-0.4-2.4-1l-0.2,0.2c-0.7,0.7-1.4,1.4-2.1,2
				C36.1,49.1,35.5,49.2,35,49.2z M41.4,41.8l8.7-8.9l-1.1-1.2l-8.7,8.9L41.4,41.8z"/>
			<path class="st2" d="M53.4,21.9c0.3,0,0.7,0.2,1,0.5c1.8,1.8,3.6,3.5,5.3,5.3c0.6,0.6,0.6,1.4,0.1,2c-0.3,0.3-0.6,0.5-0.9,0.5
				c-0.3,0-0.7-0.2-1.1-0.5c-0.3-0.3-0.6-0.5-0.8-0.8c-0.2-0.3-0.4-0.6-0.7-0.9c-1,1.1-1.8,1.9-2.7,2.9c0.9,0.9,1.9,1.8,2.8,2.8
				c0.7,0.7,0.7,1.5,0,2.1c-0.3,0.2-0.6,0.4-0.9,0.4c-0.3,0-0.6-0.1-0.8-0.3c-0.3-0.2-0.5-0.5-0.9-0.8c-0.2,0.2-0.5,0.4-0.7,0.7
				c-3.1,3.1-6.2,6.1-9.3,9.2c-1,1-1.7,1.5-2.4,1.5c-0.7,0-1.4-0.4-2.5-1.3c-1,0.9-1.9,1.9-2.9,2.9c-0.3,0.3-0.7,0.5-1,0.5
				c-0.3,0-0.5-0.1-0.8-0.3c-0.6-0.4-0.7-0.9-0.5-1.5c0.1-0.3,0.3-0.6,0.6-0.8c0.9-0.9,1.8-1.8,2.7-2.7c-0.3-0.3-0.4-0.5-0.6-0.7
				c-1-1.3-1-2.4,0.2-3.6c3.3-3.2,6.5-6.5,9.8-9.7c0.2-0.2,0.5-0.4,0.7-0.6c-0.3-0.3-0.5-0.5-0.6-0.7c-0.5-0.6-0.5-1.2,0.1-1.8
				c0.3-0.3,0.6-0.5,1-0.5c0.3,0,0.6,0.1,0.9,0.4c1,1,1.9,2,2.8,2.9c1-1,1.9-1.9,2.8-2.8c-0.5-0.5-1.1-1-1.7-1.5
				c-0.7-0.7-0.7-1.4,0-2C52.7,22,53,21.9,53.4,21.9 M41.4,43.2c3.4-3.5,6.8-7,10.1-10.3c-0.7-0.8-1.5-1.7-2.5-2.7
				c-3.4,3.5-6.8,7-10.1,10.4C39.6,41.4,40.5,42.3,41.4,43.2 M53.4,19.9c-0.9,0-1.7,0.3-2.3,1c-0.9,0.8-1.1,1.7-1.1,2.4
				c0,0.4,0.1,0.9,0.4,1.5c-0.1-0.1-0.3-0.3-0.4-0.4c-0.6-0.6-1.5-1-2.3-1c-0.9,0-1.8,0.4-2.5,1.1c-1,1.1-1.2,2.4-0.6,3.6
				c-3.1,3.1-6.2,6.1-9.3,9.2c-1.7,1.6-2,3.6-0.9,5.5c-0.5,0.5-1,0.9-1.4,1.4c-0.4,0.4-0.8,0.9-1.1,1.6c-0.5,1.5,0,2.9,1.2,3.8
				c0.6,0.4,1.3,0.6,1.9,0.6c0.6,0,1.5-0.2,2.4-1c0.6-0.6,1.2-1.1,1.7-1.7c0.7,0.4,1.4,0.7,2.3,0.7c1.6,0,2.7-1,3.8-2
				c2.9-2.9,5.8-5.7,8.7-8.6c0.5,0.3,1.1,0.4,1.6,0.4c0.5,0,1.4-0.1,2.2-0.9c0.7-0.6,1.2-1.5,1.2-2.4c0-0.9-0.3-1.9-1.1-2.6
				c-0.1-0.1-0.2-0.3-0.4-0.4c0.5,0.2,1,0.3,1.4,0.3c0.9,0,1.7-0.4,2.4-1.1c1.3-1.4,1.3-3.3-0.1-4.7c-1.8-1.8-3.6-3.6-5.4-5.3
				C54.9,20.1,54,19.9,53.4,19.9L53.4,19.9z"/>
		</g>
		<path class="st4" d="M31.7,81.2c-2.3,0.2-3.5-0.7-3.6-2.3c-0.2-1.8,0.7-2.8,2.6-3.1c1.5-0.2,2.9-0.3,4.4-0.5
			c6.1-0.7,12.2-1.3,18.3-2c2.6-0.3,5.2-0.5,7.8-0.8c2.3-0.3,3.4,2.1,2.8,3.8c-0.4,1.1-1.3,1.5-2.3,1.7c-2.4,0.3-4.9,0.5-7.3,0.8
			c-5.5,0.6-11,1.2-16.5,1.7C35.5,80.8,33.3,81,31.7,81.2z"/>
		<path class="st8" d="M41.4,43.2c-0.9-0.9-1.7-1.8-2.5-2.6c3.3-3.4,6.7-6.9,10.1-10.4c0.9,1,1.7,1.9,2.5,2.7
			C48.2,36.2,44.8,39.7,41.4,43.2z"/>
	</g>
</g>
</svg>
