<?xml version="1.0" encoding="utf-8"?>
<!-- Generator: Adobe Illustrator 26.5.0, SVG Export Plug-In . SVG Version: 6.00 Build 0)  -->
<svg version="1.1" id="Layer_1" xmlns="http://www.w3.org/2000/svg" xmlns:xlink="http://www.w3.org/1999/xlink" x="0px" y="0px"
	 viewBox="0 0 49 49" style="enable-background:new 0 0 49 49;" xml:space="preserve">
<style type="text/css">
	.st0{fill:#05CCC0;}
	.st1{fill:#106D6A;}
	.st2{fill:#FAFCFE;}
	.st3{fill:#F7F5F5;}
	.st4{fill:#E0E0E0;}
	.st5{fill:#E5EBFB;}
	.st6{fill:#FCFDFE;}
	.st7{fill:#FBFCFE;}
	.st8{fill:#BDBDBD;}
	.st9{fill:#E4EAFB;}
	.st10{fill:#C6D6FB;}
	.st11{fill:#FEFEFE;}
</style>
<g>
	<g id="Layer_1_00000081631860312913987590000012732180466644578438_">
		<g>
			<g id="Layer_2_00000088091907630835371270000015175072473344992142_">
				<path class="st0" d="M-58.6,20.5c-0.3-1.1-0.1-2.2,0.2-3.3"/>
			</g>
			<g id="Layer_3_00000096023196642563317130000006583632931734933178_">
			</g>
		</g>
	</g>
</g>
<path class="st1" d="M20.8,12.7c-0.4-0.2-0.6-0.5-0.5-0.9c0.1-0.4,0.4-0.6,0.8-0.6c0.4,0,0.8-0.1,1.2-0.2C22.2,10,22,9.2,21.9,8.3
	c-0.5-3.5,1.8-7,5-7.7c1.9-0.4,3.6,0.1,5.3,1c0.5,0.3,1,0.6,1.4,0.9c1,0.8,1.3,2.2,0.5,3.3c-0.7,1.1-2.1,1.4-3.2,0.7
	c-0.5-0.3-1.1-0.7-1.6-0.9c-0.6-0.3-1.3-0.5-1.9,0c-0.7,0.5-1,1.3-0.9,2.2c0.1,1,0.3,2.1,0.5,3.1c0,0.1,0.2,0.3,0.4,0.3
	c1.9,0.4,3.7,1,5.4,2c1.4,0.8,2.7,1.9,3.7,3.2c0.2,0.2,0.3,0.3,0.6,0.2c0.8-0.3,1.6-0.6,2.4-0.8c1.2-0.3,2.2,0.3,2.6,1.5
	c0.3,1,0.4,1.9,0.3,3c-0.1,2.5-0.7,4.9-1.4,7.3c-0.1,0.2,0,0.5,0.1,0.7c0.3,0.6,0.6,1.1,0.9,1.7c0.1,0.2,0.2,0.3,0.5,0.3
	c0.7-0.1,1.5-0.1,2.2-0.1c0.6,0,0.9,0.3,0.9,0.8c0,0.5-0.4,0.8-0.9,0.8c-0.7,0-1.4,0-2,0.1c0.2,1.3,0.3,2.5,0.5,3.7
	c0,0.1,0.2,0.3,0.3,0.3c0.5,0.3,1.1,0.5,1.6,0.7c0.5,0.3,0.7,0.7,0.4,1.2c-0.2,0.4-0.7,0.5-1.3,0.2c-0.4-0.2-0.7-0.4-1.1-0.5
	c-0.3,0.9-0.6,1.7-0.8,2.6c0,0.1,0.1,0.3,0.2,0.4c0.8,0.7,1.5,1.5,1.9,2.5c0.9,2.1,0.2,3.9-1.9,4.8c-0.8,0.3-1.7,0.5-2.5,0.7
	c-0.1,0-0.2,0.1-0.3,0.1c-0.9,0-1.8,0-2.7,0c-0.1,0-0.1-0.1-0.2-0.1c-1.2-0.2-2.3-0.5-3.3-1.1c-0.1-0.1-0.4,0-0.5,0
	c-1.6,0.3-3.1,0.6-4.7,0.9c-0.6,0.1-1.2,0.2-1.8,0.3c-1.7,0-3.4,0-5.1,0c-0.1,0-0.1-0.1-0.2-0.1c-2.1-0.2-4.3-0.6-6.3-1.2
	c-0.1,0-0.3,0-0.5,0.1c-0.6,0.2-1.2,0.6-1.8,0.8c-0.5,0.2-1.1,0.3-1.7,0.4c-0.9,0-1.8,0-2.7,0c-0.5-0.1-1.1-0.2-1.6-0.4
	c-0.5-0.2-1.1-0.4-1.5-0.6c-1.7-1-2.3-2.7-1.5-4.5c0.4-1,1.1-1.9,2-2.6c0.2-0.1,0.2-0.3,0.2-0.5c-0.3-0.8-0.5-1.6-0.8-2.5
	c-0.4,0.2-0.8,0.4-1.1,0.6c-0.4,0.2-0.8,0.2-1.1-0.1c-0.3-0.4-0.2-0.9,0.2-1.2c0.5-0.3,1.1-0.5,1.6-0.8C4.8,35.6,5,35.5,5,35.4
	c0.2-1.2,0.3-2.4,0.5-3.7c-0.5,0-1,0-1.6-0.1c-0.2,0-0.4,0-0.6,0c-0.4-0.1-0.7-0.4-0.7-0.8C2.7,30.3,3,30,3.4,30
	c0.8,0,1.6,0.1,2.3,0.1c0.3,0,0.4,0,0.5-0.3c0.2-0.4,0.4-0.9,0.6-1.3c0.4-0.5,0.4-1,0.2-1.7c-0.7-2.5-1.3-5-1.3-7.6
	c0-0.7,0.1-1.4,0.3-2.1c0.4-1.2,1.3-1.8,2.6-1.5c0.8,0.2,1.6,0.5,2.4,0.8c0.3,0.1,0.4,0.1,0.7-0.2c0.8-0.8,1.6-1.6,2.5-2.4
	c0.3-0.3,0.7-0.6,1.1-0.3c0.5,0.2,0.5,0.7,0.5,1.1c0,0,0,0,0,0c0,0-0.1,0-0.1,0c-0.5,0.4-0.9,0.8-1.4,1.2c-0.5,0.5-0.9,1-1.4,1.4
	c1.1,0.7,2.2,1.4,3.2,2.1c0.3,0.2,0.5,0.2,0.8,0.1c4.8-2,9.7-2,14.5,0c0.2,0.1,0.4,0,0.6,0c0.7-0.5,1.5-1,2.2-1.4
	c0.4-0.2,0.7-0.4,1.1-0.7c-0.9-1.2-1.9-2.1-3.2-2.8c-1.4-0.9-2.9-1.4-4.5-1.8c-1.7-0.4-3.4-0.5-5.1-0.3C22,12.6,21.4,12.6,20.8,12.7
	z M25.4,5.5c0.1-0.1,0.2-0.2,0.3-0.4c0.8-1.2,1.9-1.7,3.3-1.4c1,0.2,1.8,0.7,2.6,1.2c0.6,0.4,1.4,0.2,1.3-0.5c0-0.3-0.2-0.7-0.5-0.8
	c-0.7-0.5-1.4-0.9-2.2-1.2c-0.8-0.4-1.8-0.5-2.7-0.3c-0.2,0-0.4,0.1-0.6,0.1c-2,0.5-3.6,2.6-3.6,4.7c0,1.3,0.3,2.6,0.4,3.9
	c0.6,0,1.1,0,1.6,0c0-0.4-0.1-0.8-0.1-1.2C25.1,8.2,24.7,6.9,25.4,5.5z M8.7,38.8c0.3,0,0.7,0,1,0c2-0.1,3.6,0.7,4.9,2.1
	c0.8,0.8,1.3,1.8,1.6,2.8c0,0.7-0.1,1.3-0.1,2c5.4,1.4,10.8,1.4,16.3,0c-0.1-0.4-0.2-0.7-0.2-1c-0.1-1.9,0.9-3.3,2.3-4.5
	c1.5-1.2,3.3-1.5,5.2-1.3c0.4,0.1,0.7,0.2,1.1,0.3c0.1,0,0.3,0,0.3-0.1c0.2-0.7,0.5-1.5,0.7-2.3c-0.7-0.1-1.2-0.1-1.7-0.2
	c-0.7-0.1-1.4-0.1-2.2-0.2c-0.6,0-0.9-0.3-0.9-0.8c0-0.5,0.3-0.8,0.9-0.8c0.7,0,1.5,0.1,2.2,0.1c0.5,0.1,1.1,0.2,1.7,0.3
	c-0.2-1.1-0.4-2.2-0.6-3.3c-0.6,0.2-1,0.3-1.5,0.5c-0.1,0-0.2,0-0.3,0.1c-1,0.5-1.9,0.9-2.8,1.4c-0.3,0.2-0.7,0.3-1,0
	c-0.2-0.2-0.3-0.5-0.3-0.8c0-0.2,0.3-0.5,0.5-0.6c1.1-0.5,2.2-1,3.3-1.5c0.5-0.1,0.9-0.3,1.5-0.4c-0.4-0.7-0.7-1.3-1-1.9
	c-0.2-0.3-0.3-0.7-0.2-1.1c0.4-1.9,1-3.7,1.3-5.6c0.2-1.3,0.1-2.6,0.1-3.9c0-0.7-0.4-0.9-1.1-0.7c-0.2,0-0.4,0.1-0.6,0.2
	c-1.6,0.5-3,1.3-4.3,2.2c-0.7,0.5-1.4,0.9-2.1,1.4c-0.5,0.4-1,0.4-1.6,0.1c-2-0.9-4.2-1.4-6.4-1.5c-0.1,0-0.2,0-0.3,0
	c-2.6,0-5.1,0.5-7.4,1.6c-0.4,0.2-0.8,0.2-1.2-0.1c-0.4-0.3-0.8-0.5-1.2-0.8c-0.5-0.3-0.9-0.7-1.4-0.9c-1.3-0.7-2.6-1.3-3.9-1.9
	c-0.2-0.1-0.4-0.1-0.6-0.2c-0.7-0.1-0.9,0-1.1,0.7c-0.1,0.7-0.2,1.3-0.2,2c0.1,2.5,0.7,5,1.5,7.4c0.1,0.4,0.1,0.8-0.2,1.2
	c-0.4,0.6-0.7,1.2-1.1,1.9c0.6,0.1,1,0.3,1.5,0.4c0.3,0.1,0.5,0.2,0.8,0.3c0.9,0.4,1.8,0.9,2.7,1.4c0.4,0.2,0.5,0.7,0.3,1.1
	c-0.2,0.4-0.7,0.5-1.1,0.3c-0.2-0.1-0.3-0.2-0.5-0.3c-0.9-0.4-1.8-0.8-2.7-1.2c-0.5-0.1-0.9-0.3-1.5-0.5C7,33,6.8,34.1,6.6,35.2
	c0.7-0.1,1.2-0.2,1.7-0.3c0.7,0,1.4-0.1,2.2-0.1c0.5,0,0.8,0.1,0.9,0.6c0.1,0.4-0.1,0.7-0.4,0.9c-0.3,0-0.7,0.1-1,0.1
	c-0.5,0.1-1,0.1-1.5,0.2c-0.6,0.1-1.1,0.1-1.8,0.2c0.2,0.9,0.5,1.7,0.7,2.5C7.9,39.1,8.3,39,8.7,38.8z M7.4,46c0-0.5,0-1,0-1.5
	c0-0.6,0.3-0.9,0.8-0.9c0.5,0,0.8,0.3,0.8,0.9c0,0.5,0,1,0,1.5c0,0.5,0.4,0.8,0.8,0.8c0.4,0,0.7-0.3,0.8-0.8c0-0.4,0-0.8,0-1.3
	c0-0.7,0.3-1.1,0.8-1.1c0.5,0,0.8,0.3,0.8,1c0,0.6,0,1.2,0,2c0.6-0.3,1.1-0.5,1.6-0.8c0.7-0.5,0.9-1.1,0.8-2c-0.2-1-0.8-1.7-1.5-2.3
	c-1.2-0.9-2.5-1.4-4-1.1c-1.7,0.3-2.9,1.2-3.7,2.7c-0.8,1.6,0,3,2.1,3.3C7.4,46.3,7.4,46.2,7.4,46z M39.5,40.5
	c-2.1-0.5-4.7,0.8-5.5,2.8c-0.7,1.8,0.5,2.9,2.2,3.1c0-0.7,0-1.4,0-2c0-0.5,0.4-0.8,0.8-0.8c0.4,0,0.7,0.3,0.7,0.8
	c0,0.5,0,0.9,0,1.4c0,0.6,0.3,0.9,0.8,0.9c0.5,0,0.8-0.3,0.8-0.9c0-0.5,0-1,0-1.4c0-0.2,0.2-0.5,0.4-0.7c0.5-0.4,1.2,0,1.2,0.7
	c0,0.6,0,1.1,0,1.7c0,0.1,0,0.2-0.1,0.3c0,0,0.1,0.1,0.1,0.1c0.5-0.3,1.1-0.5,1.6-0.8c0.7-0.5,0.8-1.2,0.6-1.9
	C42.9,42.2,41.2,40.7,39.5,40.5z"/>
<path class="st2" d="M26.7,48.4c0.6-0.1,1.2-0.2,1.8-0.3c1.6-0.3,3.1-0.6,4.7-0.9c0.2,0,0.4-0.1,0.5,0c1,0.7,2.1,1,3.3,1.1
	c0.1,0,0.1,0.1,0.2,0.1C33.7,48.4,30.2,48.4,26.7,48.4z"/>
<path class="st2" d="M11.2,48.4c0.6-0.1,1.1-0.2,1.7-0.4c0.6-0.2,1.2-0.5,1.8-0.8c0.2-0.1,0.4-0.1,0.5-0.1c2.1,0.6,4.2,1,6.3,1.2
	c0.1,0,0.1,0.1,0.2,0.1C18.1,48.4,14.7,48.4,11.2,48.4z"/>
<path class="st0" d="M20.8,12.7c0.6,0,1.2-0.1,1.8-0.1c-0.1,0.5-0.1,1.1-0.3,1.5c-0.8,2.2-3.1,3.5-5.3,3.1c-1-0.2-1.8-0.7-2.5-1.3
	c0.5-0.4,0.9-0.8,1.4-1.2c0,0,0.1,0,0.1,0c0,0,0,0,0,0c0.7-0.4,1.3-0.7,2-1.1c0.2,0,0.4-0.1,0.6-0.1c0,0,0.1-0.1,0.1-0.1l0,0
	C19.3,13.1,20,12.9,20.8,12.7z"/>
<path class="st1" d="M18.4,13.5c-0.2,0-0.4,0.1-0.6,0.1c-0.5-0.1-0.7-0.4-0.7-0.8c0-0.4,0.3-0.7,0.6-0.7c0.4-0.1,0.8,0.1,0.9,0.4
	C18.7,12.7,18.6,13.1,18.4,13.5c0.1-0.1,0.1-0.1,0.1-0.1C18.5,13.4,18.5,13.4,18.4,13.5z"/>
<path class="st3" d="M39.2,30.8c-1.1,0.5-2.2,1-3.3,1.5c-0.2,0.1-0.5,0.4-0.5,0.6c0,0.3,0.1,0.6,0.3,0.8c0.3,0.3,0.6,0.2,1,0
	c0.9-0.5,1.9-0.9,2.8-1.4c0.1,0,0.2,0,0.3-0.1c0.1,0.8,0.2,1.7,0.3,2.5c-0.7,0-1.5-0.1-2.2-0.1c-0.6,0-0.9,0.3-0.9,0.8
	c0,0.5,0.3,0.8,0.9,0.8c0.7,0,1.4,0.1,2.2,0.2c-0.1,0.8-0.3,1.5-0.4,2.3c-1.9-0.2-3.6,0.1-5.2,1.3c-1.4,1.1-2.4,2.5-2.3,4.5
	c0,0.3,0.1,0.6,0.2,1c-5.5,1.4-10.9,1.4-16.3,0c0-0.7,0.1-1.4,0.1-2c0.3-0.7,0.2-1.4,0.1-2.1c-0.4-2.6-2.4-4.6-5.1-5.1
	c-0.1,0-0.1-0.1-0.2-0.2c0.3-0.2,0.5-0.5,0.4-0.9c-0.1-0.4-0.5-0.6-0.9-0.6c-0.7,0-1.4,0.1-2.2,0.1c0-0.2,0-0.3,0-0.5
	c0.1-0.7,0.2-1.4,0.3-2c0.9,0.4,1.8,0.8,2.7,1.2c0.2,0.1,0.3,0.2,0.5,0.3c0.4,0.2,0.9,0.1,1.1-0.3c0.2-0.4,0.2-0.9-0.3-1.1
	c-0.9-0.5-1.8-0.9-2.7-1.4c-0.2-0.1-0.5-0.2-0.8-0.3c0.4-0.9,0.8-1.8,1.2-2.7c0.1-0.2,0.1-0.5,0.1-0.7c-0.1-0.7-0.3-1.3-0.5-1.9
	c0.9-0.9,1.8-1.8,2.8-2.7c0.6-0.5,1.3-0.9,2-1.4c-0.1-0.1-0.3-0.2-0.4-0.3c-1.1-0.7-2.1-1.3-3.2-1.9c-0.7-0.4-1.4-0.6-2.2-0.9
	c0.1-0.2,0.1-0.4,0.2-0.6c0.1,0,0.3,0,0.4,0.1c1.3,0.8,2.7,1.6,4,2.5c0.3,0.2,0.6,0.4,0.9,0c0.4,0.3,0.8,0.5,1.2,0.8
	c0.4,0.3,0.8,0.3,1.2,0.1c2.3-1.1,4.8-1.6,7.4-1.6c0.1,0,0.2,0,0.3,0c-0.5,1.1-0.7,2.2-0.4,3.4c0.6,3.3,3.8,5.2,7,4.4
	c2.1-0.6,3.9-2.6,4-4.7c0,0,0.1,0,0.1,0c1,0.9,2,1.8,2.9,2.7c0.1,0.1,0.1,0.2,0,0.3c-0.1,0.6-0.3,1.1-0.5,1.7
	c-0.1,0.3,0,0.6,0.1,0.8C38.4,29.1,38.8,30,39.2,30.8z M24.2,42.5c0.1,0.1,0.3,0.2,0.4,0.3c1.2,1,3,1,4.2-0.1c1-0.9,1.1-2,1.1-3.2
	c0-0.5-0.3-0.8-0.8-0.8c-0.5,0-0.8,0.3-0.8,0.8c0,0.3,0,0.6,0,0.8c0,0.8-0.7,1.5-1.6,1.5c-0.8,0-1.6-0.7-1.6-1.6c0-0.8,0-1.5,0-2.3
	c0-0.1,0.1-0.3,0.1-0.4c0.6-0.5,1.1-1.1,1.7-1.6c0.5-0.5,0.7-1.1,0.4-1.8c-0.3-0.7-0.8-1.2-1.6-1.2c-1-0.1-2-0.1-3,0
	c-1.3,0.1-2.1,1.6-1.4,2.6c0.5,0.7,1.2,1.3,1.8,1.9c0.1,0.1,0.2,0.3,0.3,0.4c0,0.7,0,1.5,0,2.2c0,0.9-0.7,1.6-1.6,1.6
	c-0.9,0-1.6-0.7-1.6-1.7c0-0.3,0-0.7-0.1-1c-0.1-0.4-0.4-0.6-0.9-0.5c-0.4,0.1-0.6,0.3-0.7,0.7c0,0.4,0,0.8,0,1.3
	c0.1,1.7,1.9,3,3.6,2.7C23,43.4,23.6,43,24.2,42.5z M16.2,28.4c0,0,0-0.1,0-0.1c-0.8,0.2-1.7,0.4-2.5,0.6c-0.5,0.2-0.7,0.6-0.6,1.1
	c0.2,0.4,0.6,0.6,1.1,0.4c0.4-0.1,0.9-0.3,1.3-0.4c1.6-0.3,2.6,0.2,3.2,1.7c0.2,0.5,0.6,0.7,1,0.6c0.4-0.1,0.6-0.6,0.5-1
	C19.7,29.6,18.1,28.4,16.2,28.4z M31.5,28.3c0,0,0,0.1,0,0.1c-0.2,0-0.4,0-0.6,0c-1.5,0.1-3.1,1.4-3.4,2.9c-0.1,0.6,0.4,1.2,0.9,1
	c0.3-0.1,0.5-0.4,0.6-0.7c0.5-1.1,1.2-1.7,2.4-1.6c0.7,0,1.4,0.3,2.1,0.4c0.5,0.1,0.9-0.1,1-0.5c0.2-0.4,0-0.9-0.5-1
	C33.2,28.7,32.3,28.5,31.5,28.3z"/>
<path class="st4" d="M14.4,15.9c0.8,0.6,1.5,1.1,2.5,1.3c2.3,0.4,4.6-0.9,5.3-3.1c0.2-0.5,0.2-1,0.3-1.5c1.7-0.2,3.4-0.1,5.1,0.3
	c-0.3,0.5-0.3,1.1-0.3,1.6c0.2,1.2,1.3,2.1,2.6,1.9c0.9-0.1,1.5-0.5,1.9-1.2c0.4,0.4,0.9,0.8,1.3,1.3c0.4,0.5,0.7,1.1,1,1.6
	c-0.7,0.5-1.4,1-2.2,1.4c-0.1,0.1-0.4,0.1-0.6,0c-4.8-2-9.7-2-14.5,0c-0.3,0.1-0.5,0.1-0.8-0.1c-1-0.7-2.1-1.4-3.2-2.1
	C13.5,16.8,14,16.3,14.4,15.9z"/>
<path class="st0" d="M35.3,22.7c-0.1,2-1.9,4.1-4,4.7c-3.2,0.8-6.4-1.1-7-4.4c-0.2-1.2,0-2.3,0.4-3.4c2.2,0,4.4,0.5,6.4,1.5
	c0.6,0.3,1,0.3,1.6-0.1c0.7-0.5,1.4-0.9,2.1-1.4c0.1,0.2,0.2,0.4,0.3,0.7c-0.5,0.4-1.1,0.7-1.6,1.1C34.2,21.8,34.7,22.3,35.3,22.7z"
	/>
<path class="st0" d="M35.3,22.7c-0.6-0.4-1.1-0.9-1.7-1.4c0.5-0.4,1-0.7,1.6-1.1c1.3-0.7,2.6-1.3,3.9-2c0.1-0.1,0.2-0.3,0.2-0.4
	c0-0.1,0-0.3-0.1-0.4c0.2-0.1,0.4-0.1,0.6-0.2c0.7-0.1,1,0,1.1,0.7c0.1,1.3,0.1,2.6-0.1,3.9c-0.3,1.9-0.8,3.8-1.3,5.6
	c-0.1,0.4,0,0.7,0.2,1.1c0.4,0.6,0.7,1.2,1,1.9c-0.5,0.2-1,0.3-1.5,0.4c-0.4-0.9-0.8-1.7-1.2-2.6c-0.1-0.2-0.1-0.6-0.1-0.8
	c0.1-0.6,0.3-1.1,0.5-1.7c0-0.1,0-0.3,0-0.3c-1-0.9-1.9-1.8-2.9-2.7C35.4,22.7,35.4,22.7,35.3,22.7z"/>
<path class="st3" d="M41,46.1c0-0.6,0-1.1,0-1.7c0-0.7-0.7-1.1-1.2-0.7c-0.2,0.1-0.3,0.4-0.4,0.7c-0.1,0.5,0,1,0,1.4
	c0,0.6-0.4,0.9-0.8,0.9c-0.5,0-0.8-0.4-0.8-0.9c0-0.5,0-0.9,0-1.4c0-0.5-0.3-0.8-0.7-0.8c-0.5,0-0.8,0.3-0.8,0.8c0,0.7,0,1.4,0,2
	c-1.7-0.2-2.9-1.3-2.2-3.1c0.8-2,3.4-3.3,5.5-2.8c0.1,0.1,0.2,0.2,0.2,0.3c0.9,0.8,1.7,1.7,1.9,3C41.9,44.7,41.8,45.5,41,46.1z"/>
<path class="st5" d="M9,40.5c1.5-0.3,2.8,0.1,4,1.1c0.7,0.6,1.3,1.3,1.5,2.3c0.2,0.8,0,1.5-0.8,2c-0.5,0.3-1,0.5-1.6,0.8
	c0-0.7,0-1.4,0-2c0-0.7-0.2-1-0.8-1c-0.5,0-0.8,0.4-0.8,1.1c0,0.4,0,0.8,0,1.3c0,0.5-0.3,0.8-0.8,0.8c-0.4,0-0.8-0.3-0.8-0.8
	c0-0.5,0-1,0-1.5c0-0.6-0.3-0.9-0.8-0.9c-0.5,0-0.8,0.3-0.8,0.9c0,0.5,0,1,0,1.5c-0.5-0.3-0.7-0.8-0.7-1.4c0-1.5,0.6-2.8,1.8-3.7
	C8.7,40.8,8.8,40.6,9,40.5z"/>
<path class="st6" d="M10,25.5c0.2,0.6,0.3,1.3,0.5,1.9c0,0.2,0,0.5-0.1,0.7C10,29.1,9.6,30,9.2,30.8c-0.5-0.1-0.9-0.2-1.5-0.4
	c0.4-0.7,0.7-1.3,1.1-1.9c0.2-0.4,0.3-0.8,0.2-1.2c-0.8-2.4-1.3-4.9-1.5-7.4c0-0.7,0-1.3,0.2-2c0.1-0.7,0.4-0.8,1.1-0.7
	c0.2,0,0.4,0.1,0.6,0.2c0,0.1,0,0.2,0,0.2c-0.1,0.2-0.1,0.4-0.2,0.6c-0.1,1.6,0,3.1,0.3,4.7C9.6,23.8,9.8,24.7,10,25.5z"/>
<path class="st0" d="M11,36.3c0.1,0.1,0.1,0.2,0.2,0.2c2.6,0.5,4.6,2.5,5.1,5.1c0.1,0.7,0.2,1.4-0.1,2.1c-0.3-1.1-0.8-2-1.6-2.8
	c-1.4-1.4-3-2.1-4.9-2.1c-0.3,0-0.7,0-1,0c-0.1-0.4-0.2-0.7-0.3-1.1c-0.1-0.4,0-0.8,0-1.2c0.5-0.1,1-0.1,1.5-0.2
	C10.3,36.3,10.6,36.3,11,36.3z"/>
<path class="st7" d="M25.4,5.5c-0.6,1.3-0.3,2.7,0,4.1c0.1,0.4,0.1,0.8,0.1,1.2c-0.5,0-1,0-1.6,0c-0.2-1.3-0.4-2.6-0.4-3.9
	c0-2.1,1.6-4.2,3.6-4.7c0.2-0.1,0.4-0.1,0.6-0.1c0,0.1-0.1,0.1-0.1,0.2c-0.6,0.6-1.2,1.2-1.7,1.9C25.6,4.6,25.5,5.1,25.4,5.5z"/>
<path class="st0" d="M31.9,15.1c-0.4,0.7-1.1,1.2-1.9,1.2c-1.3,0.1-2.4-0.7-2.6-1.9c-0.1-0.6,0-1.1,0.3-1.6c1.6,0.3,3.1,0.9,4.5,1.8
	C32.1,14.8,32,15,31.9,15.1z"/>
<path class="st0" d="M25.4,5.5c0.2-0.4,0.2-0.9,0.5-1.3c0.5-0.7,1.1-1.3,1.7-1.9c0.1-0.1,0.1-0.1,0.1-0.2c0.9-0.2,1.8,0,2.7,0.3
	c0.8,0.3,1.5,0.7,2.2,1.2c0.2,0.2,0.4,0.5,0.5,0.8c0,0.6-0.8,0.9-1.3,0.5c-0.8-0.6-1.6-1-2.6-1.2c-1.4-0.3-2.5,0.2-3.3,1.4
	C25.6,5.3,25.5,5.4,25.4,5.5z"/>
<path class="st7" d="M9,40.5c-0.2,0.2-0.3,0.3-0.5,0.5c-1.2,1-1.9,2.2-1.8,3.7c0,0.5,0.2,1.1,0.7,1.4c0,0.1,0,0.3,0.1,0.4
	c-2.2-0.3-2.9-1.7-2.1-3.3C6.1,41.7,7.3,40.8,9,40.5z"/>
<path class="st8" d="M41,46.1c0.8-0.6,0.9-1.5,0.7-2.3c-0.2-1.3-1-2.1-1.9-3c-0.1-0.1-0.2-0.2-0.2-0.3c1.6,0.2,3.4,1.7,3.8,3.3
	c0.2,0.8,0,1.5-0.6,1.9c-0.5,0.3-1.1,0.6-1.6,0.8c0,0-0.1-0.1-0.1-0.1C40.9,46.3,41,46.2,41,46.1z"/>
<path class="st0" d="M40.1,34.9c-0.1-0.8-0.2-1.7-0.3-2.5c0.4-0.1,0.9-0.3,1.5-0.5c0.2,1.1,0.4,2.1,0.6,3.3
	C41.2,35.1,40.6,35,40.1,34.9z"/>
<path class="st7" d="M8.6,32.4c-0.1,0.7-0.2,1.4-0.3,2c0,0.2,0,0.3,0,0.5c-0.5,0.1-1,0.2-1.7,0.3C6.8,34.1,7,33,7.2,31.9
	C7.7,32.1,8.2,32.2,8.6,32.4z"/>
<path class="st9" d="M39.1,17.4c0,0.2,0.1,0.3,0.1,0.4c0,0.1-0.1,0.3-0.2,0.4c-1.3,0.7-2.6,1.3-3.9,2c-0.1-0.2-0.2-0.4-0.3-0.7
	C36.2,18.7,37.6,17.9,39.1,17.4z"/>
<path class="st2" d="M8.4,36.5c0,0.4,0,0.8,0,1.2c0,0.4,0.2,0.7,0.3,1.1c-0.4,0.1-0.9,0.3-1.4,0.4c-0.2-0.8-0.4-1.6-0.7-2.5
	C7.3,36.7,7.9,36.6,8.4,36.5z"/>
<path class="st8" d="M31.9,15.1c0.1-0.2,0.2-0.4,0.3-0.6c1.2,0.7,2.3,1.6,3.2,2.8c-0.4,0.2-0.7,0.4-1.1,0.7c-0.3-0.5-0.6-1.1-1-1.6
	C32.9,16,32.4,15.6,31.9,15.1z"/>
<path class="st0" d="M39.7,38.8c0.1-0.8,0.3-1.5,0.4-2.3c0.5,0.1,1,0.1,1.7,0.2c-0.2,0.8-0.5,1.6-0.7,2.3c0,0.1-0.2,0.1-0.3,0.1
	C40.4,39.1,40.1,38.9,39.7,38.8z"/>
<path class="st10" d="M9.3,17.7c0-0.1,0-0.2,0-0.2c1.3,0.6,2.6,1.3,3.9,1.9c0.5,0.3,0.9,0.6,1.4,0.9c-0.3,0.4-0.6,0.2-0.9,0
	c-1.3-0.9-2.7-1.7-4-2.5C9.6,17.7,9.4,17.7,9.3,17.7z"/>
<path class="st11" d="M15.9,14.7c0,0-0.1,0-0.1,0C15.9,14.7,15.9,14.7,15.9,14.7z"/>
<path class="st11" d="M18.4,13.5c0,0,0.1-0.1,0.1-0.1C18.5,13.4,18.5,13.4,18.4,13.5z"/>
<path class="st1" d="M24.2,42.5c-0.6,0.5-1.2,0.9-2,1c-1.7,0.3-3.5-1-3.6-2.7c0-0.4,0-0.8,0-1.3c0-0.4,0.2-0.7,0.7-0.7
	c0.4-0.1,0.8,0.1,0.9,0.5c0.1,0.3,0.1,0.6,0.1,1c0,0.9,0.7,1.7,1.6,1.7c0.9,0,1.6-0.7,1.6-1.6c0-0.7,0-1.5,0-2.2
	c0-0.2-0.1-0.3-0.3-0.4c-0.6-0.6-1.3-1.2-1.8-1.9c-0.8-1,0.1-2.5,1.4-2.6c1-0.1,2-0.1,3,0c0.8,0,1.3,0.5,1.6,1.2
	c0.2,0.7,0.1,1.3-0.4,1.8c-0.6,0.5-1.1,1.1-1.7,1.6C25.1,37.8,25,38,25,38.1c0,0.8,0,1.5,0,2.3c0,0.9,0.8,1.6,1.6,1.6
	c0.8,0,1.5-0.7,1.6-1.5c0-0.3,0-0.6,0-0.8c0-0.5,0.3-0.8,0.8-0.8c0.5,0,0.8,0.3,0.8,0.8c0.1,1.2-0.1,2.3-1.1,3.2
	c-1.2,1-3,1.1-4.2,0.1C24.5,42.7,24.3,42.6,24.2,42.5z M25.9,35c-0.6-0.3-2.9-0.3-3.2,0c0.4,0.4,0.7,0.8,1.1,1.2
	c0.2,0.2,0.5,0.3,0.8,0C25,35.9,25.4,35.5,25.9,35z"/>
<path class="st0" d="M10,25.5c-0.2-0.9-0.5-1.7-0.6-2.6c-0.3-1.5-0.3-3.1-0.3-4.7c0.7,0.3,1.5,0.5,2.2,0.9c1.1,0.6,2.1,1.3,3.2,1.9
	c0.1,0.1,0.2,0.2,0.4,0.3c-0.7,0.5-1.4,0.9-2,1.4C11.9,23.7,11,24.6,10,25.5z"/>
<path class="st0" d="M16.2,28.4c1.9,0,3.5,1.2,4,2.9c0.1,0.5-0.1,0.9-0.5,1c-0.4,0.1-0.8-0.1-1-0.6c-0.6-1.5-1.6-2.1-3.2-1.7
	c-0.4,0.1-0.9,0.2-1.3,0.4c-0.5,0.1-0.9,0-1.1-0.4c-0.2-0.4,0-0.9,0.6-1.1c0.8-0.2,1.7-0.4,2.5-0.6C16.2,28.3,16.2,28.4,16.2,28.4z"
	/>
<path class="st0" d="M31.5,28.3c0.9,0.2,1.7,0.4,2.6,0.7c0.5,0.2,0.7,0.6,0.5,1c-0.1,0.4-0.6,0.6-1,0.5c-0.7-0.2-1.4-0.4-2.1-0.4
	c-1.2-0.1-1.9,0.5-2.4,1.6c-0.1,0.3-0.4,0.6-0.6,0.7c-0.6,0.2-1.1-0.3-0.9-1c0.3-1.5,1.8-2.8,3.4-2.9c0.2,0,0.4,0,0.6,0
	C31.4,28.4,31.4,28.3,31.5,28.3z"/>
<path class="st0" d="M25.9,35c-0.5,0.5-0.9,0.9-1.4,1.2c-0.2,0.2-0.5,0.2-0.8,0c-0.4-0.4-0.7-0.8-1.1-1.2
	C22.9,34.7,25.3,34.7,25.9,35z"/>
</svg>
